<svg width="85" height="69" viewBox="0 0 85 69" fill="none" xmlns="http://www.w3.org/2000/svg">
<path d="M50.9184 9.55072L50.9453 11.0913L48.2951 9.61177L48.4116 18.032L46.8708 17.1739L46.7546 8.76897L44.1048 7.30471L44.0931 5.76389L50.9184 9.55072Z" fill="#286CFE"/>
<path d="M40.38 3.70777L40.5118 12.1277L44.3636 14.2728L44.3902 15.7981L38.9979 12.8102L38.8548 2.8647L40.38 3.70777Z" fill="#286CFE"/>
<path d="M60.4088 14.8167L57.1316 22.8689L55.2058 21.804L51.627 9.9502L53.3678 10.9116L56.1278 20.4299L58.6679 13.8553L60.4088 14.8167Z" fill="#286CFE"/>
<path d="M16.2888 23.2907C16.5379 24.1907 16.662 25.1208 16.6573 26.0546C16.7534 26.8141 16.6472 27.5855 16.3495 28.2909C16.0518 28.9962 15.5733 29.6104 14.9621 30.0715C14.1303 30.3937 13.2325 30.5084 12.3463 30.4056C11.4602 30.3029 10.6125 29.9859 9.87651 29.4819V32.7249L7.37047 31.2876V28.0446C4.28467 26.0516 1.75001 23.3143 0 20.0846L2.06383 18.0207C3.33851 20.4499 5.12364 22.5745 7.2968 24.2488V17.3206C6.30179 16.4362 5.49102 15.6991 4.86453 15.0726C4.13298 14.3128 3.44402 13.5131 2.80081 12.6772C2.10539 11.788 1.55786 10.7924 1.1793 9.72896C0.840705 8.68113 0.666717 7.58722 0.663427 6.48605C0.565143 5.76196 0.684351 5.02498 1.00588 4.36879C1.32741 3.71261 1.83671 3.16684 2.46916 2.80081C3.26984 2.52404 4.12231 2.42996 4.96407 2.52561C5.80582 2.62127 6.61552 2.9042 7.33369 3.35358V0L9.83962 1.43718V4.82765C12.3958 6.66243 14.5419 9.00935 16.1413 11.719L14.004 13.6354C12.9422 11.7397 11.5289 10.0636 9.83962 8.6971V14.962L11.7928 16.8047C12.4423 17.4214 13.0575 18.0735 13.6354 18.7578C14.2197 19.4446 14.738 20.1849 15.1833 20.969C15.6338 21.7011 16.0044 22.4795 16.2888 23.2907ZM12.1982 25.9072C12.4426 25.7247 12.6379 25.4843 12.7665 25.2078C12.8951 24.9312 12.9531 24.6271 12.9352 24.3226C12.9151 23.5001 12.6452 22.7032 12.1613 22.0377C11.5102 21.1193 10.7559 20.2784 9.91329 19.5317V25.7597C10.2796 25.919 10.6747 26.0012 11.0741 26.0012C11.4736 26.0012 11.8687 25.919 12.235 25.7597L12.1982 25.9072ZM7.44424 12.5298V6.92826C7.12412 6.74246 6.7695 6.62374 6.40204 6.57939C6.03457 6.53504 5.66188 6.56596 5.30674 6.67026C5.03476 6.81794 4.81468 7.04562 4.67627 7.32244C4.53786 7.59926 4.48782 7.91191 4.53288 8.21811C4.53288 9.34825 5.49103 10.7854 7.40735 12.5298" fill="#276BFF"/>
<path d="M36.2997 27.8603C36.636 29.4346 36.7966 31.0413 36.7788 32.6511C36.8026 34.0785 36.6415 35.5031 36.2997 36.8892C36.0236 38.0174 35.5083 39.073 34.7887 39.9848C34.4797 40.3993 34.08 40.7377 33.6201 40.974C33.1602 41.2103 32.6523 41.3384 32.1354 41.3483C30.8273 41.3719 29.5426 40.9993 28.4501 40.2795C27.0405 39.4086 25.7935 38.2988 24.7649 36.9997C23.6773 35.6642 22.7954 34.1736 22.1484 32.5774C21.513 31.0284 21.0196 29.4249 20.6743 27.7866C20.3564 26.2095 20.1959 24.6046 20.1952 22.9958C20.1851 21.5668 20.3586 20.1425 20.7112 18.7578C20.9986 17.6406 21.4991 16.5895 22.1853 15.6622C22.5115 15.2693 22.9158 14.9485 23.3726 14.7201C23.8294 14.4917 24.3286 14.3607 24.8387 14.3354C26.1426 14.3416 27.419 14.7118 28.5239 15.4042C29.9405 16.2656 31.1892 17.377 32.2091 18.6841C33.3015 20.0027 34.184 21.4819 34.8256 23.0695C35.494 24.6065 35.9885 26.2134 36.2997 27.8603ZM31.9511 36.0784C32.8101 34.3547 33.2039 32.4364 33.0936 30.5137C33.0944 28.9814 32.9588 27.4522 32.6882 25.944C32.3997 24.5454 31.8896 23.2017 31.1773 21.9639C30.5385 20.8129 29.6114 19.8478 28.487 19.1632C28.1043 18.8665 27.6467 18.6818 27.1652 18.6298C26.6837 18.5777 26.1973 18.6603 25.76 18.8683C25.3697 19.1133 25.0342 19.4361 24.7742 19.8165C24.5143 20.1969 24.3355 20.6269 24.249 21.0795C23.9455 22.4091 23.7971 23.7695 23.8068 25.1333C23.7716 27.4923 24.1585 29.8387 24.9492 32.0615C25.5906 33.9488 26.9018 35.5353 28.6345 36.5206C30.2191 37.4419 31.3615 37.2945 32.1354 36.0784" fill="#276BFF"/>
<path d="M41.8644 42.97C42.5147 43.3759 43.0581 43.932 43.449 44.5915C43.8368 45.2523 44.0523 46 44.0755 46.7658C44.1059 47.0378 44.0599 47.3128 43.9427 47.5601C43.8256 47.8075 43.6418 48.0174 43.4121 48.1662C43.1756 48.2986 42.9092 48.368 42.6382 48.368C42.3673 48.368 42.1008 48.2986 41.8644 48.1662C41.2506 47.7524 40.737 47.2068 40.3608 46.5692C39.9847 45.9317 39.7555 45.2183 39.6901 44.481C39.6553 44.2086 39.6993 43.9319 39.8168 43.6837C39.9344 43.4355 40.1206 43.2262 40.3534 43.0806C40.57 42.9233 40.8261 42.8295 41.0931 42.81C41.36 42.7904 41.6272 42.8459 41.8644 42.97Z" fill="#276BFF"/>
<path d="M55.5736 31.0663C57.7432 32.3426 59.5953 34.094 60.9909 36.1888C62.3722 38.1557 63.1298 40.4927 63.1652 42.8959C63.2 43.8302 63.0108 44.7593 62.6133 45.6056C62.2158 46.4519 61.6216 47.1907 60.8803 47.7604C58.7768 49.1866 56.4466 50.2458 53.989 50.8929L63.2388 56.2365V59.9218L48.0926 51.1509V47.8342C51.1865 47.065 54.1888 45.9653 57.0477 44.5543C57.7388 44.2126 58.3237 43.689 58.7393 43.0396C59.1549 42.3902 59.3855 41.6397 59.4063 40.869C59.4276 39.6528 59.0524 38.4627 58.3375 37.4786C57.6296 36.4611 56.7123 35.6067 55.6472 34.9727C54.8546 34.3337 53.884 33.9554 52.868 33.8894C51.8521 33.8234 50.8406 34.073 49.9721 34.6041L47.8715 30.5872C48.3506 30.224 48.8967 29.9589 49.4785 29.8072C50.0603 29.6554 50.6663 29.6199 51.2618 29.7028C52.7796 29.8457 54.2496 30.3105 55.5736 31.0663Z" fill="#276BFF"/>
<path d="M83.5442 55.1312C83.8739 56.7072 84.0468 58.312 84.0602 59.9221C84.053 61.35 83.8798 62.7721 83.5442 64.1601C83.253 65.2827 82.7391 66.3354 82.0333 67.2556C81.7262 67.6634 81.332 67.9975 80.8793 68.2334C80.4266 68.4693 79.9269 68.6011 79.4168 68.6192C78.109 68.6404 76.825 68.2681 75.7316 67.5504C74.3139 66.6903 73.0651 65.5789 72.0463 64.2706C70.9671 62.9428 70.0858 61.4656 69.4298 59.8852C68.7777 58.3295 68.2838 56.7121 67.9557 55.0575C67.6357 53.4807 67.4753 51.8756 67.4767 50.2667C67.4666 48.8377 67.6399 47.4134 67.9925 46.0287C68.2639 44.9057 68.7659 43.8515 69.4666 42.9331C69.7928 42.5402 70.1971 42.2193 70.6539 41.991C71.1107 41.7626 71.6099 41.6317 72.12 41.6064C73.4245 41.6086 74.7019 41.979 75.8052 42.6751C77.2139 43.5472 78.4608 44.657 79.4905 45.955C80.581 47.2817 81.4747 48.7587 82.1438 50.3404C82.7547 51.8917 83.2235 53.4951 83.5442 55.1312ZM79.1588 63.3862C80.0241 61.6515 80.4181 59.7196 80.3012 57.7846C80.3043 56.2644 80.1686 54.7473 79.8959 53.2518C79.6195 51.8496 79.1087 50.504 78.3849 49.2717C77.76 48.1008 76.8305 47.1205 75.6947 46.4341C75.3083 46.1449 74.8513 45.9648 74.3715 45.9129C73.8917 45.8611 73.4068 45.9392 72.9676 46.1392C72.5777 46.3932 72.2429 46.7232 71.9833 47.1094C71.7238 47.4957 71.5446 47.9303 71.4567 48.3873C70.6628 52.0663 70.9052 55.8935 72.1569 59.443C72.7308 61.3119 73.9784 62.901 75.6578 63.9021C77.2424 64.8234 78.3849 64.676 79.1588 63.4967" fill="#276BFF"/>
</svg>
