<svg width="85" height="69" viewBox="0 0 85 69" fill="none" xmlns="http://www.w3.org/2000/svg">
<path d="M16.1899 23.2913C16.4707 24.1838 16.6073 25.1154 16.5946 26.051C16.6905 26.8093 16.5846 27.5795 16.2874 28.2838C15.9902 28.988 15.5122 29.6013 14.902 30.0617C14.0698 30.3741 13.175 30.4837 12.292 30.3813C11.4089 30.279 10.5629 29.9675 9.82427 29.4729V32.7109L7.35905 31.276V28.038C4.27803 26.0481 1.7473 23.3149 0 20.0902L2.06052 18.0296C3.33323 20.4551 5.11559 22.5764 7.28539 24.2481V17.3305L4.82017 15.086C4.19465 14.3869 3.49547 13.6142 2.79636 12.6943C2.11705 11.7966 1.5718 10.8051 1.17747 9.75072C0.841898 8.69128 0.668175 7.58719 0.662287 6.47589C0.564155 5.75292 0.683178 5.01708 1.00421 4.36191C1.32524 3.70674 1.83376 3.16183 2.46522 2.79636C3.26329 2.51195 4.1159 2.41391 4.95772 2.50957C5.79954 2.60523 6.6083 2.89204 7.32222 3.34827V0L9.82427 1.43496V4.82017C12.3826 6.63413 14.5168 8.98172 16.0795 11.7009L13.9821 13.6142C12.9112 11.7182 11.4874 10.0446 9.78755 8.68363V15.0124C10.5602 15.7115 11.2226 16.3002 11.7377 16.8522C12.3832 17.4596 12.9856 18.1112 13.5406 18.8023C14.1466 19.4786 14.6771 20.2189 15.1228 21.0101C15.5718 21.7233 15.9302 22.4896 16.1899 23.2913ZM12.1424 25.9038C12.3869 25.7136 12.5817 25.467 12.7099 25.185C12.8381 24.903 12.8959 24.594 12.8783 24.2848C12.8532 23.4758 12.5838 22.6934 12.1057 22.0403C11.4538 21.1024 10.6874 20.2495 9.82427 19.5014V25.7567C10.19 25.9157 10.5845 25.9976 10.9833 25.9976C11.3821 25.9976 11.7767 25.9157 12.1424 25.7567V25.9038ZM7.35905 12.5471V6.95424C7.04695 6.7504 6.69213 6.62116 6.32205 6.5765C5.95197 6.53183 5.57649 6.57291 5.22486 6.69665C4.70973 6.91742 4.45219 7.4326 4.45219 8.2421C4.45219 9.0516 5.40887 10.4865 7.32222 12.5471" fill="#276BFF"/>
<path d="M36.2066 27.8541C36.5442 29.4257 36.7047 31.0302 36.685 32.6375C36.7063 34.0626 36.5455 35.4846 36.2066 36.869C35.9236 37.9927 35.4099 39.0453 34.698 39.9598C34.3757 40.3588 33.9735 40.6861 33.5173 40.9205C33.0611 41.155 32.5608 41.2914 32.0488 41.3212C30.7414 41.3162 29.4634 40.9329 28.3692 40.2174C26.956 39.3708 25.709 38.2735 24.6897 36.9794C23.6116 35.6405 22.7318 34.1534 22.0773 32.5639C21.4428 31.0173 20.9502 29.4163 20.6055 27.7805C20.288 26.2059 20.1277 24.6036 20.1271 22.9972C20.1146 21.5704 20.2877 20.1478 20.6422 18.7657C20.9219 17.6476 21.4223 16.5968 22.114 15.6749C22.4363 15.2758 22.8385 14.9486 23.2947 14.7141C23.751 14.4797 24.2512 14.3432 24.7633 14.3135C26.0682 14.3345 27.3418 14.7165 28.4428 15.4173C29.8481 16.2746 31.0933 17.3704 32.1223 18.6553C33.2051 19.9774 34.0856 21.4531 34.7349 23.0339C35.3975 24.583 35.891 26.1991 36.2066 27.8541ZM31.828 36.0595C32.692 34.3274 33.0853 32.3987 32.9686 30.4666C32.9717 28.9489 32.8363 27.4339 32.5639 25.9408C32.2821 24.5425 31.7724 23.2 31.0553 21.9669C30.4261 20.8114 29.4985 19.8457 28.3692 19.1705C27.9853 18.8793 27.5309 18.6952 27.0525 18.637C26.5742 18.5788 26.089 18.6486 25.6464 18.8393C24.8769 19.3689 24.3375 20.1712 24.1378 21.0838C23.8145 22.4079 23.666 23.7686 23.6963 25.1313C23.668 27.4711 24.0413 29.7984 24.8001 32.012C25.4465 33.893 26.754 35.4751 28.4796 36.4642C30.0986 37.3841 31.2393 37.2369 32.1591 36.0595" fill="#276BFF"/>
<path d="M41.7627 42.9403C42.386 43.3456 42.9088 43.8876 43.2913 44.5252C43.6738 45.1628 43.906 45.8791 43.9703 46.6199C44.0034 46.8969 43.9591 47.1777 43.8422 47.431C43.7253 47.6844 43.5403 47.9004 43.308 48.0549C43.0719 48.1871 42.8059 48.2564 42.5354 48.2564C42.2648 48.2564 41.9988 48.1871 41.7627 48.0549C41.1269 47.6406 40.6076 47.0706 40.2541 46.3991C39.8101 45.7633 39.5782 45.0035 39.5917 44.2282C39.5488 43.9603 39.5893 43.6857 39.7076 43.4415C39.8258 43.1973 40.0163 42.9953 40.2531 42.8628C40.4899 42.7304 40.7617 42.6739 41.0317 42.7009C41.3017 42.7279 41.5568 42.8371 41.7627 43.0139V42.9403Z" fill="#276BFF"/>
<path d="M62.5888 35.544V39.2236L52.5437 33.41V40.3643C53.321 40.0359 54.1727 39.924 55.0084 40.0406C55.8441 40.1572 56.6327 40.498 57.2904 41.0266C59.2709 42.2587 60.9155 43.962 62.0776 45.9845C63.2397 48.0069 63.8831 50.2855 63.9503 52.6171C63.9503 55.0824 63.1776 56.591 61.7426 57.2533C60.7597 57.5267 59.7269 57.5692 58.7249 57.3778C57.7228 57.1863 56.7785 56.7659 55.9657 56.1494C52.6397 54.2214 49.9432 51.3716 48.2019 47.9441L50.336 46.2883C51.593 48.8091 53.5468 50.9162 55.9657 52.3595C56.4023 52.6863 56.9062 52.912 57.4407 53.0202C57.9753 53.1284 58.5271 53.1164 59.0565 52.9851C59.472 52.7623 59.8084 52.4163 60.0192 51.9946C60.2301 51.5729 60.3051 51.0962 60.2339 50.6301C60.2091 49.3258 59.8274 48.0532 59.1301 46.9506C58.3619 45.7395 57.3146 44.7302 56.0761 44.007C55.4235 43.5232 54.6561 43.2178 53.8496 43.1211C53.043 43.0243 52.2251 43.1394 51.4767 43.4551L48.8642 41.1002V27.6699L62.5888 35.544Z" fill="#276BFF"/>
<path d="M83.5251 55.1562C83.8732 56.7392 84.046 58.3557 84.0402 59.9764C84.0505 61.391 83.8773 62.8009 83.5251 64.171C83.2297 65.2834 82.7307 66.3315 82.0533 67.2619C81.7344 67.6677 81.3338 68.0019 80.8774 68.2428C80.421 68.4837 79.919 68.6258 79.404 68.66C78.0957 68.6615 76.8159 68.2776 75.7245 67.5562C74.3041 66.7195 73.0555 65.6207 72.045 64.3182C70.9423 62.9898 70.0489 61.5009 69.3957 59.9029C68.7664 58.3544 68.2739 56.7538 67.9239 55.1194C67.6225 53.53 67.4625 51.9169 67.4456 50.2992C67.4353 48.8846 67.6086 47.4747 67.9607 46.1046C68.2364 44.9782 68.7509 43.9241 69.4694 43.0137C69.7777 42.6085 70.1718 42.2764 70.6234 42.0411C71.075 41.8058 71.573 41.673 72.0818 41.6523C73.3876 41.6675 74.6628 42.0501 75.7613 42.7563C77.1602 43.6223 78.4039 44.7169 79.4408 45.9943C80.5107 47.3255 81.3899 48.7991 82.0533 50.3728C82.6883 51.9192 83.1809 53.5203 83.5251 55.1562ZM79.1464 63.3983C80.0275 61.6722 80.4219 59.7388 80.2872 57.8055C80.3271 56.2864 80.1912 54.7676 79.8824 53.2797C79.6133 51.8832 79.116 50.5407 78.4106 49.3058C77.7712 48.1456 76.8305 47.1794 75.6878 46.5093C75.3133 46.1992 74.8576 46.0031 74.3749 45.9444C73.8922 45.8857 73.4028 45.9669 72.9648 46.1782C72.5755 46.4318 72.2413 46.7613 71.9821 47.1469C71.7229 47.5326 71.544 47.9664 71.4562 48.4227C71.1329 49.7467 70.9844 51.1075 71.0147 52.4702C70.9893 54.8098 71.3627 57.1366 72.1186 59.3508C72.768 61.2302 74.0748 62.8115 75.7981 63.8032C77.3803 64.723 78.5577 64.5758 79.2936 63.3983" fill="#276BFF"/>
<path d="M50.9184 7.87348L50.9453 9.41403L48.2951 7.93452L48.4116 16.3547L46.8708 15.4967L46.7546 7.09172L44.1048 5.62747L44.0931 4.08665L50.9184 7.87348Z" fill="#286CFE"/>
<path d="M40.38 2.03052L40.5118 10.4505L44.3636 12.5956L44.3902 14.1209L38.9979 11.133L38.8548 1.18746L40.38 2.03052Z" fill="#286CFE"/>
<path d="M60.4088 13.1394L57.1316 21.1917L55.2058 20.1267L51.627 8.27295L53.3678 9.23431L56.1278 18.7527L58.6679 12.1781L60.4088 13.1394Z" fill="#286CFE"/>
</svg>
