<svg width="85" height="70" viewBox="0 0 85 70" fill="none" xmlns="http://www.w3.org/2000/svg">
<path d="M17.1451 24.4151C17.4136 25.3146 17.5546 26.2473 17.5639 27.186C17.6737 27.9475 17.5806 28.7245 17.2939 29.4384C17.0071 30.1524 16.5369 30.778 15.9309 31.252C15.0988 31.5811 14.2003 31.7072 13.3097 31.6196C12.4192 31.5321 11.5625 31.2335 10.8104 30.7487L10.8705 34.1926L8.36421 32.7916L8.30733 29.533C5.16347 27.5947 2.56627 24.8861 0.761582 21.6637L2.79909 19.5537C4.12255 21.9723 5.95369 24.0759 8.16674 25.7202L8.04522 18.7584C7.02988 17.8871 6.20226 17.1606 5.56175 16.5421C4.81333 15.7915 4.10701 15 3.44603 14.1713C2.7466 13.2799 2.18033 12.2916 1.76496 11.2374C1.40862 10.177 1.21439 9.06893 1.18895 7.95062C1.07749 7.22476 1.18435 6.48212 1.49592 5.81712C1.8075 5.15212 2.30981 4.59478 2.93889 4.21588C3.73708 3.91564 4.5933 3.80188 5.44219 3.88336C6.29108 3.96485 7.11005 4.2394 7.83655 4.686L7.77773 1.3162L10.3211 2.71649L10.3806 6.12336C12.9872 7.90399 15.1762 10.2291 16.7966 12.9382L14.7194 14.9006C13.6083 13.0113 12.146 11.352 10.4114 10.0122L10.52 16.2333C11.3099 16.9233 11.9868 17.5042 12.5149 18.0506C13.1784 18.659 13.808 19.3034 14.4007 19.9809C14.9999 20.6607 15.5336 21.3955 15.9947 22.1756C16.4552 22.88 16.8408 23.6306 17.1451 24.4151ZM13.0806 27.116C13.3233 26.9204 13.515 26.6688 13.6391 26.3827C13.7631 26.0966 13.8159 25.7847 13.7928 25.4738C13.7532 24.66 13.4684 23.8772 12.9757 23.2284C12.3073 22.3039 11.5343 21.4598 10.6722 20.7127L10.7821 27.008C11.1529 27.1616 11.5514 27.2372 11.9528 27.2302C12.3541 27.2232 12.7498 27.1337 13.115 26.9672L13.0806 27.116ZM8.06904 13.7573L7.97403 8.31375C7.65635 8.11409 7.29699 7.99026 6.92376 7.95181C6.55052 7.91336 6.17337 7.96129 5.82166 8.092C5.30711 8.32324 5.05698 8.84624 5.0712 9.66091C5.08542 10.4756 6.07342 11.9029 8.03521 13.943" fill="#276BFF"/>
<path d="M37.3329 28.6561C37.7002 30.2318 37.8898 31.8437 37.8983 33.4616C37.9448 34.8954 37.808 36.3293 37.4912 37.7285C37.2261 38.8644 36.7276 39.9329 36.0272 40.8657C35.7099 41.273 35.3109 41.6094 34.8558 41.8533C34.4008 42.0973 33.8998 42.2434 33.3849 42.2823C32.0697 42.2961 30.778 41.933 29.6625 41.236C28.2318 40.3997 26.9591 39.3186 25.9025 38.0419C24.794 36.7134 23.8825 35.2324 23.1958 33.6442C22.5301 32.0989 22.0062 30.4961 21.6306 28.856C21.2834 27.2768 21.094 25.6671 21.0651 24.0505C21.0274 22.6147 21.1767 21.1801 21.5092 19.7829C21.771 18.6528 22.2563 17.5864 22.9362 16.6465C23.2536 16.2392 23.6525 15.9028 24.1075 15.6588C24.5625 15.4149 25.0637 15.2687 25.5785 15.2298C26.8921 15.2281 28.1806 15.5902 29.301 16.2761C30.7303 17.1142 32.0027 18.1951 33.0609 19.4701C34.1739 20.7817 35.0858 22.2513 35.767 23.8309C36.4611 25.3782 36.9861 26.996 37.3329 28.6561ZM33.0703 36.9907C33.9094 35.2324 34.2714 33.2845 34.12 31.3421C34.0964 29.8145 33.9335 28.2923 33.6332 26.7944C33.325 25.3921 32.7885 24.05 32.0452 22.8216C31.3916 21.6698 30.4411 20.7142 29.2928 20.0544C28.9012 19.7681 28.4408 19.5908 27.9584 19.5407C27.4759 19.4905 26.9887 19.5693 26.5467 19.769C25.7815 20.3155 25.2528 21.1326 25.0679 22.0544C24.7842 23.3955 24.6589 24.7653 24.6946 26.1356C24.7008 28.4946 25.1306 30.8332 25.9634 33.0403C26.5729 34.8974 27.8382 36.4687 29.5225 37.4602C31.168 38.3575 32.3134 38.1893 33.2185 36.9882" fill="#276BFF"/>
<path d="M43.1896 43.741C43.8378 44.1223 44.3841 44.6546 44.7822 45.2926C45.1803 45.9306 45.4185 46.6555 45.4761 47.4053C45.5143 47.6835 45.4745 47.9669 45.3613 48.2239C45.2481 48.4809 45.0658 48.7014 44.8347 48.861C44.5994 48.9982 44.3329 49.0727 44.0606 49.0775C43.7883 49.0822 43.5194 49.017 43.2795 48.8882C42.6324 48.4824 42.0997 47.9179 41.7321 47.2484C41.2984 46.6042 41.0543 45.8512 41.0274 45.0751C40.9796 44.8062 41.0155 44.5292 41.1303 44.2813C41.245 44.0335 41.4331 43.8269 41.6691 43.6894C41.9051 43.552 42.1775 43.4903 42.4497 43.5128C42.7219 43.5352 42.9806 43.6407 43.1909 43.815L43.1896 43.741Z" fill="#276BFF"/>
<path d="M64.7499 43.846C65.1154 45.422 65.3049 47.0338 65.3152 48.6517C65.3617 50.0855 65.225 51.5194 64.9083 52.9186C64.6506 54.0571 64.1513 55.1269 63.4443 56.0556C63.1391 56.4756 62.7429 56.8212 62.2854 57.0666C61.8278 57.3119 61.3207 57.4506 60.802 57.4723C59.4818 57.5251 58.1788 57.1589 57.0795 56.426C55.6343 55.6104 54.3582 54.5263 53.3196 53.232C52.2032 51.9091 51.2908 50.4269 50.6128 48.8343C49.9471 47.2889 49.4232 45.6862 49.0475 44.0461C48.7003 42.4669 48.5109 40.8571 48.4821 39.2405C48.4444 37.8047 48.5937 36.3702 48.9262 34.973C49.1954 33.8453 49.6799 32.7802 50.3531 31.8364C50.674 31.4359 51.0747 31.1064 51.5296 30.8689C51.9846 30.6314 52.484 30.4911 52.9961 30.4568C54.3085 30.4236 55.602 30.7744 56.7179 31.4661C58.1565 32.3069 59.4306 33.4016 60.4785 34.6972C61.5993 36.003 62.512 37.4739 63.1845 39.0579C63.8832 40.5906 64.4083 42.1966 64.7499 43.846ZM60.4874 52.1808C61.3203 50.4337 61.6824 48.4992 61.5377 46.5691C61.5139 45.0293 61.3507 43.4948 61.0502 41.9844C60.7419 40.5822 60.2054 39.2401 59.4621 38.0117C58.8001 36.8663 57.8516 35.9126 56.7098 35.2445C56.32 34.9531 55.857 34.7755 55.3722 34.7317C54.8875 34.6878 54.4001 34.7794 53.9643 34.9961C53.5764 35.2492 53.2449 35.5794 52.9904 35.9662C52.7358 36.353 52.5638 36.7881 52.4849 37.2444C52.1848 38.5829 52.0593 39.9548 52.1115 41.3255C52.1145 43.6848 52.5444 46.024 53.3804 48.2302C53.9928 50.0857 55.2574 51.6561 56.9395 52.6503C58.5856 53.5846 59.731 53.4164 60.6354 52.1782" fill="#276BFF"/>
<path d="M76.0567 42.2411C78.2465 43.4195 80.1476 45.0688 81.6232 47.0705C82.9607 48.7639 83.7235 50.8397 83.8009 52.9963C83.8949 53.5631 83.82 54.1449 83.5854 54.6694C83.3508 55.1939 82.967 55.6377 82.4819 55.9455C81.9801 56.1846 81.4329 56.3133 80.8771 56.323C80.3214 56.3327 79.77 56.2231 79.2602 56.0017C80.6268 56.9752 81.7824 58.2151 82.6576 59.6466C83.6753 61.1237 84.2458 62.8628 84.3008 64.6557C84.3377 66.7665 83.6191 68.0384 82.1807 68.3969C81.1868 68.5967 80.1626 68.5903 79.1713 68.3782C78.18 68.1662 77.2427 67.7529 76.4176 67.1639C74.6222 66.2214 72.9881 64.9996 71.5761 63.5443C70.2679 62.1754 69.1675 60.6222 68.3099 58.9341L70.2812 57.2698C71.0112 58.5948 71.9036 59.8236 72.9379 60.9276C73.9033 61.9574 75.0174 62.8369 76.2432 63.537C77.1868 64.1952 78.3362 64.4907 79.4803 64.3694C80.2534 64.0966 80.6121 63.4236 80.5921 62.2757C80.5526 60.0168 78.9618 58.0072 75.8572 56.2834C74.3988 55.4939 73.6129 55.0261 73.3894 54.9559L73.3248 51.2529L75.7945 52.6914C76.7168 53.3129 77.8103 53.6306 78.922 53.5999C79.7367 53.5857 80.0959 52.9498 80.0772 51.8759C80.0358 50.7172 79.6127 49.6046 78.8736 48.7112C78.02 47.6393 76.9588 46.7508 75.7536 46.0987C74.9641 45.5468 74.0382 45.2224 73.0769 45.1608C72.1156 45.0992 71.1558 45.3027 70.3023 45.7493L68.3491 42.0792C70.2066 40.2688 72.767 40.5205 76.0567 42.2411Z" fill="#276BFF"/>
<path d="M51.9184 9.55048L51.9453 11.091L49.2951 9.61152L49.4116 18.0317L47.8708 17.1737L47.7546 8.76873L45.1048 7.30447L45.0931 5.76365L51.9184 9.55048Z" fill="#286CFE"/>
<path d="M41.38 3.70777L41.5118 12.1277L45.3636 14.2728L45.3902 15.7981L39.9979 12.8102L39.8548 2.8647L41.38 3.70777Z" fill="#286CFE"/>
<path d="M61.4088 14.8164L58.1316 22.8687L56.2058 21.8037L52.627 9.94995L54.3678 10.9113L57.1278 20.4297L59.6679 13.8551L61.4088 14.8164Z" fill="#286CFE"/>
</svg>
