<svg width="270" height="359" viewBox="0 0 270 359" fill="none" xmlns="http://www.w3.org/2000/svg">
<g opacity="0.6" filter="url(#filter0_f)">
<path fill-rule="evenodd" clip-rule="evenodd" d="M18.1321 15.3995C15.4661 13.9241 12.1953 15.8523 12.1953 18.8993L12.1953 210.968C12.1953 212.423 12.9854 213.763 14.2585 214.468L251.424 345.715C254.09 347.19 257.361 345.262 257.361 342.215V150.146C257.361 148.691 256.571 147.351 255.297 146.646L18.1321 15.3995Z" fill="#DBE0E7"/>
</g>
<path fill-rule="evenodd" clip-rule="evenodd" d="M13.2929 1.6891C10.986 0.412486 4.40625 0.824606 4.40625 3.46116L8.15584 198.018C8.15584 199.277 8.83951 200.436 9.9411 201.046L244.668 334.867C246.975 336.144 253.321 332.498 253.321 329.861V136.561C253.321 135.302 252.637 134.142 251.536 133.532L13.2929 1.6891Z" fill="url(#paint0_linear)"/>
<path fill-rule="evenodd" clip-rule="evenodd" d="M13.0224 5.50498C9.02337 3.29193 4.11719 6.1842 4.11719 10.7547L4.11719 198.252C4.11719 200.434 5.30235 202.445 7.21199 203.501L240.377 332.535C244.376 334.748 249.282 331.855 249.282 327.285V139.788C249.282 137.605 248.097 135.595 246.188 134.538L13.0224 5.50498Z" fill="#F3F9FF"/>
<path d="M23.1535 10.3835L10.0326 3.22659C7.3671 1.77268 4.11719 3.70195 4.11719 6.73818V200.103C4.11719 201.567 4.91674 202.914 6.20178 203.615L23.1535 212.861V10.3835Z" fill="#276BFF"/>
<path d="M73.105 68.187L33.6133 45.7728C32.548 45.1682 31.2266 45.9376 31.2266 47.1625C31.2266 47.7376 31.5356 48.2684 32.0358 48.5523L71.5274 70.9665C72.5927 71.5711 73.9142 70.8016 73.9142 69.5767C73.9142 69.0016 73.6051 68.4709 73.105 68.187Z" fill="white"/>
<path d="M95.4031 69.5127L34.218 34.5885C32.8847 33.8275 31.2266 34.7902 31.2266 36.3255V37.702C31.2266 38.42 31.6115 39.083 32.2351 39.4389L93.4202 74.3632C94.7535 75.1242 96.4117 74.1614 96.4117 72.6262V71.2497C96.4117 70.5317 96.0267 69.8687 95.4031 69.5127Z" fill="white"/>
<path opacity="0.1" d="M15.7898 23.8433L12.2907 21.8709C10.9574 21.1195 9.30859 22.0828 9.30859 23.6132V29.2161C9.30859 29.938 9.69764 30.6039 10.3265 30.9584L13.8257 32.9307C15.1589 33.6822 16.8078 32.7188 16.8078 31.1884V25.5856C16.8078 24.8637 16.4187 24.1978 15.7898 23.8433Z" fill="white"/>
<path d="M234.284 152.219V150.633C234.284 149.279 233.555 148.031 232.376 147.366C229.876 145.957 226.785 147.763 226.785 150.633V152.219C226.785 153.572 227.515 154.821 228.694 155.485C231.193 156.894 234.284 155.088 234.284 152.219Z" fill="white"/>
<path d="M222.171 145.296V143.71C222.171 142.357 221.442 141.108 220.263 140.444C217.763 139.035 214.672 140.841 214.672 143.71V145.296C214.672 146.65 215.401 147.898 216.58 148.563C219.08 149.972 222.171 148.166 222.171 145.296Z" fill="white"/>
<path d="M210.058 138.374V136.788C210.058 135.435 209.328 134.186 208.149 133.522C205.65 132.113 202.559 133.919 202.559 136.788V138.374C202.559 139.727 203.288 140.976 204.467 141.64C206.967 143.049 210.058 141.243 210.058 138.374Z" fill="white"/>
<path opacity="0.1" d="M15.7898 48.6483L12.2907 46.6759C10.9574 45.9244 9.30859 46.8878 9.30859 48.4182V54.021C9.30859 54.7429 9.69764 55.4088 10.3265 55.7633L13.8257 57.7357C15.1589 58.4872 16.8078 57.5238 16.8078 55.9934V50.3905C16.8078 49.6686 16.4187 49.0027 15.7898 48.6483Z" fill="white"/>
<path opacity="0.1" d="M15.7898 73.4532L12.2907 71.4809C10.9574 70.7294 9.30859 71.6927 9.30859 73.2232V78.826C9.30859 79.5479 9.69764 80.2138 10.3265 80.5683L13.8257 82.5406C15.1589 83.2921 16.8078 82.3288 16.8078 80.7983V75.1955C16.8078 74.4736 16.4187 73.8077 15.7898 73.4532Z" fill="white"/>
<path opacity="0.1" d="M15.7898 98.2582L12.2907 96.2858C10.9574 95.5343 9.30859 96.4977 9.30859 98.0281V103.631C9.30859 104.353 9.69764 105.019 10.3265 105.373L13.8257 107.346C15.1589 108.097 16.8078 107.134 16.8078 105.603V100C16.8078 99.2785 16.4187 98.6127 15.7898 98.2582Z" fill="white"/>
<path opacity="0.1" d="M15.7898 123.063L12.2907 121.091C10.9574 120.339 9.30859 121.303 9.30859 122.833V128.436C9.30859 129.158 9.69764 129.824 10.3265 130.178L13.8257 132.151C15.1589 132.902 16.8078 131.939 16.8078 130.408V124.805C16.8078 124.084 16.4187 123.418 15.7898 123.063Z" fill="white"/>
<defs>
<filter id="filter0_f" x="0.195312" y="2.89357" width="269.165" height="355.327" filterUnits="userSpaceOnUse" color-interpolation-filters="sRGB">
<feFlood flood-opacity="0" result="BackgroundImageFix"/>
<feBlend mode="normal" in="SourceGraphic" in2="BackgroundImageFix" result="shape"/>
<feGaussianBlur stdDeviation="6" result="effect1_foregroundBlur"/>
</filter>
<linearGradient id="paint0_linear" x1="-2.22769" y1="77.2993" x2="267.744" y2="200.682" gradientUnits="userSpaceOnUse">
<stop stop-color="#E0E2E7"/>
<stop offset="0.825777" stop-color="#C9D1E6"/>
<stop offset="0.884467" stop-color="#93A0C5"/>
<stop offset="1" stop-color="#96A1BE"/>
</linearGradient>
</defs>
</svg>
