<svg width="125" height="280" viewBox="0 0 125 280" fill="none" xmlns="http://www.w3.org/2000/svg">
<g filter="url(#filter0_f)">
<path fill-rule="evenodd" clip-rule="evenodd" d="M14.9348 12.2798C12.2688 10.8064 9 12.7347 9 15.7807L9 211.956C9 213.412 9.79101 214.752 11.0652 215.457L111.065 270.72C113.731 272.194 117 270.265 117 267.219V71.0443C117 69.5885 116.209 68.2476 114.935 67.5434L14.9348 12.2798Z" fill="#DBE0E7"/>
</g>
<path fill-rule="evenodd" clip-rule="evenodd" d="M9.43475 3.27977C6.76879 1.80646 1 3.95401 1 7L3.5 202.956C3.5 204.412 4.29101 205.752 5.56524 206.457L103.5 263C106.166 264.473 111.5 261.265 111.5 258.219V62.0443C111.5 60.5885 110.709 59.2476 109.435 58.5434L9.43475 3.27977Z" fill="url(#paint0_linear)"/>
<path fill-rule="evenodd" clip-rule="evenodd" d="M6.2699 4.52864C3.59639 3.06906 0.337568 5.01413 0.353234 8.06008L1.36219 204.232C1.36968 205.688 2.16758 207.025 3.44542 207.723L103.728 262.471C106.402 263.931 109.661 261.986 109.645 258.94L108.636 62.7675C108.629 61.3116 107.831 59.9748 106.553 59.2772L6.2699 4.52864Z" fill="white"/>
<path fill-rule="evenodd" clip-rule="evenodd" d="M1 200.815V203.97C1 205.426 1.79101 206.767 3.06524 207.471L104.174 263.347C106.342 264.545 109 262.977 109 260.5L1 200.815Z" fill="#569FF5"/>
<defs>
<filter id="filter0_f" x="1" y="3.77499" width="124" height="275.45" filterUnits="userSpaceOnUse" color-interpolation-filters="sRGB">
<feFlood flood-opacity="0" result="BackgroundImageFix"/>
<feBlend mode="normal" in="SourceGraphic" in2="BackgroundImageFix" result="shape"/>
<feGaussianBlur stdDeviation="4" result="effect1_foregroundBlur"/>
</filter>
<linearGradient id="paint0_linear" x1="3.06221" y1="54.6109" x2="137.209" y2="92.8757" gradientUnits="userSpaceOnUse">
<stop stop-color="#E4E7EF"/>
<stop offset="0.727517" stop-color="#E5E9F2"/>
<stop offset="0.787361" stop-color="#C3CBE0"/>
<stop offset="1" stop-color="#ABB4CD"/>
</linearGradient>
</defs>
</svg>
