<svg width="28" height="32" viewBox="0 0 28 32" fill="none" xmlns="http://www.w3.org/2000/svg">
<g clip-path="url(#clip0)">
<path d="M4.34206 5.63576L1.60156 6.55297C2.66387 4.33244 4.49261 2.5704 6.75106 1.5913L9.49156 0.674133C7.23311 1.65323 5.40437 3.41523 4.34206 5.63576Z" fill="#3EAD7E"/>
<path d="M9.4905 0.674119L6.75 1.59129L7.30252 1.39239L10.043 0.47522C9.85516 0.530472 9.67836 0.607817 9.4905 0.674119Z" fill="#28734C"/>
<path d="M20.0119 30.1235L17.2714 31.0406C13.8347 32.1457 9.74607 31.2506 6.22098 28.0681C3.80093 25.8137 2.00105 22.9749 0.994141 19.8245L3.73464 18.9073C4.73746 22.0597 6.53797 24.8993 8.9615 27.1509C12.4755 30.3334 16.5642 31.2727 20.0119 30.1235Z" fill="#3EAD7E"/>
<path d="M3.74516 18.9515L1.00466 19.8687C-0.541201 15.5222 -0.327067 10.7437 1.60138 6.55295L4.34188 5.63574C2.41343 9.82651 2.1993 14.6051 3.74516 18.9515Z" fill="#35B477"/>
<path d="M4.34209 5.63574C7.65722 -0.917163 15.1936 -1.90065 21.0945 3.42565C26.9955 8.75195 29.0619 18.4321 25.7136 24.985C22.3653 31.5379 14.8621 32.5104 8.97222 27.1951C3.08234 21.8799 0.993813 12.1886 4.34209 5.63574Z" fill="#2CD282"/>
<path d="M18.4536 25.2825L17.6922 25.3225C17.4273 25.3363 17.1806 25.0615 16.9844 24.4854L17.7458 24.4454C17.953 25.0211 18.1888 25.2964 18.4646 25.282" fill="#7D94BA"/>
<path d="M17.7338 24.4461L16.973 24.497L16.5312 23.2476L17.3037 23.2071L17.7338 24.4461Z" fill="#7D94BA"/>
<path d="M17.5398 18.8681L16.7783 18.908C16.8065 18.8276 16.8281 18.7451 16.8429 18.6612L17.6043 18.6213C17.5879 18.7048 17.5664 18.7872 17.5398 18.8681Z" fill="#AFC0DB"/>
<path d="M17.6046 18.6213L16.8432 18.6612C16.8444 18.5653 16.8394 18.4695 16.8281 18.3743L17.5896 18.3344C17.6054 18.4328 17.6107 18.5327 17.6052 18.6323" fill="#95AACB"/>
<path d="M17.6327 18.3209L16.8713 18.3608C16.8773 18.2723 16.8727 18.1834 16.8574 18.0959L17.6189 18.056C17.6341 18.1434 17.6388 18.2324 17.6327 18.3209Z" fill="#95AACB"/>
<path d="M17.62 18.0561L16.8586 18.096C16.8583 17.9891 16.8527 17.8823 16.8418 17.776L17.6032 17.7361C17.6193 17.8383 17.6248 17.9418 17.6194 18.0451" fill="#95AACB"/>
<path d="M17.5594 17.7494L16.798 17.7893C16.7988 17.7414 16.7963 17.6934 16.7904 17.6458C16.5943 17.0696 16.2906 16.7647 15.8887 16.6972L16.6501 16.6573C17.0663 16.7166 17.3706 17.0326 17.5629 17.6054L17.5704 17.7488" fill="#7D94BA"/>
<path d="M16.607 16.6596L15.8456 16.6995C15.6287 16.6726 15.4098 16.6656 15.1916 16.6784L15.953 16.6385C16.1709 16.6145 16.3911 16.6216 16.607 16.6596Z" fill="#8397B8"/>
<path d="M14.5041 13.3174L13.7427 13.3573C14.0929 13.2836 14.4443 13.232 14.7847 13.181L15.5461 13.1411C15.204 13.159 14.8544 13.2437 14.5152 13.3168" fill="#95AACB"/>
<path d="M14.3006 20.5539L13.5391 20.5938C13.8933 20.4661 14.259 20.3728 14.6311 20.3153C15.007 20.2565 15.3734 20.148 15.7207 19.9926L16.4932 19.9521C16.1278 20.1096 15.7423 20.2155 15.3478 20.2667C14.9741 20.3212 14.6079 20.4183 14.2564 20.5562" fill="#BBCCE7"/>
<path d="M16.5486 19.9493L15.7761 19.9898C15.8989 19.9368 16.0177 19.8751 16.1316 19.8051C16.2331 19.7387 16.3256 19.6595 16.4069 19.5694L17.1794 19.5289C17.0987 19.6196 17.0061 19.6989 16.9041 19.7647L16.5491 19.9603" fill="#BBCCE7"/>
<path d="M17.1788 19.5179L16.4064 19.5584C16.5142 19.4421 16.6042 19.3106 16.6736 19.1681L17.4461 19.1276C17.3758 19.2696 17.2858 19.401 17.1788 19.5179Z" fill="#BBCCE7"/>
<path d="M17.4446 19.1276L16.6721 19.1681C16.7147 19.0806 16.7506 18.9899 16.7796 18.8969L17.541 18.857C17.5155 18.9459 17.4831 19.0327 17.444 19.1166" fill="#BBCCE7"/>
<path d="M13.1525 7.56771L12.3359 7.61051L12.5949 7.4863L13.3674 7.44582L13.1083 7.57003" fill="#BBCCE7"/>
<path d="M13.4326 7.44237L12.6601 7.48285C13.0225 7.31025 13.4073 7.18948 13.8032 7.12415L14.5205 7.08656C14.1421 7.14484 13.775 7.26113 13.432 7.43132" fill="#BBCCE7"/>
<path d="M15.3954 23.7608L14.634 23.8007C14.4343 23.8218 14.2326 23.8137 14.0352 23.7767C13.7578 23.7449 13.4946 23.6371 13.2746 23.465C13.0547 23.293 12.8867 23.0635 12.789 22.8019C12.7862 22.7467 12.7827 22.6805 12.7246 22.6282L13.4971 22.5877C13.4939 22.6467 13.497 22.7059 13.5063 22.7643C13.6029 23.0266 13.7706 23.2567 13.9908 23.4289C14.2109 23.6012 14.4747 23.7086 14.7525 23.7391C14.9503 23.7739 15.1514 23.7856 15.3519 23.7741" fill="#95AACB"/>
<path d="M13.529 22.575L12.7565 22.6154C12.7403 22.4985 12.7341 22.3803 12.738 22.2623L13.4995 22.2224C13.5133 22.3411 13.5379 22.4584 13.5732 22.5726" fill="#AFC0DB"/>
<path d="M13.4571 22.2247L12.6957 22.2646C12.6804 22.1772 12.6758 22.0883 12.6818 21.9998L13.4432 21.9599L13.4571 22.2247Z" fill="#AFC0DB"/>
<path d="M13.4434 21.9599L12.6819 21.9998C12.672 21.9118 12.6674 21.8234 12.668 21.7349L13.4405 21.6944C13.4398 21.7829 13.4445 21.8714 13.4544 21.9593" fill="#AFC0DB"/>
<path d="M13.4728 21.6927L12.7003 21.7332L12.7555 21.52C12.7815 21.4417 12.8146 21.3659 12.8543 21.2935L13.6157 21.2536C13.5819 21.3308 13.5528 21.4099 13.5286 21.4906C13.5 21.5548 13.4812 21.6229 13.4728 21.6927Z" fill="#BBCCE7"/>
<path d="M13.6164 21.2537L12.855 21.2936C12.918 21.1534 13.0049 21.0253 13.1118 20.9149L13.8732 20.875C13.7715 20.9895 13.6852 21.1168 13.6164 21.2537Z" fill="#BBCCE7"/>
<path d="M13.873 20.875L13.1115 20.9149C13.2081 20.8067 13.3184 20.7117 13.4397 20.6322L14.2012 20.5923C14.0821 20.6706 13.9718 20.7618 13.8724 20.864" fill="#BBCCE7"/>
<path d="M11.8618 5.94233L11.1445 5.97992L11.2659 5.97356L12.0384 5.93307L11.9094 6.00622" fill="#DAE4F6"/>
<path d="M12.0429 8.36725L11.2814 8.40715L10.9303 7.40752L11.6911 7.35658L12.0429 8.36725Z" fill="#95AACB"/>
<path d="M11.6917 7.35657L10.9192 7.39705C10.9151 7.3198 10.9117 7.25359 10.9082 7.18738L11.6696 7.14747C11.6878 7.21389 11.7097 7.27923 11.7352 7.34321" fill="#BBCCE7"/>
<path d="M11.6266 7.16074L10.8652 7.20064C10.8269 7.07916 10.7982 6.95488 10.7793 6.82892L11.5518 6.78844C11.5499 6.9138 11.5565 7.03914 11.5714 7.16363" fill="#BBCCE7"/>
<path d="M11.5544 6.83258L10.7819 6.87307L10.7715 6.67444L11.544 6.63396C11.5365 6.70399 11.5402 6.77477 11.5549 6.84363" fill="#BBCCE7"/>
<path d="M11.5409 6.57877L10.7684 6.61926L10.7598 6.45374L11.5212 6.41383C11.5187 6.46916 11.5216 6.52459 11.5299 6.57935" fill="#BBCCE7"/>
<path d="M11.5531 6.41214L10.7917 6.45204C10.8 6.38065 10.8227 6.3117 10.8585 6.24937L11.6199 6.20947C11.589 6.27386 11.5665 6.34198 11.5531 6.41214Z" fill="#BBCCE7"/>
<path d="M11.6211 6.20945L10.8597 6.24936C10.8831 6.18985 10.9178 6.13542 10.9619 6.08906L11.7234 6.04916C11.6828 6.09429 11.6483 6.14446 11.6205 6.19841" fill="#BBCCE7"/>
<path d="M11.7223 6.06026L10.9609 6.10017L11.0985 5.98229L11.86 5.94238L11.7223 6.06026Z" fill="#BBCCE7"/>
<path d="M14.0947 16.8688L13.3223 16.9093C12.8298 16.9533 12.3336 16.8965 11.8639 16.7422C11.4191 16.5368 11.0254 16.2354 10.7111 15.8596C10.3967 15.4839 10.1696 15.0431 10.0459 14.5691C9.9957 14.4417 9.95552 14.3106 9.92578 14.177L10.6872 14.1371L10.8074 14.5292C10.931 15.0032 11.1581 15.444 11.4725 15.8197C11.7868 16.1955 12.1806 16.4969 12.6254 16.7023C13.0986 16.8566 13.5991 16.9096 14.0941 16.8577" fill="#95AACB"/>
<path d="M10.689 14.1481L9.92761 14.188C9.82598 13.8522 9.75605 13.5076 9.71875 13.1588L10.4802 13.1188C10.5237 13.4667 10.5935 13.8108 10.689 14.1481Z" fill="#AFC0DB"/>
<path d="M10.4799 13.1189L9.71849 13.1588C9.68122 12.8698 9.66594 12.5783 9.6728 12.287L10.4342 12.2471C10.4274 12.5384 10.4427 12.8298 10.4799 13.1189Z" fill="#AFC0DB"/>
<path d="M10.4342 12.2471L9.67278 12.287C9.68142 11.9656 9.71646 11.6455 9.77754 11.3299L10.539 11.2899C10.4815 11.6061 10.4465 11.926 10.4342 12.2471Z" fill="#BBCCE7"/>
<path d="M10.5402 11.312L9.77874 11.3519C9.77065 11.2934 9.76755 11.2344 9.76949 11.1753C9.86425 10.7257 10.0162 10.2901 10.2216 9.87912L10.9831 9.83921C10.7843 10.253 10.6327 10.6878 10.5309 11.1354C10.5344 11.2017 10.5373 11.2568 10.5408 11.3231" fill="#BBCCE7"/>
<path d="M11.0238 9.80392L10.2403 9.84498C10.4708 9.36027 10.776 8.91485 11.1449 8.52503L11.9064 8.48513C11.5436 8.87985 11.239 9.3243 11.0018 9.80507" fill="#BBCCE7"/>
<path d="M11.9299 8.48384L11.1685 8.52375L11.2835 8.39598L12.0449 8.35608L11.9293 8.4728" fill="#BBCCE7"/>
<path d="M11.8621 5.94228C12.1188 5.7739 12.3076 5.78614 12.447 5.91163C12.6204 6.1103 12.7463 6.34592 12.815 6.60055L13.1517 7.53453C13.6764 7.23943 14.2618 7.06869 14.8628 7.03543C15.1922 7.00717 15.5213 7.09431 15.7935 7.2819C16.0658 7.4695 16.2643 7.74589 16.3553 8.06378C16.5329 8.40569 16.5776 8.80133 16.4807 9.17426C16.3837 9.5472 16.152 9.87101 15.8303 10.0831C15.5148 10.2618 15.1677 10.3777 14.8081 10.4244C14.463 10.4599 14.1292 10.5679 13.8288 10.7413C13.538 10.9245 13.309 11.191 13.1717 11.506C13.0277 11.8599 13.0208 12.2548 13.1523 12.6136C13.2085 12.8253 13.3263 13.0156 13.4908 13.1602C13.8005 13.3291 14.1606 13.3809 14.5054 13.3062C14.8556 13.2325 15.2181 13.1804 15.6026 13.127C16.5086 12.9128 17.4625 13.061 18.2607 13.5401C19.059 14.0192 19.6384 14.7913 19.8755 15.6916C20.3082 16.8882 20.3762 18.1862 20.071 19.4215C19.8368 20.5617 19.2386 21.595 18.3663 22.3658L18.8335 23.6802C19.0935 24.4191 19.0412 24.8976 18.6671 25.1496C18.293 25.4016 17.969 25.1309 17.7089 24.392L17.2678 23.1537C16.5185 23.5721 15.6594 23.7523 14.8051 23.67C14.5273 23.6395 14.2635 23.5321 14.0433 23.3599C13.8232 23.1877 13.6555 22.9575 13.5589 22.6952C13.3937 22.2957 13.3704 21.8517 13.493 21.4372C13.6003 21.0686 13.8399 20.7526 14.1658 20.5498C14.5454 20.3747 14.9501 20.2601 15.3652 20.2103C15.8946 20.1435 16.4051 19.97 16.8655 19.7002C17.1779 19.4911 17.4049 19.1769 17.5052 18.8146C17.6268 18.3999 17.6036 17.9562 17.4392 17.5566C17.2469 16.9839 16.9426 16.6679 16.5264 16.6085C16.0142 16.5516 15.496 16.5787 14.9925 16.6889C14.1866 16.8833 13.3446 16.8703 12.545 16.6512C12.1003 16.4458 11.7065 16.1444 11.3922 15.7686C11.0778 15.3928 10.8507 14.9521 10.7271 14.478C10.3541 13.3683 10.2917 12.1777 10.5466 11.035C10.7661 10.0021 11.2771 9.05365 12.019 8.30211L11.6672 7.29145C11.4455 6.6502 11.4985 6.18265 11.8621 5.94228Z" fill="white"/>
</g>
<defs>
<clipPath id="clip0">
<rect width="27.3166" height="31.56" fill="white"/>
</clipPath>
</defs>
</svg>
