<svg width="30" height="35" viewBox="0 0 30 35" fill="none" xmlns="http://www.w3.org/2000/svg">
<g clip-path="url(#clip0)">
<path d="M25.1592 6.17143L28.1602 7.17582C26.9969 4.74421 24.9943 2.81468 22.5212 1.74251L19.5202 0.738159C21.9933 1.81032 23.9959 3.73982 25.1592 6.17143Z" fill="#2BA96C"/>
<path d="M19.5185 0.738192L22.5195 1.74255L21.9145 1.52474L18.9135 0.520386C19.1192 0.58089 19.3128 0.665587 19.5185 0.738192Z" fill="#28734C"/>
<path d="M7.99867 32.9869L10.9997 33.9913C14.763 35.2014 19.2404 34.2212 23.1005 30.7362C25.7506 28.2674 27.7216 25.1589 28.8242 21.7089L25.8232 20.7046C24.7251 24.1566 22.7534 27.2662 20.0995 29.7318C16.2514 33.2168 11.7741 34.2454 7.99867 32.9869Z" fill="#2BA96C"/>
<path d="M25.8112 20.753L28.8122 21.7573C30.505 16.9977 30.2705 11.765 28.1588 7.17584L25.1578 6.17145C27.2695 10.7606 27.504 15.9934 25.8112 20.753Z" fill="#35B477"/>
<path d="M25.1584 6.17143C21.5281 -1.00437 13.2753 -2.08134 6.81348 3.75126C0.351633 9.58387 -1.91121 20.1842 1.75534 27.36C5.42189 34.5358 13.6384 35.6007 20.0881 29.7802C26.5379 23.9597 28.8249 13.3472 25.1584 6.17143Z" fill="#3BDC8E"/>
<path d="M9.70555 27.6859L10.5394 27.7296C10.8294 27.7448 11.0996 27.4439 11.3145 26.8129L10.4806 26.7692C10.2537 27.3996 9.99557 27.7011 9.69347 27.6853" fill="#7D94BA"/>
<path d="M10.4937 26.7698L11.3269 26.8256L11.8105 25.4575L10.9646 25.4131L10.4937 26.7698Z" fill="#7D94BA"/>
<path d="M10.7069 20.6617L11.5408 20.7054C11.5099 20.6173 11.4863 20.5269 11.4701 20.4351L10.6363 20.3914C10.6542 20.4828 10.6778 20.5731 10.7069 20.6617Z" fill="#AFC0DB"/>
<path d="M10.636 20.3914L11.4699 20.4351C11.4685 20.3301 11.474 20.2251 11.4863 20.1208L10.6525 20.0772C10.6351 20.185 10.6294 20.2944 10.6354 20.4035" fill="#95AACB"/>
<path d="M10.6022 20.0625L11.436 20.1062C11.4294 20.0093 11.4345 19.9119 11.4512 19.8162L10.6174 19.7725C10.6007 19.8682 10.5956 19.9656 10.6022 20.0625Z" fill="#95AACB"/>
<path d="M10.6185 19.7725L11.4523 19.8162C11.4526 19.6991 11.4587 19.5822 11.4707 19.4658L10.6369 19.4221C10.6193 19.5339 10.6133 19.6473 10.6192 19.7604" fill="#95AACB"/>
<path d="M10.6841 19.4366L11.5179 19.4803C11.517 19.4278 11.5198 19.3753 11.5262 19.3232C11.741 18.6923 12.0736 18.3583 12.5137 18.2844L11.6799 18.2407C11.2241 18.3057 10.8909 18.6518 10.6803 19.2789L10.6721 19.436" fill="#7D94BA"/>
<path d="M11.7272 18.2432L12.561 18.2869C12.7985 18.2575 13.0382 18.2498 13.2771 18.2639L12.4433 18.2202C12.2047 18.1939 11.9636 18.2016 11.7272 18.2432Z" fill="#8397B8"/>
<path d="M14.0303 14.5833L14.8641 14.627C14.4806 14.5463 14.0958 14.4898 13.7231 14.4339L12.8893 14.3902C13.2639 14.4099 13.6468 14.5026 14.0182 14.5827" fill="#95AACB"/>
<path d="M14.2555 22.5077L15.0893 22.5514C14.7015 22.4116 14.301 22.3094 13.8936 22.2464C13.4819 22.1821 13.0806 22.0633 12.7003 21.8931L11.8544 21.8487C12.2545 22.0212 12.6767 22.1371 13.1087 22.1932C13.5179 22.2528 13.9189 22.3592 14.3039 22.5103" fill="#BBCCE7"/>
<path d="M11.794 21.8455L12.6399 21.8899C12.5055 21.8319 12.3754 21.7644 12.2507 21.6877C12.1395 21.615 12.0382 21.5282 11.9491 21.4296L11.1033 21.3852C11.1916 21.4846 11.293 21.5714 11.4048 21.6434L11.7934 21.8576" fill="#BBCCE7"/>
<path d="M11.1033 21.3732L11.9492 21.4175C11.8312 21.2902 11.7325 21.1462 11.6565 20.9902L10.8106 20.9459C10.8877 21.1013 10.9862 21.2452 11.1033 21.3732Z" fill="#BBCCE7"/>
<path d="M10.8108 20.9458L11.6567 20.9902C11.61 20.8943 11.5707 20.795 11.5389 20.6932L10.7051 20.6495C10.7331 20.7469 10.7686 20.8419 10.8114 20.9338" fill="#BBCCE7"/>
<path d="M15.5115 8.28714L16.4058 8.33401L16.1221 8.198L15.2762 8.15366L15.5599 8.28968" fill="#BBCCE7"/>
<path d="M15.2034 8.14989L16.0493 8.19422C15.6526 8.00521 15.2312 7.87296 14.7976 7.80142L14.0121 7.76026C14.4265 7.82408 14.8285 7.95143 15.204 8.13779" fill="#BBCCE7"/>
<path d="M13.0538 26.0194L13.8876 26.0631C14.1063 26.0863 14.3272 26.0774 14.5433 26.0369C14.8471 26.0021 15.1354 25.884 15.3762 25.6956C15.617 25.5072 15.8011 25.2558 15.908 24.9694C15.9111 24.9089 15.9149 24.8364 15.9785 24.7792L15.1326 24.7348C15.1361 24.7995 15.1328 24.8643 15.1225 24.9282C15.0168 25.2154 14.8331 25.4675 14.592 25.6561C14.351 25.8447 14.0621 25.9623 13.7579 25.9957C13.5413 26.0338 13.321 26.0467 13.1015 26.034" fill="#95AACB"/>
<path d="M15.0982 24.7208L15.9441 24.7652C15.9619 24.6371 15.9687 24.5077 15.9644 24.3785L15.1306 24.3348C15.1154 24.4648 15.0884 24.5932 15.0499 24.7183" fill="#AFC0DB"/>
<path d="M15.1774 24.3373L16.0112 24.381C16.0279 24.2853 16.033 24.188 16.0264 24.091L15.1926 24.0473L15.1774 24.3373Z" fill="#AFC0DB"/>
<path d="M15.1916 24.0473L16.0254 24.091C16.0362 23.9947 16.0413 23.8979 16.0406 23.801L15.1947 23.7566C15.1954 23.8535 15.1903 23.9504 15.1795 24.0467" fill="#AFC0DB"/>
<path d="M15.1607 23.7548L16.0066 23.7991L15.9461 23.5657C15.9176 23.4799 15.8814 23.3969 15.8379 23.3177L15.0041 23.274C15.0411 23.3585 15.073 23.4451 15.0996 23.5334C15.1308 23.6038 15.1514 23.6784 15.1607 23.7548Z" fill="#BBCCE7"/>
<path d="M15.0027 23.2739L15.8365 23.3176C15.7675 23.1642 15.6724 23.0239 15.5553 22.903L14.7215 22.8593C14.8329 22.9847 14.9275 23.1241 15.0027 23.2739Z" fill="#BBCCE7"/>
<path d="M14.7213 22.8594L15.5551 22.903C15.4494 22.7846 15.3285 22.6805 15.1957 22.5934L14.3619 22.5497C14.4923 22.6356 14.6131 22.7353 14.7219 22.8473" fill="#BBCCE7"/>
<path d="M16.9255 6.50724L17.7109 6.5484L17.578 6.54143L16.7321 6.4971L16.8733 6.57721" fill="#DAE4F6"/>
<path d="M16.7244 9.16265L17.5582 9.20635L17.9427 8.11169L17.1095 8.05591L16.7244 9.16265Z" fill="#95AACB"/>
<path d="M17.1108 8.05588L17.9567 8.10021C17.9612 8.01562 17.965 7.94311 17.9688 7.87061L17.1349 7.82691C17.115 7.89964 17.091 7.97119 17.0631 8.04125" fill="#BBCCE7"/>
<path d="M17.1815 7.84145L18.0153 7.88515C18.0573 7.75212 18.0887 7.61602 18.1094 7.47809L17.2635 7.43376C17.2655 7.57104 17.2583 7.7083 17.2419 7.84462" fill="#BBCCE7"/>
<path d="M17.2599 7.48214L18.1058 7.52647L18.1172 7.30896L17.2713 7.26463C17.2795 7.34132 17.2754 7.41882 17.2593 7.49423" fill="#BBCCE7"/>
<path d="M17.2755 7.20419L18.1214 7.24852L18.1309 7.06726L17.297 7.02356C17.2998 7.08415 17.2966 7.14485 17.2875 7.20482" fill="#BBCCE7"/>
<path d="M17.2622 7.02171L18.096 7.06541C18.0869 6.98723 18.062 6.91173 18.0228 6.84347L17.189 6.79977C17.2229 6.87029 17.2475 6.94488 17.2622 7.02171Z" fill="#BBCCE7"/>
<path d="M17.1886 6.79975L18.0224 6.84345C17.9967 6.77829 17.9587 6.71868 17.9104 6.66792L17.0766 6.62422C17.121 6.67364 17.1588 6.72858 17.1892 6.78766" fill="#BBCCE7"/>
<path d="M17.0759 6.63636L17.9097 6.68005L17.7589 6.55097L16.9251 6.50727L17.0759 6.63636Z" fill="#BBCCE7"/>
<path d="M14.4816 18.4724L15.3275 18.5167C15.8668 18.5649 16.4102 18.5027 16.9245 18.3338C17.4116 18.1089 17.8427 17.7788 18.187 17.3673C18.5312 16.9558 18.7799 16.4732 18.9153 15.9541C18.9703 15.8146 19.0143 15.671 19.0469 15.5247L18.2131 15.481L18.0815 15.9104C17.9461 16.4295 17.6974 16.9121 17.3531 17.3236C17.0089 17.7351 16.5777 18.0652 16.0907 18.2901C15.5724 18.4591 15.0244 18.517 14.4823 18.4603" fill="#95AACB"/>
<path d="M18.2109 15.493L19.0447 15.5367C19.156 15.169 19.2326 14.7917 19.2734 14.4097L18.4396 14.366C18.392 14.7469 18.3155 15.1237 18.2109 15.493Z" fill="#AFC0DB"/>
<path d="M18.4379 14.3659L19.2717 14.4096C19.3125 14.0932 19.3292 13.774 19.3217 13.455L18.4879 13.4113C18.4954 13.7303 18.4787 14.0495 18.4379 14.3659Z" fill="#AFC0DB"/>
<path d="M18.4887 13.4113L19.3225 13.455C19.313 13.1031 19.2747 12.7525 19.2078 12.4069L18.374 12.3632C18.4368 12.7094 18.4752 13.0597 18.4887 13.4113Z" fill="#BBCCE7"/>
<path d="M18.3721 12.3874L19.2059 12.4311C19.2148 12.367 19.2181 12.3024 19.216 12.2377C19.1122 11.7454 18.9458 11.2684 18.7209 10.8183L17.8871 10.7746C18.1047 11.2277 18.2708 11.7038 18.3822 12.194C18.3784 12.2665 18.3752 12.327 18.3714 12.3995" fill="#BBCCE7"/>
<path d="M17.8426 10.7359L18.7006 10.7809C18.4483 10.2501 18.114 9.76231 17.71 9.33544L16.8762 9.29174C17.2735 9.72398 17.607 10.2107 17.8668 10.7372" fill="#BBCCE7"/>
<path d="M16.8506 9.29036L17.6844 9.33406L17.5585 9.19414L16.7247 9.15044L16.8513 9.27826" fill="#BBCCE7"/>
<path d="M16.924 6.50715C16.6428 6.32277 16.4361 6.33617 16.2835 6.47358C16.0936 6.69114 15.9557 6.94916 15.8804 7.22799L15.5118 8.25075C14.9372 7.92761 14.2962 7.74063 13.638 7.70421C13.2773 7.67326 12.917 7.76868 12.6188 7.97411C12.3207 8.17954 12.1033 8.4822 12.0037 8.83031C11.8091 9.20473 11.7602 9.63797 11.8664 10.0464C11.9725 10.4547 12.2262 10.8093 12.5785 11.0416C12.924 11.2373 13.3042 11.3642 13.698 11.4153C14.0759 11.4542 14.4413 11.5725 14.7704 11.7623C15.0888 11.963 15.3395 12.2547 15.4899 12.5998C15.6476 12.9873 15.6551 13.4198 15.5111 13.8126C15.4496 14.0445 15.3206 14.2528 15.1405 14.4112C14.8013 14.5961 14.4069 14.6528 14.0294 14.5711C13.6459 14.4904 13.249 14.4333 12.8279 14.3748C11.8358 14.1402 10.7913 14.3026 9.91712 14.8272C9.04299 15.3519 8.40845 16.1973 8.14884 17.1832C7.67501 18.4935 7.60051 19.915 7.93478 21.2677C8.19119 22.5163 8.84632 23.6478 9.80154 24.4918L9.28987 25.9312C9.00512 26.7403 9.06248 27.2644 9.47213 27.5403C9.88178 27.8162 10.2366 27.5198 10.5214 26.7107L11.0044 25.3546C11.825 25.8128 12.7657 26.0101 13.7012 25.92C14.0054 25.8866 14.2943 25.769 14.5354 25.5804C14.7764 25.3918 14.9601 25.1398 15.0658 24.8525C15.2468 24.4151 15.2723 23.9289 15.138 23.4749C15.0205 23.0714 14.7582 22.7253 14.4013 22.5033C13.9856 22.3115 13.5424 22.186 13.0879 22.1315C12.5081 22.0583 11.9492 21.8683 11.445 21.5728C11.1029 21.3439 10.8543 20.9998 10.7445 20.6031C10.6113 20.149 10.6367 19.6631 10.8167 19.2255C11.0273 18.5983 11.3605 18.2523 11.8163 18.1873C12.3772 18.1249 12.9446 18.1546 13.496 18.2753C14.3785 18.4882 15.3006 18.474 16.1761 18.234C16.6632 18.0091 17.0943 17.679 17.4385 17.2675C17.7828 16.856 18.0315 16.3734 18.1669 15.8543C18.5753 14.639 18.6436 13.3352 18.3645 12.084C18.1241 10.9528 17.5646 9.91428 16.7522 9.0913L17.1374 7.98457C17.3802 7.28236 17.3222 6.77036 16.924 6.50715Z" fill="white"/>
</g>
<defs>
<clipPath id="clip0">
<rect width="29.9133" height="34.56" fill="white" transform="matrix(-1 0 0 1 29.9141 0)"/>
</clipPath>
</defs>
</svg>
