<svg width="52" height="50" viewBox="0 0 52 50" fill="none" xmlns="http://www.w3.org/2000/svg">
<g clip-path="url(#clip0)">
<path d="M8.81394 28.6347L8.16455 32.1985C6.36833 29.6897 5.53885 26.6165 5.82889 23.5446L6.47832 19.9809C6.18828 23.0527 7.01771 26.126 8.81394 28.6347Z" fill="#2BA96C"/>
<path d="M6.4785 19.9805L5.82908 23.5443L5.94465 22.8173L6.59408 19.2536C6.54119 19.4932 6.51925 19.7341 6.4785 19.9805Z" fill="#2BA96C"/>
<path d="M45.1756 26.2298L44.5262 29.7936C43.6622 34.2354 40.2079 38.1841 34.5823 40.1313C30.6438 41.426 26.4386 41.6865 22.3704 40.8878L23.0199 37.324C27.0877 38.1284 31.2943 37.8677 35.2317 36.5675C40.8506 34.6325 44.3535 30.7105 45.1756 26.2298Z" fill="#2BA96C"/>
<path d="M23.0743 37.3386L22.4249 40.9024C16.7176 39.9725 11.5997 36.8489 8.16354 32.198L8.81293 28.6343C12.2491 33.2851 17.367 36.4088 23.0743 37.3386Z" fill="#35B477"/>
<path d="M8.81354 28.6344C3.6217 21.033 7.09731 12.1627 16.5131 8.90255C25.9289 5.64237 37.8079 9.22469 42.9797 16.8625C48.1515 24.5004 44.6838 33.3275 35.2868 36.5822C25.8898 39.837 13.9853 36.2723 8.81354 28.6344Z" fill="#2CD282"/>
<path d="M38.9178 25.0168L38.5014 25.8771C38.3565 26.1763 37.9056 26.2812 37.1543 26.1483L37.5707 25.2881C38.3281 25.4085 38.773 25.316 38.9239 25.0044" fill="#7D94BA"/>
<path d="M37.5644 25.3003L37.1604 26.1666L35.5215 25.8964L35.944 25.0236L37.5644 25.3003Z" fill="#7D94BA"/>
<path d="M31.3235 22.142L30.9071 23.0023C30.8359 22.9228 30.7583 22.8492 30.6751 22.7822L31.0915 21.922C31.1733 21.9905 31.2508 22.064 31.3235 22.142Z" fill="#AFC0DB"/>
<path d="M31.0902 21.9215L30.6738 22.7818C30.5692 22.7225 30.4609 22.6701 30.3496 22.6249L30.7661 21.7646C30.8838 21.8067 30.9967 21.8614 31.1027 21.9276" fill="#95AACB"/>
<path d="M30.7802 21.7072L30.3637 22.5675C30.2701 22.5074 30.1696 22.4587 30.0645 22.4226L30.4809 21.5623C30.5861 21.5984 30.6866 21.6471 30.7802 21.7072Z" fill="#95AACB"/>
<path d="M30.4791 21.5628L30.0627 22.4231C29.9452 22.3587 29.8245 22.3003 29.7012 22.248L30.1176 21.3878C30.2395 21.4319 30.3565 21.4885 30.4667 21.5568" fill="#95AACB"/>
<path d="M30.1067 21.4434L29.6903 22.3036C29.6382 22.2737 29.584 22.2475 29.5282 22.2252C28.7769 22.0923 28.2584 22.2414 27.9414 22.642L28.3579 21.7817C28.6746 21.3605 29.2056 21.2174 29.9507 21.3524L30.1128 21.4309" fill="#7D94BA"/>
<path d="M28.3333 21.8316L27.9169 22.6918C27.7562 22.9137 27.6162 23.1499 27.4985 23.3972L27.9149 22.537C28.0202 22.2832 28.1611 22.0457 28.3333 21.8316Z" fill="#8397B8"/>
<path d="M23.3915 22.1195L22.975 22.9797C23.1058 22.5506 23.2616 22.1335 23.4113 21.7289L23.8277 20.8687C23.6406 21.2552 23.5223 21.6903 23.3975 22.107" fill="#95AACB"/>
<path d="M31.215 26.7195L30.7986 27.5798C30.8724 27.1136 30.991 26.6557 31.1528 26.2123C31.3155 25.764 31.4179 25.296 31.4571 24.8207L31.8796 23.948C31.8317 24.4444 31.7149 24.9317 31.5326 25.3959C31.3666 25.8392 31.2519 26.3 31.1909 26.7694" fill="#BBCCE7"/>
<path d="M31.9096 23.8858L31.4871 24.7585C31.5032 24.5917 31.5073 24.4239 31.4993 24.2565C31.4877 24.1049 31.4566 23.9554 31.4069 23.8117L31.8294 22.9389C31.8802 23.0824 31.9113 23.232 31.9218 23.3838L31.9221 23.8918" fill="#BBCCE7"/>
<path d="M31.8171 22.9328L31.3946 23.8055C31.3321 23.6169 31.2421 23.4386 31.1276 23.2762L31.5501 22.4035C31.6635 22.5665 31.7533 22.7447 31.8171 22.9328Z" fill="#BBCCE7"/>
<path d="M31.5499 22.4032L31.1274 23.276C31.057 23.1762 30.9791 23.082 30.8945 22.994L31.311 22.1337C31.3932 22.2155 31.4689 22.3036 31.5374 22.3972" fill="#BBCCE7"/>
<path d="M16.2607 20.1294L15.8141 21.052L15.8343 20.6925L16.2568 19.8198L16.2366 20.1793" fill="#BBCCE7"/>
<path d="M16.2943 19.7448L15.8718 20.6176C15.9013 20.1154 16.0013 19.6198 16.1689 19.1455L16.5612 18.3351C16.3965 18.7859 16.3022 19.2593 16.2818 19.7388" fill="#BBCCE7"/>
<path d="M35.3992 27.453L34.9827 28.3132C34.8852 28.5453 34.7544 28.7619 34.5945 28.9563C34.3919 29.2417 34.1143 29.4655 33.7924 29.603C33.4706 29.7406 33.117 29.7864 32.7707 29.7354C32.7083 29.7052 32.6335 29.669 32.541 29.7012L32.9635 28.8285C33.0264 28.8677 33.0932 28.9 33.163 28.925C33.5094 28.9776 33.8635 28.9325 34.1857 28.7949C34.5079 28.6572 34.7853 28.4325 34.9868 28.1459C35.1445 27.9497 35.279 27.736 35.3875 27.5088" fill="#95AACB"/>
<path d="M32.9701 28.7853L32.5476 29.658C32.4094 29.6051 32.2759 29.5405 32.1487 29.4648L32.5651 28.6046C32.7039 28.6612 32.8475 28.705 32.9943 28.7354" fill="#AFC0DB"/>
<path d="M32.5403 28.654L32.1239 29.5143C32.0187 29.4782 31.9182 29.4295 31.8247 29.3694L32.2411 28.5092L32.5403 28.654Z" fill="#AFC0DB"/>
<path d="M32.2413 28.5085L31.8249 29.3688C31.7223 29.3265 31.6224 29.2781 31.5256 29.2239L31.9481 28.3512C32.0448 28.4054 32.1448 28.4538 32.2473 28.496" fill="#AFC0DB"/>
<path d="M31.9653 28.3146L31.5429 29.1873L31.3422 28.9978C31.2719 28.9219 31.2087 28.8397 31.1532 28.7524L31.5697 27.8922C31.6339 27.9759 31.7032 28.0557 31.7771 28.1311C31.8304 28.2013 31.8938 28.2631 31.9653 28.3146Z" fill="#BBCCE7"/>
<path d="M31.5701 27.8923L31.1536 28.7525C31.0379 28.5986 30.9497 28.4258 30.8931 28.2417L31.3095 27.3814C31.3737 27.5623 31.4613 27.7341 31.5701 27.8923Z" fill="#BBCCE7"/>
<path d="M31.3094 27.381L30.893 28.2413C30.8325 28.0698 30.7948 27.8912 30.7808 27.7099L31.1973 26.8497C31.2114 27.0279 31.2448 27.204 31.297 27.375" fill="#BBCCE7"/>
<path d="M13.695 20.5645L13.3027 21.3749L13.3691 21.2377L13.7916 20.365L13.794 20.5508" fill="#DAE4F6"/>
<path d="M16.4694 21.8302L16.0529 22.6905L14.7429 22.4719L15.1469 21.6056L16.4694 21.8302Z" fill="#95AACB"/>
<path d="M15.1457 21.6052L14.7232 22.478C14.6359 22.4357 14.5611 22.3995 14.4863 22.3633L14.9028 21.503C14.9867 21.5232 15.0717 21.5386 15.1574 21.5493" fill="#BBCCE7"/>
<path d="M14.8922 21.5574L14.4757 22.4176C14.3192 22.3862 14.1654 22.3426 14.0156 22.2872L14.4381 21.4145C14.5747 21.4923 14.7163 21.5609 14.862 21.6197" fill="#BBCCE7"/>
<path d="M14.4867 21.4383L14.0642 22.311L13.8398 22.2024L14.2623 21.3297C14.3347 21.3802 14.4147 21.4189 14.4992 21.4444" fill="#BBCCE7"/>
<path d="M14.2013 21.2998L13.7788 22.1726L13.5918 22.082L14.0082 21.2218C14.0675 21.258 14.1301 21.2883 14.1953 21.3123" fill="#BBCCE7"/>
<path d="M14.0256 21.1861L13.6092 22.0464C13.5358 21.9941 13.4738 21.9275 13.427 21.8505L13.8435 20.9902C13.8955 21.0631 13.9567 21.1289 14.0256 21.1861Z" fill="#BBCCE7"/>
<path d="M13.843 20.9901L13.4265 21.8504C13.3754 21.7886 13.3366 21.7176 13.3123 21.6412L13.7288 20.7809C13.7538 20.8527 13.788 20.921 13.8305 20.9841" fill="#BBCCE7"/>
<path d="M13.7404 20.787L13.3239 21.6473L13.2777 21.4248L13.6941 20.5646L13.7404 20.787Z" fill="#BBCCE7"/>
<path d="M27.0423 24.718L26.6198 25.5907C26.3705 26.1581 26.0082 26.6686 25.5549 27.0912C25.0605 27.4554 24.4915 27.7056 23.8888 27.8236C23.2862 27.9417 22.6649 27.9247 22.0696 27.7739C21.8994 27.7521 21.7311 27.7169 21.5664 27.6688L21.9829 26.8086L22.486 26.9137C23.0813 27.0645 23.7026 27.0814 24.3053 26.9634C24.9079 26.8453 25.4769 26.5952 25.9713 26.2309C26.4268 25.8045 26.7875 25.287 27.0298 24.712" fill="#95AACB"/>
<path d="M21.9971 26.8126L21.5807 27.6728C21.1505 27.5814 20.7298 27.4499 20.3242 27.28L20.7407 26.4198C21.149 26.5822 21.569 26.7136 21.9971 26.8126Z" fill="#AFC0DB"/>
<path d="M20.7405 26.4198L20.3241 27.28C19.9842 27.1462 19.6549 26.9868 19.3391 26.8032L19.7556 25.9429C20.0714 26.1266 20.4006 26.286 20.7405 26.4198Z" fill="#AFC0DB"/>
<path d="M19.7562 25.9431L19.3398 26.8033C18.9921 26.5996 18.6618 26.3676 18.3521 26.1098L18.7685 25.2495C19.081 25.5037 19.411 25.7355 19.7562 25.9431Z" fill="#BBCCE7"/>
<path d="M18.792 25.2613L18.3755 26.1216C18.3064 26.0951 18.2397 26.0628 18.176 26.025C17.7396 25.6492 17.3531 25.219 17.026 24.745L17.4424 23.8847C17.7767 24.3531 18.1624 24.7825 18.5925 25.1648C18.6673 25.201 18.7297 25.2312 18.8045 25.2674" fill="#BBCCE7"/>
<path d="M17.4287 23.8184L17.0002 24.7036C16.6072 24.1576 16.3026 23.5531 16.0975 22.9124L16.514 22.0521C16.7281 22.6891 17.0321 23.2922 17.4166 23.8433" fill="#BBCCE7"/>
<path d="M16.5263 22.0254L16.1098 22.8856L16.039 22.6821L16.4555 21.8218L16.5138 22.0193" fill="#BBCCE7"/>
<path d="M13.6956 20.5631C13.6659 20.1794 13.7935 19.9795 14.0155 19.9023C14.3385 19.8319 14.6733 19.8361 14.9945 19.9146L16.2236 20.1094C16.2167 19.3549 16.3831 18.6089 16.7099 17.9287C16.878 17.5499 17.1725 17.2413 17.5431 17.0557C17.9137 16.8702 18.3372 16.8192 18.7413 16.9115C19.2241 16.9231 19.6856 17.1132 20.0365 17.4451C20.3874 17.7769 20.6029 18.2271 20.6414 18.7086C20.6469 19.1631 20.5643 19.6143 20.3982 20.0374C20.2286 20.4378 20.1455 20.8696 20.1542 21.3044C20.1797 21.7344 20.3339 22.1469 20.5968 22.4881C20.8984 22.8602 21.3279 23.1065 21.8013 23.179C22.0678 23.2453 22.3479 23.2309 22.6062 23.1377C22.9788 22.8997 23.2534 22.5355 23.3798 22.1118C23.5106 21.6827 23.6724 21.2531 23.8462 20.7987C24.1587 19.6743 24.898 18.7164 25.9067 18.1295C26.9153 17.5425 28.1134 17.3729 29.2453 17.6568C30.8208 17.905 32.2874 18.6149 33.4593 19.6968C34.5699 20.6432 35.3429 21.9247 35.6619 23.3485L37.3878 23.63C38.3563 23.791 38.8502 24.1378 38.9007 24.7009C38.9513 25.264 38.4581 25.4562 37.4896 25.2951L35.8631 25.031C35.8697 26.1068 35.5482 27.159 34.9415 28.0474C34.74 28.334 34.4626 28.5588 34.1404 28.6964C33.8183 28.834 33.4641 28.8791 33.1177 28.8265C32.5792 28.7665 32.0776 28.5237 31.6965 28.1385C31.3566 27.7979 31.1544 27.3438 31.1287 26.8634C31.1659 26.3407 31.2847 25.827 31.481 25.3411C31.7276 24.7193 31.8456 24.0539 31.8277 23.3852C31.7869 22.9158 31.579 22.4765 31.2418 22.1474C30.8601 21.7632 30.3588 21.5205 29.8206 21.4594C29.0754 21.3244 28.5445 21.4675 28.2277 21.8887C27.8555 22.4168 27.5721 23.0021 27.3888 23.6217C27.1151 24.6241 26.5919 25.5409 25.8679 26.2864C25.3735 26.6507 24.8045 26.9008 24.2019 27.0189C23.5992 27.1369 22.9779 27.1199 22.3826 26.9691C20.9386 26.7078 19.5935 26.0567 18.4928 25.0861C17.4912 24.2206 16.7586 23.0862 16.3818 21.8173L15.0594 21.5926C14.2212 21.4485 13.7398 21.1077 13.6956 20.5631Z" fill="white"/>
</g>
<defs>
<clipPath id="clip0">
<rect width="34.241" height="39.56" fill="white" transform="translate(0 29.9966) rotate(-61.1683)"/>
</clipPath>
</defs>
</svg>
