<svg width="134" height="266" viewBox="0 0 134 266" fill="none" xmlns="http://www.w3.org/2000/svg">
<ellipse cx="66" cy="227" rx="65" ry="39" fill="url(#paint0_linear)"/>
<ellipse cx="65" cy="217" rx="65" ry="39" fill="white"/>
<path fill-rule="evenodd" clip-rule="evenodd" d="M80.2571 10.623C80.2571 10.623 81.7443 14.6843 81.8924 18.365C82.0405 22.0456 83.4373 34.5617 83.237 36.157C83.0367 37.7523 82.1982 38.9294 78.2854 38.9916C74.3727 39.0538 73.3505 39.0726 73.3505 39.0726C73.3505 39.0726 72.8053 40.2093 72.4345 41.4264C72.0637 42.6435 71.8819 45.8322 71.8819 45.8322C71.8819 45.8322 65.8381 46.248 62.7923 44.9108C59.7464 43.5736 59.1021 40.6269 59.1021 40.6269C59.1021 40.6269 60.1228 37.1712 60.1521 35.5358C60.1814 33.9003 56.5259 30.9182 54.8913 24.9053C53.2568 18.8924 55.2317 13.9348 57.2992 11.5755C59.3667 9.2162 64.2205 4.89065 70.792 4.64455C77.3636 4.39844 80.2571 10.623 80.2571 10.623Z" fill="#FFD1D9"/>
<mask id="mask0" mask-type="alpha" maskUnits="userSpaceOnUse" x="53" y="4" width="31" height="43">
<path fill-rule="evenodd" clip-rule="evenodd" d="M80.2571 10.623C80.2571 10.623 81.7443 14.6843 81.8924 18.365C82.0405 22.0456 83.4373 34.5617 83.237 36.157C83.0367 37.7523 82.1982 38.9294 78.2854 38.9916C74.3727 39.0538 73.3505 39.0726 73.3505 39.0726C73.3505 39.0726 72.8053 40.2093 72.4345 41.4264C72.0637 42.6435 71.8819 45.8322 71.8819 45.8322C71.8819 45.8322 65.8381 46.248 62.7923 44.9108C59.7464 43.5736 59.1021 40.6269 59.1021 40.6269C59.1021 40.6269 60.1228 37.1712 60.1521 35.5358C60.1814 33.9003 56.5259 30.9182 54.8913 24.9053C53.2568 18.8924 55.2317 13.9348 57.2992 11.5755C59.3667 9.2162 64.2205 4.89065 70.792 4.64455C77.3636 4.39844 80.2571 10.623 80.2571 10.623Z" fill="white"/>
</mask>
<g mask="url(#mask0)">
<path fill-rule="evenodd" clip-rule="evenodd" d="M72.545 25.673C72.073 25.0316 71.6948 24.4493 69.8816 24.4386C68.0684 24.4279 67.2234 27.428 68.7454 29.433C70.2674 31.4379 71.8671 32.2401 72.5452 32.0989C73.2233 31.9578 73.7259 30.9344 73.6059 30.1025C73.4859 29.2706 73.017 26.3144 72.545 25.673Z" fill="#E5B6BE"/>
<path fill-rule="evenodd" clip-rule="evenodd" d="M73.9369 27.0554L75.4231 26.6136C75.4231 26.6136 76.6037 31.5158 77.8343 32.5193C79.065 33.5227 81.2638 32.143 81.5975 30.7351C81.9312 29.3273 83.1002 27.3441 83.1002 27.3441C83.1002 27.3441 85.539 26.304 85.7039 28.3048C85.8688 30.3055 87.1455 35.7645 86.3355 38.1793C85.5254 40.5941 86.049 41.0744 80.816 41.7165C75.583 42.3587 74.4475 40.7248 73.4188 39.105C72.39 37.4853 72.1163 35.2577 72.2655 34.454C72.4147 33.6504 73.9823 32.4748 74.1928 30.8715C74.4033 29.2682 73.9369 27.0554 73.9369 27.0554Z" fill="#2C2E32"/>
</g>
<path fill-rule="evenodd" clip-rule="evenodd" d="M59.9298 35.4057C60.7678 35.9299 61.7874 35.8828 62.8264 35.6564C63.8654 35.4301 66.8092 33.5585 67.551 31.4102C68.2928 29.2619 69.5203 24.2677 70.7162 24.1862C71.9121 24.1048 73.1823 24.6365 73.8482 26.7621C74.5142 28.8876 75.4915 26.7318 75.4915 26.7318C75.4915 26.7318 75.4672 23.2756 75.7475 22.0448C76.0278 20.814 78.5961 17.7073 78.1579 16.8885C77.7197 16.0697 76.3593 14.7713 76.3077 14.3527C76.2561 13.9341 79.9074 11.367 80.5501 9.76437C81.1929 8.16173 81.337 6.27635 79.4864 3.96846C77.6358 1.66058 70.2578 -1.15543 62.2534 4.54668C54.249 10.2488 55.1618 14.9675 55.1618 14.9675C55.1618 14.9675 53.2669 16.4304 53.1206 18.5746C52.9744 20.7188 52.9733 23.8845 54.9904 28.0835C57.0075 32.2825 59.0917 34.8815 59.9298 35.4057Z" fill="#2C2E32"/>
<path fill-rule="evenodd" clip-rule="evenodd" d="M72.6794 24.8852C72.2624 24.2428 71.9281 23.6597 70.3314 23.645C68.7347 23.6303 67.9972 26.6283 69.3419 28.6364C70.6865 30.6446 72.2039 31.613 72.8007 31.4733C73.3975 31.3337 73.9736 30.6836 73.8661 29.8515C73.7587 29.0194 73.0964 25.5276 72.6794 24.8852Z" fill="#FFD7DE"/>
<path fill-rule="evenodd" clip-rule="evenodd" d="M56.2361 201.505C56.2361 201.505 55.2009 201.359 54.9751 199.448C54.7494 197.537 47.9024 199.202 47.9024 199.202L47.5979 205.219C47.5979 205.219 50.4315 207.07 52.7594 205.587C55.0873 204.105 56.2361 201.505 56.2361 201.505Z" fill="#FFD1D9"/>
<path fill-rule="evenodd" clip-rule="evenodd" d="M77.4749 217.761L76.5566 210.111L69.4985 210.569L68.5904 217.499C68.5904 217.499 70.8818 219.032 73.0594 219.085C75.237 219.138 77.4749 217.761 77.4749 217.761Z" fill="#FFD1D9"/>
<path fill-rule="evenodd" clip-rule="evenodd" d="M72.9831 214.774C75.8855 214.721 77.2004 213.369 77.398 211.949C77.5957 210.528 82.5799 172.274 82.6009 169.263C82.6219 166.252 83.8239 113.421 83.8239 113.421C83.8239 113.421 57.3362 98.8444 52.4391 101.238C47.5421 103.631 48.4289 106.604 48.4289 106.604C48.4289 106.604 50.285 156.352 50.3365 158.566C50.388 160.781 47.2032 197.665 47.3628 199.6C47.5224 201.536 48.9357 202.254 50.9879 202.339C53.04 202.424 54.6053 201.621 55.0781 200.406C55.5509 199.19 63.3456 160.868 63.4987 159.318C63.6519 157.767 65.4711 130.918 65.4711 130.918C65.4711 130.918 69.8638 167.024 69.9636 169.087C70.0633 171.15 68.4736 210.276 68.6417 211.573C68.8098 212.869 70.0807 214.828 72.9831 214.774Z" fill="#3729AA"/>
<path fill-rule="evenodd" clip-rule="evenodd" d="M68.0122 217.974C68.0122 217.974 67.7979 220.87 67.4852 222.485C67.1725 224.1 67.2384 227.679 67.2384 227.679C67.2384 227.679 69.0909 229.097 73.4144 229.145C77.7378 229.192 78.7343 228.263 83.1797 228.965C87.6252 229.666 94.5061 228.169 94.224 224.909C94.0119 222.457 89.2383 220.996 85.7001 220.324C82.1619 219.652 81.5614 219.595 80.3714 218.682C79.1815 217.769 77.958 216.23 77.958 216.23C77.958 216.23 76.6399 219.602 73.5213 219.811C70.4027 220.021 68.0122 217.974 68.0122 217.974Z" fill="#00FAFF"/>
<path fill-rule="evenodd" clip-rule="evenodd" d="M67.9849 216.403C67.9849 216.403 67.7706 219.299 67.4579 220.914C67.1451 222.529 67.2111 226.108 67.2111 226.108C67.2111 226.108 69.0636 227.527 73.387 227.574C77.7105 227.621 78.7069 226.693 83.1524 227.394C87.5979 228.095 94.4788 226.598 94.1967 223.338C93.9846 220.887 89.2109 219.426 85.6728 218.754C82.1346 218.081 81.534 218.025 80.3441 217.112C79.1542 216.198 77.9307 214.66 77.9307 214.66C77.9307 214.66 76.6125 218.031 73.494 218.241C70.3754 218.45 67.9849 216.403 67.9849 216.403Z" fill="url(#paint1_linear)"/>
<path fill-rule="evenodd" clip-rule="evenodd" d="M47.3067 205.327C47.3067 205.327 46.9114 208.329 46.787 210.214C46.6625 212.098 46.8576 214.05 46.8576 214.05C46.8576 214.05 47.1843 216.318 50.4955 216.257C53.8067 216.196 56.2086 213.225 57.7686 211.527C59.3286 209.83 61.8983 209.03 63.5551 207.235C65.212 205.441 65.2821 203.801 65.2821 203.801C65.2821 203.801 65.2191 202.14 65.0733 201.957C64.1788 200.831 62.7081 201.679 61.0579 202.031C58.1791 202.644 55.7256 202.394 55.7256 202.394C55.7256 202.394 55.7391 205.089 52.3394 206.002C48.9398 206.915 47.3067 205.327 47.3067 205.327Z" fill="#00FAFF"/>
<path fill-rule="evenodd" clip-rule="evenodd" d="M47.2785 203.756C47.2785 203.756 46.8832 206.758 46.7587 208.643C46.6343 210.528 46.8294 212.479 46.8294 212.479C46.8294 212.479 47.1561 214.747 50.4673 214.686C53.7785 214.626 55.8635 211.839 57.4235 210.141C58.9835 208.444 61.7325 207.703 63.3893 205.908C65.0461 204.113 65.0717 201.989 65.0717 201.989C65.0717 201.989 63.9085 199.847 61.0297 200.46C58.1509 201.073 55.6974 200.823 55.6974 200.823C55.6974 200.823 55.7109 203.518 52.3112 204.431C48.9115 205.344 47.2785 203.756 47.2785 203.756Z" fill="url(#paint2_linear)"/>
<path fill-rule="evenodd" clip-rule="evenodd" d="M47.3309 40.9871C47.3309 40.9871 35.1126 67.2716 35.2156 72.861C35.3185 78.4504 44.7192 99.7552 48.447 101.583C52.1748 103.411 50.4887 95.8414 49.7216 94.6494C48.9544 93.4574 43.9707 76.5038 43.9355 74.5962C43.9004 72.6886 50.2234 59.359 50.2234 59.359L47.3309 40.9871Z" fill="url(#paint3_linear)"/>
<path fill-rule="evenodd" clip-rule="evenodd" d="M74.5313 50.5711C74.5313 50.5711 76.6276 52.4456 78.4461 53.1526C80.2646 53.8597 83.5126 57.0398 83.9071 58.6943C84.3017 60.3487 82.707 73.7369 82.7592 82.3731C82.8115 91.0092 84.4823 114.808 84.4823 114.808C84.4823 114.808 81.8884 122.599 70.6107 123.861C59.333 125.124 49.5966 119.515 48.2279 116.988C46.8593 114.461 45.1429 75.2435 45.0169 68.4028C44.891 61.5621 43.9615 53.9287 44.6492 48.4377C44.9904 45.7135 46.118 42.4948 47.6517 40.2145C49.2094 37.8986 52.1076 37.5048 54.1047 38.6254C58.0682 40.8495 57.7772 40.6505 57.7772 40.6505C57.7772 40.6505 57.5079 44.6952 63.1399 46.4513C68.7718 48.2075 74.5313 50.5711 74.5313 50.5711Z" fill="url(#paint4_linear)"/>
<path fill-rule="evenodd" clip-rule="evenodd" d="M59.0788 40.1707C59.0788 40.1707 57.9457 40.346 57.5345 40.9839C57.1234 41.6219 56.5684 43.0957 56.5166 44.3199C56.4648 45.5441 59.0358 49.6265 64.8612 50.2819C70.6867 50.9373 74.6418 50.7222 74.6418 50.7222C74.6418 50.7222 74.6198 48.0493 74.0826 47.0489C73.5454 46.0485 72.5525 45.2221 70.3441 45.2628C68.1357 45.3035 66.1982 45.6592 63.1246 44.1982C60.051 42.7373 59.0788 40.1707 59.0788 40.1707Z" fill="#514AD3"/>
<path fill-rule="evenodd" clip-rule="evenodd" d="M117.658 42.0809C118.239 40.9508 118.567 40.1612 118.644 39.712C118.758 39.0382 118.102 36.5342 116.424 35.4017C114.747 34.2692 116.193 32.0218 117.85 32.8389C118.954 33.3837 119.754 34.2068 120.25 35.3082C120.811 33.9524 121.265 32.7438 121.612 31.6822C122.133 30.0899 122.902 26.8526 126.573 28.6984C130.244 30.5443 130.522 34.3132 128.332 38.4782C126.871 41.2548 125.464 43.5869 124.11 45.4746L117.658 42.0809Z" fill="#FFD1D9"/>
<path fill-rule="evenodd" clip-rule="evenodd" d="M78.3008 68.3676C78.3008 68.3676 80.8214 69.3404 87.7324 70.4684C94.6435 71.5964 105.344 73.3014 108.163 72.5874C110.983 71.8733 124.345 47.4742 124.723 45.7816C125.101 44.0891 118.448 39.2751 116.973 41.426C115.498 43.5769 105.934 58.9173 104.739 59.4893C103.543 60.0613 83.7108 54.812 80.5456 54.3624C77.3803 53.9129 75.68 56.9227 75.2055 60.0332C74.731 63.1437 78.3008 68.3676 78.3008 68.3676Z" fill="url(#paint5_linear)"/>
<path fill-rule="evenodd" clip-rule="evenodd" d="M72.1033 25.3394C72.1033 25.3394 71.0405 24.7373 70.5094 24.9543C69.9782 25.1713 69.5708 26.2851 69.8687 27.1545C70.1666 28.024 71.4217 29.8204 72.3187 29.9256C72.5747 29.9556 72.9102 29.7033 72.9272 29.2007C72.9699 27.9417 72.1033 25.3394 72.1033 25.3394Z" fill="url(#paint6_linear)"/>
<defs>
<linearGradient id="paint0_linear" x1="-5" y1="240" x2="95.3622" y2="301.385" gradientUnits="userSpaceOnUse">
<stop stop-color="#D8E0F5"/>
<stop offset="0.333763" stop-color="#F9F9FA"/>
<stop offset="0.557292" stop-color="#D5DCEF"/>
<stop offset="0.783847" stop-color="#93A0C5"/>
<stop offset="1" stop-color="#96A1BE"/>
</linearGradient>
<linearGradient id="paint1_linear" x1="94.1865" y1="227.406" x2="94.0276" y2="218.776" gradientUnits="userSpaceOnUse">
<stop stop-color="#5049D2"/>
<stop offset="1" stop-color="#6E68DF"/>
</linearGradient>
<linearGradient id="paint2_linear" x1="65.2387" y1="214.414" x2="65.0663" y2="205.056" gradientUnits="userSpaceOnUse">
<stop stop-color="#5049D2"/>
<stop offset="1" stop-color="#6E68DF"/>
</linearGradient>
<linearGradient id="paint3_linear" x1="53.2692" y1="101.796" x2="52.1866" y2="43.0166" gradientUnits="userSpaceOnUse">
<stop stop-color="#5049D2"/>
<stop offset="1" stop-color="#6E68DF"/>
</linearGradient>
<linearGradient id="paint4_linear" x1="85.0206" y1="123.723" x2="83.9691" y2="66.6272" gradientUnits="userSpaceOnUse">
<stop stop-color="#5049D2"/>
<stop offset="1" stop-color="#6E68DF"/>
</linearGradient>
<linearGradient id="paint5_linear" x1="129.545" y1="35.9433" x2="89.7129" y2="65.2773" gradientUnits="userSpaceOnUse">
<stop stop-color="#5049D2"/>
<stop offset="1" stop-color="#6E68DF"/>
</linearGradient>
<linearGradient id="paint6_linear" x1="72.4988" y1="24.9392" x2="69.8781" y2="25.0399" gradientUnits="userSpaceOnUse">
<stop stop-color="#FFD7DE"/>
<stop offset="1" stop-color="#EFC1C9"/>
</linearGradient>
</defs>
</svg>
