<svg width="1170" height="398" viewBox="0 0 1170 398" fill="none" xmlns="http://www.w3.org/2000/svg">
<rect width="1170" height="398" rx="10" fill="url(#paint0_linear)"/>
<g clip-path="url(#clip0)">
<path d="M850.779 256.411L849.706 258.513C849.049 256.599 849.103 254.518 849.859 252.654L850.932 250.552C850.176 252.416 850.122 254.497 850.779 256.411Z" fill="#2BA96C"/>
<path d="M850.932 250.552L849.859 252.654L850.067 252.222L851.14 250.12C851.062 250.259 851.003 250.405 850.932 250.552Z" fill="#28734C"/>
<path d="M874.015 261.925L872.943 264.028C871.571 266.637 868.669 268.438 864.779 268.57C862.069 268.619 859.385 267.97 856.985 266.686L858.057 264.584C860.457 265.872 863.142 266.521 865.852 266.468C869.735 266.343 872.663 264.567 874.015 261.925Z" fill="#2BA96C"/>
<path d="M858.09 264.603L857.017 266.706C853.614 265.023 850.99 262.083 849.706 258.513L850.778 256.411C852.063 259.981 854.687 262.921 858.09 264.603Z" fill="#35B477"/>
<path d="M850.779 256.411C848.946 250.658 852.781 245.785 859.291 245.564C865.801 245.343 872.577 249.875 874.391 255.646C876.205 261.418 872.383 266.266 865.886 266.487C859.388 266.708 852.594 262.183 850.779 256.411Z" fill="#50DD99"/>
<path d="M870.32 259.958L869.898 260.416C869.751 260.575 869.449 260.554 869.004 260.327L869.426 259.869C869.877 260.09 870.173 260.118 870.326 259.952" fill="#7D94BA"/>
<path d="M869.418 259.875L869.003 260.339L868.027 259.854L868.455 259.389L869.418 259.875Z" fill="#7D94BA"/>
<path d="M866.097 256.697L865.676 257.154C865.646 257.091 865.612 257.03 865.572 256.972L865.994 256.514C866.032 256.573 866.066 256.634 866.097 256.697Z" fill="#AFC0DB"/>
<path d="M865.993 256.514L865.572 256.972C865.517 256.915 865.46 256.861 865.398 256.811L865.82 256.354C865.886 256.403 865.946 256.458 866 256.52" fill="#95AACB"/>
<path d="M865.837 256.32L865.416 256.778C865.369 256.722 865.315 256.672 865.256 256.63L865.677 256.172C865.736 256.214 865.79 256.264 865.837 256.32Z" fill="#95AACB"/>
<path d="M865.677 256.171L865.256 256.629C865.194 256.566 865.13 256.507 865.062 256.45L865.484 255.992C865.552 256.043 865.615 256.101 865.671 256.165" fill="#95AACB"/>
<path d="M865.465 256.024L865.043 256.482C865.016 256.453 864.987 256.427 864.956 256.402C864.511 256.174 864.158 256.168 863.885 256.357L864.307 255.899C864.584 255.697 864.943 255.71 865.384 255.937L865.471 256.018" fill="#7D94BA"/>
<path d="M864.282 255.925L863.861 256.383C863.719 256.491 863.587 256.611 863.467 256.743L863.889 256.286C864.002 256.148 864.135 256.026 864.282 255.925Z" fill="#8397B8"/>
<path d="M861.131 255.152L860.71 255.61C860.872 255.367 861.048 255.136 861.217 254.912L861.639 254.455C861.449 254.66 861.294 254.909 861.138 255.146" fill="#95AACB"/>
<path d="M865.173 259.537L864.752 259.995C864.885 259.718 865.045 259.455 865.229 259.209C865.415 258.96 865.567 258.687 865.681 258.397L866.108 257.933C865.985 258.234 865.821 258.516 865.62 258.771C865.433 259.016 865.275 259.282 865.149 259.564" fill="#BBCCE7"/>
<path d="M866.137 257.9L865.71 258.364C865.751 258.263 865.785 258.159 865.811 258.053C865.833 257.956 865.841 257.857 865.837 257.757L866.265 257.293C866.269 257.392 866.261 257.492 866.239 257.589L866.144 257.906" fill="#BBCCE7"/>
<path d="M866.258 257.286L865.83 257.751C865.826 257.621 865.804 257.492 865.762 257.369L866.19 256.904C866.23 257.028 866.253 257.157 866.258 257.286Z" fill="#BBCCE7"/>
<path d="M866.189 256.904L865.761 257.369C865.736 257.293 865.705 257.219 865.669 257.148L866.09 256.69C866.126 256.757 866.157 256.826 866.182 256.898" fill="#BBCCE7"/>
<path d="M857.034 252.532L856.582 253.023L856.662 252.802L857.09 252.338L857.01 252.558" fill="#BBCCE7"/>
<path d="M857.127 252.298L856.699 252.762C856.812 252.454 856.967 252.163 857.161 251.899L857.558 251.468C857.371 251.718 857.223 251.996 857.12 252.291" fill="#BBCCE7"/>
<path d="M867.66 260.802L867.238 261.26C867.134 261.387 867.012 261.497 866.875 261.588C866.695 261.727 866.479 261.814 866.252 261.838C866.025 261.862 865.795 261.823 865.588 261.724C865.555 261.693 865.515 261.656 865.451 261.659L865.879 261.194C865.911 261.231 865.947 261.264 865.986 261.293C866.192 261.392 866.422 261.432 866.65 261.408C866.877 261.384 867.092 261.297 867.272 261.156C867.408 261.064 867.532 260.956 867.642 260.835" fill="#95AACB"/>
<path d="M865.887 261.167L865.46 261.631C865.383 261.572 865.312 261.506 865.246 261.434L865.668 260.976C865.744 261.038 865.826 261.093 865.912 261.14" fill="#AFC0DB"/>
<path d="M865.644 261.002L865.223 261.46C865.164 261.417 865.11 261.368 865.063 261.312L865.484 260.854L865.644 261.002Z" fill="#AFC0DB"/>
<path d="M865.482 260.854L865.061 261.312C865.004 261.266 864.951 261.217 864.901 261.164L865.328 260.7C865.379 260.752 865.432 260.802 865.488 260.848" fill="#AFC0DB"/>
<path d="M865.348 260.679L864.92 261.144L864.83 260.987C864.8 260.926 864.776 260.862 864.758 260.797L865.179 260.339C865.204 260.404 865.232 260.467 865.264 260.528C865.285 260.582 865.313 260.633 865.348 260.679Z" fill="#BBCCE7"/>
<path d="M865.179 260.339L864.757 260.797C864.713 260.678 864.691 260.553 864.69 260.427L865.111 259.97C865.118 260.095 865.14 260.219 865.179 260.339Z" fill="#BBCCE7"/>
<path d="M865.111 259.97L864.689 260.427C864.683 260.309 864.693 260.19 864.719 260.074L865.14 259.616C865.116 259.73 865.103 259.847 865.104 259.964" fill="#BBCCE7"/>
<path d="M855.346 252.309L854.949 252.74L855.016 252.667L855.444 252.203L855.411 252.32" fill="#DAE4F6"/>
<path d="M856.847 253.635L856.425 254.093L855.645 253.703L856.06 253.239L856.847 253.635Z" fill="#95AACB"/>
<path d="M856.06 253.239L855.632 253.704C855.586 253.661 855.546 253.624 855.506 253.587L855.927 253.129C855.976 253.158 856.026 253.184 856.078 253.207" fill="#BBCCE7"/>
<path d="M855.909 253.161L855.488 253.619C855.396 253.569 855.308 253.512 855.225 253.448L855.652 252.984C855.723 253.059 855.799 253.129 855.879 253.194" fill="#BBCCE7"/>
<path d="M855.678 253.008L855.251 253.473L855.131 253.362L855.558 252.897C855.594 252.943 855.637 252.982 855.685 253.015" fill="#BBCCE7"/>
<path d="M855.524 252.866L855.096 253.331L854.996 253.238L855.418 252.781C855.448 252.815 855.481 252.846 855.517 252.873" fill="#BBCCE7"/>
<path d="M855.436 252.762L855.014 253.219C854.978 253.173 854.952 253.119 854.937 253.062L855.359 252.604C855.378 252.66 855.404 252.713 855.436 252.762Z" fill="#BBCCE7"/>
<path d="M855.358 252.604L854.937 253.061C854.917 253.013 854.906 252.961 854.905 252.909L855.326 252.451C855.328 252.501 855.337 252.55 855.352 252.598" fill="#BBCCE7"/>
<path d="M855.332 252.457L854.91 252.915L854.923 252.767L855.345 252.31L855.332 252.457Z" fill="#BBCCE7"/>
<path d="M862.932 257.479L862.504 257.944C862.242 258.251 861.92 258.5 861.557 258.677C861.18 258.81 860.777 258.857 860.377 258.815C859.978 258.773 859.593 258.642 859.248 258.433C859.146 258.387 859.047 258.333 858.953 258.271L859.375 257.813L859.67 257.975C860.014 258.184 860.4 258.315 860.799 258.357C861.198 258.399 861.601 258.352 861.979 258.219C862.344 258.04 862.666 257.786 862.925 257.473" fill="#95AACB"/>
<path d="M859.379 257.816L858.957 258.274C858.705 258.134 858.466 257.971 858.244 257.786L858.666 257.328C858.891 257.509 859.129 257.672 859.379 257.816Z" fill="#AFC0DB"/>
<path d="M858.665 257.328L858.244 257.786C858.056 257.637 857.879 257.474 857.716 257.298L858.138 256.84C858.301 257.016 858.478 257.179 858.665 257.328Z" fill="#AFC0DB"/>
<path d="M858.136 256.84L857.715 257.298C857.535 257.104 857.372 256.895 857.226 256.674L857.648 256.216C857.796 256.435 857.959 256.644 858.136 256.84Z" fill="#BBCCE7"/>
<path d="M857.662 256.229L857.24 256.687C857.201 256.657 857.166 256.624 857.133 256.588C856.93 256.269 856.769 255.925 856.653 255.565L857.074 255.107C857.196 255.465 857.357 255.808 857.555 256.13C857.595 256.167 857.628 256.198 857.668 256.235" fill="#BBCCE7"/>
<path d="M857.076 255.064L856.642 255.535C856.499 255.118 856.421 254.681 856.413 254.241L856.834 253.783C856.849 254.222 856.926 254.658 857.064 255.077" fill="#BBCCE7"/>
<path d="M856.846 253.769L856.425 254.227L856.419 254.086L856.84 253.628L856.84 253.763" fill="#BBCCE7"/>
<path d="M855.349 252.31C855.403 252.064 855.52 251.964 855.673 251.958C855.889 251.976 856.098 252.043 856.285 252.154L857.018 252.513C857.155 252.04 857.399 251.605 857.731 251.243C857.907 251.038 858.149 250.902 858.416 250.857C858.683 250.812 858.958 250.862 859.194 250.998C859.494 251.098 859.748 251.306 859.906 251.581C860.063 251.857 860.114 252.18 860.048 252.488C859.967 252.774 859.83 253.04 859.647 253.273C859.466 253.491 859.333 253.745 859.257 254.019C859.193 254.293 859.212 254.58 859.313 254.845C859.432 255.135 859.655 255.372 859.938 255.509C860.093 255.602 860.271 255.647 860.45 255.638C860.728 255.561 860.968 255.386 861.127 255.146C861.289 254.902 861.471 254.665 861.665 254.414C862.071 253.771 862.713 253.314 863.455 253.141C864.197 252.968 864.979 253.093 865.635 253.489C866.576 253.948 867.362 254.675 867.894 255.578C868.412 256.384 868.657 257.335 868.59 258.287L869.619 258.796C870.196 259.083 870.44 259.395 870.366 259.757C870.293 260.12 869.948 260.145 869.371 259.857L868.401 259.378C868.204 260.053 867.806 260.649 867.259 261.088C867.08 261.228 866.864 261.316 866.636 261.34C866.409 261.364 866.178 261.324 865.971 261.224C865.645 261.082 865.376 260.834 865.209 260.519C865.06 260.241 865.019 259.918 865.092 259.612C865.213 259.292 865.384 258.994 865.598 258.728C865.869 258.386 866.067 257.993 866.181 257.571C866.244 257.269 866.195 256.954 866.046 256.683C865.879 256.369 865.61 256.121 865.284 255.979C864.843 255.751 864.483 255.738 864.206 255.941C863.874 256.199 863.587 256.511 863.356 256.863C862.997 257.437 862.497 257.91 861.904 258.237C861.526 258.37 861.123 258.416 860.723 258.374C860.324 258.332 859.938 258.201 859.593 257.992C858.737 257.55 858.016 256.884 857.508 256.064C857.043 255.33 856.796 254.479 856.798 253.612L856.011 253.217C855.513 252.965 855.275 252.659 855.349 252.31Z" fill="white"/>
</g>
<g clip-path="url(#clip1)">
<path d="M1135.59 324.812L1133.32 325.456C1134.28 323.672 1135.84 322.296 1137.72 321.581L1139.99 320.936C1138.11 321.651 1136.55 323.027 1135.59 324.812Z" fill="#2BA96C"/>
<path d="M1139.99 320.936L1137.72 321.581L1138.18 321.439L1140.45 320.795C1140.29 320.833 1140.14 320.889 1139.99 320.936Z" fill="#28734C"/>
<path d="M1147.36 345.591L1145.09 346.236C1142.25 347.007 1138.95 346.106 1136.21 343.345C1134.33 341.393 1132.98 338.985 1132.29 336.352L1134.56 335.708C1135.24 338.342 1136.6 340.751 1138.48 342.701C1141.21 345.461 1144.51 346.398 1147.36 345.591Z" fill="#2BA96C"/>
<path d="M1134.56 335.744L1132.29 336.389C1131.21 332.75 1131.58 328.827 1133.32 325.456L1135.59 324.812C1133.85 328.183 1133.48 332.106 1134.56 335.744Z" fill="#35B477"/>
<path d="M1135.59 324.812C1138.56 319.553 1144.74 319.047 1149.33 323.667C1153.92 328.287 1155.21 336.335 1152.22 341.593C1149.22 346.85 1143.07 347.348 1138.49 342.738C1133.9 338.127 1132.6 330.069 1135.59 324.812Z" fill="#50DD99"/>
<path d="M1146.29 341.544L1145.67 341.547C1145.45 341.548 1145.26 341.312 1145.12 340.831L1145.75 340.828C1145.89 341.31 1146.07 341.545 1146.3 341.544" fill="#7D94BA"/>
<path d="M1145.74 340.828L1145.12 340.839L1144.81 339.794L1145.44 339.792L1145.74 340.828Z" fill="#7D94BA"/>
<path d="M1145.81 336.23L1145.19 336.233C1145.21 336.168 1145.23 336.101 1145.25 336.033L1145.87 336.03C1145.85 336.098 1145.83 336.165 1145.81 336.23Z" fill="#AFC0DB"/>
<path d="M1145.87 336.03L1145.25 336.032C1145.25 335.954 1145.25 335.875 1145.25 335.796L1145.87 335.793C1145.88 335.875 1145.88 335.957 1145.87 336.039" fill="#95AACB"/>
<path d="M1145.91 335.784L1145.29 335.786C1145.29 335.714 1145.29 335.641 1145.29 335.568L1145.91 335.566C1145.92 335.638 1145.92 335.711 1145.91 335.784Z" fill="#95AACB"/>
<path d="M1145.91 335.565L1145.28 335.568C1145.29 335.48 1145.29 335.392 1145.28 335.305L1145.91 335.302C1145.91 335.386 1145.91 335.472 1145.91 335.556" fill="#95AACB"/>
<path d="M1145.87 335.31L1145.25 335.312C1145.25 335.273 1145.25 335.234 1145.25 335.194C1145.11 334.713 1144.88 334.45 1144.55 334.379L1145.17 334.376C1145.51 334.442 1145.75 334.713 1145.88 335.192L1145.88 335.31" fill="#7D94BA"/>
<path d="M1145.14 334.375L1144.51 334.378C1144.34 334.347 1144.16 334.333 1143.98 334.335L1144.6 334.332C1144.78 334.321 1144.96 334.336 1145.14 334.375Z" fill="#8397B8"/>
<path d="M1143.56 331.541L1142.94 331.543C1143.23 331.497 1143.51 331.469 1143.79 331.441L1144.42 331.438C1144.14 331.439 1143.85 331.495 1143.57 331.541" fill="#95AACB"/>
<path d="M1143.1 337.487L1142.48 337.49C1142.77 337.399 1143.07 337.337 1143.38 337.305C1143.69 337.271 1143.99 337.197 1144.28 337.083L1144.91 337.081C1144.6 337.195 1144.29 337.267 1143.96 337.293C1143.66 337.323 1143.35 337.388 1143.06 337.487" fill="#BBCCE7"/>
<path d="M1144.95 337.08L1144.32 337.083C1144.43 337.044 1144.52 336.998 1144.62 336.945C1144.71 336.895 1144.78 336.833 1144.85 336.763L1145.49 336.76C1145.42 336.831 1145.34 336.893 1145.25 336.943L1144.95 337.089" fill="#BBCCE7"/>
<path d="M1145.49 336.75L1144.85 336.753C1144.95 336.662 1145.03 336.558 1145.09 336.443L1145.72 336.441C1145.66 336.554 1145.58 336.659 1145.49 336.75Z" fill="#BBCCE7"/>
<path d="M1145.72 336.44L1145.09 336.443C1145.13 336.373 1145.16 336.3 1145.19 336.224L1145.81 336.222C1145.78 336.294 1145.75 336.364 1145.72 336.431" fill="#BBCCE7"/>
<path d="M1142.69 326.755L1142.02 326.758L1142.24 326.667L1142.87 326.664L1142.65 326.756" fill="#BBCCE7"/>
<path d="M1142.92 326.664L1142.29 326.666C1142.6 326.539 1142.91 326.455 1143.24 326.418L1143.83 326.415C1143.52 326.448 1143.21 326.529 1142.92 326.655" fill="#BBCCE7"/>
<path d="M1143.86 340.169L1143.24 340.172C1143.07 340.181 1142.91 340.166 1142.75 340.128C1142.53 340.091 1142.32 339.992 1142.14 339.842C1141.97 339.692 1141.84 339.497 1141.78 339.278C1141.78 339.233 1141.78 339.178 1141.73 339.133L1142.36 339.13C1142.36 339.179 1142.36 339.227 1142.36 339.276C1142.43 339.495 1142.56 339.691 1142.73 339.841C1142.9 339.991 1143.11 340.09 1143.34 340.126C1143.5 340.162 1143.66 340.18 1143.82 340.178" fill="#95AACB"/>
<path d="M1142.39 339.119L1141.76 339.122C1141.75 339.025 1141.75 338.928 1141.76 338.831L1142.38 338.829C1142.38 338.927 1142.4 339.024 1142.42 339.119" fill="#AFC0DB"/>
<path d="M1142.34 338.828L1141.72 338.831C1141.71 338.759 1141.71 338.685 1141.72 338.613L1142.34 338.61L1142.34 338.828Z" fill="#AFC0DB"/>
<path d="M1142.34 338.61L1141.72 338.612C1141.71 338.54 1141.71 338.467 1141.72 338.394L1142.35 338.392C1142.35 338.464 1142.35 338.537 1142.35 338.61" fill="#AFC0DB"/>
<path d="M1142.38 338.391L1141.75 338.394L1141.8 338.221C1141.82 338.158 1141.86 338.097 1141.89 338.039L1142.51 338.036C1142.48 338.098 1142.46 338.162 1142.43 338.227C1142.41 338.279 1142.39 338.334 1142.38 338.391Z" fill="#BBCCE7"/>
<path d="M1142.51 338.036L1141.89 338.038C1141.95 337.926 1142.02 337.824 1142.11 337.738L1142.74 337.735C1142.65 337.825 1142.57 337.926 1142.51 338.036Z" fill="#BBCCE7"/>
<path d="M1142.74 337.734L1142.11 337.737C1142.2 337.652 1142.29 337.578 1142.39 337.518L1143.02 337.515C1142.91 337.575 1142.82 337.645 1142.74 337.725" fill="#BBCCE7"/>
<path d="M1141.71 325.367L1141.12 325.369L1141.22 325.369L1141.85 325.366L1141.74 325.421" fill="#DAE4F6"/>
<path d="M1141.75 327.369L1141.13 327.371L1140.89 326.535L1141.51 326.524L1141.75 327.369Z" fill="#95AACB"/>
<path d="M1141.51 326.523L1140.88 326.526C1140.88 326.462 1140.88 326.408 1140.88 326.353L1141.5 326.351C1141.51 326.406 1141.53 326.46 1141.54 326.514" fill="#BBCCE7"/>
<path d="M1141.46 326.359L1140.84 326.362C1140.82 326.26 1140.8 326.157 1140.79 326.053L1141.42 326.05C1141.41 326.153 1141.41 326.256 1141.42 326.359" fill="#BBCCE7"/>
<path d="M1141.42 326.086L1140.79 326.089L1140.79 325.926L1141.42 325.923C1141.41 325.98 1141.41 326.038 1141.42 326.095" fill="#BBCCE7"/>
<path d="M1141.42 325.877L1140.79 325.88L1140.79 325.744L1141.41 325.741C1141.4 325.786 1141.4 325.832 1141.41 325.877" fill="#BBCCE7"/>
<path d="M1141.43 325.74L1140.81 325.743C1140.82 325.685 1140.84 325.629 1140.87 325.579L1141.5 325.577C1141.47 325.628 1141.45 325.683 1141.43 325.74Z" fill="#BBCCE7"/>
<path d="M1141.5 325.576L1140.88 325.579C1140.9 325.531 1140.93 325.488 1140.97 325.452L1141.59 325.449C1141.55 325.484 1141.52 325.524 1141.5 325.567" fill="#BBCCE7"/>
<path d="M1141.59 325.458L1140.97 325.46L1141.08 325.369L1141.7 325.367L1141.59 325.458Z" fill="#BBCCE7"/>
<path d="M1143.08 334.444L1142.45 334.447C1142.04 334.464 1141.64 334.397 1141.27 334.252C1140.91 334.066 1140.6 333.802 1140.36 333.481C1140.12 333.16 1139.95 332.789 1139.87 332.394C1139.84 332.288 1139.81 332.178 1139.79 332.067L1140.41 332.065L1140.5 332.392C1140.58 332.786 1140.74 333.157 1140.98 333.478C1141.23 333.8 1141.53 334.063 1141.89 334.249C1142.27 334.395 1142.67 334.458 1143.08 334.435" fill="#95AACB"/>
<path d="M1140.41 332.071L1139.79 332.073C1139.72 331.793 1139.68 331.507 1139.66 331.219L1140.29 331.216C1140.31 331.504 1140.35 331.79 1140.41 332.071Z" fill="#AFC0DB"/>
<path d="M1140.29 331.215L1139.67 331.218C1139.65 330.979 1139.65 330.739 1139.66 330.5L1140.29 330.497C1140.27 330.736 1140.27 330.976 1140.29 331.215Z" fill="#AFC0DB"/>
<path d="M1140.28 330.496L1139.66 330.499C1139.68 330.235 1139.72 329.973 1139.79 329.716L1140.41 329.714C1140.35 329.971 1140.31 330.233 1140.28 330.496Z" fill="#BBCCE7"/>
<path d="M1140.41 329.731L1139.79 329.734C1139.78 329.685 1139.78 329.637 1139.79 329.588C1139.88 329.222 1140.02 328.87 1140.21 328.54L1140.83 328.538C1140.65 328.87 1140.51 329.222 1140.41 329.586C1140.41 329.64 1140.41 329.686 1140.41 329.74" fill="#BBCCE7"/>
<path d="M1140.86 328.51L1140.22 328.512C1140.43 328.123 1140.7 327.769 1141.02 327.463L1141.64 327.461C1141.33 327.771 1141.06 328.124 1140.85 328.51" fill="#BBCCE7"/>
<path d="M1141.66 327.46L1141.04 327.463L1141.13 327.363L1141.76 327.36L1141.66 327.451" fill="#BBCCE7"/>
<path d="M1141.71 325.37C1141.92 325.242 1142.08 325.259 1142.19 325.368C1142.32 325.538 1142.41 325.737 1142.46 325.949L1142.69 326.731C1143.13 326.509 1143.62 326.392 1144.11 326.389C1144.38 326.378 1144.64 326.463 1144.86 326.628C1145.07 326.794 1145.22 327.029 1145.29 327.294C1145.42 327.582 1145.44 327.91 1145.34 328.213C1145.25 328.515 1145.05 328.773 1144.77 328.934C1144.51 329.069 1144.22 329.15 1143.93 329.174C1143.64 329.19 1143.37 329.265 1143.11 329.396C1142.87 329.535 1142.67 329.745 1142.55 329.999C1142.42 330.284 1142.39 330.609 1142.49 330.909C1142.52 331.086 1142.61 331.247 1142.74 331.372C1142.99 331.524 1143.28 331.581 1143.56 331.533C1143.85 331.486 1144.15 331.458 1144.46 331.429C1145.21 331.289 1145.98 331.449 1146.61 331.875C1147.25 332.301 1147.69 332.959 1147.84 333.709C1148.15 334.711 1148.15 335.781 1147.85 336.785C1147.61 337.714 1147.08 338.54 1146.34 339.139L1146.67 340.239C1146.85 340.857 1146.79 341.249 1146.47 341.441C1146.15 341.634 1145.9 341.398 1145.72 340.78L1145.41 339.744C1144.78 340.058 1144.07 340.172 1143.38 340.07C1143.16 340.034 1142.94 339.935 1142.77 339.785C1142.6 339.634 1142.47 339.438 1142.4 339.219C1142.29 338.884 1142.29 338.517 1142.4 338.181C1142.51 337.882 1142.71 337.632 1142.99 337.478C1143.3 337.349 1143.64 337.271 1143.98 337.247C1144.41 337.213 1144.84 337.09 1145.22 336.887C1145.49 336.727 1145.69 336.478 1145.78 336.184C1145.9 335.847 1145.9 335.482 1145.78 335.146C1145.65 334.667 1145.41 334.395 1145.07 334.33C1144.66 334.263 1144.24 334.264 1143.82 334.335C1143.15 334.463 1142.47 334.419 1141.83 334.206C1141.47 334.02 1141.16 333.756 1140.92 333.434C1140.68 333.113 1140.51 332.741 1140.43 332.346C1140.17 331.419 1140.17 330.437 1140.43 329.507C1140.65 328.666 1141.1 327.906 1141.74 327.317L1141.49 326.472C1141.34 325.936 1141.4 325.553 1141.71 325.37Z" fill="white"/>
</g>
<g clip-path="url(#clip2)">
<path d="M200.621 58.3578L198.959 59.7665C199.081 57.902 199.868 56.1489 201.175 54.8301L202.836 53.4214C201.529 54.7402 200.743 56.4932 200.621 58.3578Z" fill="#2BA96C"/>
<path d="M202.836 53.4213L201.174 54.83L201.505 54.5361L203.167 53.1274C203.051 53.2186 202.949 53.3223 202.836 53.4213Z" fill="#28734C"/>
<path d="M218.451 71.3229L216.789 72.7316C214.693 74.4663 211.579 74.9678 208.22 73.6958C205.894 72.7734 203.839 71.2658 202.251 69.3178L203.913 67.9091C205.498 69.8596 207.554 71.3676 209.882 72.2871C213.233 73.5621 216.359 73.0919 218.451 71.3229Z" fill="#2BA96C"/>
<path d="M203.933 67.9373L202.271 69.346C199.971 66.702 198.783 63.2643 198.959 59.7666L200.62 58.3578C200.444 61.8556 201.633 65.2933 203.933 67.9373Z" fill="#35B477"/>
<path d="M200.621 58.3577C201.106 52.8053 206.107 50.0192 211.73 52.1477C217.353 54.2761 221.512 60.5465 221.004 66.1081C220.495 71.6697 215.515 74.4388 209.902 72.3151C204.289 70.1914 200.112 63.9194 200.621 58.3577Z" fill="#50DD99"/>
<path d="M216.002 68.3323L215.48 68.5721C215.298 68.6555 215.048 68.53 214.75 68.1777L215.272 67.938C215.578 68.2868 215.82 68.4157 216.009 68.3289" fill="#7D94BA"/>
<path d="M215.263 67.9407L214.745 68.1882L214.086 67.4279L214.616 67.1846L215.263 67.9407Z" fill="#7D94BA"/>
<path d="M213.563 64.0515L213.041 64.2915C213.039 64.2269 213.031 64.1627 213.018 64.0994L213.54 63.8595C213.551 63.9229 213.559 63.9871 213.563 64.0515Z" fill="#AFC0DB"/>
<path d="M213.54 63.859L213.018 64.0989C212.992 64.031 212.962 63.9647 212.928 63.9006L213.45 63.6606C213.488 63.7257 213.52 63.7948 213.544 63.8666" fill="#95AACB"/>
<path d="M213.477 63.6382L212.955 63.8782C212.934 63.8141 212.906 63.7526 212.871 63.6952L213.393 63.4552C213.428 63.5126 213.456 63.5741 213.477 63.6382Z" fill="#95AACB"/>
<path d="M213.392 63.4547L212.871 63.6947C212.841 63.6193 212.807 63.5455 212.77 63.4735L213.291 63.2335C213.331 63.3011 213.364 63.3727 213.389 63.4471" fill="#95AACB"/>
<path d="M213.265 63.2542L212.743 63.494C212.73 63.4599 212.715 63.4267 212.698 63.3948C212.399 63.0424 212.101 62.9114 211.801 62.9755L212.323 62.7357C212.631 62.6619 212.933 62.8006 213.227 63.1515L213.273 63.2508" fill="#7D94BA"/>
<path d="M212.293 62.7488L211.771 62.9884C211.612 63.0298 211.457 63.0857 211.308 63.1553L211.83 62.9158C211.976 62.8383 212.132 62.7821 212.293 62.7488Z" fill="#8397B8"/>
<path d="M209.884 60.9693L209.362 61.2089C209.587 61.0598 209.819 60.9259 210.043 60.7955L210.565 60.5559C210.33 60.6635 210.109 60.8202 209.892 60.9658" fill="#95AACB"/>
<path d="M211.767 66.1426L211.245 66.3824C211.457 66.194 211.687 66.0266 211.931 65.8826C212.178 65.7367 212.405 65.5584 212.604 65.3523L213.134 65.109C212.922 65.3215 212.682 65.5033 212.42 65.649C212.173 65.7913 211.944 65.9616 211.736 66.1565" fill="#BBCCE7"/>
<path d="M213.171 65.0915L212.641 65.3349C212.713 65.2634 212.779 65.1869 212.839 65.1058C212.891 65.0307 212.934 64.9491 212.966 64.863L213.495 64.6195C213.464 64.7059 213.421 64.7877 213.368 64.8624L213.174 65.0991" fill="#BBCCE7"/>
<path d="M213.492 64.6114L212.962 64.8549C213.005 64.7429 213.032 64.625 213.04 64.5052L213.57 64.2617C213.56 64.3814 213.534 64.4992 213.492 64.6114Z" fill="#BBCCE7"/>
<path d="M213.568 64.2616L213.039 64.505C213.044 64.4314 213.044 64.3574 213.038 64.2838L213.56 64.0438C213.567 64.1136 213.569 64.1839 213.565 64.2539" fill="#BBCCE7"/>
<path d="M207.327 57.2795L206.767 57.5367L206.914 57.3773L207.443 57.134L207.297 57.2934" fill="#BBCCE7"/>
<path d="M207.489 57.1128L206.959 57.3561C207.165 57.1338 207.4 56.9418 207.659 56.7856L208.151 56.5597C207.902 56.706 207.678 56.89 207.485 57.1052" fill="#BBCCE7"/>
<path d="M213.434 68.1043L212.912 68.3443C212.778 68.4148 212.635 68.4652 212.486 68.494C212.283 68.5487 212.069 68.5458 211.867 68.4855C211.665 68.4253 211.483 68.31 211.342 68.1524C211.324 68.1143 211.303 68.0685 211.248 68.0477L211.778 67.8042C211.792 67.8468 211.81 67.8877 211.833 67.9263C211.974 68.0846 212.156 68.2005 212.358 68.2608C212.56 68.3211 212.775 68.3236 212.978 68.2679C213.126 68.2374 213.27 68.1897 213.407 68.1258" fill="#95AACB"/>
<path d="M211.795 67.7846L211.265 68.0281C211.221 67.9501 211.184 67.8684 211.154 67.784L211.676 67.544C211.718 67.624 211.768 67.6999 211.825 67.7707" fill="#AFC0DB"/>
<path d="M211.646 67.5576L211.124 67.7975C211.089 67.7401 211.061 67.6787 211.041 67.6146L211.563 67.3746L211.646 67.5576Z" fill="#AFC0DB"/>
<path d="M211.561 67.3743L211.039 67.6143C211.008 67.555 210.98 67.4939 210.956 67.4312L211.485 67.1878C211.51 67.2504 211.537 67.3115 211.569 67.3708" fill="#AFC0DB"/>
<path d="M211.507 67.1768L210.978 67.4203L210.957 67.2545C210.953 67.192 210.955 67.1293 210.963 67.0671L211.485 66.8271C211.483 66.891 211.484 66.955 211.49 67.0186C211.488 67.0719 211.494 67.1252 211.507 67.1768Z" fill="#BBCCE7"/>
<path d="M211.484 66.8269L210.963 67.0668C210.968 66.9504 210.993 66.8359 211.037 66.7282L211.559 66.4883C211.519 66.5973 211.494 66.7112 211.484 66.8269Z" fill="#BBCCE7"/>
<path d="M211.558 66.4881L211.037 66.728C211.074 66.6249 211.125 66.5272 211.188 66.4374L211.709 66.1974C211.648 66.2858 211.596 66.3807 211.555 66.4805" fill="#BBCCE7"/>
<path d="M205.968 56.4892L205.477 56.7151L205.56 56.6769L206.089 56.4337L206.019 56.5209" fill="#DAE4F6"/>
<path d="M206.776 58.1523L206.254 58.3921L205.728 57.7832L206.247 57.5357L206.776 58.1523Z" fill="#95AACB"/>
<path d="M206.246 57.5354L205.717 57.7788C205.692 57.7255 205.671 57.6798 205.65 57.634L206.172 57.3941C206.203 57.4359 206.237 57.4758 206.273 57.5139" fill="#BBCCE7"/>
<path d="M206.145 57.4146L205.623 57.6547C205.562 57.5795 205.507 57.4998 205.459 57.4161L205.988 57.1726C206.022 57.2617 206.062 57.3483 206.107 57.432" fill="#BBCCE7"/>
<path d="M206.002 57.2028L205.473 57.4462L205.41 57.3091L205.94 57.0657C205.954 57.1171 205.976 57.166 206.006 57.2105" fill="#BBCCE7"/>
<path d="M205.921 57.0272L205.392 57.2706L205.34 57.1564L205.862 56.9165C205.875 56.9561 205.893 56.9944 205.914 57.0307" fill="#BBCCE7"/>
<path d="M205.883 56.9062L205.361 57.1462C205.347 57.0935 205.344 57.0386 205.352 56.9847L205.874 56.7448C205.87 56.7988 205.873 56.853 205.883 56.9062Z" fill="#BBCCE7"/>
<path d="M205.873 56.7442L205.351 56.9841C205.351 56.9357 205.36 56.8877 205.378 56.8428L205.9 56.6029C205.884 56.646 205.874 56.6909 205.87 56.7366" fill="#BBCCE7"/>
<path d="M205.904 56.6102L205.382 56.8501L205.446 56.7289L205.968 56.489L205.904 56.6102Z" fill="#BBCCE7"/>
<path d="M210.591 63.5918L210.061 63.8354C209.729 64.0035 209.365 64.1015 208.993 64.1232C208.624 64.1019 208.265 63.9985 207.94 63.8206C207.615 63.6426 207.332 63.3945 207.114 63.094C207.043 63.018 206.978 62.9366 206.92 62.8505L207.442 62.6104L207.636 62.8539C207.854 63.1544 208.137 63.4025 208.462 63.5805C208.787 63.7584 209.147 63.8618 209.515 63.8831C209.89 63.8604 210.255 63.7585 210.587 63.5842" fill="#95AACB"/>
<path d="M207.446 62.6151L206.924 62.8552C206.759 62.6462 206.614 62.4222 206.49 62.186L207.012 61.9459C207.14 62.1796 207.285 62.4033 207.446 62.6151Z" fill="#AFC0DB"/>
<path d="M207.01 61.9454L206.488 62.1856C206.381 61.9917 206.289 61.79 206.213 61.5822L206.735 61.342C206.811 61.5498 206.903 61.7515 207.01 61.9454Z" fill="#AFC0DB"/>
<path d="M206.734 61.3419L206.212 61.5821C206.128 61.3526 206.063 61.1166 206.018 60.8766L206.54 60.6364C206.588 60.8758 206.653 61.1116 206.734 61.3419Z" fill="#BBCCE7"/>
<path d="M206.546 60.6515L206.024 60.8917C206.002 60.8526 205.983 60.8117 205.968 60.7695C205.909 60.4254 205.894 60.0752 205.923 59.7276L206.445 59.4874C206.421 59.8351 206.437 60.1846 206.49 60.5293C206.511 60.5751 206.529 60.6133 206.55 60.6592" fill="#BBCCE7"/>
<path d="M206.463 59.451L205.926 59.698C205.952 59.2915 206.042 58.8919 206.191 58.5139L206.713 58.2738C206.569 58.6536 206.48 59.0523 206.448 59.4579" fill="#BBCCE7"/>
<path d="M206.728 58.2665L206.206 58.5064L206.251 58.3845L206.773 58.1446L206.725 58.2589" fill="#BBCCE7"/>
<path d="M205.971 56.4907C206.104 56.3003 206.24 56.2565 206.373 56.3065C206.55 56.3987 206.704 56.5303 206.823 56.6912L207.32 57.2578C207.605 56.9033 207.968 56.6199 208.38 56.4292C208.602 56.3177 208.857 56.2878 209.101 56.3447C209.344 56.4016 209.56 56.5418 209.713 56.7413C209.933 56.9336 210.075 57.2009 210.111 57.4915C210.148 57.7821 210.076 58.0754 209.91 58.3148C209.739 58.5289 209.528 58.7073 209.289 58.8403C209.057 58.9614 208.854 59.1305 208.692 59.3366C208.539 59.547 208.453 59.799 208.445 60.06C208.443 60.3502 208.549 60.6313 208.742 60.8484C208.84 60.9824 208.976 61.0842 209.132 61.1407C209.396 61.174 209.663 61.1105 209.883 60.9618C210.108 60.8123 210.347 60.6747 210.602 60.5301C211.177 60.1267 211.886 59.9663 212.58 60.083C213.273 60.1998 213.895 60.5845 214.313 61.1551C214.951 61.8807 215.362 62.7795 215.493 63.7376C215.648 64.6088 215.518 65.5056 215.122 66.2931L215.818 67.0924C216.206 67.5425 216.304 67.8954 216.112 68.1775C215.92 68.4597 215.618 68.3584 215.229 67.9083L214.573 67.1555C214.165 67.6597 213.614 68.0259 212.992 68.2053C212.789 68.2609 212.574 68.2584 212.372 68.1978C212.169 68.1373 211.988 68.0212 211.847 67.8626C211.619 67.6261 211.479 67.3187 211.448 66.9916C211.421 66.7012 211.5 66.4112 211.672 66.1772C211.889 65.9478 212.14 65.7543 212.417 65.6037C212.769 65.4092 213.078 65.1446 213.325 64.8259C213.486 64.5912 213.557 64.3059 213.526 64.0219C213.495 63.695 213.355 63.3878 213.128 63.1509C212.833 62.7995 212.531 62.6607 212.223 62.7345C211.848 62.8366 211.493 62.9999 211.171 63.2178C210.661 63.5793 210.067 63.8043 209.446 63.8716C209.076 63.8501 208.716 63.7465 208.391 63.5682C208.066 63.39 207.783 63.1415 207.564 62.8408C206.992 62.1599 206.615 61.3355 206.474 60.4569C206.339 59.6656 206.432 58.853 206.741 58.1154L206.212 57.4987C205.878 57.107 205.784 56.7618 205.971 56.4907Z" fill="white"/>
</g>
<g clip-path="url(#clip3)">
<path d="M56.8875 190.978L58.3075 193.49C55.9116 192.869 53.8262 191.409 52.4351 189.381L51.0152 186.869C52.4063 188.897 54.4917 190.356 56.8875 190.978Z" fill="#2BA96C"/>
<path d="M51.0146 186.868L52.4345 189.381L52.1343 188.877L50.7145 186.364C50.8043 186.538 50.9138 186.697 51.0146 186.868Z" fill="#28734C"/>
<path d="M78.1879 171.001L79.6078 173.513C81.3437 176.672 81.2224 180.848 78.7322 184.903C76.9538 187.7 74.4813 189.999 71.5521 191.581L70.1322 189.068C73.0641 187.491 75.5374 185.19 77.3123 182.39C79.8045 178.346 79.9696 174.162 78.1879 171.001Z" fill="#2BA96C"/>
<path d="M70.1759 189.049L71.5958 191.561C67.5839 193.896 62.8154 194.589 58.3081 193.49L56.8881 190.978C61.3955 192.076 66.164 191.384 70.1759 189.049Z" fill="#35B477"/>
<path d="M56.8876 190.977C49.7837 188.966 47.4016 181.766 51.5689 174.978C55.7363 168.19 64.9287 164.338 72.0389 166.382C79.149 168.426 81.514 175.595 77.3555 182.37C73.197 189.145 63.9978 193.021 56.8876 190.977Z" fill="#50DD99"/>
<path d="M73.6901 173.442L73.8722 174.181C73.9356 174.438 73.7103 174.732 73.1777 175.033L72.9956 174.294C73.5255 173.982 73.7534 173.699 73.6875 173.431" fill="#7D94BA"/>
<path d="M72.9971 174.305L73.1902 175.041L72.0371 175.709L71.8522 174.959L72.9971 174.305Z" fill="#7D94BA"/>
<path d="M67.5137 175.549L67.6962 176.287C67.6116 176.275 67.526 176.269 67.4405 176.27L67.258 175.532C67.3435 175.532 67.4289 175.538 67.5137 175.549Z" fill="#AFC0DB"/>
<path d="M67.2582 175.532L67.4407 176.27C67.3458 176.287 67.2521 176.31 67.1602 176.339L66.9776 175.6C67.0719 175.566 67.1696 175.542 67.269 175.529" fill="#95AACB"/>
<path d="M66.9553 175.559L67.1378 176.297C67.0493 176.308 66.9623 176.329 66.8789 176.361L66.6964 175.622C66.7798 175.591 66.8668 175.569 66.9553 175.559Z" fill="#95AACB"/>
<path d="M66.6948 175.622L66.8774 176.361C66.7718 176.381 66.6674 176.407 66.5645 176.437L66.3819 175.698C66.4798 175.664 66.581 175.639 66.6841 175.625" fill="#95AACB"/>
<path d="M66.4025 175.739L66.5847 176.478C66.5371 176.486 66.4902 176.498 66.4443 176.512C65.9116 176.813 65.6671 177.168 65.6758 177.575L65.4936 176.836C65.4742 176.417 65.7295 176.059 66.2595 175.762L66.3999 175.728" fill="#7D94BA"/>
<path d="M65.5029 176.879L65.6849 177.618C65.6992 177.835 65.7333 178.051 65.7869 178.263L65.6049 177.524C65.5404 177.315 65.5061 177.098 65.5029 176.879Z" fill="#8397B8"/>
<path d="M62.5885 179.57L62.7705 180.309C62.6324 179.98 62.5157 179.645 62.4017 179.321L62.2197 178.582C62.3015 178.914 62.4503 179.241 62.5858 179.56" fill="#95AACB"/>
<path d="M69.7893 178.406L69.9717 179.145C69.7793 178.822 69.6187 178.481 69.4921 178.127C69.3636 177.77 69.1878 177.431 68.9694 177.12L68.7843 176.371C69.0082 176.699 69.1849 177.057 69.3095 177.434C69.4334 177.79 69.5979 178.131 69.7999 178.449" fill="#BBCCE7"/>
<path d="M68.7704 176.318L68.9555 177.067C68.8802 176.957 68.797 176.852 68.7065 176.753C68.6219 176.666 68.5263 176.591 68.4221 176.528L68.237 175.778C68.3417 175.84 68.4374 175.916 68.5214 176.004L68.7812 176.315" fill="#BBCCE7"/>
<path d="M68.2246 175.781L68.4098 176.531C68.2747 176.447 68.128 176.383 67.9742 176.342L67.7891 175.593C67.9424 175.635 68.0891 175.699 68.2246 175.781Z" fill="#BBCCE7"/>
<path d="M67.7886 175.594L67.9737 176.343C67.8792 176.318 67.783 176.299 67.6858 176.288L67.5033 175.55C67.5959 175.558 67.6876 175.574 67.7778 175.596" fill="#BBCCE7"/>
<path d="M57.1522 181.981L57.3477 182.773L57.1768 182.542L56.9919 181.793L57.1628 182.024" fill="#BBCCE7"/>
<path d="M56.9768 181.729L57.1618 182.478C56.9237 182.156 56.7324 181.801 56.5936 181.425L56.4218 180.73C56.5503 181.089 56.7339 181.427 56.966 181.732" fill="#BBCCE7"/>
<path d="M72.7536 176.726L72.9362 177.464C72.9946 177.656 73.0246 177.855 73.0251 178.056C73.0459 178.334 72.9888 178.612 72.8601 178.86C72.7315 179.107 72.5363 179.315 72.2962 179.46C72.2422 179.473 72.1775 179.489 72.1367 179.556L71.9515 178.806C72.0104 178.798 72.0683 178.784 72.1242 178.764C72.3652 178.62 72.5611 178.413 72.6899 178.165C72.8186 177.916 72.8752 177.638 72.8531 177.36C72.8503 177.159 72.8241 176.96 72.775 176.766" fill="#95AACB"/>
<path d="M71.9318 178.778L72.117 179.527C72.0045 179.565 71.8889 179.593 71.7716 179.611L71.5891 178.873C71.7038 178.837 71.815 178.791 71.9212 178.735" fill="#AFC0DB"/>
<path d="M71.5979 178.916L71.7804 179.655C71.697 179.686 71.6101 179.707 71.5215 179.718L71.339 178.979L71.5979 178.916Z" fill="#AFC0DB"/>
<path d="M71.3391 178.98L71.5216 179.719C71.4367 179.745 71.3502 179.766 71.2627 179.782L71.0776 179.032C71.165 179.017 71.2515 178.995 71.3365 178.969" fill="#AFC0DB"/>
<path d="M71.0677 179L71.2529 179.75L71.032 179.735C70.9497 179.725 70.8686 179.706 70.7897 179.681L70.6072 178.942C70.6897 178.961 70.7734 178.975 70.8576 178.983C70.9264 178.999 70.9972 179.005 71.0677 179Z" fill="#BBCCE7"/>
<path d="M70.6071 178.943L70.7896 179.682C70.6394 179.646 70.4965 179.585 70.3675 179.501L70.185 178.762C70.3171 178.841 70.459 178.901 70.6071 178.943Z" fill="#BBCCE7"/>
<path d="M70.1856 178.763L70.368 179.502C70.2431 179.428 70.1286 179.337 70.0274 179.233L69.8449 178.495C69.9447 178.597 70.0553 178.688 70.1748 178.766" fill="#BBCCE7"/>
<path d="M55.7854 183.553L55.957 184.248L55.928 184.131L55.7431 183.381L55.8392 183.494" fill="#DAE4F6"/>
<path d="M58.1499 182.916L58.3322 183.655L57.4092 184.187L57.2162 183.451L58.1499 182.916Z" fill="#95AACB"/>
<path d="M57.215 183.452L57.4001 184.201C57.3247 184.22 57.26 184.236 57.1953 184.251L57.0128 183.513C57.075 183.483 57.1353 183.449 57.1936 183.412" fill="#BBCCE7"/>
<path d="M57.0338 183.552L57.2163 184.291C57.1035 184.351 56.9861 184.403 56.8652 184.445L56.68 183.696C56.8042 183.674 56.9268 183.644 57.047 183.606" fill="#BBCCE7"/>
<path d="M56.7238 183.685L56.9089 184.434L56.7148 184.482L56.5297 183.732C56.6002 183.727 56.6694 183.71 56.7346 183.682" fill="#BBCCE7"/>
<path d="M56.4746 183.746L56.6596 184.496L56.498 184.535L56.3156 183.797C56.3706 183.789 56.4247 183.776 56.4772 183.757" fill="#BBCCE7"/>
<path d="M56.3064 183.766L56.4889 184.505C56.4169 184.51 56.3446 184.501 56.2764 184.478L56.094 183.739C56.1633 183.757 56.2347 183.766 56.3064 183.766Z" fill="#BBCCE7"/>
<path d="M56.0953 183.739L56.2777 184.477C56.2147 184.466 56.1545 184.442 56.1005 184.407L55.9181 183.669C55.9702 183.7 56.0261 183.724 56.0845 183.741" fill="#BBCCE7"/>
<path d="M55.9271 183.666L56.1095 184.405L55.9676 184.292L55.7852 183.553L55.9271 183.666Z" fill="#BBCCE7"/>
<path d="M66.1759 179.304L66.3612 180.053C66.4973 180.528 66.5344 181.025 66.4702 181.514C66.3508 181.989 66.1269 182.431 65.8145 182.81C65.5022 183.189 65.1092 183.494 64.6638 183.704C64.5474 183.777 64.4253 183.841 64.2988 183.896L64.1162 183.157L64.4812 182.965C64.9266 182.755 65.3196 182.45 65.6319 182.071C65.9443 181.692 66.1682 181.25 66.2876 180.775C66.3512 180.282 66.3094 179.782 66.1651 179.306" fill="#95AACB"/>
<path d="M64.1221 183.153L64.3047 183.893C63.9918 184.055 63.6641 184.188 63.3262 184.291L63.1435 183.551C63.4793 183.443 63.8065 183.31 64.1221 183.153Z" fill="#AFC0DB"/>
<path d="M63.1435 183.552L63.3261 184.291C63.0473 184.382 62.762 184.452 62.4726 184.5L62.2899 183.761C62.5793 183.713 62.8647 183.643 63.1435 183.552Z" fill="#AFC0DB"/>
<path d="M62.2894 183.762L62.4721 184.501C62.1527 184.553 61.8295 184.579 61.5059 184.578L61.3233 183.839C61.6467 183.836 61.9696 183.81 62.2894 183.762Z" fill="#BBCCE7"/>
<path d="M61.3451 183.835L61.5278 184.574C61.4715 184.593 61.4136 184.607 61.3549 184.616C60.8924 184.608 60.433 184.54 59.988 184.416L59.8053 183.677C60.2519 183.794 60.7104 183.861 61.1722 183.877C61.237 183.861 61.2911 183.848 61.3559 183.832" fill="#BBCCE7"/>
<path d="M59.7611 183.645L59.949 184.406C59.4266 184.271 58.9288 184.055 58.4741 183.767L58.2915 183.028C58.7499 183.309 59.2466 183.524 59.7664 183.667" fill="#BBCCE7"/>
<path d="M58.2856 183.006L58.468 183.745L58.3205 183.656L58.1382 182.917L58.2748 183.009" fill="#BBCCE7"/>
<path d="M55.7885 183.549C55.5737 183.329 55.5504 183.142 55.6484 182.981C55.8124 182.774 56.0219 182.606 56.261 182.491L57.1219 181.985C56.7315 181.526 56.4527 180.984 56.307 180.401C56.2173 180.083 56.2417 179.744 56.3763 179.441C56.5108 179.139 56.747 178.892 57.0445 178.743C57.3494 178.505 57.7325 178.386 58.1197 178.411C58.5068 178.436 58.8707 178.603 59.1409 178.878C59.3769 179.154 59.5567 179.472 59.6703 179.816C59.7702 180.148 59.9397 180.455 60.1676 180.717C60.4035 180.968 60.71 181.142 61.0475 181.218C61.4247 181.292 61.8167 181.225 62.147 181.028C62.3459 180.933 62.5121 180.782 62.6243 180.593C62.7333 180.258 62.717 179.895 62.5784 179.571C62.4398 179.241 62.3202 178.895 62.1953 178.528C61.8133 177.68 61.781 176.717 62.1053 175.844C62.4295 174.971 63.0847 174.257 63.931 173.855C65.0337 173.206 66.3052 172.895 67.5847 172.961C68.7568 172.976 69.8913 173.369 70.8176 174.079L72.0304 173.373C72.7127 172.979 73.196 172.94 73.5155 173.26C73.835 173.579 73.6279 173.948 72.9457 174.342L71.8032 175.008C72.3578 175.664 72.6972 176.473 72.7762 177.326C72.7981 177.604 72.7413 177.883 72.6122 178.131C72.4831 178.38 72.2869 178.588 72.0454 178.732C71.6812 178.969 71.2463 179.075 70.8131 179.033C70.4284 178.997 70.0708 178.822 69.809 178.54C69.5645 178.201 69.3752 177.826 69.2481 177.428C69.0826 176.921 68.8151 176.453 68.4618 176.053C68.1964 175.786 67.8428 175.622 67.4656 175.592C67.0325 175.551 66.5979 175.657 66.2333 175.893C65.7027 176.19 65.4471 176.548 65.4665 176.967C65.5063 177.48 65.6304 177.983 65.8339 178.456C66.1774 179.21 66.3226 180.038 66.2557 180.864C66.136 181.338 65.9116 181.781 65.5988 182.16C65.286 182.539 64.8925 182.845 64.4467 183.056C63.4187 183.63 62.2524 183.916 61.074 183.881C60.0108 183.86 58.9766 183.537 58.0938 182.951L57.1599 183.486C56.567 183.825 56.0945 183.861 55.7885 183.549Z" fill="white"/>
</g>
<mask id="mask0" mask-type="alpha" maskUnits="userSpaceOnUse" x="0" y="0" width="1170" height="398">
<rect width="1170" height="398" rx="10" fill="url(#paint1_linear)"/>
</mask>
<g mask="url(#mask0)">
<path d="M90.59 389.812L88.3197 390.456C89.2755 388.672 90.8373 387.296 92.7173 386.581L94.9877 385.936C93.1076 386.651 91.5459 388.027 90.59 389.812Z" fill="#2BA96C"/>
<path d="M94.9867 385.936L92.7164 386.581L93.1747 386.439L95.445 385.795C95.2897 385.833 95.1425 385.889 94.9867 385.936Z" fill="#28734C"/>
<path d="M89.5639 400.744L87.2936 401.389C86.2106 397.75 86.5793 393.827 88.321 390.456L90.5913 389.812C88.8496 393.183 88.481 397.106 89.5639 400.744Z" fill="#35B477"/>
<path d="M90.5904 389.812C93.558 384.553 99.739 384.047 104.331 388.667C108.923 393.286 110.213 401.335 107.218 406.592C104.224 411.849 98.0704 412.348 93.4871 407.737C88.9038 403.127 87.5958 395.069 90.5904 389.812Z" fill="#50DD99"/>
<path d="M98.5598 396.541L97.9377 396.543C98.2261 396.497 98.5146 396.469 98.794 396.44L99.4161 396.438C99.1366 396.439 98.8482 396.495 98.5689 396.541" fill="#95AACB"/>
<path d="M97.6908 391.755L97.0236 391.758L97.2398 391.667L97.871 391.664L97.6548 391.756" fill="#BBCCE7"/>
<path d="M97.9246 391.663L97.2934 391.666C97.5958 391.539 97.9144 391.455 98.2398 391.417L98.8259 391.415C98.5151 391.448 98.2111 391.529 97.9246 391.654" fill="#BBCCE7"/>
<path d="M96.7052 390.367L96.1191 390.369L96.2183 390.369L96.8495 390.366L96.7414 390.421" fill="#DAE4F6"/>
<path d="M96.7544 392.369L96.132 392.371L95.8867 391.535L96.5091 391.523L96.7544 392.369Z" fill="#95AACB"/>
<path d="M96.5085 391.523L95.8773 391.526C95.8771 391.462 95.877 391.408 95.877 391.353L96.4992 391.35C96.5113 391.406 96.5264 391.46 96.5446 391.514" fill="#BBCCE7"/>
<path d="M96.4641 391.359L95.8418 391.362C95.8156 391.26 95.7973 391.157 95.7871 391.053L96.4185 391.05C96.4118 391.153 96.412 391.256 96.419 391.359" fill="#BBCCE7"/>
<path d="M96.4187 391.086L95.7874 391.089L95.7871 390.925L96.4184 390.923C96.4094 390.98 96.4095 391.038 96.4187 391.095" fill="#BBCCE7"/>
<path d="M96.4166 390.877L95.7854 390.879L95.7852 390.743L96.4074 390.741C96.4031 390.786 96.4031 390.831 96.4076 390.877" fill="#BBCCE7"/>
<path d="M96.4331 390.74L95.8108 390.743C95.8206 390.685 95.8419 390.629 95.8737 390.579L96.4959 390.576C96.468 390.628 96.4469 390.683 96.4331 390.74Z" fill="#BBCCE7"/>
<path d="M96.4974 390.576L95.8752 390.579C95.8968 390.531 95.9273 390.488 95.9652 390.452L96.5874 390.449C96.5525 390.484 96.5222 390.524 96.4974 390.567" fill="#BBCCE7"/>
<path d="M96.5872 390.457L95.965 390.46L96.0821 390.369L96.7042 390.366L96.5872 390.457Z" fill="#BBCCE7"/>
<path d="M98.079 399.444L97.4475 399.447C97.0442 399.463 96.6419 399.397 96.2653 399.252C95.9111 399.065 95.6025 398.802 95.3618 398.481C95.121 398.16 94.954 397.789 94.8728 397.394C94.8371 397.287 94.8097 397.178 94.791 397.067L95.4135 397.064L95.4953 397.391C95.5765 397.786 95.7435 398.157 95.9843 398.478C96.225 398.799 96.5336 399.063 96.8878 399.249C97.2673 399.394 97.6732 399.458 98.079 399.435" fill="#95AACB"/>
<path d="M95.4146 397.07L94.7919 397.073C94.7229 396.793 94.6801 396.507 94.6641 396.219L95.2868 396.216C95.3079 396.504 95.3506 396.789 95.4146 397.07Z" fill="#AFC0DB"/>
<path d="M95.2879 396.215L94.6651 396.218C94.6467 395.979 94.6463 395.739 94.6639 395.5L95.2866 395.497C95.269 395.736 95.2694 395.976 95.2879 396.215Z" fill="#AFC0DB"/>
<path d="M95.2842 395.496L94.6615 395.499C94.6818 395.235 94.7236 394.973 94.7865 394.716L95.4092 394.713C95.3493 394.971 95.3075 395.233 95.2842 395.496Z" fill="#BBCCE7"/>
<path d="M95.4091 394.731L94.7863 394.734C94.7822 394.685 94.7821 394.637 94.7861 394.588C94.882 394.222 95.0239 393.87 95.2085 393.54L95.8312 393.538C95.652 393.87 95.5103 394.222 95.4088 394.586C95.4089 394.64 95.409 394.686 95.4091 394.74" fill="#BBCCE7"/>
<path d="M95.865 393.51L95.2244 393.512C95.4324 393.123 95.6997 392.769 96.0166 392.463L96.6391 392.461C96.327 392.771 96.0602 393.124 95.8469 393.51" fill="#BBCCE7"/>
<path d="M96.6575 392.46L96.0353 392.463L96.1343 392.363L96.7565 392.36L96.6575 392.451" fill="#BBCCE7"/>
<path d="M96.7078 390.37C96.9241 390.241 97.0775 390.259 97.186 390.368C97.3194 390.538 97.4124 390.737 97.458 390.949L97.6943 391.731C98.1343 391.509 98.6188 391.392 99.1103 391.388C99.3802 391.378 99.645 391.463 99.8593 391.628C100.074 391.793 100.224 392.029 100.285 392.294C100.416 392.582 100.437 392.909 100.342 393.212C100.248 393.515 100.046 393.772 99.7744 393.934C99.5098 394.068 99.2219 394.15 98.9267 394.174C98.6438 394.189 98.3672 394.265 98.115 394.396C97.8703 394.535 97.6726 394.745 97.5477 394.999C97.4157 395.284 97.3939 395.609 97.4864 395.909C97.5236 396.085 97.6119 396.247 97.7401 396.372C97.9858 396.523 98.2774 396.58 98.5616 396.533C98.8503 396.486 99.1481 396.457 99.4638 396.429C100.212 396.289 100.983 396.449 101.615 396.875C102.246 397.301 102.687 397.959 102.844 398.709C103.148 399.71 103.15 400.781 102.85 401.785C102.612 402.714 102.082 403.54 101.339 404.139L101.666 405.239C101.848 405.857 101.786 406.249 101.47 406.441C101.155 406.634 100.902 406.398 100.72 405.78L100.411 404.743C99.7825 405.058 99.0744 405.172 98.381 405.07C98.1557 405.034 97.9449 404.935 97.7724 404.785C97.5999 404.634 97.4726 404.438 97.4046 404.219C97.2862 403.883 97.2855 403.517 97.4024 403.181C97.5051 402.882 97.7134 402.632 97.9875 402.478C98.3043 402.349 98.6391 402.271 98.9797 402.246C99.4143 402.213 99.8377 402.09 100.224 401.887C100.488 401.727 100.686 401.478 100.782 401.183C100.899 400.847 100.898 400.481 100.78 400.146C100.647 399.667 100.412 399.395 100.075 399.33C99.6591 399.262 99.2354 399.264 98.8202 399.335C98.1549 399.463 97.4687 399.418 96.8256 399.206C96.4712 399.02 96.1625 398.756 95.9215 398.434C95.6805 398.113 95.5133 397.741 95.4319 397.346C95.1733 396.418 95.1712 395.436 95.426 394.507C95.6474 393.666 96.103 392.906 96.7389 392.317L96.4935 391.472C96.339 390.935 96.4013 390.553 96.7078 390.37Z" fill="white"/>
<path d="M1140.87 12.4069L1142.29 14.9193C1139.9 14.2973 1137.81 12.8378 1136.42 10.8095L1135 8.29718C1136.39 10.3255 1138.48 11.785 1140.87 12.4069Z" fill="#2BA96C"/>
<path d="M1135 8.29683L1136.42 10.8092L1136.12 10.3053L1134.7 7.79295C1134.79 7.9666 1134.9 8.12526 1135 8.29683Z" fill="#28734C"/>
<path d="M1162.17 -7.56973L1163.59 -5.05736C1165.33 -1.89828 1165.21 2.27707 1162.72 6.3318C1160.94 9.1286 1158.47 11.4279 1155.54 13.0091L1154.12 10.4967C1157.05 8.91924 1159.53 6.61911 1161.3 3.81944C1163.79 -0.22446 1163.96 -4.40816 1162.17 -7.56973Z" fill="#2BA96C"/>
<path d="M1154.16 10.4781L1155.58 12.9904C1151.57 15.3254 1146.8 16.0173 1142.29 14.9185L1140.87 12.4061C1145.38 13.505 1150.15 12.8131 1154.16 10.4781Z" fill="#35B477"/>
<path d="M1140.88 12.4061C1133.77 10.3941 1131.39 3.19477 1135.56 -3.59256C1139.72 -10.3799 1148.92 -14.2313 1156.03 -12.1869C1163.14 -10.1424 1165.5 -2.97346 1161.34 3.80096C1157.19 10.5754 1147.99 14.4506 1140.88 12.4061Z" fill="#50DD99"/>
<path d="M1146.57 0.999054L1146.76 1.73767C1146.62 1.40828 1146.5 1.07362 1146.39 0.749672L1146.21 0.0110545C1146.29 0.342896 1146.44 0.669666 1146.57 0.988355" fill="#95AACB"/>
<path d="M1153.77 -0.165124L1153.96 0.573484C1153.76 0.250328 1153.6 -0.0905256 1153.48 -0.444352C1153.35 -0.801707 1153.17 -1.14046 1152.95 -1.45167L1152.77 -2.20098C1152.99 -1.87244 1153.17 -1.51452 1153.29 -1.13751C1153.42 -0.781572 1153.58 -0.440941 1153.78 -0.122297" fill="#BBCCE7"/>
<path d="M1141.14 3.40915L1141.33 4.20126L1141.16 3.97063L1140.98 3.22134L1141.15 3.45197" fill="#BBCCE7"/>
<path d="M1140.96 3.15741L1141.15 3.90673C1140.91 3.58402 1140.72 3.22957 1140.58 2.8538L1140.41 2.15801C1140.54 2.51787 1140.72 2.85585 1140.95 3.16005" fill="#BBCCE7"/>
<path d="M1156.74 -1.84589L1156.92 -1.10708C1156.98 -0.915311 1157.01 -0.716094 1157.01 -0.515703C1157.03 -0.23785 1156.98 0.0403696 1156.85 0.288174C1156.72 0.535978 1156.52 0.743715 1156.28 0.888423C1156.23 0.9016 1156.17 0.917417 1156.12 0.984131L1155.94 0.234618C1156 0.226711 1156.06 0.212575 1156.11 0.192451C1156.35 0.048681 1156.55 -0.158895 1156.68 -0.406936C1156.81 -0.654976 1156.86 -0.933656 1156.84 -1.21168C1156.84 -1.41203 1156.81 -1.61138 1156.76 -1.80569" fill="#95AACB"/>
<path d="M1155.92 0.206229L1156.11 0.955701C1155.99 0.993545 1155.88 1.02176 1155.76 1.04002L1155.58 0.30125C1155.69 0.265464 1155.8 0.219315 1155.91 0.163393" fill="#AFC0DB"/>
<path d="M1155.59 0.34468L1155.77 1.08338C1155.69 1.11468 1155.6 1.13589 1155.51 1.14656L1155.33 0.407865L1155.59 0.34468Z" fill="#AFC0DB"/>
<path d="M1155.33 0.408495L1155.51 1.14724C1155.42 1.17345 1155.34 1.19458 1155.25 1.2105L1155.07 0.461052C1155.15 0.445131 1155.24 0.424003 1155.32 0.397795" fill="#AFC0DB"/>
<path d="M1155.06 0.428709L1155.24 1.17821L1155.02 1.16405C1154.94 1.15321 1154.86 1.13501 1154.78 1.10969L1154.6 0.370901C1154.68 0.389572 1154.76 0.403266 1154.85 0.411912C1154.91 0.427842 1154.99 0.433503 1155.06 0.428709Z" fill="#BBCCE7"/>
<path d="M1154.6 0.37162L1154.78 1.11033C1154.63 1.07483 1154.48 1.01368 1154.36 0.929613L1154.17 0.190904C1154.31 0.269155 1154.45 0.329905 1154.6 0.37162Z" fill="#BBCCE7"/>
<path d="M1154.17 0.191878L1154.36 0.9305C1154.23 0.856129 1154.12 0.765792 1154.02 0.661804L1153.83 -0.0768347C1153.93 0.0252227 1154.04 0.116211 1154.16 0.194504" fill="#BBCCE7"/>
<path d="M1139.77 4.98124L1139.94 5.677L1139.91 5.55926L1139.73 4.80997L1139.83 4.92266" fill="#DAE4F6"/>
<path d="M1142.14 4.34482L1142.32 5.0837L1141.4 5.61601L1141.2 4.87977L1142.14 4.34482Z" fill="#95AACB"/>
<path d="M1141.2 4.88053L1141.39 5.6299C1141.31 5.64833 1141.25 5.66413 1141.18 5.67993L1141 4.94126C1141.06 4.911 1141.12 4.8773 1141.18 4.84034" fill="#BBCCE7"/>
<path d="M1141.02 4.98095L1141.2 5.71973C1141.09 5.78 1140.97 5.83142 1140.85 5.87354L1140.67 5.12406C1140.79 5.10236 1140.91 5.07244 1141.03 5.03449" fill="#BBCCE7"/>
<path d="M1140.71 5.11358L1140.9 5.86298L1140.7 5.9104L1140.52 5.161C1140.59 5.15522 1140.66 5.13832 1140.72 5.11094" fill="#BBCCE7"/>
<path d="M1140.46 5.1748L1140.65 5.92414L1140.48 5.96362L1140.3 5.22498C1140.36 5.21708 1140.41 5.20385 1140.46 5.1855" fill="#BBCCE7"/>
<path d="M1140.29 5.19495L1140.48 5.93359C1140.4 5.9388 1140.33 5.92943 1140.26 5.90603L1140.08 5.16739C1140.15 5.18564 1140.22 5.1949 1140.29 5.19495Z" fill="#BBCCE7"/>
<path d="M1140.08 5.1672L1140.26 5.90581C1140.2 5.89395 1140.14 5.8701 1140.09 5.83558L1139.9 5.09697C1139.96 5.12825 1140.01 5.15275 1140.07 5.16984" fill="#BBCCE7"/>
<path d="M1139.91 5.09473L1140.1 5.83333L1139.95 5.72046L1139.77 4.98187L1139.91 5.09473Z" fill="#BBCCE7"/>
<path d="M1150.16 0.732441L1150.35 1.4821C1150.49 1.95655 1150.52 2.45366 1150.46 2.94304C1150.34 3.41758 1150.12 3.86009 1149.8 4.23872C1149.49 4.61735 1149.1 4.92268 1148.65 5.13278C1148.54 5.2059 1148.41 5.26988 1148.29 5.3241L1148.1 4.58514L1148.47 4.39384C1148.91 4.18374 1149.31 3.8784 1149.62 3.49977C1149.93 3.12114 1150.16 2.67862 1150.28 2.20409C1150.34 1.7112 1150.3 1.21069 1150.15 0.735081" fill="#95AACB"/>
<path d="M1148.11 4.5817L1148.29 5.32092C1147.98 5.48359 1147.65 5.61683 1147.31 5.71887L1147.13 4.97965C1147.47 4.87169 1147.79 4.73866 1148.11 4.5817Z" fill="#AFC0DB"/>
<path d="M1147.13 4.9806L1147.31 5.7198C1147.04 5.81057 1146.75 5.88022 1146.46 5.92815L1146.28 5.18895C1146.57 5.14102 1146.85 5.07137 1147.13 4.9806Z" fill="#AFC0DB"/>
<path d="M1146.28 5.19038L1146.46 5.92954C1146.14 5.98137 1145.82 6.00707 1145.49 6.0064L1145.31 5.26724C1145.63 5.26423 1145.96 5.23855 1146.28 5.19038Z" fill="#BBCCE7"/>
<path d="M1145.33 5.26347L1145.52 6.0027C1145.46 6.02161 1145.4 6.03573 1145.34 6.04491C1144.88 6.03635 1144.42 5.96908 1143.98 5.84475L1143.79 5.10552C1144.24 5.22278 1144.7 5.28992 1145.16 5.30568C1145.23 5.28986 1145.28 5.27666 1145.34 5.26083" fill="#BBCCE7"/>
<path d="M1143.75 5.07394L1143.94 5.83433C1143.41 5.69935 1142.92 5.48364 1142.46 5.19512L1142.28 4.45616C1142.74 4.73776 1143.23 4.953 1143.75 5.09537" fill="#BBCCE7"/>
<path d="M1142.27 4.43476L1142.46 5.17335L1142.31 5.08452L1142.13 4.34593L1142.26 4.43739" fill="#BBCCE7"/>
<path d="M1139.78 4.97778C1139.56 4.75767 1139.54 4.57025 1139.64 4.40997C1139.8 4.20248 1140.01 4.03469 1140.25 3.91938L1141.11 3.41348C1140.72 2.95445 1140.44 2.41249 1140.29 1.8293C1140.21 1.51156 1140.23 1.17251 1140.36 0.870211C1140.5 0.567915 1140.73 0.321172 1141.03 0.172208C1141.34 -0.0663837 1141.72 -0.18465 1142.11 -0.159751C1142.49 -0.134851 1142.86 0.0314518 1143.13 0.307033C1143.36 0.582826 1143.54 0.901465 1143.66 1.24535C1143.76 1.5771 1143.93 1.88405 1144.16 2.14611C1144.39 2.3968 1144.7 2.57118 1145.04 2.64657C1145.41 2.7212 1145.8 2.6537 1146.14 2.45722C1146.33 2.36231 1146.5 2.21097 1146.61 2.02242C1146.72 1.68691 1146.71 1.32398 1146.57 0.999921C1146.43 0.670312 1146.31 0.324698 1146.18 -0.0423386C1145.8 -0.890549 1145.77 -1.85389 1146.09 -2.72688C1146.42 -3.59986 1147.07 -4.31339 1147.92 -4.71529C1149.02 -5.36479 1150.29 -5.67574 1151.57 -5.60881C1152.74 -5.59373 1153.88 -5.20144 1154.81 -4.49101L1156.02 -5.19657C1156.7 -5.59059 1157.18 -5.62927 1157.5 -5.30982C1157.82 -4.99037 1157.62 -4.62166 1156.93 -4.22763L1155.79 -3.56201C1156.35 -2.9059 1156.69 -2.09731 1156.76 -1.24403C1156.79 -0.96583 1156.73 -0.686906 1156.6 -0.438616C1156.47 -0.190326 1156.28 0.0174937 1156.03 0.161505C1155.67 0.3987 1155.23 0.505065 1154.8 0.462865C1154.42 0.426979 1154.06 0.251503 1153.8 -0.0299375C1153.55 -0.369262 1153.36 -0.744618 1153.24 -1.14232C1153.07 -1.64899 1152.8 -2.11688 1152.45 -2.51768C1152.18 -2.78472 1151.83 -2.94818 1151.45 -2.97834C1151.02 -3.01964 1150.59 -2.91335 1150.22 -2.67698C1149.69 -2.38063 1149.44 -2.02277 1149.45 -1.60342C1149.49 -1.09033 1149.62 -0.587315 1149.82 -0.114268C1150.17 0.639498 1150.31 1.46771 1150.24 2.29304C1150.12 2.76788 1149.9 3.21071 1149.59 3.58969C1149.27 3.96867 1148.88 4.27438 1148.44 4.48482C1147.41 5.05937 1146.24 5.34458 1145.06 5.30961C1144 5.28867 1142.96 4.96605 1142.08 4.37992L1141.15 4.91501C1140.56 5.25311 1140.08 5.28916 1139.78 4.97778Z" fill="white"/>
</g>
<g clip-path="url(#clip4)">
<path d="M276.443 257.064L273.008 258.214C274.339 255.43 276.632 253.222 279.463 251.995L282.898 250.845C280.067 252.072 277.775 254.281 276.443 257.064Z" fill="#2BA96C"/>
<path d="M282.898 250.845L279.463 251.995L280.155 251.745L283.591 250.596C283.355 250.665 283.134 250.762 282.898 250.845Z" fill="#2BA96C"/>
<path d="M296.085 287.759L292.649 288.909C288.342 290.294 283.217 289.172 278.798 285.183C275.764 282.357 273.508 278.799 272.246 274.85L275.681 273.7C276.938 277.651 279.195 281.211 282.233 284.033C286.638 288.022 291.763 289.2 296.085 287.759Z" fill="#2BA96C"/>
<path d="M275.695 273.755L272.26 274.905C270.322 269.457 270.591 263.467 273.008 258.214L276.443 257.064C274.026 262.317 273.757 268.307 275.695 273.755Z" fill="#35B477"/>
<path d="M276.442 257.064C280.598 248.85 290.045 247.618 297.441 254.294C304.838 260.97 307.428 273.104 303.231 281.318C299.034 289.532 289.629 290.751 282.246 284.089C274.863 277.426 272.245 265.278 276.442 257.064Z" fill="#2CD282"/>
<path d="M294.131 281.691L293.176 281.741C292.844 281.759 292.535 281.414 292.289 280.692L293.244 280.642C293.503 281.364 293.799 281.709 294.145 281.691" fill="#7D94BA"/>
<path d="M293.228 280.643L292.274 280.707L291.721 279.141L292.689 279.09L293.228 280.643Z" fill="#7D94BA"/>
<path d="M292.984 273.651L292.03 273.701C292.065 273.6 292.092 273.497 292.111 273.392L293.065 273.342C293.044 273.446 293.017 273.55 292.984 273.651Z" fill="#AFC0DB"/>
<path d="M293.065 273.341L292.111 273.392C292.112 273.271 292.106 273.151 292.092 273.032L293.046 272.982C293.066 273.105 293.073 273.231 293.066 273.355" fill="#95AACB"/>
<path d="M293.103 272.965L292.148 273.015C292.156 272.904 292.15 272.793 292.131 272.683L293.085 272.633C293.104 272.743 293.11 272.854 293.103 272.965Z" fill="#95AACB"/>
<path d="M293.085 272.633L292.13 272.683C292.13 272.549 292.123 272.415 292.109 272.282L293.064 272.232C293.084 272.36 293.091 272.49 293.084 272.619" fill="#95AACB"/>
<path d="M293.01 272.249L292.056 272.299C292.057 272.239 292.054 272.178 292.046 272.119C291.8 271.397 291.42 271.014 290.916 270.93L291.87 270.88C292.392 270.954 292.774 271.35 293.015 272.068L293.024 272.248" fill="#7D94BA"/>
<path d="M291.815 270.883L290.861 270.933C290.589 270.899 290.315 270.89 290.041 270.906L290.996 270.856C291.269 270.826 291.545 270.835 291.815 270.883Z" fill="#8397B8"/>
<path d="M289.181 266.693L288.227 266.743C288.666 266.651 289.106 266.586 289.533 266.522L290.487 266.472C290.058 266.495 289.62 266.601 289.195 266.692" fill="#95AACB"/>
<path d="M288.924 275.764L287.969 275.814C288.413 275.654 288.872 275.537 289.338 275.465C289.809 275.391 290.269 275.255 290.704 275.06L291.672 275.01C291.214 275.207 290.731 275.34 290.237 275.404C289.768 275.472 289.309 275.594 288.869 275.767" fill="#BBCCE7"/>
<path d="M291.742 275.006L290.773 275.057C290.927 274.99 291.076 274.913 291.219 274.825C291.346 274.742 291.462 274.643 291.564 274.53L292.532 274.479C292.431 274.593 292.315 274.692 292.187 274.775L291.742 275.02" fill="#BBCCE7"/>
<path d="M292.532 274.465L291.564 274.516C291.699 274.37 291.812 274.206 291.899 274.027L292.867 273.976C292.779 274.154 292.666 274.319 292.532 274.465Z" fill="#BBCCE7"/>
<path d="M292.867 273.976L291.898 274.027C291.952 273.917 291.997 273.803 292.033 273.687L292.987 273.637C292.955 273.748 292.915 273.857 292.866 273.962" fill="#BBCCE7"/>
<path d="M287.486 259.486L286.462 259.54L286.787 259.384L287.755 259.333L287.431 259.489" fill="#BBCCE7"/>
<path d="M287.839 259.329L286.871 259.38C287.325 259.163 287.808 259.012 288.304 258.93L289.203 258.883C288.729 258.956 288.269 259.102 287.839 259.315" fill="#BBCCE7"/>
<path d="M290.299 279.784L289.345 279.834C289.094 279.86 288.841 279.85 288.594 279.804C288.246 279.764 287.916 279.629 287.641 279.413C287.365 279.197 287.154 278.91 287.032 278.582C287.028 278.513 287.024 278.43 286.951 278.364L287.919 278.313C287.915 278.387 287.919 278.461 287.931 278.535C288.052 278.863 288.262 279.152 288.538 279.368C288.814 279.584 289.145 279.718 289.493 279.757C289.741 279.8 289.993 279.815 290.244 279.8" fill="#95AACB"/>
<path d="M287.96 278.297L286.992 278.348C286.971 278.202 286.964 278.053 286.968 277.906L287.923 277.855C287.94 278.004 287.971 278.151 288.015 278.295" fill="#AFC0DB"/>
<path d="M287.869 277.858L286.914 277.908C286.895 277.799 286.889 277.687 286.897 277.576L287.851 277.526L287.869 277.858Z" fill="#AFC0DB"/>
<path d="M287.85 277.526L286.895 277.576C286.883 277.466 286.877 277.355 286.878 277.244L287.846 277.194C287.845 277.305 287.851 277.415 287.864 277.526" fill="#AFC0DB"/>
<path d="M287.887 277.191L286.919 277.242L286.988 276.975C287.021 276.877 287.062 276.782 287.112 276.691L288.066 276.641C288.024 276.738 287.988 276.837 287.957 276.938C287.921 277.019 287.898 277.104 287.887 277.191Z" fill="#BBCCE7"/>
<path d="M288.066 276.641L287.112 276.691C287.191 276.515 287.3 276.355 287.434 276.216L288.388 276.166C288.261 276.31 288.152 276.47 288.066 276.641Z" fill="#BBCCE7"/>
<path d="M288.39 276.166L287.435 276.216C287.556 276.081 287.695 275.962 287.847 275.862L288.801 275.812C288.652 275.91 288.514 276.025 288.389 276.153" fill="#BBCCE7"/>
<path d="M285.866 257.449L284.967 257.496L285.119 257.488L286.087 257.437L285.926 257.529" fill="#DAE4F6"/>
<path d="M286.095 260.488L285.14 260.538L284.7 259.285L285.654 259.221L286.095 260.488Z" fill="#95AACB"/>
<path d="M285.654 259.221L284.686 259.272C284.681 259.175 284.676 259.092 284.672 259.009L285.626 258.959C285.649 259.043 285.677 259.124 285.709 259.205" fill="#BBCCE7"/>
<path d="M285.574 258.976L284.619 259.026C284.571 258.874 284.535 258.718 284.512 258.56L285.48 258.509C285.478 258.666 285.486 258.823 285.505 258.979" fill="#BBCCE7"/>
<path d="M285.483 258.564L284.515 258.615L284.502 258.366L285.47 258.315C285.461 258.403 285.465 258.492 285.484 258.578" fill="#BBCCE7"/>
<path d="M285.465 258.246L284.497 258.297L284.486 258.09L285.441 258.04C285.438 258.109 285.441 258.178 285.452 258.247" fill="#BBCCE7"/>
<path d="M285.481 258.037L284.527 258.087C284.537 257.998 284.566 257.912 284.61 257.833L285.565 257.783C285.526 257.864 285.498 257.95 285.481 258.037Z" fill="#BBCCE7"/>
<path d="M285.564 257.783L284.61 257.833C284.639 257.759 284.683 257.691 284.738 257.633L285.692 257.582C285.642 257.639 285.598 257.702 285.563 257.77" fill="#BBCCE7"/>
<path d="M285.694 257.596L284.74 257.646L284.912 257.499L285.867 257.449L285.694 257.596Z" fill="#BBCCE7"/>
<path d="M288.665 271.145L287.697 271.196C287.08 271.251 286.458 271.18 285.869 270.986C285.311 270.729 284.818 270.351 284.424 269.88C284.03 269.409 283.745 268.856 283.59 268.262C283.527 268.103 283.477 267.938 283.439 267.771L284.394 267.721L284.544 268.212C284.699 268.806 284.984 269.359 285.378 269.83C285.772 270.301 286.266 270.679 286.823 270.936C287.417 271.13 288.044 271.196 288.664 271.131" fill="#95AACB"/>
<path d="M284.398 267.734L283.443 267.785C283.316 267.364 283.228 266.932 283.182 266.494L284.136 266.444C284.191 266.88 284.278 267.312 284.398 267.734Z" fill="#AFC0DB"/>
<path d="M284.136 266.444L283.182 266.494C283.135 266.132 283.116 265.767 283.124 265.402L284.079 265.352C284.07 265.717 284.089 266.082 284.136 266.444Z" fill="#AFC0DB"/>
<path d="M284.077 265.352L283.123 265.402C283.134 264.999 283.178 264.598 283.254 264.202L284.209 264.152C284.137 264.548 284.093 264.949 284.077 265.352Z" fill="#BBCCE7"/>
<path d="M284.21 264.18L283.256 264.23C283.246 264.156 283.242 264.082 283.244 264.008C283.363 263.445 283.554 262.899 283.811 262.383L284.766 262.333C284.516 262.852 284.326 263.397 284.199 263.958C284.203 264.041 284.207 264.11 284.211 264.193" fill="#BBCCE7"/>
<path d="M284.817 262.289L283.835 262.341C284.124 261.733 284.507 261.175 284.969 260.686L285.924 260.636C285.469 261.131 285.087 261.688 284.79 262.291" fill="#BBCCE7"/>
<path d="M285.953 260.634L284.998 260.684L285.142 260.524L286.097 260.474L285.952 260.621" fill="#BBCCE7"/>
<path d="M285.868 257.448C286.19 257.237 286.427 257.253 286.601 257.41C286.819 257.659 286.976 257.954 287.063 258.274L287.485 259.444C288.142 259.074 288.876 258.86 289.63 258.819C290.042 258.783 290.455 258.892 290.796 259.128C291.137 259.363 291.386 259.709 291.5 260.108C291.723 260.536 291.779 261.032 291.657 261.5C291.536 261.967 291.246 262.373 290.842 262.639C290.447 262.863 290.012 263.008 289.561 263.067C289.128 263.111 288.71 263.247 288.333 263.464C287.969 263.694 287.682 264.028 287.51 264.423C287.329 264.866 287.321 265.361 287.485 265.811C287.556 266.076 287.703 266.315 287.91 266.496C288.298 266.708 288.749 266.773 289.181 266.679C289.621 266.587 290.075 266.521 290.557 266.454C291.692 266.186 292.888 266.372 293.889 266.972C294.889 267.573 295.616 268.541 295.913 269.669C296.455 271.169 296.54 272.796 296.158 274.344C295.864 275.774 295.114 277.069 294.021 278.035L294.607 279.683C294.933 280.609 294.867 281.209 294.398 281.525C293.929 281.84 293.523 281.501 293.197 280.575L292.644 279.023C291.705 279.547 290.628 279.773 289.557 279.67C289.209 279.632 288.878 279.497 288.602 279.281C288.326 279.065 288.116 278.777 287.995 278.448C287.788 277.947 287.759 277.391 287.912 276.871C288.047 276.409 288.347 276.013 288.756 275.759C289.232 275.539 289.739 275.396 290.259 275.333C290.923 275.249 291.563 275.032 292.14 274.694C292.531 274.432 292.816 274.038 292.942 273.584C293.094 273.064 293.065 272.508 292.859 272.007C292.618 271.289 292.237 270.893 291.715 270.818C291.073 270.747 290.423 270.781 289.792 270.919C288.782 271.163 287.726 271.147 286.724 270.872C286.167 270.614 285.673 270.237 285.279 269.766C284.885 269.295 284.6 268.742 284.445 268.148C283.978 266.757 283.9 265.264 284.219 263.832C284.494 262.537 285.135 261.348 286.065 260.406L285.624 259.14C285.346 258.336 285.412 257.75 285.868 257.448Z" fill="white"/>
</g>
<g clip-path="url(#clip5)">
<path d="M963.814 121.635L963.165 125.199C961.368 122.69 960.539 119.616 960.829 116.545L961.478 112.981C961.188 116.053 962.018 119.126 963.814 121.635Z" fill="#2BA96C"/>
<path d="M961.479 112.981L960.829 116.544L960.945 115.817L961.594 112.254C961.541 112.493 961.519 112.734 961.479 112.981Z" fill="#2BA96C"/>
<path d="M1000.18 119.23L999.526 122.794C998.662 127.235 995.208 131.184 989.582 133.131C985.644 134.426 981.439 134.686 977.37 133.888L978.02 130.324C982.088 131.128 986.294 130.868 990.232 129.567C995.851 127.632 999.354 123.71 1000.18 119.23Z" fill="#2BA96C"/>
<path d="M978.074 130.339L977.425 133.902C971.718 132.973 966.6 129.849 963.164 125.198L963.813 121.634C967.249 126.285 972.367 129.409 978.074 130.339Z" fill="#35B477"/>
<path d="M963.814 121.634C958.622 114.033 962.097 105.163 971.513 101.903C980.929 98.6424 992.808 102.225 997.98 109.863C1003.15 117.5 999.684 126.328 990.287 129.582C980.89 132.837 968.985 129.272 963.814 121.634Z" fill="#2CD282"/>
<path d="M993.918 118.017L993.501 118.877C993.357 119.176 992.906 119.281 992.154 119.148L992.571 118.288C993.328 118.408 993.773 118.316 993.924 118.004" fill="#7D94BA"/>
<path d="M992.564 118.3L992.16 119.167L990.521 118.896L990.944 118.024L992.564 118.3Z" fill="#7D94BA"/>
<path d="M986.324 115.142L985.907 116.002C985.836 115.923 985.758 115.849 985.675 115.782L986.092 114.922C986.173 114.99 986.251 115.064 986.324 115.142Z" fill="#AFC0DB"/>
<path d="M986.09 114.922L985.674 115.782C985.569 115.723 985.461 115.67 985.35 115.625L985.766 114.765C985.884 114.807 985.997 114.861 986.103 114.928" fill="#95AACB"/>
<path d="M985.78 114.707L985.364 115.567C985.27 115.507 985.17 115.459 985.064 115.423L985.481 114.562C985.586 114.598 985.687 114.647 985.78 114.707Z" fill="#95AACB"/>
<path d="M985.479 114.563L985.063 115.423C984.945 115.359 984.825 115.3 984.701 115.248L985.118 114.388C985.24 114.432 985.357 114.489 985.467 114.557" fill="#95AACB"/>
<path d="M985.107 114.443L984.69 115.304C984.638 115.274 984.584 115.247 984.528 115.225C983.777 115.092 983.258 115.241 982.941 115.642L983.358 114.782C983.675 114.361 984.206 114.217 984.951 114.352L985.113 114.431" fill="#7D94BA"/>
<path d="M983.333 114.832L982.917 115.692C982.756 115.914 982.616 116.15 982.498 116.397L982.915 115.537C983.02 115.283 983.161 115.046 983.333 114.832Z" fill="#8397B8"/>
<path d="M978.391 115.119L977.975 115.98C978.106 115.551 978.262 115.134 978.411 114.729L978.828 113.869C978.641 114.255 978.522 114.69 978.398 115.107" fill="#95AACB"/>
<path d="M986.215 119.72L985.799 120.58C985.872 120.114 985.991 119.656 986.153 119.212C986.316 118.764 986.418 118.296 986.457 117.821L986.88 116.948C986.832 117.444 986.715 117.932 986.533 118.396C986.367 118.839 986.252 119.3 986.191 119.769" fill="#BBCCE7"/>
<path d="M986.91 116.886L986.487 117.758C986.503 117.592 986.507 117.424 986.499 117.257C986.488 117.105 986.457 116.955 986.407 116.812L986.829 115.939C986.88 116.082 986.911 116.232 986.922 116.384L986.922 116.892" fill="#BBCCE7"/>
<path d="M986.817 115.933L986.395 116.806C986.332 116.617 986.242 116.439 986.128 116.276L986.55 115.403C986.663 115.567 986.753 115.745 986.817 115.933Z" fill="#BBCCE7"/>
<path d="M986.55 115.403L986.127 116.276C986.057 116.176 985.979 116.082 985.895 115.994L986.311 115.134C986.393 115.215 986.469 115.304 986.537 115.397" fill="#BBCCE7"/>
<path d="M971.261 113.129L970.814 114.052L970.834 113.692L971.257 112.82L971.237 113.179" fill="#BBCCE7"/>
<path d="M971.294 112.745L970.872 113.618C970.901 113.115 971.001 112.62 971.169 112.146L971.561 111.335C971.396 111.786 971.302 112.259 971.282 112.739" fill="#BBCCE7"/>
<path d="M990.399 120.453L989.983 121.313C989.885 121.545 989.754 121.762 989.594 121.956C989.392 122.242 989.114 122.466 988.792 122.603C988.471 122.741 988.117 122.786 987.771 122.735C987.708 122.705 987.634 122.669 987.541 122.701L987.963 121.828C988.026 121.868 988.093 121.9 988.163 121.925C988.509 121.978 988.864 121.933 989.186 121.795C989.508 121.657 989.785 121.432 989.987 121.146C990.145 120.95 990.279 120.736 990.387 120.509" fill="#95AACB"/>
<path d="M987.97 121.785L987.548 122.658C987.409 122.605 987.276 122.54 987.149 122.465L987.565 121.605C987.704 121.661 987.848 121.705 987.994 121.735" fill="#AFC0DB"/>
<path d="M987.54 121.654L987.124 122.514C987.019 122.478 986.918 122.43 986.825 122.369L987.241 121.509L987.54 121.654Z" fill="#AFC0DB"/>
<path d="M987.241 121.509L986.825 122.369C986.722 122.327 986.622 122.278 986.526 122.224L986.948 121.351C987.045 121.405 987.145 121.454 987.247 121.496" fill="#AFC0DB"/>
<path d="M986.965 121.315L986.543 122.187L986.342 121.998C986.272 121.922 986.209 121.84 986.153 121.752L986.57 120.892C986.634 120.976 986.703 121.056 986.777 121.131C986.83 121.201 986.894 121.263 986.965 121.315Z" fill="#BBCCE7"/>
<path d="M986.57 120.892L986.154 121.753C986.038 121.599 985.95 121.426 985.893 121.242L986.31 120.381C986.374 120.562 986.461 120.734 986.57 120.892Z" fill="#BBCCE7"/>
<path d="M986.309 120.381L985.893 121.241C985.832 121.07 985.795 120.891 985.781 120.71L986.197 119.85C986.211 120.028 986.245 120.204 986.297 120.375" fill="#BBCCE7"/>
<path d="M968.695 113.565L968.303 114.375L968.369 114.238L968.792 113.365L968.794 113.551" fill="#DAE4F6"/>
<path d="M971.469 114.83L971.053 115.691L969.743 115.472L970.147 114.606L971.469 114.83Z" fill="#95AACB"/>
<path d="M970.146 114.605L969.723 115.478C969.636 115.436 969.561 115.399 969.486 115.363L969.903 114.503C969.987 114.523 970.072 114.539 970.157 114.549" fill="#BBCCE7"/>
<path d="M969.892 114.557L969.476 115.418C969.319 115.386 969.165 115.343 969.016 115.287L969.438 114.415C969.575 114.492 969.716 114.561 969.862 114.62" fill="#BBCCE7"/>
<path d="M969.487 114.438L969.064 115.311L968.84 115.202L969.262 114.33C969.335 114.38 969.415 114.419 969.499 114.444" fill="#BBCCE7"/>
<path d="M969.201 114.3L968.779 115.173L968.592 115.082L969.008 114.222C969.067 114.258 969.13 114.288 969.195 114.312" fill="#BBCCE7"/>
<path d="M969.026 114.186L968.609 115.046C968.536 114.994 968.474 114.927 968.427 114.85L968.843 113.99C968.895 114.063 968.957 114.129 969.026 114.186Z" fill="#BBCCE7"/>
<path d="M968.843 113.99L968.427 114.85C968.375 114.789 968.337 114.718 968.312 114.641L968.729 113.781C968.754 113.853 968.788 113.921 968.83 113.984" fill="#BBCCE7"/>
<path d="M968.74 113.787L968.324 114.647L968.278 114.425L968.694 113.565L968.74 113.787Z" fill="#BBCCE7"/>
<path d="M982.042 117.718L981.62 118.591C981.371 119.158 981.008 119.669 980.555 120.091C980.06 120.455 979.491 120.706 978.889 120.824C978.286 120.942 977.665 120.925 977.07 120.774C976.899 120.752 976.731 120.717 976.566 120.669L976.983 119.809L977.486 119.914C978.081 120.064 978.703 120.081 979.305 119.963C979.908 119.845 980.477 119.595 980.971 119.231C981.427 118.804 981.787 118.287 982.03 117.712" fill="#95AACB"/>
<path d="M976.997 119.813L976.581 120.673C976.15 120.581 975.73 120.45 975.324 120.28L975.741 119.42C976.149 119.582 976.569 119.714 976.997 119.813Z" fill="#AFC0DB"/>
<path d="M975.741 119.42L975.324 120.28C974.984 120.146 974.655 119.987 974.339 119.803L974.756 118.943C975.071 119.127 975.401 119.286 975.741 119.42Z" fill="#AFC0DB"/>
<path d="M974.756 118.943L974.34 119.803C973.992 119.6 973.662 119.368 973.352 119.11L973.769 118.25C974.081 118.504 974.411 118.735 974.756 118.943Z" fill="#BBCCE7"/>
<path d="M973.792 118.261L973.376 119.122C973.306 119.095 973.24 119.063 973.176 119.025C972.74 118.649 972.353 118.219 972.026 117.745L972.442 116.885C972.777 117.353 973.162 117.782 973.592 118.165C973.667 118.201 973.73 118.231 973.804 118.267" fill="#BBCCE7"/>
<path d="M972.429 116.818L972 117.704C971.607 117.158 971.303 116.553 971.098 115.912L971.514 115.052C971.728 115.689 972.032 116.292 972.417 116.843" fill="#BBCCE7"/>
<path d="M971.526 115.025L971.11 115.886L971.039 115.682L971.455 114.822L971.514 115.019" fill="#BBCCE7"/>
<path d="M968.696 113.563C968.666 113.179 968.793 112.979 969.015 112.902C969.339 112.832 969.673 112.836 969.994 112.915L971.224 113.109C971.217 112.355 971.383 111.609 971.71 110.929C971.878 110.55 972.173 110.241 972.543 110.056C972.914 109.87 973.337 109.819 973.741 109.912C974.224 109.923 974.686 110.113 975.037 110.445C975.387 110.777 975.603 111.227 975.641 111.709C975.647 112.163 975.564 112.614 975.398 113.037C975.229 113.438 975.145 113.87 975.154 114.304C975.18 114.734 975.334 115.147 975.597 115.488C975.898 115.86 976.328 116.107 976.801 116.179C977.068 116.245 977.348 116.231 977.606 116.138C977.979 115.9 978.253 115.536 978.38 115.112C978.511 114.683 978.672 114.253 978.846 113.799C979.159 112.674 979.898 111.716 980.907 111.129C981.915 110.543 983.113 110.373 984.245 110.657C985.821 110.905 987.287 111.615 988.459 112.697C989.57 113.643 990.343 114.925 990.662 116.348L992.388 116.63C993.356 116.791 993.85 117.138 993.901 117.701C993.951 118.264 993.458 118.456 992.49 118.295L990.863 118.031C990.87 119.107 990.548 120.159 989.942 121.047C989.74 121.334 989.463 121.559 989.14 121.696C988.818 121.834 988.464 121.879 988.118 121.827C987.579 121.767 987.078 121.524 986.696 121.139C986.357 120.798 986.154 120.344 986.129 119.863C986.166 119.341 986.285 118.827 986.481 118.341C986.728 117.719 986.846 117.054 986.828 116.385C986.787 115.916 986.579 115.477 986.242 115.147C985.86 114.763 985.359 114.521 984.821 114.459C984.075 114.324 983.544 114.467 983.228 114.889C982.856 115.417 982.572 116.002 982.389 116.622C982.115 117.624 981.592 118.541 980.868 119.286C980.374 119.651 979.805 119.901 979.202 120.019C978.599 120.137 977.978 120.12 977.383 119.969C975.939 119.708 974.593 119.057 973.493 118.086C972.491 117.221 971.759 116.086 971.382 114.817L970.059 114.593C969.221 114.448 968.74 114.108 968.696 113.563Z" fill="white"/>
</g>
<defs>
<linearGradient id="paint0_linear" x1="-333.537" y1="-216" x2="-142.925" y2="677.948" gradientUnits="userSpaceOnUse">
<stop offset="0.118956" stop-color="#5AA9DC"/>
<stop offset="0.472446" stop-color="#7A35FF"/>
<stop offset="1" stop-color="#2952EE"/>
</linearGradient>
<linearGradient id="paint1_linear" x1="-333.537" y1="-216" x2="-142.925" y2="677.948" gradientUnits="userSpaceOnUse">
<stop offset="0.118956" stop-color="#5AA9DC"/>
<stop offset="0.472446" stop-color="#7A35FF"/>
<stop offset="1" stop-color="#2952EE"/>
</linearGradient>
<clipPath id="clip0">
<rect width="22.2857" height="26" fill="white" transform="translate(845 255.562) rotate(-44.2893)"/>
</clipPath>
<clipPath id="clip1">
<rect width="22.2857" height="26" fill="white" transform="translate(1132.28 320) rotate(2.82573)"/>
</clipPath>
<clipPath id="clip2">
<rect width="20.5714" height="24" fill="white" transform="translate(196 55.5784) rotate(-21.6167)"/>
</clipPath>
<clipPath id="clip3">
<rect width="27.2507" height="31.7925" fill="white" transform="translate(52.123 196.297) rotate(-100.801)"/>
</clipPath>
<clipPath id="clip4">
<rect width="34.241" height="39.56" fill="white" transform="translate(271 250)"/>
</clipPath>
<clipPath id="clip5">
<rect width="34.241" height="39.56" fill="white" transform="translate(955 122.997) rotate(-61.1683)"/>
</clipPath>
</defs>
</svg>
