<svg width="1340" height="398" viewBox="0 0 1340 398" fill="none" xmlns="http://www.w3.org/2000/svg">
    <rect width="1340" height="398" rx="10" fill="url(#paint0_linear)"/>
    <g clip-path="url(#clip0)">
        <path d="M935.779 256.411L934.706 258.513C934.049 256.599 934.103 254.518 934.859 252.654L935.932 250.552C935.176 252.416 935.122 254.497 935.779 256.411Z" fill="#2BA96C"/>
        <path d="M935.932 250.552L934.859 252.654L935.067 252.222L936.14 250.12C936.062 250.259 936.003 250.405 935.932 250.552Z" fill="#28734C"/>
        <path d="M959.015 261.925L957.943 264.028C956.571 266.637 953.669 268.438 949.779 268.57C947.069 268.619 944.385 267.97 941.985 266.686L943.057 264.584C945.457 265.872 948.142 266.521 950.852 266.468C954.735 266.343 957.663 264.567 959.015 261.925Z" fill="#2BA96C"/>
        <path d="M943.09 264.603L942.017 266.706C938.614 265.023 935.99 262.083 934.706 258.513L935.778 256.411C937.063 259.981 939.687 262.921 943.09 264.603Z" fill="#35B477"/>
        <path d="M935.779 256.411C933.946 250.658 937.781 245.785 944.291 245.564C950.801 245.343 957.577 249.875 959.391 255.646C961.205 261.418 957.383 266.266 950.886 266.487C944.388 266.708 937.594 262.183 935.779 256.411Z" fill="#50DD99"/>
        <path d="M955.32 259.958L954.898 260.416C954.751 260.575 954.449 260.554 954.004 260.327L954.426 259.869C954.877 260.09 955.173 260.118 955.326 259.952" fill="#7D94BA"/>
        <path d="M954.418 259.875L954.003 260.339L953.027 259.854L953.455 259.389L954.418 259.875Z" fill="#7D94BA"/>
        <path d="M951.097 256.697L950.676 257.154C950.646 257.091 950.612 257.03 950.572 256.972L950.994 256.514C951.032 256.573 951.066 256.634 951.097 256.697Z" fill="#AFC0DB"/>
        <path d="M950.993 256.514L950.572 256.972C950.517 256.915 950.46 256.861 950.398 256.811L950.82 256.354C950.886 256.403 950.946 256.458 951 256.52" fill="#95AACB"/>
        <path d="M950.837 256.32L950.416 256.778C950.369 256.722 950.315 256.672 950.256 256.63L950.677 256.172C950.736 256.214 950.79 256.264 950.837 256.32Z" fill="#95AACB"/>
        <path d="M950.677 256.171L950.256 256.629C950.194 256.566 950.13 256.507 950.062 256.45L950.484 255.992C950.552 256.043 950.615 256.101 950.671 256.165" fill="#95AACB"/>
        <path d="M950.465 256.024L950.043 256.482C950.016 256.453 949.987 256.427 949.956 256.402C949.511 256.174 949.158 256.168 948.885 256.357L949.307 255.899C949.584 255.697 949.943 255.71 950.384 255.937L950.471 256.018" fill="#7D94BA"/>
        <path d="M949.282 255.925L948.861 256.383C948.719 256.491 948.587 256.611 948.467 256.743L948.889 256.286C949.002 256.148 949.135 256.026 949.282 255.925Z" fill="#8397B8"/>
        <path d="M946.131 255.152L945.71 255.61C945.872 255.367 946.048 255.136 946.217 254.912L946.639 254.455C946.449 254.66 946.294 254.909 946.138 255.146" fill="#95AACB"/>
        <path d="M950.173 259.537L949.752 259.995C949.885 259.718 950.045 259.455 950.229 259.209C950.415 258.96 950.567 258.687 950.681 258.397L951.108 257.933C950.985 258.234 950.821 258.516 950.62 258.771C950.433 259.016 950.275 259.282 950.149 259.564" fill="#BBCCE7"/>
        <path d="M951.137 257.9L950.71 258.364C950.751 258.263 950.785 258.159 950.811 258.053C950.833 257.956 950.841 257.857 950.837 257.757L951.265 257.293C951.269 257.392 951.261 257.492 951.239 257.589L951.144 257.906" fill="#BBCCE7"/>
        <path d="M951.258 257.286L950.83 257.751C950.826 257.621 950.804 257.492 950.762 257.369L951.19 256.904C951.23 257.028 951.253 257.157 951.258 257.286Z" fill="#BBCCE7"/>
        <path d="M951.189 256.904L950.761 257.369C950.736 257.293 950.705 257.219 950.669 257.148L951.09 256.69C951.126 256.757 951.157 256.826 951.182 256.898" fill="#BBCCE7"/>
        <path d="M942.034 252.532L941.582 253.023L941.662 252.802L942.09 252.338L942.01 252.558" fill="#BBCCE7"/>
        <path d="M942.127 252.298L941.699 252.762C941.812 252.454 941.967 252.163 942.161 251.899L942.558 251.468C942.371 251.718 942.223 251.996 942.12 252.291" fill="#BBCCE7"/>
        <path d="M952.66 260.802L952.238 261.26C952.134 261.387 952.012 261.497 951.875 261.588C951.695 261.727 951.479 261.814 951.252 261.838C951.025 261.862 950.795 261.823 950.588 261.724C950.555 261.693 950.515 261.656 950.451 261.659L950.879 261.194C950.911 261.231 950.947 261.264 950.986 261.293C951.192 261.392 951.422 261.432 951.65 261.408C951.877 261.384 952.092 261.297 952.272 261.156C952.408 261.064 952.532 260.956 952.642 260.835" fill="#95AACB"/>
        <path d="M950.887 261.167L950.46 261.631C950.383 261.572 950.312 261.506 950.246 261.434L950.668 260.976C950.744 261.038 950.826 261.093 950.912 261.14" fill="#AFC0DB"/>
        <path d="M950.644 261.002L950.223 261.46C950.164 261.417 950.11 261.368 950.063 261.312L950.484 260.854L950.644 261.002Z" fill="#AFC0DB"/>
        <path d="M950.482 260.854L950.061 261.312C950.004 261.266 949.951 261.217 949.901 261.164L950.328 260.7C950.379 260.752 950.432 260.802 950.488 260.848" fill="#AFC0DB"/>
        <path d="M950.348 260.679L949.92 261.144L949.83 260.987C949.8 260.926 949.776 260.862 949.758 260.797L950.179 260.339C950.204 260.404 950.232 260.467 950.264 260.528C950.285 260.582 950.313 260.633 950.348 260.679Z" fill="#BBCCE7"/>
        <path d="M950.179 260.339L949.757 260.797C949.713 260.678 949.691 260.553 949.69 260.427L950.111 259.97C950.118 260.095 950.14 260.219 950.179 260.339Z" fill="#BBCCE7"/>
        <path d="M950.111 259.97L949.689 260.427C949.683 260.309 949.693 260.19 949.719 260.074L950.14 259.616C950.116 259.73 950.103 259.847 950.104 259.964" fill="#BBCCE7"/>
        <path d="M940.346 252.309L939.949 252.74L940.016 252.667L940.444 252.203L940.411 252.32" fill="#DAE4F6"/>
        <path d="M941.847 253.635L941.425 254.093L940.645 253.703L941.06 253.239L941.847 253.635Z" fill="#95AACB"/>
        <path d="M941.06 253.239L940.632 253.704C940.586 253.661 940.546 253.624 940.506 253.587L940.927 253.129C940.976 253.158 941.026 253.184 941.078 253.207" fill="#BBCCE7"/>
        <path d="M940.909 253.161L940.488 253.619C940.396 253.569 940.308 253.512 940.225 253.448L940.652 252.984C940.723 253.059 940.799 253.129 940.879 253.194" fill="#BBCCE7"/>
        <path d="M940.678 253.008L940.251 253.473L940.131 253.362L940.558 252.897C940.594 252.943 940.637 252.982 940.685 253.015" fill="#BBCCE7"/>
        <path d="M940.524 252.866L940.096 253.331L939.996 253.238L940.418 252.781C940.448 252.815 940.481 252.846 940.517 252.873" fill="#BBCCE7"/>
        <path d="M940.436 252.762L940.014 253.219C939.978 253.173 939.952 253.119 939.937 253.062L940.359 252.604C940.378 252.66 940.404 252.713 940.436 252.762Z" fill="#BBCCE7"/>
        <path d="M940.358 252.604L939.937 253.061C939.917 253.013 939.906 252.961 939.905 252.909L940.326 252.451C940.328 252.501 940.337 252.55 940.352 252.598" fill="#BBCCE7"/>
        <path d="M940.332 252.457L939.91 252.915L939.923 252.767L940.345 252.31L940.332 252.457Z" fill="#BBCCE7"/>
        <path d="M947.932 257.479L947.504 257.944C947.242 258.251 946.92 258.5 946.557 258.677C946.18 258.81 945.777 258.857 945.377 258.815C944.978 258.773 944.593 258.642 944.248 258.433C944.146 258.387 944.047 258.333 943.953 258.271L944.375 257.813L944.67 257.975C945.014 258.184 945.4 258.315 945.799 258.357C946.198 258.399 946.601 258.352 946.979 258.219C947.344 258.04 947.666 257.786 947.925 257.473" fill="#95AACB"/>
        <path d="M944.379 257.816L943.957 258.274C943.705 258.134 943.466 257.971 943.244 257.786L943.666 257.328C943.891 257.509 944.129 257.672 944.379 257.816Z" fill="#AFC0DB"/>
        <path d="M943.665 257.328L943.244 257.786C943.056 257.637 942.879 257.474 942.716 257.298L943.138 256.84C943.301 257.016 943.478 257.179 943.665 257.328Z" fill="#AFC0DB"/>
        <path d="M943.136 256.84L942.715 257.298C942.535 257.104 942.372 256.895 942.226 256.674L942.648 256.216C942.796 256.435 942.959 256.644 943.136 256.84Z" fill="#BBCCE7"/>
        <path d="M942.662 256.229L942.24 256.687C942.201 256.657 942.166 256.624 942.133 256.588C941.93 256.269 941.769 255.925 941.653 255.565L942.074 255.107C942.196 255.465 942.357 255.808 942.555 256.13C942.595 256.167 942.628 256.198 942.668 256.235" fill="#BBCCE7"/>
        <path d="M942.076 255.064L941.642 255.535C941.499 255.118 941.421 254.681 941.413 254.241L941.834 253.783C941.849 254.222 941.926 254.658 942.064 255.077" fill="#BBCCE7"/>
        <path d="M941.846 253.769L941.425 254.227L941.419 254.086L941.84 253.628L941.84 253.763" fill="#BBCCE7"/>
        <path d="M940.349 252.31C940.403 252.064 940.52 251.964 940.673 251.958C940.889 251.976 941.098 252.043 941.285 252.154L942.018 252.513C942.155 252.04 942.399 251.605 942.731 251.243C942.907 251.038 943.149 250.902 943.416 250.857C943.683 250.812 943.958 250.862 944.194 250.998C944.494 251.098 944.748 251.306 944.906 251.581C945.063 251.857 945.114 252.18 945.048 252.488C944.967 252.774 944.83 253.04 944.647 253.273C944.466 253.491 944.333 253.745 944.257 254.019C944.193 254.293 944.212 254.58 944.313 254.845C944.432 255.135 944.655 255.372 944.938 255.509C945.093 255.602 945.271 255.647 945.45 255.638C945.728 255.561 945.968 255.386 946.127 255.146C946.289 254.902 946.471 254.665 946.665 254.414C947.071 253.771 947.713 253.314 948.455 253.141C949.197 252.968 949.979 253.093 950.635 253.489C951.576 253.948 952.362 254.675 952.894 255.578C953.412 256.384 953.657 257.335 953.59 258.287L954.619 258.796C955.196 259.083 955.44 259.395 955.366 259.757C955.293 260.12 954.948 260.145 954.371 259.857L953.401 259.378C953.204 260.053 952.806 260.649 952.259 261.088C952.08 261.228 951.864 261.316 951.636 261.34C951.409 261.364 951.178 261.324 950.971 261.224C950.645 261.082 950.376 260.834 950.209 260.519C950.06 260.241 950.019 259.918 950.092 259.612C950.213 259.292 950.384 258.994 950.598 258.728C950.869 258.386 951.067 257.993 951.181 257.571C951.244 257.269 951.195 256.954 951.046 256.683C950.879 256.369 950.61 256.121 950.284 255.979C949.843 255.751 949.483 255.738 949.206 255.941C948.874 256.199 948.587 256.511 948.356 256.863C947.997 257.437 947.497 257.91 946.904 258.237C946.526 258.37 946.123 258.416 945.723 258.374C945.324 258.332 944.938 258.201 944.593 257.992C943.737 257.55 943.016 256.884 942.508 256.064C942.043 255.33 941.796 254.479 941.798 253.612L941.011 253.217C940.513 252.965 940.275 252.659 940.349 252.31Z" fill="white"/>
    </g>
    <g clip-path="url(#clip1)">
        <path d="M1240.59 324.812L1238.32 325.456C1239.28 323.672 1240.84 322.296 1242.72 321.581L1244.99 320.936C1243.11 321.651 1241.55 323.027 1240.59 324.812Z" fill="#2BA96C"/>
        <path d="M1244.99 320.936L1242.72 321.581L1243.18 321.439L1245.45 320.795C1245.29 320.833 1245.14 320.889 1244.99 320.936Z" fill="#28734C"/>
        <path d="M1252.36 345.591L1250.09 346.236C1247.25 347.007 1243.95 346.106 1241.21 343.345C1239.33 341.393 1237.98 338.985 1237.29 336.352L1239.56 335.708C1240.24 338.342 1241.6 340.751 1243.48 342.701C1246.21 345.461 1249.51 346.398 1252.36 345.591Z" fill="#2BA96C"/>
        <path d="M1239.56 335.744L1237.29 336.389C1236.21 332.75 1236.58 328.827 1238.32 325.456L1240.59 324.812C1238.85 328.183 1238.48 332.106 1239.56 335.744Z" fill="#35B477"/>
        <path d="M1240.59 324.812C1243.56 319.553 1249.74 319.047 1254.33 323.667C1258.92 328.287 1260.21 336.335 1257.22 341.593C1254.22 346.85 1248.07 347.348 1243.49 342.738C1238.9 338.127 1237.6 330.069 1240.59 324.812Z" fill="#50DD99"/>
        <path d="M1251.29 341.544L1250.67 341.547C1250.45 341.548 1250.26 341.312 1250.12 340.831L1250.75 340.828C1250.89 341.31 1251.07 341.545 1251.3 341.544" fill="#7D94BA"/>
        <path d="M1250.74 340.828L1250.12 340.839L1249.81 339.794L1250.44 339.792L1250.74 340.828Z" fill="#7D94BA"/>
        <path d="M1250.81 336.23L1250.19 336.233C1250.21 336.168 1250.23 336.101 1250.25 336.033L1250.87 336.03C1250.85 336.098 1250.83 336.165 1250.81 336.23Z" fill="#AFC0DB"/>
        <path d="M1250.87 336.03L1250.25 336.032C1250.25 335.954 1250.25 335.875 1250.25 335.796L1250.87 335.793C1250.88 335.875 1250.88 335.957 1250.87 336.039" fill="#95AACB"/>
        <path d="M1250.91 335.784L1250.29 335.786C1250.29 335.714 1250.29 335.641 1250.29 335.568L1250.91 335.566C1250.92 335.638 1250.92 335.711 1250.91 335.784Z" fill="#95AACB"/>
        <path d="M1250.91 335.565L1250.28 335.568C1250.29 335.48 1250.29 335.392 1250.28 335.305L1250.91 335.302C1250.91 335.386 1250.91 335.472 1250.91 335.556" fill="#95AACB"/>
        <path d="M1250.87 335.31L1250.25 335.312C1250.25 335.273 1250.25 335.234 1250.25 335.194C1250.11 334.713 1249.88 334.45 1249.55 334.379L1250.17 334.376C1250.51 334.442 1250.75 334.713 1250.88 335.192L1250.88 335.31" fill="#7D94BA"/>
        <path d="M1250.14 334.375L1249.51 334.378C1249.34 334.347 1249.16 334.333 1248.98 334.335L1249.6 334.332C1249.78 334.321 1249.96 334.336 1250.14 334.375Z" fill="#8397B8"/>
        <path d="M1248.56 331.541L1247.94 331.543C1248.23 331.497 1248.51 331.469 1248.79 331.441L1249.42 331.438C1249.14 331.439 1248.85 331.495 1248.57 331.541" fill="#95AACB"/>
        <path d="M1248.1 337.487L1247.48 337.49C1247.77 337.399 1248.07 337.337 1248.38 337.305C1248.69 337.271 1248.99 337.197 1249.28 337.083L1249.91 337.081C1249.6 337.195 1249.29 337.267 1248.96 337.293C1248.66 337.323 1248.35 337.388 1248.06 337.487" fill="#BBCCE7"/>
        <path d="M1249.95 337.08L1249.32 337.083C1249.43 337.044 1249.52 336.998 1249.62 336.945C1249.71 336.895 1249.78 336.833 1249.85 336.763L1250.49 336.76C1250.42 336.831 1250.34 336.893 1250.25 336.943L1249.95 337.089" fill="#BBCCE7"/>
        <path d="M1250.49 336.75L1249.85 336.753C1249.95 336.662 1250.03 336.558 1250.09 336.443L1250.72 336.441C1250.66 336.554 1250.58 336.659 1250.49 336.75Z" fill="#BBCCE7"/>
        <path d="M1250.72 336.44L1250.09 336.443C1250.13 336.373 1250.16 336.3 1250.19 336.224L1250.81 336.222C1250.78 336.294 1250.75 336.364 1250.72 336.431" fill="#BBCCE7"/>
        <path d="M1247.69 326.755L1247.02 326.758L1247.24 326.667L1247.87 326.664L1247.65 326.756" fill="#BBCCE7"/>
        <path d="M1247.92 326.664L1247.29 326.666C1247.6 326.539 1247.91 326.455 1248.24 326.418L1248.83 326.415C1248.52 326.448 1248.21 326.529 1247.92 326.655" fill="#BBCCE7"/>
        <path d="M1248.86 340.169L1248.24 340.172C1248.07 340.181 1247.91 340.166 1247.75 340.128C1247.53 340.091 1247.32 339.992 1247.14 339.842C1246.97 339.692 1246.84 339.497 1246.78 339.278C1246.78 339.233 1246.78 339.178 1246.73 339.133L1247.36 339.13C1247.36 339.179 1247.36 339.227 1247.36 339.276C1247.43 339.495 1247.56 339.691 1247.73 339.841C1247.9 339.991 1248.11 340.09 1248.34 340.126C1248.5 340.162 1248.66 340.18 1248.82 340.178" fill="#95AACB"/>
        <path d="M1247.39 339.119L1246.76 339.122C1246.75 339.025 1246.75 338.928 1246.76 338.831L1247.38 338.829C1247.38 338.927 1247.4 339.024 1247.42 339.119" fill="#AFC0DB"/>
        <path d="M1247.34 338.828L1246.72 338.831C1246.71 338.759 1246.71 338.685 1246.72 338.613L1247.34 338.61L1247.34 338.828Z" fill="#AFC0DB"/>
        <path d="M1247.34 338.61L1246.72 338.612C1246.71 338.54 1246.71 338.467 1246.72 338.394L1247.35 338.392C1247.35 338.464 1247.35 338.537 1247.35 338.61" fill="#AFC0DB"/>
        <path d="M1247.38 338.391L1246.75 338.394L1246.8 338.221C1246.82 338.158 1246.86 338.097 1246.89 338.039L1247.51 338.036C1247.48 338.098 1247.46 338.162 1247.43 338.227C1247.41 338.279 1247.39 338.334 1247.38 338.391Z" fill="#BBCCE7"/>
        <path d="M1247.51 338.036L1246.89 338.038C1246.95 337.926 1247.02 337.824 1247.11 337.738L1247.74 337.735C1247.65 337.825 1247.57 337.926 1247.51 338.036Z" fill="#BBCCE7"/>
        <path d="M1247.74 337.734L1247.11 337.737C1247.2 337.652 1247.29 337.578 1247.39 337.518L1248.02 337.515C1247.91 337.575 1247.82 337.645 1247.74 337.725" fill="#BBCCE7"/>
        <path d="M1246.71 325.367L1246.12 325.369L1246.22 325.369L1246.85 325.366L1246.74 325.421" fill="#DAE4F6"/>
        <path d="M1246.75 327.369L1246.13 327.371L1245.89 326.535L1246.51 326.524L1246.75 327.369Z" fill="#95AACB"/>
        <path d="M1246.51 326.523L1245.88 326.526C1245.88 326.462 1245.88 326.408 1245.88 326.353L1246.5 326.351C1246.51 326.406 1246.53 326.46 1246.54 326.514" fill="#BBCCE7"/>
        <path d="M1246.46 326.359L1245.84 326.362C1245.82 326.26 1245.8 326.157 1245.79 326.053L1246.42 326.05C1246.41 326.153 1246.41 326.256 1246.42 326.359" fill="#BBCCE7"/>
        <path d="M1246.42 326.086L1245.79 326.089L1245.79 325.926L1246.42 325.923C1246.41 325.98 1246.41 326.038 1246.42 326.095" fill="#BBCCE7"/>
        <path d="M1246.42 325.877L1245.79 325.88L1245.79 325.744L1246.41 325.741C1246.4 325.786 1246.4 325.832 1246.41 325.877" fill="#BBCCE7"/>
        <path d="M1246.43 325.74L1245.81 325.743C1245.82 325.685 1245.84 325.629 1245.87 325.579L1246.5 325.577C1246.47 325.628 1246.45 325.683 1246.43 325.74Z" fill="#BBCCE7"/>
        <path d="M1246.5 325.576L1245.88 325.579C1245.9 325.531 1245.93 325.488 1245.97 325.452L1246.59 325.449C1246.55 325.484 1246.52 325.524 1246.5 325.567" fill="#BBCCE7"/>
        <path d="M1246.59 325.458L1245.97 325.46L1246.08 325.369L1246.7 325.367L1246.59 325.458Z" fill="#BBCCE7"/>
        <path d="M1248.08 334.444L1247.45 334.447C1247.04 334.464 1246.64 334.397 1246.27 334.252C1245.91 334.066 1245.6 333.802 1245.36 333.481C1245.12 333.16 1244.95 332.789 1244.87 332.394C1244.84 332.288 1244.81 332.178 1244.79 332.067L1245.41 332.065L1245.5 332.392C1245.58 332.786 1245.74 333.157 1245.98 333.478C1246.23 333.8 1246.53 334.063 1246.89 334.249C1247.27 334.395 1247.67 334.458 1248.08 334.435" fill="#95AACB"/>
        <path d="M1245.41 332.071L1244.79 332.073C1244.72 331.793 1244.68 331.507 1244.66 331.219L1245.29 331.216C1245.31 331.504 1245.35 331.79 1245.41 332.071Z" fill="#AFC0DB"/>
        <path d="M1245.29 331.215L1244.67 331.218C1244.65 330.979 1244.65 330.739 1244.66 330.5L1245.29 330.497C1245.27 330.736 1245.27 330.976 1245.29 331.215Z" fill="#AFC0DB"/>
        <path d="M1245.28 330.496L1244.66 330.499C1244.68 330.235 1244.72 329.973 1244.79 329.716L1245.41 329.714C1245.35 329.971 1245.31 330.233 1245.28 330.496Z" fill="#BBCCE7"/>
        <path d="M1245.41 329.731L1244.79 329.734C1244.78 329.685 1244.78 329.637 1244.79 329.588C1244.88 329.222 1245.02 328.87 1245.21 328.54L1245.83 328.538C1245.65 328.87 1245.51 329.222 1245.41 329.586C1245.41 329.64 1245.41 329.686 1245.41 329.74" fill="#BBCCE7"/>
        <path d="M1245.86 328.51L1245.22 328.512C1245.43 328.123 1245.7 327.769 1246.02 327.463L1246.64 327.461C1246.33 327.771 1246.06 328.124 1245.85 328.51" fill="#BBCCE7"/>
        <path d="M1246.66 327.46L1246.04 327.463L1246.13 327.363L1246.76 327.36L1246.66 327.451" fill="#BBCCE7"/>
        <path d="M1246.71 325.37C1246.92 325.242 1247.08 325.259 1247.19 325.368C1247.32 325.538 1247.41 325.737 1247.46 325.949L1247.69 326.731C1248.13 326.509 1248.62 326.392 1249.11 326.389C1249.38 326.378 1249.64 326.463 1249.86 326.628C1250.07 326.794 1250.22 327.029 1250.29 327.294C1250.42 327.582 1250.44 327.91 1250.34 328.213C1250.25 328.515 1250.05 328.773 1249.77 328.934C1249.51 329.069 1249.22 329.15 1248.93 329.174C1248.64 329.19 1248.37 329.265 1248.11 329.396C1247.87 329.535 1247.67 329.745 1247.55 329.999C1247.42 330.284 1247.39 330.609 1247.49 330.909C1247.52 331.086 1247.61 331.247 1247.74 331.372C1247.99 331.524 1248.28 331.581 1248.56 331.533C1248.85 331.486 1249.15 331.458 1249.46 331.429C1250.21 331.289 1250.98 331.449 1251.61 331.875C1252.25 332.301 1252.69 332.959 1252.84 333.709C1253.15 334.711 1253.15 335.781 1252.85 336.785C1252.61 337.714 1252.08 338.54 1251.34 339.139L1251.67 340.239C1251.85 340.857 1251.79 341.249 1251.47 341.441C1251.15 341.634 1250.9 341.398 1250.72 340.78L1250.41 339.744C1249.78 340.058 1249.07 340.172 1248.38 340.07C1248.16 340.034 1247.94 339.935 1247.77 339.785C1247.6 339.634 1247.47 339.438 1247.4 339.219C1247.29 338.884 1247.29 338.517 1247.4 338.181C1247.51 337.882 1247.71 337.632 1247.99 337.478C1248.3 337.349 1248.64 337.271 1248.98 337.247C1249.41 337.213 1249.84 337.09 1250.22 336.887C1250.49 336.727 1250.69 336.478 1250.78 336.184C1250.9 335.847 1250.9 335.482 1250.78 335.146C1250.65 334.667 1250.41 334.395 1250.07 334.33C1249.66 334.263 1249.24 334.264 1248.82 334.335C1248.15 334.463 1247.47 334.419 1246.83 334.206C1246.47 334.02 1246.16 333.756 1245.92 333.434C1245.68 333.113 1245.51 332.741 1245.43 332.346C1245.17 331.419 1245.17 330.437 1245.43 329.507C1245.65 328.666 1246.1 327.906 1246.74 327.317L1246.49 326.472C1246.34 325.936 1246.4 325.553 1246.71 325.37Z" fill="white"/>
    </g>
    <g clip-path="url(#clip2)">
        <path d="M285.621 58.3578L283.959 59.7665C284.081 57.902 284.868 56.1489 286.175 54.8301L287.836 53.4214C286.529 54.7402 285.743 56.4932 285.621 58.3578Z" fill="#2BA96C"/>
        <path d="M287.836 53.4213L286.174 54.83L286.505 54.5361L288.167 53.1274C288.051 53.2186 287.949 53.3223 287.836 53.4213Z" fill="#28734C"/>
        <path d="M303.451 71.3229L301.789 72.7316C299.693 74.4663 296.579 74.9678 293.22 73.6958C290.894 72.7734 288.839 71.2658 287.251 69.3178L288.913 67.9091C290.498 69.8596 292.554 71.3676 294.882 72.2871C298.233 73.5621 301.359 73.0919 303.451 71.3229Z" fill="#2BA96C"/>
        <path d="M288.933 67.9373L287.271 69.346C284.971 66.702 283.783 63.2643 283.959 59.7666L285.62 58.3578C285.444 61.8556 286.633 65.2933 288.933 67.9373Z" fill="#35B477"/>
        <path d="M285.621 58.3577C286.106 52.8053 291.107 50.0192 296.73 52.1477C302.353 54.2761 306.512 60.5465 306.004 66.1081C305.495 71.6697 300.515 74.4388 294.902 72.3151C289.289 70.1914 285.112 63.9194 285.621 58.3577Z" fill="#50DD99"/>
        <path d="M301.002 68.3323L300.48 68.5721C300.298 68.6555 300.048 68.53 299.75 68.1777L300.272 67.938C300.578 68.2868 300.82 68.4157 301.009 68.3289" fill="#7D94BA"/>
        <path d="M300.263 67.9407L299.745 68.1882L299.086 67.4279L299.616 67.1846L300.263 67.9407Z" fill="#7D94BA"/>
        <path d="M298.563 64.0515L298.041 64.2915C298.039 64.2269 298.031 64.1627 298.018 64.0994L298.54 63.8595C298.551 63.9229 298.559 63.9871 298.563 64.0515Z" fill="#AFC0DB"/>
        <path d="M298.54 63.859L298.018 64.0989C297.992 64.031 297.962 63.9647 297.928 63.9006L298.45 63.6606C298.488 63.7257 298.52 63.7948 298.544 63.8666" fill="#95AACB"/>
        <path d="M298.477 63.6382L297.955 63.8782C297.934 63.8141 297.906 63.7526 297.871 63.6952L298.393 63.4552C298.428 63.5126 298.456 63.5741 298.477 63.6382Z" fill="#95AACB"/>
        <path d="M298.392 63.4547L297.871 63.6947C297.841 63.6193 297.807 63.5455 297.77 63.4735L298.291 63.2335C298.331 63.3011 298.364 63.3727 298.389 63.4471" fill="#95AACB"/>
        <path d="M298.265 63.2542L297.743 63.494C297.73 63.4599 297.715 63.4267 297.698 63.3948C297.399 63.0424 297.101 62.9114 296.801 62.9755L297.323 62.7357C297.631 62.6619 297.933 62.8006 298.227 63.1515L298.273 63.2508" fill="#7D94BA"/>
        <path d="M297.293 62.7488L296.771 62.9884C296.612 63.0298 296.457 63.0857 296.308 63.1553L296.83 62.9158C296.976 62.8383 297.132 62.7821 297.293 62.7488Z" fill="#8397B8"/>
        <path d="M294.884 60.9693L294.362 61.2089C294.587 61.0598 294.819 60.9259 295.043 60.7955L295.565 60.5559C295.33 60.6635 295.109 60.8202 294.892 60.9658" fill="#95AACB"/>
        <path d="M296.767 66.1426L296.245 66.3824C296.457 66.194 296.687 66.0266 296.931 65.8826C297.178 65.7367 297.405 65.5584 297.604 65.3523L298.134 65.109C297.922 65.3215 297.682 65.5033 297.42 65.649C297.173 65.7913 296.944 65.9616 296.736 66.1565" fill="#BBCCE7"/>
        <path d="M298.171 65.0915L297.641 65.3349C297.713 65.2634 297.779 65.1869 297.839 65.1058C297.891 65.0307 297.934 64.9491 297.966 64.863L298.495 64.6195C298.464 64.7059 298.421 64.7877 298.368 64.8624L298.174 65.0991" fill="#BBCCE7"/>
        <path d="M298.492 64.6114L297.962 64.8549C298.005 64.7429 298.032 64.625 298.04 64.5052L298.57 64.2617C298.56 64.3814 298.534 64.4992 298.492 64.6114Z" fill="#BBCCE7"/>
        <path d="M298.568 64.2616L298.039 64.505C298.044 64.4314 298.044 64.3574 298.038 64.2838L298.56 64.0438C298.567 64.1136 298.569 64.1839 298.565 64.2539" fill="#BBCCE7"/>
        <path d="M292.327 57.2795L291.767 57.5367L291.914 57.3773L292.443 57.134L292.297 57.2934" fill="#BBCCE7"/>
        <path d="M292.489 57.1128L291.959 57.3561C292.165 57.1338 292.4 56.9418 292.659 56.7856L293.151 56.5597C292.902 56.706 292.678 56.89 292.485 57.1052" fill="#BBCCE7"/>
        <path d="M298.434 68.1043L297.912 68.3443C297.778 68.4148 297.635 68.4652 297.486 68.494C297.283 68.5487 297.069 68.5458 296.867 68.4855C296.665 68.4253 296.483 68.31 296.342 68.1524C296.324 68.1143 296.303 68.0685 296.248 68.0477L296.778 67.8042C296.792 67.8468 296.81 67.8877 296.833 67.9263C296.974 68.0846 297.156 68.2005 297.358 68.2608C297.56 68.3211 297.775 68.3236 297.978 68.2679C298.126 68.2374 298.27 68.1897 298.407 68.1258" fill="#95AACB"/>
        <path d="M296.795 67.7846L296.265 68.0281C296.221 67.9501 296.184 67.8684 296.154 67.784L296.676 67.544C296.718 67.624 296.768 67.6999 296.825 67.7707" fill="#AFC0DB"/>
        <path d="M296.646 67.5576L296.124 67.7975C296.089 67.7401 296.061 67.6787 296.041 67.6146L296.563 67.3746L296.646 67.5576Z" fill="#AFC0DB"/>
        <path d="M296.561 67.3743L296.039 67.6143C296.008 67.555 295.98 67.4939 295.956 67.4312L296.485 67.1878C296.51 67.2504 296.537 67.3115 296.569 67.3708" fill="#AFC0DB"/>
        <path d="M296.507 67.1768L295.978 67.4203L295.957 67.2545C295.953 67.192 295.955 67.1293 295.963 67.0671L296.485 66.8271C296.483 66.891 296.484 66.955 296.49 67.0186C296.488 67.0719 296.494 67.1252 296.507 67.1768Z" fill="#BBCCE7"/>
        <path d="M296.484 66.8269L295.963 67.0668C295.968 66.9504 295.993 66.8359 296.037 66.7282L296.559 66.4883C296.519 66.5973 296.494 66.7112 296.484 66.8269Z" fill="#BBCCE7"/>
        <path d="M296.558 66.4881L296.037 66.728C296.074 66.6249 296.125 66.5272 296.188 66.4374L296.709 66.1974C296.648 66.2858 296.596 66.3807 296.555 66.4805" fill="#BBCCE7"/>
        <path d="M290.968 56.4892L290.477 56.7151L290.56 56.6769L291.089 56.4337L291.019 56.5209" fill="#DAE4F6"/>
        <path d="M291.776 58.1523L291.254 58.3921L290.728 57.7832L291.247 57.5357L291.776 58.1523Z" fill="#95AACB"/>
        <path d="M291.246 57.5354L290.717 57.7788C290.692 57.7255 290.671 57.6798 290.65 57.634L291.172 57.3941C291.203 57.4359 291.237 57.4758 291.273 57.5139" fill="#BBCCE7"/>
        <path d="M291.145 57.4146L290.623 57.6547C290.562 57.5795 290.507 57.4998 290.459 57.4161L290.988 57.1726C291.022 57.2617 291.062 57.3483 291.107 57.432" fill="#BBCCE7"/>
        <path d="M291.002 57.2028L290.473 57.4462L290.41 57.3091L290.94 57.0657C290.954 57.1171 290.976 57.166 291.006 57.2105" fill="#BBCCE7"/>
        <path d="M290.921 57.0272L290.392 57.2706L290.34 57.1564L290.862 56.9165C290.875 56.9561 290.893 56.9944 290.914 57.0307" fill="#BBCCE7"/>
        <path d="M290.883 56.9062L290.361 57.1462C290.347 57.0935 290.344 57.0386 290.352 56.9847L290.874 56.7448C290.87 56.7988 290.873 56.853 290.883 56.9062Z" fill="#BBCCE7"/>
        <path d="M290.873 56.7442L290.351 56.9841C290.351 56.9357 290.36 56.8877 290.378 56.8428L290.9 56.6029C290.884 56.646 290.874 56.6909 290.87 56.7366" fill="#BBCCE7"/>
        <path d="M290.904 56.6102L290.382 56.8501L290.446 56.7289L290.968 56.489L290.904 56.6102Z" fill="#BBCCE7"/>
        <path d="M295.591 63.5918L295.061 63.8354C294.729 64.0035 294.365 64.1015 293.993 64.1232C293.624 64.1019 293.265 63.9985 292.94 63.8206C292.615 63.6426 292.332 63.3945 292.114 63.094C292.043 63.018 291.978 62.9366 291.92 62.8505L292.442 62.6104L292.636 62.8539C292.854 63.1544 293.137 63.4025 293.462 63.5805C293.787 63.7584 294.147 63.8618 294.515 63.8831C294.89 63.8604 295.255 63.7585 295.587 63.5842" fill="#95AACB"/>
        <path d="M292.446 62.6151L291.924 62.8552C291.759 62.6462 291.614 62.4222 291.49 62.186L292.012 61.9459C292.14 62.1796 292.285 62.4033 292.446 62.6151Z" fill="#AFC0DB"/>
        <path d="M292.01 61.9454L291.488 62.1856C291.381 61.9917 291.289 61.79 291.213 61.5822L291.735 61.342C291.811 61.5498 291.903 61.7515 292.01 61.9454Z" fill="#AFC0DB"/>
        <path d="M291.734 61.3419L291.212 61.5821C291.128 61.3526 291.063 61.1166 291.018 60.8766L291.54 60.6364C291.588 60.8758 291.653 61.1116 291.734 61.3419Z" fill="#BBCCE7"/>
        <path d="M291.546 60.6515L291.024 60.8917C291.002 60.8526 290.983 60.8117 290.968 60.7695C290.909 60.4254 290.894 60.0752 290.923 59.7276L291.445 59.4874C291.421 59.8351 291.437 60.1846 291.49 60.5293C291.511 60.5751 291.529 60.6133 291.55 60.6592" fill="#BBCCE7"/>
        <path d="M291.463 59.451L290.926 59.698C290.952 59.2915 291.042 58.8919 291.191 58.5139L291.713 58.2738C291.569 58.6536 291.48 59.0523 291.448 59.4579" fill="#BBCCE7"/>
        <path d="M291.728 58.2665L291.206 58.5064L291.251 58.3845L291.773 58.1446L291.725 58.2589" fill="#BBCCE7"/>
        <path d="M290.971 56.4907C291.104 56.3003 291.24 56.2565 291.373 56.3065C291.55 56.3987 291.704 56.5303 291.823 56.6912L292.32 57.2578C292.605 56.9033 292.968 56.6199 293.38 56.4292C293.602 56.3177 293.857 56.2878 294.101 56.3447C294.344 56.4016 294.56 56.5418 294.713 56.7413C294.933 56.9336 295.075 57.2009 295.111 57.4915C295.148 57.7821 295.076 58.0754 294.91 58.3148C294.739 58.5289 294.528 58.7073 294.289 58.8403C294.057 58.9614 293.854 59.1305 293.692 59.3366C293.539 59.547 293.453 59.799 293.445 60.06C293.443 60.3502 293.549 60.6313 293.742 60.8484C293.84 60.9824 293.976 61.0842 294.132 61.1407C294.396 61.174 294.663 61.1105 294.883 60.9618C295.108 60.8123 295.347 60.6747 295.602 60.5301C296.177 60.1267 296.886 59.9663 297.58 60.083C298.273 60.1998 298.895 60.5845 299.313 61.1551C299.951 61.8807 300.362 62.7795 300.493 63.7376C300.648 64.6088 300.518 65.5056 300.122 66.2931L300.818 67.0924C301.206 67.5425 301.304 67.8954 301.112 68.1775C300.92 68.4597 300.618 68.3584 300.229 67.9083L299.573 67.1555C299.165 67.6597 298.614 68.0259 297.992 68.2053C297.789 68.2609 297.574 68.2584 297.372 68.1978C297.169 68.1373 296.988 68.0212 296.847 67.8626C296.619 67.6261 296.479 67.3187 296.448 66.9916C296.421 66.7012 296.5 66.4112 296.672 66.1772C296.889 65.9478 297.14 65.7543 297.417 65.6037C297.769 65.4092 298.078 65.1446 298.325 64.8259C298.486 64.5912 298.557 64.3059 298.526 64.0219C298.495 63.695 298.355 63.3878 298.128 63.1509C297.833 62.7995 297.531 62.6607 297.223 62.7345C296.848 62.8366 296.493 62.9999 296.171 63.2178C295.661 63.5793 295.067 63.8043 294.446 63.8716C294.076 63.8501 293.716 63.7465 293.391 63.5682C293.066 63.39 292.783 63.1415 292.564 62.8408C291.992 62.1599 291.615 61.3355 291.474 60.4569C291.339 59.6656 291.432 58.853 291.741 58.1154L291.212 57.4987C290.878 57.107 290.784 56.7618 290.971 56.4907Z" fill="white"/>
    </g>
    <g clip-path="url(#clip3)">
        <path d="M141.888 190.978L143.307 193.49C140.912 192.869 138.826 191.409 137.435 189.381L136.015 186.869C137.406 188.897 139.492 190.356 141.888 190.978Z" fill="#2BA96C"/>
        <path d="M136.015 186.868L137.434 189.381L137.134 188.877L135.714 186.364C135.804 186.538 135.914 186.697 136.015 186.868Z" fill="#28734C"/>
        <path d="M163.188 171.001L164.608 173.513C166.344 176.672 166.222 180.848 163.732 184.903C161.954 187.7 159.481 189.999 156.552 191.581L155.132 189.068C158.064 187.491 160.537 185.19 162.312 182.39C164.805 178.346 164.97 174.162 163.188 171.001Z" fill="#2BA96C"/>
        <path d="M155.176 189.049L156.596 191.561C152.584 193.896 147.815 194.589 143.308 193.49L141.888 190.978C146.396 192.076 151.164 191.384 155.176 189.049Z" fill="#35B477"/>
        <path d="M141.888 190.977C134.784 188.966 132.402 181.766 136.569 174.978C140.736 168.19 149.929 164.338 157.039 166.382C164.149 168.426 166.514 175.595 162.356 182.37C158.197 189.145 148.998 193.021 141.888 190.977Z" fill="#50DD99"/>
        <path d="M158.69 173.442L158.872 174.181C158.936 174.438 158.71 174.732 158.178 175.033L157.996 174.294C158.526 173.982 158.753 173.699 158.687 173.431" fill="#7D94BA"/>
        <path d="M157.997 174.305L158.19 175.041L157.037 175.709L156.852 174.959L157.997 174.305Z" fill="#7D94BA"/>
        <path d="M152.514 175.549L152.696 176.287C152.612 176.275 152.526 176.269 152.44 176.27L152.258 175.532C152.343 175.532 152.429 175.538 152.514 175.549Z" fill="#AFC0DB"/>
        <path d="M152.258 175.532L152.441 176.27C152.346 176.287 152.252 176.31 152.16 176.339L151.978 175.6C152.072 175.566 152.17 175.542 152.269 175.529" fill="#95AACB"/>
        <path d="M151.955 175.559L152.138 176.297C152.049 176.308 151.962 176.329 151.879 176.361L151.696 175.622C151.78 175.591 151.867 175.569 151.955 175.559Z" fill="#95AACB"/>
        <path d="M151.695 175.622L151.877 176.361C151.772 176.381 151.667 176.407 151.564 176.437L151.382 175.698C151.48 175.664 151.581 175.639 151.684 175.625" fill="#95AACB"/>
        <path d="M151.403 175.739L151.585 176.478C151.537 176.486 151.49 176.498 151.444 176.512C150.912 176.813 150.667 177.168 150.676 177.575L150.494 176.836C150.474 176.417 150.73 176.059 151.259 175.762L151.4 175.728" fill="#7D94BA"/>
        <path d="M150.503 176.879L150.685 177.618C150.699 177.835 150.733 178.051 150.787 178.263L150.605 177.524C150.54 177.315 150.506 177.098 150.503 176.879Z" fill="#8397B8"/>
        <path d="M147.588 179.57L147.771 180.309C147.632 179.98 147.516 179.645 147.402 179.321L147.22 178.582C147.301 178.914 147.45 179.241 147.586 179.56" fill="#95AACB"/>
        <path d="M154.789 178.406L154.972 179.145C154.779 178.822 154.619 178.481 154.492 178.127C154.364 177.77 154.188 177.431 153.969 177.12L153.784 176.371C154.008 176.699 154.185 177.057 154.31 177.434C154.433 177.79 154.598 178.131 154.8 178.449" fill="#BBCCE7"/>
        <path d="M153.77 176.318L153.956 177.067C153.88 176.957 153.797 176.852 153.707 176.753C153.622 176.666 153.526 176.591 153.422 176.528L153.237 175.778C153.342 175.84 153.437 175.916 153.521 176.004L153.781 176.315" fill="#BBCCE7"/>
        <path d="M153.225 175.781L153.41 176.531C153.275 176.447 153.128 176.383 152.974 176.342L152.789 175.593C152.942 175.635 153.089 175.699 153.225 175.781Z" fill="#BBCCE7"/>
        <path d="M152.789 175.594L152.974 176.343C152.879 176.318 152.783 176.299 152.686 176.288L152.503 175.55C152.596 175.558 152.688 175.574 152.778 175.596" fill="#BBCCE7"/>
        <path d="M142.152 181.981L142.348 182.773L142.177 182.542L141.992 181.793L142.163 182.024" fill="#BBCCE7"/>
        <path d="M141.977 181.729L142.162 182.478C141.924 182.156 141.732 181.801 141.594 181.425L141.422 180.73C141.55 181.089 141.734 181.427 141.966 181.732" fill="#BBCCE7"/>
        <path d="M157.754 176.726L157.936 177.464C157.995 177.656 158.025 177.855 158.025 178.056C158.046 178.334 157.989 178.612 157.86 178.86C157.731 179.107 157.536 179.315 157.296 179.46C157.242 179.473 157.177 179.489 157.137 179.556L156.952 178.806C157.01 178.798 157.068 178.784 157.124 178.764C157.365 178.62 157.561 178.413 157.69 178.165C157.819 177.916 157.875 177.638 157.853 177.36C157.85 177.159 157.824 176.96 157.775 176.766" fill="#95AACB"/>
        <path d="M156.932 178.778L157.117 179.527C157.004 179.565 156.889 179.593 156.772 179.611L156.589 178.873C156.704 178.837 156.815 178.791 156.921 178.735" fill="#AFC0DB"/>
        <path d="M156.598 178.916L156.78 179.655C156.697 179.686 156.61 179.707 156.522 179.718L156.339 178.979L156.598 178.916Z" fill="#AFC0DB"/>
        <path d="M156.339 178.98L156.522 179.719C156.437 179.745 156.35 179.766 156.263 179.782L156.078 179.032C156.165 179.017 156.252 178.995 156.336 178.969" fill="#AFC0DB"/>
        <path d="M156.068 179L156.253 179.75L156.032 179.735C155.95 179.725 155.869 179.706 155.79 179.681L155.607 178.942C155.69 178.961 155.773 178.975 155.858 178.983C155.926 178.999 155.997 179.005 156.068 179Z" fill="#BBCCE7"/>
        <path d="M155.607 178.943L155.79 179.682C155.639 179.646 155.497 179.585 155.367 179.501L155.185 178.762C155.317 178.841 155.459 178.901 155.607 178.943Z" fill="#BBCCE7"/>
        <path d="M155.186 178.763L155.368 179.502C155.243 179.428 155.129 179.337 155.027 179.233L154.845 178.495C154.945 178.597 155.055 178.688 155.175 178.766" fill="#BBCCE7"/>
        <path d="M140.785 183.553L140.957 184.248L140.928 184.131L140.743 183.381L140.839 183.494" fill="#DAE4F6"/>
        <path d="M143.15 182.916L143.332 183.655L142.409 184.187L142.216 183.451L143.15 182.916Z" fill="#95AACB"/>
        <path d="M142.215 183.452L142.4 184.201C142.325 184.22 142.26 184.236 142.195 184.251L142.013 183.513C142.075 183.483 142.135 183.449 142.194 183.412" fill="#BBCCE7"/>
        <path d="M142.034 183.552L142.216 184.291C142.103 184.351 141.986 184.403 141.865 184.445L141.68 183.696C141.804 183.674 141.927 183.644 142.047 183.606" fill="#BBCCE7"/>
        <path d="M141.724 183.685L141.909 184.434L141.715 184.482L141.53 183.732C141.6 183.727 141.669 183.71 141.735 183.682" fill="#BBCCE7"/>
        <path d="M141.475 183.746L141.66 184.496L141.498 184.535L141.316 183.797C141.371 183.789 141.425 183.776 141.477 183.757" fill="#BBCCE7"/>
        <path d="M141.306 183.766L141.489 184.505C141.417 184.51 141.345 184.501 141.276 184.478L141.094 183.739C141.163 183.757 141.235 183.766 141.306 183.766Z" fill="#BBCCE7"/>
        <path d="M141.095 183.739L141.278 184.477C141.215 184.466 141.154 184.442 141.101 184.407L140.918 183.669C140.97 183.7 141.026 183.724 141.085 183.741" fill="#BBCCE7"/>
        <path d="M140.927 183.666L141.109 184.405L140.968 184.292L140.785 183.553L140.927 183.666Z" fill="#BBCCE7"/>
        <path d="M151.176 179.304L151.361 180.053C151.497 180.528 151.534 181.025 151.47 181.514C151.351 181.989 151.127 182.431 150.815 182.81C150.502 183.189 150.109 183.494 149.664 183.704C149.547 183.777 149.425 183.841 149.299 183.896L149.116 183.157L149.481 182.965C149.927 182.755 150.32 182.45 150.632 182.071C150.944 181.692 151.168 181.25 151.288 180.775C151.351 180.282 151.309 179.782 151.165 179.306" fill="#95AACB"/>
        <path d="M149.122 183.153L149.305 183.893C148.992 184.055 148.664 184.188 148.326 184.291L148.144 183.551C148.479 183.443 148.806 183.31 149.122 183.153Z" fill="#AFC0DB"/>
        <path d="M148.143 183.552L148.326 184.291C148.047 184.382 147.762 184.452 147.473 184.5L147.29 183.761C147.579 183.713 147.865 183.643 148.143 183.552Z" fill="#AFC0DB"/>
        <path d="M147.289 183.762L147.472 184.501C147.153 184.553 146.83 184.579 146.506 184.578L146.323 183.839C146.647 183.836 146.97 183.81 147.289 183.762Z" fill="#BBCCE7"/>
        <path d="M146.345 183.835L146.528 184.574C146.471 184.593 146.414 184.607 146.355 184.616C145.892 184.608 145.433 184.54 144.988 184.416L144.805 183.677C145.252 183.794 145.71 183.861 146.172 183.877C146.237 183.861 146.291 183.848 146.356 183.832" fill="#BBCCE7"/>
        <path d="M144.761 183.645L144.949 184.406C144.427 184.271 143.929 184.055 143.474 183.767L143.292 183.028C143.75 183.309 144.247 183.524 144.766 183.667" fill="#BBCCE7"/>
        <path d="M143.286 183.006L143.468 183.745L143.321 183.656L143.138 182.917L143.275 183.009" fill="#BBCCE7"/>
        <path d="M140.788 183.549C140.574 183.329 140.55 183.142 140.648 182.981C140.812 182.774 141.022 182.606 141.261 182.491L142.122 181.985C141.731 181.526 141.453 180.984 141.307 180.401C141.217 180.083 141.242 179.744 141.376 179.441C141.511 179.139 141.747 178.892 142.044 178.743C142.349 178.505 142.732 178.386 143.12 178.411C143.507 178.436 143.871 178.603 144.141 178.878C144.377 179.154 144.557 179.472 144.67 179.816C144.77 180.148 144.94 180.455 145.168 180.717C145.403 180.968 145.71 181.142 146.048 181.218C146.425 181.292 146.817 181.225 147.147 181.028C147.346 180.933 147.512 180.782 147.624 180.593C147.733 180.258 147.717 179.895 147.578 179.571C147.44 179.241 147.32 178.895 147.195 178.528C146.813 177.68 146.781 176.717 147.105 175.844C147.43 174.971 148.085 174.257 148.931 173.855C150.034 173.206 151.305 172.895 152.585 172.961C153.757 172.976 154.891 173.369 155.818 174.079L157.03 173.373C157.713 172.979 158.196 172.94 158.515 173.26C158.835 173.579 158.628 173.948 157.946 174.342L156.803 175.008C157.358 175.664 157.697 176.473 157.776 177.326C157.798 177.604 157.741 177.883 157.612 178.131C157.483 178.38 157.287 178.588 157.045 178.732C156.681 178.969 156.246 179.075 155.813 179.033C155.428 178.997 155.071 178.822 154.809 178.54C154.564 178.201 154.375 177.826 154.248 177.428C154.083 176.921 153.815 176.453 153.462 176.053C153.196 175.786 152.843 175.622 152.466 175.592C152.033 175.551 151.598 175.657 151.233 175.893C150.703 176.19 150.447 176.548 150.467 176.967C150.506 177.48 150.63 177.983 150.834 178.456C151.177 179.21 151.323 180.038 151.256 180.864C151.136 181.338 150.912 181.781 150.599 182.16C150.286 182.539 149.893 182.845 149.447 183.056C148.419 183.63 147.252 183.916 146.074 183.881C145.011 183.86 143.977 183.537 143.094 182.951L142.16 183.486C141.567 183.825 141.095 183.861 140.788 183.549Z" fill="white"/>
    </g>
    <mask id="mask0" mask-type="alpha" maskUnits="userSpaceOnUse" x="0" y="0" width="1340" height="398">
        <rect width="1340" height="398" rx="10" fill="url(#paint1_linear)"/>
    </mask>
    <g mask="url(#mask0)">
        <path d="M171.59 388.812L169.32 389.456C170.276 387.672 171.837 386.296 173.717 385.581L175.988 384.936C174.108 385.651 172.546 387.028 171.59 388.812Z" fill="#2BA96C"/>
        <path d="M175.989 384.936L173.718 385.581L174.177 385.439L176.447 384.795C176.292 384.833 176.144 384.889 175.989 384.936Z" fill="#28734C"/>
        <path d="M170.564 399.745L168.294 400.389C167.211 396.751 167.579 392.827 169.321 389.457L171.591 388.812C169.85 392.183 169.481 396.106 170.564 399.745Z" fill="#35B477"/>
        <path d="M171.591 388.812C174.558 383.553 180.739 383.047 185.331 387.667C189.923 392.287 191.213 400.335 188.219 405.593C185.225 410.85 179.071 411.348 174.488 406.738C169.904 402.127 168.596 394.069 171.591 388.812Z" fill="#50DD99"/>
        <path d="M179.56 395.541L178.938 395.543C179.226 395.497 179.515 395.469 179.794 395.441L180.416 395.438C180.137 395.439 179.848 395.495 179.569 395.541" fill="#95AACB"/>
        <path d="M178.691 390.755L178.024 390.758L178.24 390.667L178.871 390.664L178.655 390.756" fill="#BBCCE7"/>
        <path d="M178.925 390.663L178.293 390.666C178.596 390.539 178.914 390.455 179.24 390.417L179.826 390.415C179.515 390.448 179.211 390.529 178.925 390.654" fill="#BBCCE7"/>
        <path d="M177.705 389.367L177.119 389.369L177.218 389.369L177.849 389.366L177.741 389.421" fill="#DAE4F6"/>
        <path d="M177.754 391.369L177.132 391.371L176.887 390.535L177.509 390.524L177.754 391.369Z" fill="#95AACB"/>
        <path d="M177.509 390.523L176.877 390.525C176.877 390.462 176.877 390.407 176.877 390.353L177.499 390.35C177.511 390.406 177.526 390.46 177.545 390.513" fill="#BBCCE7"/>
        <path d="M177.464 390.359L176.842 390.362C176.816 390.26 176.797 390.157 176.787 390.053L177.418 390.05C177.412 390.153 177.412 390.256 177.419 390.359" fill="#BBCCE7"/>
        <path d="M177.419 390.086L176.787 390.089L176.787 389.926L177.418 389.923C177.409 389.98 177.409 390.038 177.419 390.095" fill="#BBCCE7"/>
        <path d="M177.417 389.877L176.785 389.879L176.785 389.743L177.407 389.741C177.403 389.786 177.403 389.832 177.408 389.877" fill="#BBCCE7"/>
        <path d="M177.433 389.74L176.811 389.743C176.821 389.685 176.842 389.629 176.874 389.579L177.496 389.577C177.468 389.628 177.447 389.683 177.433 389.74Z" fill="#BBCCE7"/>
        <path d="M177.497 389.576L176.875 389.579C176.897 389.531 176.927 389.488 176.965 389.452L177.587 389.449C177.552 389.484 177.522 389.524 177.497 389.567" fill="#BBCCE7"/>
        <path d="M177.587 389.458L176.965 389.46L177.082 389.369L177.704 389.367L177.587 389.458Z" fill="#BBCCE7"/>
        <path d="M179.079 398.444L178.447 398.447C178.044 398.464 177.642 398.397 177.265 398.252C176.911 398.066 176.603 397.802 176.362 397.481C176.121 397.16 175.954 396.789 175.873 396.394C175.837 396.288 175.81 396.178 175.791 396.067L176.414 396.065L176.495 396.392C176.576 396.786 176.743 397.157 176.984 397.478C177.225 397.8 177.534 398.063 177.888 398.249C178.267 398.395 178.673 398.458 179.079 398.435" fill="#95AACB"/>
        <path d="M176.415 396.071L175.792 396.074C175.723 395.794 175.68 395.508 175.664 395.219L176.287 395.216C176.308 395.504 176.351 395.79 176.415 396.071Z" fill="#AFC0DB"/>
        <path d="M176.288 395.216L175.665 395.218C175.647 394.979 175.646 394.739 175.664 394.5L176.287 394.497C176.269 394.736 176.269 394.977 176.288 395.216Z" fill="#AFC0DB"/>
        <path d="M176.284 394.496L175.661 394.499C175.682 394.235 175.724 393.974 175.786 393.716L176.409 393.714C176.349 393.971 176.307 394.233 176.284 394.496Z" fill="#BBCCE7"/>
        <path d="M176.409 393.731L175.786 393.734C175.782 393.686 175.782 393.637 175.786 393.588C175.882 393.223 176.024 392.87 176.209 392.541L176.831 392.538C176.652 392.87 176.51 393.222 176.409 393.586C176.409 393.64 176.409 393.686 176.409 393.74" fill="#BBCCE7"/>
        <path d="M176.865 392.51L176.224 392.513C176.432 392.123 176.7 391.769 177.017 391.464L177.639 391.461C177.327 391.771 177.06 392.124 176.847 392.51" fill="#BBCCE7"/>
        <path d="M177.658 391.46L177.035 391.463L177.134 391.363L177.757 391.36L177.657 391.451" fill="#BBCCE7"/>
        <path d="M177.708 389.37C177.924 389.242 178.078 389.259 178.186 389.368C178.319 389.538 178.412 389.737 178.458 389.949L178.694 390.731C179.134 390.509 179.619 390.392 180.11 390.389C180.38 390.378 180.645 390.463 180.859 390.628C181.074 390.794 181.224 391.029 181.285 391.294C181.416 391.582 181.437 391.91 181.342 392.213C181.248 392.515 181.046 392.773 180.774 392.934C180.51 393.069 180.222 393.15 179.927 393.174C179.644 393.19 179.367 393.265 179.115 393.396C178.87 393.535 178.673 393.745 178.548 393.999C178.416 394.284 178.394 394.609 178.486 394.909C178.524 395.086 178.612 395.247 178.74 395.372C178.986 395.524 179.277 395.581 179.562 395.533C179.85 395.486 180.148 395.458 180.464 395.429C181.212 395.289 181.983 395.449 182.615 395.875C183.246 396.301 183.687 396.959 183.844 397.709C184.147 398.711 184.15 399.781 183.85 400.785C183.612 401.714 183.082 402.54 182.339 403.139L182.666 404.239C182.848 404.857 182.786 405.249 182.47 405.441C182.155 405.634 181.902 405.398 181.72 404.78L181.411 403.744C180.782 404.058 180.074 404.172 179.381 404.07C179.156 404.034 178.945 403.935 178.772 403.785C178.6 403.634 178.473 403.438 178.405 403.219C178.286 402.884 178.285 402.517 178.402 402.181C178.505 401.882 178.713 401.632 178.988 401.478C179.304 401.349 179.639 401.271 179.98 401.247C180.414 401.213 180.838 401.09 181.224 400.887C181.488 400.727 181.686 400.478 181.782 400.184C181.899 399.847 181.898 399.482 181.78 399.146C181.647 398.667 181.412 398.395 181.075 398.33C180.659 398.263 180.235 398.264 179.82 398.335C179.155 398.463 178.469 398.419 177.826 398.206C177.471 398.02 177.162 397.756 176.921 397.434C176.681 397.113 176.513 396.741 176.432 396.346C176.173 395.419 176.171 394.437 176.426 393.507C176.647 392.666 177.103 391.906 177.739 391.317L177.494 390.472C177.339 389.936 177.401 389.553 177.708 389.37Z" fill="white"/>
        <path d="M1231.87 11.4066L1233.29 13.9189C1230.9 13.2971 1228.81 11.8377 1227.42 9.80948L1226 7.29717C1227.39 9.32543 1229.48 10.7848 1231.87 11.4066Z" fill="#2BA96C"/>
        <path d="M1226 7.2969L1227.42 9.80921L1227.12 9.30533L1225.7 6.79302C1225.79 6.96668 1225.9 7.12533 1226 7.2969Z" fill="#28734C"/>
        <path d="M1253.17 -8.57077L1254.59 -6.05844C1256.33 -2.8994 1256.21 1.27609 1253.72 5.33116C1251.94 8.1282 1249.47 10.4278 1246.54 12.0092L1245.12 9.49692C1248.05 7.91915 1250.52 5.61874 1252.3 2.81884C1254.79 -1.2254 1254.95 -5.40925 1253.17 -8.57077Z" fill="#2BA96C"/>
        <path d="M1245.16 9.47722L1246.58 11.9895C1242.57 14.3249 1237.8 15.0171 1233.29 13.9185L1231.87 11.4062C1236.38 12.5048 1241.15 11.8125 1245.16 9.47722Z" fill="#35B477"/>
        <path d="M1231.87 11.4057C1224.77 9.3942 1222.39 2.19485 1226.55 -4.59303C1230.72 -11.3809 1239.91 -15.2332 1247.02 -13.1893C1254.13 -11.1453 1256.5 -3.97633 1252.34 2.79864C1248.18 9.57361 1238.98 13.4497 1231.87 11.4057Z" fill="#50DD99"/>
        <path d="M1237.57 -0.000945956L1237.75 0.737671C1237.62 0.408277 1237.5 0.0736219 1237.39 -0.250328L1237.2 -0.988945C1237.29 -0.657104 1237.43 -0.330334 1237.57 -0.0116446" fill="#95AACB"/>
        <path d="M1232.14 2.40926L1232.33 3.20138L1232.16 2.97075L1231.98 2.22146L1232.15 2.45209" fill="#BBCCE7"/>
        <path d="M1231.96 2.15754L1232.15 2.90685C1231.91 2.58414 1231.72 2.22969 1231.58 1.85393L1231.41 1.15814C1231.53 1.518 1231.72 1.85598 1231.95 2.16017" fill="#BBCCE7"/>
        <path d="M1246.92 -0.793805L1247.1 -0.0443215C1246.99 -0.00646993 1246.87 0.0217488 1246.76 0.040021L1246.57 -0.698761C1246.69 -0.734555 1246.8 -0.780712 1246.91 -0.836642" fill="#AFC0DB"/>
        <path d="M1246.58 -0.65552L1246.76 0.0832081C1246.68 0.114524 1246.59 0.135752 1246.51 0.146438L1246.32 -0.592289L1246.58 -0.65552Z" fill="#AFC0DB"/>
        <path d="M1246.32 -0.591469L1246.51 0.147261C1246.42 0.173463 1246.33 0.194583 1246.25 0.210498L1246.06 -0.538933C1246.15 -0.554847 1246.24 -0.575968 1246.32 -0.60217" fill="#AFC0DB"/>
        <path d="M1246.05 -0.571295L1246.24 0.17821L1246.02 0.164052C1245.93 0.153213 1245.85 0.13501 1245.77 0.109686L1245.59 -0.629101C1245.67 -0.61043 1245.76 -0.596736 1245.84 -0.588091C1245.91 -0.572162 1245.98 -0.566501 1246.05 -0.571295Z" fill="#BBCCE7"/>
        <path d="M1245.59 -0.628403L1245.77 0.110313C1245.62 0.0748169 1245.48 0.0136757 1245.35 -0.0703902L1245.17 -0.809107C1245.3 -0.73086 1245.44 -0.670113 1245.59 -0.628403Z" fill="#BBCCE7"/>
        <path d="M1230.77 3.98124L1230.94 4.677L1230.91 4.55926L1230.73 3.80997L1230.82 3.92266" fill="#DAE4F6"/>
        <path d="M1233.13 3.34477L1233.32 4.08366L1232.39 4.61601L1232.2 3.87977L1233.13 3.34477Z" fill="#95AACB"/>
        <path d="M1232.2 3.88065L1232.38 4.63002C1232.31 4.64845 1232.24 4.66425 1232.18 4.68005L1232 3.94138C1232.06 3.91112 1232.12 3.87742 1232.18 3.84046" fill="#BBCCE7"/>
        <path d="M1232.02 3.981L1232.2 4.7198C1232.09 4.78009 1231.97 4.83153 1231.85 4.87366L1231.66 4.12416C1231.79 4.10245 1231.91 4.07251 1232.03 4.03454" fill="#BBCCE7"/>
        <path d="M1231.71 4.11362L1231.89 4.863L1231.7 4.9104L1231.51 4.16102C1231.58 4.15525 1231.65 4.13836 1231.72 4.11098" fill="#BBCCE7"/>
        <path d="M1231.46 4.17504L1231.64 4.92439L1231.48 4.96387L1231.3 4.22522C1231.36 4.21732 1231.41 4.20409 1231.46 4.18574" fill="#BBCCE7"/>
        <path d="M1231.29 4.19503L1231.47 4.93369C1231.4 4.93891 1231.33 4.92954 1231.26 4.90615L1231.08 4.16749C1231.15 4.18573 1231.22 4.19498 1231.29 4.19503Z" fill="#BBCCE7"/>
        <path d="M1231.08 4.16741L1231.26 4.90603C1231.2 4.89418 1231.14 4.87034 1231.08 4.83582L1230.9 4.09719C1230.95 4.12847 1231.01 4.15296 1231.07 4.17004" fill="#BBCCE7"/>
        <path d="M1230.91 4.09474L1231.09 4.83334L1230.95 4.72046L1230.77 3.98188L1230.91 4.09474Z" fill="#BBCCE7"/>
        <path d="M1241.16 -0.267777L1241.35 0.481898C1241.48 0.956359 1241.52 1.45349 1241.45 1.94289C1241.34 2.41746 1241.11 2.86001 1240.8 3.23868C1240.49 3.61735 1240.09 3.92272 1239.65 4.13286C1239.53 4.206 1239.41 4.26999 1239.28 4.32422L1239.1 3.58525L1239.47 3.39391C1239.91 3.18377 1240.3 2.87838 1240.62 2.49971C1240.93 2.12104 1241.15 1.67849 1241.27 1.20392C1241.34 0.711007 1241.29 0.21048 1241.15 -0.265137" fill="#95AACB"/>
        <path d="M1239.11 3.58187L1239.29 4.3211C1238.98 4.4838 1238.65 4.61705 1238.31 4.71912L1238.13 3.97988C1238.46 3.87191 1238.79 3.73885 1239.11 3.58187Z" fill="#AFC0DB"/>
        <path d="M1238.13 3.98072L1238.31 4.71994C1238.03 4.81075 1237.75 4.88043 1237.46 4.92839L1237.27 4.18917C1237.56 4.14121 1237.85 4.07152 1238.13 3.98072Z" fill="#AFC0DB"/>
        <path d="M1237.27 4.19042L1237.46 4.92959C1237.14 4.98144 1236.81 5.00717 1236.49 5.00652L1236.31 4.26735C1236.63 4.26432 1236.95 4.23862 1237.27 4.19042Z" fill="#BBCCE7"/>
        <path d="M1236.33 4.26339L1236.51 5.00262C1236.46 5.02154 1236.4 5.03566 1236.34 5.04484C1235.88 5.0363 1235.42 4.96906 1234.97 4.84474L1234.79 4.10551C1235.24 4.22275 1235.69 4.28987 1236.16 4.3056C1236.22 4.28977 1236.28 4.27658 1236.34 4.26074" fill="#BBCCE7"/>
        <path d="M1234.75 4.07398L1234.93 4.83438C1234.41 4.69942 1233.91 4.48373 1233.46 4.19523L1233.28 3.45625C1233.73 3.73784 1234.23 3.95306 1234.75 4.0954" fill="#BBCCE7"/>
        <path d="M1233.27 3.43486L1233.45 4.17347L1233.3 4.08464L1233.12 3.34604L1233.26 3.43749" fill="#BBCCE7"/>
        <path d="M1230.77 3.97785C1230.56 3.75775 1230.53 3.57033 1230.63 3.41003C1230.8 3.20252 1231.01 3.03471 1231.25 2.91937L1232.11 2.41339C1231.72 1.95438 1231.44 1.41241 1231.29 0.829209C1231.2 0.511463 1231.23 0.172395 1231.36 -0.129925C1231.5 -0.432244 1231.73 -0.679014 1232.03 -0.828007C1232.33 -1.06663 1232.72 -1.18493 1233.1 -1.16006C1233.49 -1.13519 1233.86 -0.96891 1234.13 -0.693338C1234.36 -0.417552 1234.54 -0.0989141 1234.65 0.244974C1234.75 0.576731 1234.92 0.883682 1235.15 1.14573C1235.39 1.39642 1235.69 1.57078 1236.03 1.64615C1236.41 1.72076 1236.8 1.65322 1237.13 1.4567C1237.33 1.36177 1237.5 1.21041 1237.61 1.02185C1237.72 0.686316 1237.7 0.323377 1237.56 -0.000685493C1237.42 -0.330298 1237.3 -0.675916 1237.18 -1.04296C1236.8 -1.89117 1236.77 -2.85455 1237.09 -3.7276C1237.41 -4.60065 1238.07 -5.31425 1238.92 -5.71623C1240.02 -6.36584 1241.29 -6.67691 1242.57 -6.61007C1243.74 -6.59508 1244.88 -6.20286 1245.8 -5.49247L1247.01 -6.19815C1247.7 -6.59224 1248.18 -6.63096 1248.5 -6.31152C1248.82 -5.99208 1248.61 -5.62334 1247.93 -5.22924L1246.79 -4.56351C1247.34 -3.90742 1247.68 -3.09882 1247.76 -2.24551C1247.78 -1.9673 1247.73 -1.68836 1247.6 -1.44005C1247.47 -1.19174 1247.27 -0.983898 1247.03 -0.839862C1246.67 -0.60263 1246.23 -0.496227 1245.8 -0.538395C1245.41 -0.574254 1245.06 -0.749709 1244.79 -1.03114C1244.55 -1.37046 1244.36 -1.74582 1244.23 -2.14353C1244.07 -2.6502 1243.8 -3.1181 1243.45 -3.51888C1243.18 -3.78591 1242.83 -3.94935 1242.45 -3.97948C1242.02 -4.02075 1241.58 -3.91442 1241.22 -3.67802C1240.69 -3.38161 1240.43 -3.02372 1240.45 -2.60436C1240.49 -2.09125 1240.61 -1.58822 1240.82 -1.11517C1241.16 -0.361399 1241.31 0.466836 1241.24 1.2922C1241.12 1.76707 1240.9 2.20994 1240.58 2.58896C1240.27 2.96798 1239.88 3.27373 1239.43 3.48421C1238.4 4.05886 1237.24 4.34417 1236.06 4.30929C1235 4.28844 1233.96 3.96588 1233.08 3.37979L1232.14 3.91498C1231.55 4.25314 1231.08 4.28923 1230.77 3.97785Z" fill="white"/>
    </g>
    <g clip-path="url(#clip4)">
        <path d="M357.443 256.064L354.008 257.214C355.339 254.43 357.632 252.222 360.463 250.995L363.898 249.845C361.067 251.072 358.775 253.281 357.443 256.064Z" fill="#2BA96C"/>
        <path d="M363.898 249.845L360.463 250.995L361.155 250.745L364.591 249.596C364.355 249.665 364.134 249.762 363.898 249.845Z" fill="#2BA96C"/>
        <path d="M377.085 286.759L373.649 287.909C369.342 289.294 364.217 288.172 359.798 284.183C356.764 281.357 354.508 277.799 353.246 273.85L356.681 272.7C357.938 276.651 360.195 280.211 363.233 283.033C367.638 287.022 372.763 288.2 377.085 286.759Z" fill="#2BA96C"/>
        <path d="M356.695 272.755L353.26 273.905C351.322 268.457 351.591 262.467 354.008 257.214L357.443 256.064C355.026 261.317 354.757 267.307 356.695 272.755Z" fill="#35B477"/>
        <path d="M357.442 256.064C361.598 247.85 371.045 246.618 378.441 253.294C385.838 259.97 388.428 272.104 384.231 280.318C380.034 288.532 370.629 289.751 363.246 283.089C355.863 276.426 353.245 264.278 357.442 256.064Z" fill="#2CD282"/>
        <path d="M375.131 280.691L374.176 280.741C373.844 280.759 373.535 280.414 373.289 279.692L374.244 279.642C374.503 280.364 374.799 280.709 375.145 280.691" fill="#7D94BA"/>
        <path d="M374.228 279.643L373.274 279.707L372.721 278.141L373.689 278.09L374.228 279.643Z" fill="#7D94BA"/>
        <path d="M373.984 272.651L373.03 272.701C373.065 272.6 373.092 272.497 373.111 272.392L374.065 272.342C374.044 272.446 374.017 272.55 373.984 272.651Z" fill="#AFC0DB"/>
        <path d="M374.065 272.341L373.111 272.392C373.112 272.271 373.106 272.151 373.092 272.032L374.046 271.982C374.066 272.105 374.073 272.231 374.066 272.355" fill="#95AACB"/>
        <path d="M374.103 271.965L373.148 272.015C373.156 271.904 373.15 271.793 373.131 271.683L374.085 271.633C374.104 271.743 374.11 271.854 374.103 271.965Z" fill="#95AACB"/>
        <path d="M374.085 271.633L373.13 271.683C373.13 271.549 373.123 271.415 373.109 271.282L374.064 271.232C374.084 271.36 374.091 271.49 374.084 271.619" fill="#95AACB"/>
        <path d="M374.01 271.249L373.056 271.299C373.057 271.239 373.054 271.178 373.046 271.119C372.8 270.397 372.42 270.014 371.916 269.93L372.87 269.88C373.392 269.954 373.774 270.35 374.015 271.068L374.024 271.248" fill="#7D94BA"/>
        <path d="M372.815 269.883L371.861 269.933C371.589 269.899 371.315 269.89 371.041 269.906L371.996 269.856C372.269 269.826 372.545 269.835 372.815 269.883Z" fill="#8397B8"/>
        <path d="M370.181 265.693L369.227 265.743C369.666 265.651 370.106 265.586 370.533 265.522L371.487 265.472C371.058 265.495 370.62 265.601 370.195 265.692" fill="#95AACB"/>
        <path d="M369.924 274.764L368.969 274.814C369.413 274.654 369.872 274.537 370.338 274.465C370.809 274.391 371.269 274.255 371.704 274.06L372.672 274.01C372.214 274.207 371.731 274.34 371.237 274.404C370.768 274.472 370.309 274.594 369.869 274.767" fill="#BBCCE7"/>
        <path d="M372.742 274.006L371.773 274.057C371.927 273.99 372.076 273.913 372.219 273.825C372.346 273.742 372.462 273.643 372.564 273.53L373.532 273.479C373.431 273.593 373.315 273.692 373.187 273.775L372.742 274.02" fill="#BBCCE7"/>
        <path d="M373.532 273.465L372.564 273.516C372.699 273.37 372.812 273.206 372.899 273.027L373.867 272.976C373.779 273.154 373.666 273.319 373.532 273.465Z" fill="#BBCCE7"/>
        <path d="M373.867 272.976L372.898 273.027C372.952 272.917 372.997 272.803 373.033 272.687L373.987 272.637C373.955 272.748 373.915 272.857 373.866 272.962" fill="#BBCCE7"/>
        <path d="M368.486 258.486L367.462 258.54L367.787 258.384L368.755 258.333L368.431 258.489" fill="#BBCCE7"/>
        <path d="M368.839 258.329L367.871 258.38C368.325 258.163 368.808 258.012 369.304 257.93L370.203 257.883C369.729 257.956 369.269 258.102 368.839 258.315" fill="#BBCCE7"/>
        <path d="M371.299 278.784L370.345 278.834C370.094 278.86 369.841 278.85 369.594 278.804C369.246 278.764 368.916 278.629 368.641 278.413C368.365 278.197 368.154 277.91 368.032 277.582C368.028 277.513 368.024 277.43 367.951 277.364L368.919 277.313C368.915 277.387 368.919 277.461 368.931 277.535C369.052 277.863 369.262 278.152 369.538 278.368C369.814 278.584 370.145 278.718 370.493 278.757C370.741 278.8 370.993 278.815 371.244 278.8" fill="#95AACB"/>
        <path d="M368.96 277.297L367.992 277.348C367.971 277.202 367.964 277.053 367.968 276.906L368.923 276.855C368.94 277.004 368.971 277.151 369.015 277.295" fill="#AFC0DB"/>
        <path d="M368.869 276.858L367.914 276.908C367.895 276.799 367.889 276.687 367.897 276.576L368.851 276.526L368.869 276.858Z" fill="#AFC0DB"/>
        <path d="M368.85 276.526L367.895 276.576C367.883 276.466 367.877 276.355 367.878 276.244L368.846 276.194C368.845 276.305 368.851 276.415 368.864 276.526" fill="#AFC0DB"/>
        <path d="M368.887 276.191L367.919 276.242L367.988 275.975C368.021 275.877 368.062 275.782 368.112 275.691L369.066 275.641C369.024 275.738 368.988 275.837 368.957 275.938C368.921 276.019 368.898 276.104 368.887 276.191Z" fill="#BBCCE7"/>
        <path d="M369.066 275.641L368.112 275.691C368.191 275.515 368.3 275.355 368.434 275.216L369.388 275.166C369.261 275.31 369.152 275.47 369.066 275.641Z" fill="#BBCCE7"/>
        <path d="M369.39 275.166L368.435 275.216C368.556 275.081 368.695 274.962 368.847 274.862L369.801 274.812C369.652 274.91 369.514 275.025 369.389 275.153" fill="#BBCCE7"/>
        <path d="M366.866 256.449L365.967 256.496L366.119 256.488L367.087 256.437L366.926 256.529" fill="#DAE4F6"/>
        <path d="M367.095 259.488L366.14 259.538L365.7 258.285L366.654 258.221L367.095 259.488Z" fill="#95AACB"/>
        <path d="M366.654 258.221L365.686 258.272C365.681 258.175 365.676 258.092 365.672 258.009L366.626 257.959C366.649 258.043 366.677 258.124 366.709 258.205" fill="#BBCCE7"/>
        <path d="M366.574 257.976L365.619 258.026C365.571 257.874 365.535 257.718 365.512 257.56L366.48 257.509C366.478 257.666 366.486 257.823 366.505 257.979" fill="#BBCCE7"/>
        <path d="M366.483 257.564L365.515 257.615L365.502 257.366L366.47 257.315C366.461 257.403 366.465 257.492 366.484 257.578" fill="#BBCCE7"/>
        <path d="M366.465 257.246L365.497 257.297L365.486 257.09L366.441 257.04C366.438 257.109 366.441 257.178 366.452 257.247" fill="#BBCCE7"/>
        <path d="M366.481 257.037L365.527 257.087C365.537 256.998 365.566 256.912 365.61 256.833L366.565 256.783C366.526 256.864 366.498 256.95 366.481 257.037Z" fill="#BBCCE7"/>
        <path d="M366.564 256.783L365.61 256.833C365.639 256.759 365.683 256.691 365.738 256.633L366.692 256.582C366.642 256.639 366.598 256.702 366.563 256.77" fill="#BBCCE7"/>
        <path d="M366.694 256.596L365.74 256.646L365.912 256.499L366.867 256.449L366.694 256.596Z" fill="#BBCCE7"/>
        <path d="M369.665 270.145L368.697 270.196C368.08 270.251 367.458 270.18 366.869 269.986C366.311 269.729 365.818 269.351 365.424 268.88C365.03 268.409 364.745 267.856 364.59 267.262C364.527 267.103 364.477 266.938 364.439 266.771L365.394 266.721L365.544 267.212C365.699 267.806 365.984 268.359 366.378 268.83C366.772 269.301 367.266 269.679 367.823 269.936C368.417 270.13 369.044 270.196 369.664 270.131" fill="#95AACB"/>
        <path d="M365.398 266.734L364.443 266.785C364.316 266.364 364.228 265.932 364.182 265.494L365.136 265.444C365.191 265.88 365.278 266.312 365.398 266.734Z" fill="#AFC0DB"/>
        <path d="M365.136 265.444L364.182 265.494C364.135 265.132 364.116 264.767 364.124 264.402L365.079 264.352C365.07 264.717 365.089 265.082 365.136 265.444Z" fill="#AFC0DB"/>
        <path d="M365.077 264.352L364.123 264.402C364.134 263.999 364.178 263.598 364.254 263.202L365.209 263.152C365.137 263.548 365.093 263.949 365.077 264.352Z" fill="#BBCCE7"/>
        <path d="M365.21 263.18L364.256 263.23C364.246 263.156 364.242 263.082 364.244 263.008C364.363 262.445 364.554 261.899 364.811 261.383L365.766 261.333C365.516 261.852 365.326 262.397 365.199 262.958C365.203 263.041 365.207 263.11 365.211 263.193" fill="#BBCCE7"/>
        <path d="M365.817 261.289L364.835 261.341C365.124 260.733 365.507 260.175 365.969 259.686L366.924 259.636C366.469 260.131 366.087 260.688 365.79 261.291" fill="#BBCCE7"/>
        <path d="M366.953 259.634L365.998 259.684L366.142 259.524L367.097 259.474L366.952 259.621" fill="#BBCCE7"/>
        <path d="M366.868 256.448C367.19 256.237 367.427 256.253 367.601 256.41C367.819 256.659 367.976 256.954 368.063 257.274L368.485 258.444C369.142 258.074 369.876 257.86 370.63 257.819C371.042 257.783 371.455 257.892 371.796 258.128C372.137 258.363 372.386 258.709 372.5 259.108C372.723 259.536 372.779 260.032 372.657 260.5C372.536 260.967 372.246 261.373 371.842 261.639C371.447 261.863 371.012 262.008 370.561 262.067C370.128 262.111 369.71 262.247 369.333 262.464C368.969 262.694 368.682 263.028 368.51 263.423C368.329 263.866 368.321 264.361 368.485 264.811C368.556 265.076 368.703 265.315 368.91 265.496C369.298 265.708 369.749 265.773 370.181 265.679C370.621 265.587 371.075 265.521 371.557 265.454C372.692 265.186 373.888 265.372 374.889 265.972C375.889 266.573 376.616 267.541 376.913 268.669C377.455 270.169 377.54 271.796 377.158 273.344C376.864 274.774 376.114 276.069 375.021 277.035L375.607 278.683C375.933 279.609 375.867 280.209 375.398 280.525C374.929 280.84 374.523 280.501 374.197 279.575L373.644 278.023C372.705 278.547 371.628 278.773 370.557 278.67C370.209 278.632 369.878 278.497 369.602 278.281C369.326 278.065 369.116 277.777 368.995 277.448C368.788 276.947 368.759 276.391 368.912 275.871C369.047 275.409 369.347 275.013 369.756 274.759C370.232 274.539 370.739 274.396 371.259 274.333C371.923 274.249 372.563 274.032 373.14 273.694C373.531 273.432 373.816 273.038 373.942 272.584C374.094 272.064 374.065 271.508 373.859 271.007C373.618 270.289 373.237 269.893 372.715 269.818C372.073 269.747 371.423 269.781 370.792 269.919C369.782 270.163 368.726 270.147 367.724 269.872C367.167 269.614 366.673 269.237 366.279 268.766C365.885 268.295 365.6 267.742 365.445 267.148C364.978 265.757 364.9 264.264 365.219 262.832C365.494 261.537 366.135 260.348 367.065 259.406L366.624 258.14C366.346 257.336 366.412 256.75 366.868 256.448Z" fill="white"/>
    </g>
    <g clip-path="url(#clip5)">
        <path d="M1047.81 120.635L1047.16 124.199C1045.37 121.69 1044.54 118.616 1044.83 115.545L1045.48 111.981C1045.19 115.053 1046.02 118.126 1047.81 120.635Z" fill="#2BA96C"/>
        <path d="M1045.48 111.981L1044.83 115.544L1044.94 114.817L1045.59 111.254C1045.54 111.493 1045.52 111.734 1045.48 111.981Z" fill="#2BA96C"/>
        <path d="M1084.18 118.23L1083.53 121.794C1082.66 126.235 1079.21 130.184 1073.58 132.131C1069.64 133.426 1065.44 133.686 1061.37 132.888L1062.02 129.324C1066.09 130.128 1070.29 129.868 1074.23 128.567C1079.85 126.632 1083.35 122.71 1084.18 118.23Z" fill="#2BA96C"/>
        <path d="M1062.07 129.339L1061.42 132.902C1055.72 131.973 1050.6 128.849 1047.16 124.198L1047.81 120.634C1051.25 125.285 1056.37 128.409 1062.07 129.339Z" fill="#35B477"/>
        <path d="M1047.81 120.634C1042.62 113.033 1046.1 104.163 1055.51 100.903C1064.93 97.6424 1076.81 101.225 1081.98 108.863C1087.15 116.5 1083.68 125.328 1074.29 128.582C1064.89 131.837 1052.99 128.272 1047.81 120.634Z" fill="#2CD282"/>
        <path d="M1077.92 117.017L1077.5 117.877C1077.36 118.176 1076.91 118.281 1076.15 118.148L1076.57 117.288C1077.33 117.408 1077.77 117.316 1077.92 117.004" fill="#7D94BA"/>
        <path d="M1076.56 117.3L1076.16 118.167L1074.52 117.896L1074.94 117.024L1076.56 117.3Z" fill="#7D94BA"/>
        <path d="M1070.32 114.142L1069.91 115.002C1069.84 114.923 1069.76 114.849 1069.68 114.782L1070.09 113.922C1070.17 113.99 1070.25 114.064 1070.32 114.142Z" fill="#AFC0DB"/>
        <path d="M1070.09 113.922L1069.67 114.782C1069.57 114.723 1069.46 114.67 1069.35 114.625L1069.77 113.765C1069.88 113.807 1070 113.861 1070.1 113.928" fill="#95AACB"/>
        <path d="M1069.78 113.707L1069.36 114.567C1069.27 114.507 1069.17 114.459 1069.06 114.423L1069.48 113.562C1069.59 113.598 1069.69 113.647 1069.78 113.707Z" fill="#95AACB"/>
        <path d="M1069.48 113.563L1069.06 114.423C1068.95 114.359 1068.82 114.3 1068.7 114.248L1069.12 113.388C1069.24 113.432 1069.36 113.489 1069.47 113.557" fill="#95AACB"/>
        <path d="M1069.11 113.443L1068.69 114.304C1068.64 114.274 1068.58 114.247 1068.53 114.225C1067.78 114.092 1067.26 114.241 1066.94 114.642L1067.36 113.782C1067.67 113.361 1068.21 113.217 1068.95 113.352L1069.11 113.431" fill="#7D94BA"/>
        <path d="M1067.33 113.832L1066.92 114.692C1066.76 114.914 1066.62 115.15 1066.5 115.397L1066.91 114.537C1067.02 114.283 1067.16 114.046 1067.33 113.832Z" fill="#8397B8"/>
        <path d="M1062.39 114.119L1061.98 114.98C1062.11 114.551 1062.26 114.134 1062.41 113.729L1062.83 112.869C1062.64 113.255 1062.52 113.69 1062.4 114.107" fill="#95AACB"/>
        <path d="M1070.22 118.72L1069.8 119.58C1069.87 119.114 1069.99 118.656 1070.15 118.212C1070.32 117.764 1070.42 117.296 1070.46 116.821L1070.88 115.948C1070.83 116.444 1070.71 116.932 1070.53 117.396C1070.37 117.839 1070.25 118.3 1070.19 118.769" fill="#BBCCE7"/>
        <path d="M1070.91 115.886L1070.49 116.758C1070.5 116.592 1070.51 116.424 1070.5 116.257C1070.49 116.105 1070.46 115.955 1070.41 115.812L1070.83 114.939C1070.88 115.082 1070.91 115.232 1070.92 115.384L1070.92 115.892" fill="#BBCCE7"/>
        <path d="M1070.82 114.933L1070.39 115.806C1070.33 115.617 1070.24 115.439 1070.13 115.276L1070.55 114.403C1070.66 114.567 1070.75 114.745 1070.82 114.933Z" fill="#BBCCE7"/>
        <path d="M1070.55 114.403L1070.13 115.276C1070.06 115.176 1069.98 115.082 1069.89 114.994L1070.31 114.134C1070.39 114.215 1070.47 114.304 1070.54 114.397" fill="#BBCCE7"/>
        <path d="M1055.26 112.129L1054.81 113.052L1054.83 112.692L1055.26 111.82L1055.24 112.179" fill="#BBCCE7"/>
        <path d="M1055.29 111.745L1054.87 112.618C1054.9 112.115 1055 111.62 1055.17 111.146L1055.56 110.335C1055.4 110.786 1055.3 111.259 1055.28 111.739" fill="#BBCCE7"/>
        <path d="M1074.4 119.453L1073.98 120.313C1073.89 120.545 1073.75 120.762 1073.59 120.956C1073.39 121.242 1073.11 121.466 1072.79 121.603C1072.47 121.741 1072.12 121.786 1071.77 121.735C1071.71 121.705 1071.63 121.669 1071.54 121.701L1071.96 120.828C1072.03 120.868 1072.09 120.9 1072.16 120.925C1072.51 120.978 1072.86 120.933 1073.19 120.795C1073.51 120.657 1073.79 120.432 1073.99 120.146C1074.14 119.95 1074.28 119.736 1074.39 119.509" fill="#95AACB"/>
        <path d="M1071.97 120.785L1071.55 121.658C1071.41 121.605 1071.28 121.54 1071.15 121.465L1071.57 120.605C1071.7 120.661 1071.85 120.705 1071.99 120.735" fill="#AFC0DB"/>
        <path d="M1071.54 120.654L1071.12 121.514C1071.02 121.478 1070.92 121.43 1070.82 121.369L1071.24 120.509L1071.54 120.654Z" fill="#AFC0DB"/>
        <path d="M1071.24 120.509L1070.82 121.369C1070.72 121.327 1070.62 121.278 1070.53 121.224L1070.95 120.351C1071.04 120.405 1071.14 120.454 1071.25 120.496" fill="#AFC0DB"/>
        <path d="M1070.97 120.315L1070.54 121.187L1070.34 120.998C1070.27 120.922 1070.21 120.84 1070.15 120.752L1070.57 119.892C1070.63 119.976 1070.7 120.056 1070.78 120.131C1070.83 120.201 1070.89 120.263 1070.97 120.315Z" fill="#BBCCE7"/>
        <path d="M1070.57 119.892L1070.15 120.753C1070.04 120.599 1069.95 120.426 1069.89 120.242L1070.31 119.381C1070.37 119.562 1070.46 119.734 1070.57 119.892Z" fill="#BBCCE7"/>
        <path d="M1070.31 119.381L1069.89 120.241C1069.83 120.07 1069.79 119.891 1069.78 119.71L1070.2 118.85C1070.21 119.028 1070.24 119.204 1070.3 119.375" fill="#BBCCE7"/>
        <path d="M1052.7 112.565L1052.3 113.375L1052.37 113.238L1052.79 112.365L1052.79 112.551" fill="#DAE4F6"/>
        <path d="M1055.47 113.83L1055.05 114.691L1053.74 114.472L1054.15 113.606L1055.47 113.83Z" fill="#95AACB"/>
        <path d="M1054.15 113.605L1053.72 114.478C1053.64 114.436 1053.56 114.399 1053.49 114.363L1053.9 113.503C1053.99 113.523 1054.07 113.539 1054.16 113.549" fill="#BBCCE7"/>
        <path d="M1053.89 113.557L1053.48 114.418C1053.32 114.386 1053.17 114.343 1053.02 114.287L1053.44 113.415C1053.57 113.492 1053.72 113.561 1053.86 113.62" fill="#BBCCE7"/>
        <path d="M1053.49 113.438L1053.06 114.311L1052.84 114.202L1053.26 113.33C1053.33 113.38 1053.41 113.419 1053.5 113.444" fill="#BBCCE7"/>
        <path d="M1053.2 113.3L1052.78 114.173L1052.59 114.082L1053.01 113.222C1053.07 113.258 1053.13 113.288 1053.2 113.312" fill="#BBCCE7"/>
        <path d="M1053.03 113.186L1052.61 114.046C1052.54 113.994 1052.47 113.927 1052.43 113.85L1052.84 112.99C1052.9 113.063 1052.96 113.129 1053.03 113.186Z" fill="#BBCCE7"/>
        <path d="M1052.84 112.99L1052.43 113.85C1052.38 113.789 1052.34 113.718 1052.31 113.641L1052.73 112.781C1052.75 112.853 1052.79 112.921 1052.83 112.984" fill="#BBCCE7"/>
        <path d="M1052.74 112.787L1052.32 113.647L1052.28 113.425L1052.69 112.565L1052.74 112.787Z" fill="#BBCCE7"/>
        <path d="M1066.04 116.718L1065.62 117.591C1065.37 118.158 1065.01 118.669 1064.55 119.091C1064.06 119.455 1063.49 119.706 1062.89 119.824C1062.29 119.942 1061.66 119.925 1061.07 119.774C1060.9 119.752 1060.73 119.717 1060.57 119.669L1060.98 118.809L1061.49 118.914C1062.08 119.064 1062.7 119.081 1063.31 118.963C1063.91 118.845 1064.48 118.595 1064.97 118.231C1065.43 117.804 1065.79 117.287 1066.03 116.712" fill="#95AACB"/>
        <path d="M1061 118.813L1060.58 119.673C1060.15 119.581 1059.73 119.45 1059.32 119.28L1059.74 118.42C1060.15 118.582 1060.57 118.714 1061 118.813Z" fill="#AFC0DB"/>
        <path d="M1059.74 118.42L1059.32 119.28C1058.98 119.146 1058.65 118.987 1058.34 118.803L1058.76 117.943C1059.07 118.127 1059.4 118.286 1059.74 118.42Z" fill="#AFC0DB"/>
        <path d="M1058.76 117.943L1058.34 118.803C1057.99 118.6 1057.66 118.368 1057.35 118.11L1057.77 117.25C1058.08 117.504 1058.41 117.735 1058.76 117.943Z" fill="#BBCCE7"/>
        <path d="M1057.79 117.261L1057.38 118.122C1057.31 118.095 1057.24 118.063 1057.18 118.025C1056.74 117.649 1056.35 117.219 1056.03 116.745L1056.44 115.885C1056.78 116.353 1057.16 116.782 1057.59 117.165C1057.67 117.201 1057.73 117.231 1057.8 117.267" fill="#BBCCE7"/>
        <path d="M1056.43 115.818L1056 116.704C1055.61 116.158 1055.3 115.553 1055.1 114.912L1055.51 114.052C1055.73 114.689 1056.03 115.292 1056.42 115.843" fill="#BBCCE7"/>
        <path d="M1055.53 114.025L1055.11 114.886L1055.04 114.682L1055.46 113.822L1055.51 114.019" fill="#BBCCE7"/>
        <path d="M1052.7 112.563C1052.67 112.179 1052.79 111.979 1053.02 111.902C1053.34 111.832 1053.67 111.836 1053.99 111.915L1055.22 112.109C1055.22 111.355 1055.38 110.609 1055.71 109.929C1055.88 109.55 1056.17 109.241 1056.54 109.056C1056.91 108.87 1057.34 108.819 1057.74 108.912C1058.22 108.923 1058.69 109.113 1059.04 109.445C1059.39 109.777 1059.6 110.227 1059.64 110.709C1059.65 111.163 1059.56 111.614 1059.4 112.037C1059.23 112.438 1059.15 112.87 1059.15 113.304C1059.18 113.734 1059.33 114.147 1059.6 114.488C1059.9 114.86 1060.33 115.107 1060.8 115.179C1061.07 115.245 1061.35 115.231 1061.61 115.138C1061.98 114.9 1062.25 114.536 1062.38 114.112C1062.51 113.683 1062.67 113.253 1062.85 112.799C1063.16 111.674 1063.9 110.716 1064.91 110.129C1065.92 109.543 1067.11 109.373 1068.25 109.657C1069.82 109.905 1071.29 110.615 1072.46 111.697C1073.57 112.643 1074.34 113.925 1074.66 115.348L1076.39 115.63C1077.36 115.791 1077.85 116.138 1077.9 116.701C1077.95 117.264 1077.46 117.456 1076.49 117.295L1074.86 117.031C1074.87 118.107 1074.55 119.159 1073.94 120.047C1073.74 120.334 1073.46 120.559 1073.14 120.696C1072.82 120.834 1072.46 120.879 1072.12 120.827C1071.58 120.767 1071.08 120.524 1070.7 120.139C1070.36 119.798 1070.15 119.344 1070.13 118.863C1070.17 118.341 1070.28 117.827 1070.48 117.341C1070.73 116.719 1070.85 116.054 1070.83 115.385C1070.79 114.916 1070.58 114.477 1070.24 114.147C1069.86 113.763 1069.36 113.521 1068.82 113.459C1068.08 113.324 1067.54 113.467 1067.23 113.889C1066.86 114.417 1066.57 115.002 1066.39 115.622C1066.12 116.624 1065.59 117.541 1064.87 118.286C1064.37 118.651 1063.8 118.901 1063.2 119.019C1062.6 119.137 1061.98 119.12 1061.38 118.969C1059.94 118.708 1058.59 118.057 1057.49 117.086C1056.49 116.221 1055.76 115.086 1055.38 113.817L1054.06 113.593C1053.22 113.448 1052.74 113.108 1052.7 112.563Z" fill="white"/>
    </g>
    <defs>
        <linearGradient id="paint0_linear" x1="-382" y1="-216" x2="-213.832" y2="687.283" gradientUnits="userSpaceOnUse">
            <stop offset="0.118956" stop-color="#5AA9DC"/>
            <stop offset="0.472446" stop-color="#4887E6"/>
            <stop offset="1" stop-color="#2952EE"/>
        </linearGradient>
        <linearGradient id="paint1_linear" x1="-382" y1="-216" x2="-213.832" y2="687.283" gradientUnits="userSpaceOnUse">
            <stop offset="0.118956" stop-color="#5AA9DC"/>
            <stop offset="0.472446" stop-color="#4887E6"/>
            <stop offset="1" stop-color="#2952EE"/>
        </linearGradient>
        <clipPath id="clip0">
            <rect width="22.2857" height="26" fill="white" transform="translate(930 255.562) rotate(-44.2893)"/>
        </clipPath>
        <clipPath id="clip1">
            <rect width="22.2857" height="26" fill="white" transform="translate(1237.28 320) rotate(2.82573)"/>
        </clipPath>
        <clipPath id="clip2">
            <rect width="20.5714" height="24" fill="white" transform="translate(281 55.5784) rotate(-21.6167)"/>
        </clipPath>
        <clipPath id="clip3">
            <rect width="27.2507" height="31.7925" fill="white" transform="translate(137.123 196.297) rotate(-100.801)"/>
        </clipPath>
        <clipPath id="clip4">
            <rect width="34.241" height="39.56" fill="white" transform="translate(352 249)"/>
        </clipPath>
        <clipPath id="clip5">
            <rect width="34.241" height="39.56" fill="white" transform="translate(1039 121.997) rotate(-61.1683)"/>
        </clipPath>
    </defs>
</svg>
