<svg width="94" height="209" viewBox="0 0 94 209" fill="none" xmlns="http://www.w3.org/2000/svg">
<path opacity="0.1" d="M16 140.308C7.5 140.308 11.5 151.5 0 151.5V160.103C0 161.579 0.812301 162.934 2.11339 163.63L80.1134 205.351C82.778 206.777 86 204.846 86 201.824V103C73.5 103 73 121.239 67 121.239C61 121.239 61.0104 114.192 49 114.192C36.9896 114.192 35.5 146.111 28.5 146.111C21.5 146.111 22 140.308 16 140.308Z" fill="#8CE1AE"/>
<g opacity="0.35">
<path d="M9 164.705V50" stroke="#EBF2F7" stroke-linecap="round"/>
<path d="M22.5 172.432V57.7273" stroke="#EBF2F7" stroke-linecap="round"/>
<path d="M36.5 180.159V65.4545" stroke="#EBF2F7" stroke-linecap="round"/>
<path d="M50.5 187.886V73.1818" stroke="#EBF2F7" stroke-linecap="round"/>
<path d="M64.5 195.614V80.9091" stroke="#EBF2F7" stroke-linecap="round"/>
<path d="M78.5 204V89.2954" stroke="#EBF2F7" stroke-linecap="round"/>
</g>
<path d="M65.9874 34.0548L8.98738 1.69593C7.6541 0.939032 6 1.90206 6 3.43521V7.20596C6 7.92569 6.38671 8.58991 7.01262 8.94523L64.0126 41.3041C65.3459 42.061 67 41.0979 67 39.5648V35.794C67 35.0743 66.6133 34.4101 65.9874 34.0548Z" fill="#F3F7FA"/>
<path d="M6 19.4329V21.2052C6 21.9253 6.38716 22.5899 7.01364 22.945L40.0136 41.6535C41.3469 42.4094 43 41.4463 43 39.9136V38.1414C43 37.4212 42.6128 36.7567 41.9864 36.4015L8.98636 17.693C7.65309 16.9372 6 17.9003 6 19.4329Z" fill="#F3F7FA"/>
<g opacity="0.8" filter="url(#filter0_f)">
<path d="M4 155.5C15.5 155.5 11.5 144.308 20 144.308C26 144.308 25.5 150.111 32.5 150.111C39.5 150.111 40.9896 118.192 53 118.192C65.0104 118.192 65 125.239 71 125.239C77 125.239 77.5 107 90 107" stroke="#D2DAE4" stroke-width="2" stroke-linecap="round"/>
</g>
<path d="M1 152.5C12.5 152.5 8.5 141.308 17 141.308C23 141.308 22.5 147.111 29.5 147.111C36.5 147.111 37.9896 115.192 50 115.192C62.0104 115.192 62 122.239 68 122.239C74 122.239 74.5 104 87 104" stroke="#40CD78" stroke-width="2" stroke-linecap="round"/>
<path opacity="0.6" d="M11.0725 70.1322C11.3862 70.3002 11.6302 70.5741 11.761 70.905C11.8578 71.2139 11.9006 71.5372 11.8874 71.8606V72.9706C12.7169 73.5016 13.4769 74.1341 14.1497 74.8535C14.9081 75.5353 15.3801 76.4792 15.4705 77.495C15.4705 78.577 14.9646 78.8299 13.9811 78.2679C13.5103 77.9566 13.0683 77.6039 12.6603 77.214C12.2642 76.8262 11.8313 76.4779 11.3676 76.1742C11.0411 75.9542 10.6501 75.8503 10.2575 75.8792C9.92027 75.8792 9.75166 76.2164 9.75166 76.6942C9.74221 76.9799 9.79998 77.2638 9.92028 77.5232C10.2213 78.0499 10.6057 78.5244 11.0584 78.9283L12.3933 80.1788C15.063 82.7642 16.3932 85.2279 16.3838 87.5697C16.4567 88.1414 16.3768 88.7221 16.1522 89.2528C15.9276 89.7835 15.5663 90.2451 15.1052 90.5907C14.5946 90.8488 14.0275 90.975 13.4557 90.9578C12.8839 90.9406 12.3254 90.7806 11.8312 90.4924V92.0521C11.8312 92.9232 11.5643 93.2042 11.0163 92.8811C10.733 92.6873 10.5075 92.4203 10.364 92.1085C10.2205 91.7967 10.1643 91.4518 10.2013 91.1106V89.6353C9.02519 88.8619 7.9734 87.9143 7.08194 86.825C6.48982 86.183 6.11175 85.3728 6 84.5066C6 83.9586 6.15457 83.6354 6.46369 83.5089C6.66897 83.4585 6.88298 83.4551 7.08977 83.4989C7.29656 83.5427 7.49081 83.6326 7.65805 83.7619C8.20757 84.1552 8.72444 84.5922 9.20366 85.0686C9.80479 85.6655 10.4746 86.1891 11.1989 86.6283C11.3609 86.7461 11.5478 86.8251 11.7451 86.8592C11.9424 86.8934 12.145 86.8816 12.3371 86.825C12.6603 86.6986 12.8289 86.3894 12.8289 85.8836C12.8264 85.2082 12.5934 84.5538 12.1685 84.0289C11.5943 83.3461 10.9747 82.7029 10.3137 82.1038C9.2336 81.146 8.26284 80.0716 7.41918 78.9002C6.63874 77.7403 6.21386 76.3778 6.19672 74.9799C6.12802 74.4504 6.19961 73.9121 6.40428 73.4189C6.60895 72.9257 6.93953 72.495 7.36296 72.1697C7.80493 71.9293 8.2973 71.7965 8.80018 71.7818C9.30305 71.7672 9.80229 71.8712 10.2575 72.0854V70.891C10.2575 70.048 10.5385 69.8231 11.0725 70.1322Z" fill="#40CD78"/>
<defs>
<filter id="filter0_f" x="0" y="103" width="94" height="56.5" filterUnits="userSpaceOnUse" color-interpolation-filters="sRGB">
<feFlood flood-opacity="0" result="BackgroundImageFix"/>
<feBlend mode="normal" in="SourceGraphic" in2="BackgroundImageFix" result="shape"/>
<feGaussianBlur stdDeviation="1.5" result="effect1_foregroundBlur"/>
</filter>
</defs>
</svg>
