<svg width="257" height="135" viewBox="0 0 257 135" fill="none" xmlns="http://www.w3.org/2000/svg">
<path d="M216.168 115.808C173.43 143.909 151.811 119.173 133.591 119.756C121.789 117.793 85.8941 136.469 61.4771 134.907C37.06 133.345 16.2514 108.357 38.3939 70.2439C60.5364 32.1305 99.4974 0.241573 185.568 0.000514337C273.343 -0.245326 258.905 87.7067 216.168 115.808Z" fill="url(#paint0_linear)"/>
<rect x="13.1465" y="92.8716" width="33.8035" height="0.938986" rx="0.469493" fill="#2FC37C"/>
<rect y="92.8716" width="5.63392" height="0.938986" rx="0.469493" fill="#2FC37C"/>
<rect x="32.8574" y="72.2117" width="33.8035" height="0.938986" rx="0.469493" fill="#2FC37C"/>
<g filter="url(#filter0_d)">
<path fill-rule="evenodd" clip-rule="evenodd" d="M193.731 17.3139C194.899 17.3139 195.845 16.3674 195.845 15.1998C195.845 14.0322 194.899 13.0857 193.731 13.0857C192.564 13.0857 191.617 14.0322 191.617 15.1998C191.617 16.3674 192.564 17.3139 193.731 17.3139ZM193.731 18.3139C195.451 18.3139 196.845 16.9197 196.845 15.1998C196.845 13.4799 195.451 12.0857 193.731 12.0857C192.011 12.0857 190.617 13.4799 190.617 15.1998C190.617 16.9197 192.011 18.3139 193.731 18.3139Z" fill="#2FC37C"/>
</g>
<g filter="url(#filter1_d)">
<path fill-rule="evenodd" clip-rule="evenodd" d="M203.436 28.7932C203.436 28.5171 203.659 28.2932 203.936 28.2932H210.164C210.44 28.2932 210.664 28.5171 210.664 28.7932C210.664 29.0694 210.44 29.2932 210.164 29.2932H203.936C203.659 29.2932 203.436 29.0694 203.436 28.7932Z" fill="#2FC37C"/>
<path fill-rule="evenodd" clip-rule="evenodd" d="M207.053 25.179C207.329 25.179 207.553 25.4028 207.553 25.679L207.553 31.9072C207.553 32.1834 207.329 32.4072 207.053 32.4072C206.777 32.4072 206.553 32.1834 206.553 31.9072L206.553 25.679C206.553 25.4028 206.777 25.179 207.053 25.179Z" fill="#2FC37C"/>
</g>
<rect x="52.5781" y="82.5098" width="3.75594" height="0.938986" rx="0.469493" fill="#2FC37C"/>
<rect x="25.3496" y="72.2144" width="3.75594" height="0.938986" rx="0.469493" fill="#2FC37C"/>
<rect x="30.043" y="82.5098" width="18.7797" height="0.938986" rx="0.469493" fill="#2FC37C"/>
<g filter="url(#filter2_d)">
<path fill-rule="evenodd" clip-rule="evenodd" d="M181.696 105.924C183.478 105.924 184.922 104.479 184.922 102.698C184.922 100.917 183.478 99.4727 181.696 99.4727C179.915 99.4727 178.471 100.917 178.471 102.698C178.471 104.479 179.915 105.924 181.696 105.924ZM181.696 106.924C184.03 106.924 185.922 105.032 185.922 102.698C185.922 100.364 184.03 98.4727 181.696 98.4727C179.362 98.4727 177.471 100.364 177.471 102.698C177.471 105.032 179.362 106.924 181.696 106.924Z" fill="#2FC37C"/>
</g>
<g filter="url(#filter3_d)">
<path fill-rule="evenodd" clip-rule="evenodd" d="M56.6395 121.542C57.8071 121.542 58.7536 120.596 58.7536 119.428C58.7536 118.26 57.8071 117.314 56.6395 117.314C55.4719 117.314 54.5254 118.26 54.5254 119.428C54.5254 120.596 55.4719 121.542 56.6395 121.542ZM56.6395 122.542C58.3594 122.542 59.7536 121.148 59.7536 119.428C59.7536 117.708 58.3594 116.314 56.6395 116.314C54.9196 116.314 53.5254 117.708 53.5254 119.428C53.5254 121.148 54.9196 122.542 56.6395 122.542Z" fill="#2FC37C"/>
</g>
<g filter="url(#filter4_d)">
<path fill-rule="evenodd" clip-rule="evenodd" d="M69.9297 110.038C69.9297 109.762 70.1535 109.538 70.4297 109.538H76.6579C76.9341 109.538 77.1579 109.762 77.1579 110.038C77.1579 110.314 76.9341 110.538 76.6579 110.538H70.4297C70.1535 110.538 69.9297 110.314 69.9297 110.038Z" fill="#2FC37C"/>
<path fill-rule="evenodd" clip-rule="evenodd" d="M73.5469 106.424C73.823 106.424 74.0469 106.648 74.0469 106.924L74.0469 113.152C74.0469 113.428 73.823 113.652 73.5469 113.652C73.2707 113.652 73.0469 113.428 73.0469 113.152L73.0469 106.924C73.0469 106.648 73.2707 106.424 73.5469 106.424Z" fill="#2FC37C"/>
</g>
<rect x="89.8379" y="37.4639" width="3.75594" height="0.938986" rx="0.469493" fill="#2FC37C"/>
<rect x="74.8047" y="37.4648" width="9.38986" height="0.938986" rx="0.469493" fill="#2FC37C"/>
<path d="M95.3085 89.5775L95.3102 104.023C95.3103 105.29 96.4746 106.238 97.7158 105.981L256.343 73.1267L95.3085 89.5775Z" fill="#CBD2E7"/>
<path d="M95.3106 86.7613L95.3066 52.4883L255.406 73.1275L95.3106 86.7613Z" fill="#CBD2E7"/>
<path d="M256.041 73.3154L117.054 32.6989C115.62 32.2796 114.071 32.6953 113.039 33.7767L95.0024 52.6763L256.041 73.3154Z" fill="#F1F3F9"/>
<rect x="113.621" y="24.293" width="83.5698" height="52.5832" rx="4" fill="#1C9F70"/>
<path d="M117.618 76.7334L193.188 76.7334C195.397 76.7334 197.188 74.9425 197.188 72.7334L197.188 71.2462L157.541 46.1611C156.235 45.3347 154.57 45.3347 153.264 46.1611L113.618 71.2462L113.618 72.7334C113.618 74.9425 115.409 76.7334 117.618 76.7334Z" fill="#0A9362"/>
<g filter="url(#filter5_d)">
<path d="M193.189 24.4333L117.619 24.4333C115.41 24.4333 113.619 26.2242 113.619 28.4334V29.9206L153.265 55.0056C154.571 55.832 156.237 55.832 157.543 55.0056L197.189 29.9206V28.4334C197.189 26.2242 195.398 24.4333 193.189 24.4333Z" fill="#2FC37C"/>
</g>
<path d="M87.8035 59.0193L57.8415 89.8207C56.5388 91.1598 57.6204 93.3952 59.4789 93.2048L255.884 73.0847L87.8035 59.0193Z" fill="white"/>
<defs>
<filter id="filter0_d" x="188.617" y="10.0857" width="10.2283" height="10.2283" filterUnits="userSpaceOnUse" color-interpolation-filters="sRGB">
<feFlood flood-opacity="0" result="BackgroundImageFix"/>
<feColorMatrix in="SourceAlpha" type="matrix" values="0 0 0 0 0 0 0 0 0 0 0 0 0 0 0 0 0 0 127 0"/>
<feOffset/>
<feGaussianBlur stdDeviation="1"/>
<feColorMatrix type="matrix" values="0 0 0 0 0.0322917 0 0 0 0 0.258333 0 0 0 0 0.122708 0 0 0 0.25 0"/>
<feBlend mode="normal" in2="BackgroundImageFix" result="effect1_dropShadow"/>
<feBlend mode="normal" in="SourceGraphic" in2="effect1_dropShadow" result="shape"/>
</filter>
<filter id="filter1_d" x="201.436" y="23.179" width="11.2283" height="11.2283" filterUnits="userSpaceOnUse" color-interpolation-filters="sRGB">
<feFlood flood-opacity="0" result="BackgroundImageFix"/>
<feColorMatrix in="SourceAlpha" type="matrix" values="0 0 0 0 0 0 0 0 0 0 0 0 0 0 0 0 0 0 127 0"/>
<feOffset/>
<feGaussianBlur stdDeviation="1"/>
<feColorMatrix type="matrix" values="0 0 0 0 0.0322917 0 0 0 0 0.258333 0 0 0 0 0.122708 0 0 0 0.25 0"/>
<feBlend mode="normal" in2="BackgroundImageFix" result="effect1_dropShadow"/>
<feBlend mode="normal" in="SourceGraphic" in2="effect1_dropShadow" result="shape"/>
</filter>
<filter id="filter2_d" x="175.471" y="96.4727" width="12.4509" height="12.4509" filterUnits="userSpaceOnUse" color-interpolation-filters="sRGB">
<feFlood flood-opacity="0" result="BackgroundImageFix"/>
<feColorMatrix in="SourceAlpha" type="matrix" values="0 0 0 0 0 0 0 0 0 0 0 0 0 0 0 0 0 0 127 0"/>
<feOffset/>
<feGaussianBlur stdDeviation="1"/>
<feColorMatrix type="matrix" values="0 0 0 0 0.0322917 0 0 0 0 0.258333 0 0 0 0 0.122708 0 0 0 0.25 0"/>
<feBlend mode="normal" in2="BackgroundImageFix" result="effect1_dropShadow"/>
<feBlend mode="normal" in="SourceGraphic" in2="effect1_dropShadow" result="shape"/>
</filter>
<filter id="filter3_d" x="51.5254" y="114.314" width="10.2283" height="10.2283" filterUnits="userSpaceOnUse" color-interpolation-filters="sRGB">
<feFlood flood-opacity="0" result="BackgroundImageFix"/>
<feColorMatrix in="SourceAlpha" type="matrix" values="0 0 0 0 0 0 0 0 0 0 0 0 0 0 0 0 0 0 127 0"/>
<feOffset/>
<feGaussianBlur stdDeviation="1"/>
<feColorMatrix type="matrix" values="0 0 0 0 0.0322917 0 0 0 0 0.258333 0 0 0 0 0.122708 0 0 0 0.25 0"/>
<feBlend mode="normal" in2="BackgroundImageFix" result="effect1_dropShadow"/>
<feBlend mode="normal" in="SourceGraphic" in2="effect1_dropShadow" result="shape"/>
</filter>
<filter id="filter4_d" x="67.9297" y="104.424" width="11.2283" height="11.2283" filterUnits="userSpaceOnUse" color-interpolation-filters="sRGB">
<feFlood flood-opacity="0" result="BackgroundImageFix"/>
<feColorMatrix in="SourceAlpha" type="matrix" values="0 0 0 0 0 0 0 0 0 0 0 0 0 0 0 0 0 0 127 0"/>
<feOffset/>
<feGaussianBlur stdDeviation="1"/>
<feColorMatrix type="matrix" values="0 0 0 0 0.0322917 0 0 0 0 0.258333 0 0 0 0 0.122708 0 0 0 0.25 0"/>
<feBlend mode="normal" in2="BackgroundImageFix" result="effect1_dropShadow"/>
<feBlend mode="normal" in="SourceGraphic" in2="effect1_dropShadow" result="shape"/>
</filter>
<filter id="filter5_d" x="109.619" y="22.4333" width="91.5698" height="39.1921" filterUnits="userSpaceOnUse" color-interpolation-filters="sRGB">
<feFlood flood-opacity="0" result="BackgroundImageFix"/>
<feColorMatrix in="SourceAlpha" type="matrix" values="0 0 0 0 0 0 0 0 0 0 0 0 0 0 0 0 0 0 127 0"/>
<feOffset dy="2"/>
<feGaussianBlur stdDeviation="2"/>
<feColorMatrix type="matrix" values="0 0 0 0 0.0322917 0 0 0 0 0.258333 0 0 0 0 0.122708 0 0 0 0.15 0"/>
<feBlend mode="normal" in2="BackgroundImageFix" result="effect1_dropShadow"/>
<feBlend mode="normal" in="SourceGraphic" in2="effect1_dropShadow" result="shape"/>
</filter>
<linearGradient id="paint0_linear" x1="-18.6483" y1="87.1277" x2="138.789" y2="218.115" gradientUnits="userSpaceOnUse">
<stop stop-color="#5AA9DC"/>
<stop offset="0.534561" stop-color="#7148E6"/>
<stop offset="1" stop-color="#2952EE"/>
</linearGradient>
</defs>
</svg>
