<svg width="776" height="138" viewBox="0 0 776 138" fill="none" xmlns="http://www.w3.org/2000/svg">
<g opacity="0.2">
<path d="M44.3738 108.643C26.0208 108.643 11.4828 103.178 0.759766 92.2492L12.6686 75.5459C21.5357 84.8255 32.465 89.4653 45.4564 89.4653C51.1273 89.4653 55.5093 88.3827 58.6025 86.2174C61.7988 83.9491 63.3969 81.2168 63.3969 78.0205C63.3969 75.2366 61.9019 72.9167 58.9118 71.0608C56.0248 69.2049 52.3645 67.8645 47.931 67.0397C43.6005 66.2148 38.8576 65.0291 33.7023 63.4825C28.5469 61.9359 23.7525 60.1831 19.3189 58.2241C14.9885 56.265 11.3282 53.1718 8.33809 48.9445C5.45111 44.7171 4.00762 39.5618 4.00762 33.4785C4.00762 24.6114 7.56479 17.1877 14.6791 11.2075C21.7935 5.12425 31.2793 2.08261 43.1365 2.08261C59.5304 2.08261 72.9342 6.87706 83.348 16.466L71.1299 32.5506C62.9845 25.0238 52.9832 21.2604 41.1259 21.2604C36.4861 21.2604 32.8774 22.1884 30.2998 24.0443C27.7221 25.9002 26.4333 28.4263 26.4333 31.6226C26.4333 34.0972 27.8768 36.2108 30.7637 37.9636C33.7538 39.6133 37.4141 40.8506 41.7446 41.6755C46.1781 42.5003 50.921 43.7376 55.9733 45.3873C61.1286 46.9339 65.8715 48.7383 70.2019 50.8004C74.6355 52.7594 78.2958 55.9042 81.1828 60.2346C84.1729 64.462 85.6679 69.5658 85.6679 75.5459C85.6679 85.4442 82.1107 93.4349 74.9964 99.5182C67.9852 105.601 57.7776 108.643 44.3738 108.643Z" fill="#B6A0E6"/>
<path d="M109.734 24.0443C106.538 24.0443 103.754 22.9101 101.383 20.6418C99.1144 18.2703 97.9802 15.4864 97.9802 12.2902C97.9802 9.09385 99.1144 6.36153 101.383 4.09319C103.754 1.82485 106.538 0.690674 109.734 0.690674C113.034 0.690674 115.818 1.82485 118.086 4.09319C120.354 6.36153 121.489 9.09385 121.489 12.2902C121.489 15.4864 120.354 18.2703 118.086 20.6418C115.818 22.9101 113.034 24.0443 109.734 24.0443ZM119.633 106.787H99.9908V32.0866H119.633V106.787Z" fill="#B6A0E6"/>
<path d="M209.17 106.787H189.528V61.6266C189.528 52.347 184.94 47.7072 175.763 47.7072C168.649 47.7072 162.978 50.6457 158.751 56.5228V106.787H139.109V32.0866H158.751V41.8301C165.246 34.0972 173.959 30.2307 184.888 30.2307C192.93 30.2307 198.962 32.3443 202.983 36.5717C207.108 40.7991 209.17 46.6246 209.17 54.0482V106.787Z" fill="#B6A0E6"/>
<path d="M259.295 137.1C246.407 137.1 235.684 133.389 227.126 125.965L235.941 111.736C241.509 117.923 249.294 121.016 259.295 121.016C264.863 121.016 269.657 119.521 273.678 116.531C277.803 113.644 279.865 108.849 279.865 102.147V94.5691C273.678 102.405 265.997 106.323 256.821 106.323C247.129 106.323 239.189 103.024 233.003 96.425C226.92 89.7231 223.878 80.3404 223.878 68.2769C223.878 56.3166 226.92 46.9855 233.003 40.2835C239.189 33.5816 247.129 30.2307 256.821 30.2307C266.1 30.2307 273.782 34.0456 279.865 41.6755V32.0866H299.661V101.683C299.661 108.488 298.424 114.314 295.949 119.16C293.578 124.006 290.33 127.666 286.206 130.141C282.082 132.615 277.803 134.368 273.369 135.399C269.039 136.533 264.347 137.1 259.295 137.1ZM263.007 88.8467C266.203 88.8467 269.399 88.0218 272.596 86.3721C275.792 84.7224 278.215 82.7118 279.865 80.3404V56.2135C278.215 53.7389 275.792 51.7284 272.596 50.1818C269.503 48.5321 266.306 47.7072 263.007 47.7072C257.336 47.7072 252.748 49.5631 249.242 53.2749C245.84 56.9868 244.138 61.9874 244.138 68.2769C244.138 74.5664 245.84 79.5671 249.242 83.2789C252.748 86.9907 257.336 88.8467 263.007 88.8467Z" fill="#B6A0E6"/>
<path d="M338.784 106.787H319.142V3.62921H338.784V106.787Z" fill="#B6A0E6"/>
<path d="M393.368 108.643C381.82 108.643 372.283 105.034 364.756 97.8169C357.229 90.5995 353.466 81.1137 353.466 69.3596C353.466 58.3272 357.075 49.0476 364.292 41.5208C371.613 33.994 380.892 30.2307 392.131 30.2307C403.266 30.2307 412.288 34.0456 419.196 41.6755C426.104 49.2022 429.558 59.1005 429.558 71.3701V75.7006H374.036C374.654 80.6497 376.871 84.774 380.686 88.0734C384.501 91.3728 389.45 93.0225 395.533 93.0225C398.833 93.0225 402.39 92.3523 406.205 91.0119C410.123 89.6715 413.216 87.8671 415.484 85.5988L424.145 98.2809C416.619 105.189 406.359 108.643 393.368 108.643ZM410.535 62.3999C410.226 58.1725 408.525 54.3576 405.431 50.9551C402.441 47.5525 398.008 45.8513 392.131 45.8513C386.563 45.8513 382.233 47.5525 379.139 50.9551C376.046 54.2545 374.242 58.0694 373.726 62.3999H410.535Z" fill="#B6A0E6"/>
<path d="M520.435 108.643C502.082 108.643 487.544 103.178 476.821 92.2492L488.73 75.5459C497.597 84.8255 508.527 89.4653 521.518 89.4653C527.189 89.4653 531.571 88.3827 534.664 86.2174C537.86 83.9491 539.459 81.2168 539.459 78.0205C539.459 75.2366 537.964 72.9167 534.973 71.0608C532.086 69.2049 528.426 67.8645 523.993 67.0397C519.662 66.2148 514.919 65.0291 509.764 63.4825C504.609 61.9359 499.814 60.1831 495.381 58.2241C491.05 56.265 487.39 53.1718 484.4 48.9445C481.513 44.7171 480.069 39.5618 480.069 33.4785C480.069 24.6114 483.626 17.1877 490.741 11.2075C497.855 5.12425 507.341 2.08261 519.198 2.08261C535.592 2.08261 548.996 6.87706 559.41 16.466L547.192 32.5506C539.046 25.0238 529.045 21.2604 517.188 21.2604C512.548 21.2604 508.939 22.1884 506.361 24.0443C503.784 25.9002 502.495 28.4263 502.495 31.6226C502.495 34.0972 503.938 36.2108 506.825 37.9636C509.815 39.6133 513.476 40.8506 517.806 41.6755C522.24 42.5003 526.983 43.7376 532.035 45.3873C537.19 46.9339 541.933 48.7383 546.263 50.8004C550.697 52.7594 554.357 55.9042 557.244 60.2346C560.234 64.462 561.73 69.5658 561.73 75.5459C561.73 85.4442 558.172 93.4349 551.058 99.5182C544.047 105.601 533.839 108.643 520.435 108.643Z" fill="#B6A0E6"/>
<path d="M617.192 106.787H576.516V3.62921H617.192C633.38 3.62921 646.526 8.3721 656.63 17.8579C666.838 27.3437 671.941 39.8196 671.941 55.2855C671.941 70.7515 666.889 83.2274 656.785 92.7132C646.68 102.096 633.483 106.787 617.192 106.787ZM617.192 87.4547C627.09 87.4547 634.926 84.3615 640.7 78.1751C646.577 71.9888 649.516 64.3589 649.516 55.2855C649.516 45.7997 646.68 38.0668 641.01 32.0866C635.339 26.0033 627.399 22.9617 617.192 22.9617H598.478V87.4547H617.192Z" fill="#B6A0E6"/>
<path d="M775.838 106.787H748.772L717.531 65.4931L709.489 75.082V106.787H687.527V3.62921H709.489V49.7178L745.988 3.62921H773.054L732.069 52.0377L775.838 106.787Z" fill="#B6A0E6"/>
</g>
</svg>
