<svg width="903" height="160" viewBox="0 0 903 160" fill="none" xmlns="http://www.w3.org/2000/svg">
    <path opacity="0.1" d="M51.2275 126.16C29.8675 126.16 12.9475 119.8 0.4675 107.08L14.3275 87.64C24.6475 98.44 37.3675 103.84 52.4875 103.84C59.0875 103.84 64.1875 102.58 67.7875 100.06C71.5075 97.42 73.3675 94.24 73.3675 90.52C73.3675 87.28 71.6275 84.58 68.1475 82.42C64.7875 80.26 60.5275 78.7 55.3675 77.74C50.3275 76.78 44.8075 75.4 38.8075 73.6C32.8075 71.8 27.2275 69.76 22.0675 67.48C17.0275 65.2 12.7675 61.6 9.2875 56.68C5.9275 51.76 4.2475 45.76 4.2475 38.68C4.2475 28.36 8.3875 19.72 16.6675 12.76C24.9475 5.67999 35.9875 2.13999 49.7875 2.13999C68.8675 2.13999 84.4675 7.71999 96.5875 18.88L82.3675 37.6C72.8875 28.84 61.2475 24.46 47.4475 24.46C42.0475 24.46 37.8475 25.54 34.8475 27.7C31.8475 29.86 30.3475 32.8 30.3475 36.52C30.3475 39.4 32.0275 41.86 35.3875 43.9C38.8675 45.82 43.1275 47.26 48.1675 48.22C53.3275 49.18 58.8475 50.62 64.7275 52.54C70.7275 54.34 76.2475 56.44 81.2875 58.84C86.4475 61.12 90.7075 64.78 94.0675 69.82C97.5475 74.74 99.2875 80.68 99.2875 87.64C99.2875 99.16 95.1475 108.46 86.8675 115.54C78.7075 122.62 66.8275 126.16 51.2275 126.16ZM127.297 27.7C123.577 27.7 120.337 26.38 117.577 23.74C114.937 20.98 113.617 17.74 113.617 14.02C113.617 10.3 114.937 7.12 117.577 4.47999C120.337 1.83999 123.577 0.519991 127.297 0.519991C131.137 0.519991 134.377 1.83999 137.017 4.47999C139.657 7.12 140.977 10.3 140.977 14.02C140.977 17.74 139.657 20.98 137.017 23.74C134.377 26.38 131.137 27.7 127.297 27.7ZM138.817 124H115.957V37.06H138.817V124ZM243.025 124H220.165V71.44C220.165 60.64 214.825 55.24 204.145 55.24C195.865 55.24 189.265 58.66 184.345 65.5V124H161.485V37.06H184.345V48.4C191.905 39.4 202.045 34.9 214.765 34.9C224.125 34.9 231.145 37.36 235.825 42.28C240.625 47.2 243.025 53.98 243.025 62.62V124ZM301.363 159.28C286.363 159.28 273.883 154.96 263.923 146.32L274.183 129.76C280.663 136.96 289.723 140.56 301.363 140.56C307.843 140.56 313.423 138.82 318.103 135.34C322.903 131.98 325.303 126.4 325.303 118.6V109.78C318.103 118.9 309.163 123.46 298.483 123.46C287.203 123.46 277.963 119.62 270.763 111.94C263.683 104.14 260.143 93.22 260.143 79.18C260.143 65.26 263.683 54.4 270.763 46.6C277.963 38.8 287.203 34.9 298.483 34.9C309.283 34.9 318.223 39.34 325.303 48.22V37.06H348.343V118.06C348.343 125.98 346.903 132.76 344.023 138.4C341.263 144.04 337.483 148.3 332.683 151.18C327.883 154.06 322.903 156.1 317.743 157.3C312.703 158.62 307.243 159.28 301.363 159.28ZM305.683 103.12C309.403 103.12 313.123 102.16 316.843 100.24C320.563 98.32 323.383 95.98 325.303 93.22V65.14C323.383 62.26 320.563 59.92 316.843 58.12C313.243 56.2 309.523 55.24 305.683 55.24C299.083 55.24 293.743 57.4 289.663 61.72C285.703 66.04 283.723 71.86 283.723 79.18C283.723 86.5 285.703 92.32 289.663 96.64C293.743 100.96 299.083 103.12 305.683 103.12ZM393.876 124H371.016V3.93999H393.876V124ZM457.403 126.16C443.963 126.16 432.863 121.96 424.103 113.56C415.343 105.16 410.963 94.12 410.963 80.44C410.963 67.6 415.163 56.8 423.563 48.04C432.083 39.28 442.883 34.9 455.963 34.9C468.923 34.9 479.423 39.34 487.463 48.22C495.503 56.98 499.523 68.5 499.523 82.78V87.82H434.903C435.623 93.58 438.203 98.38 442.643 102.22C447.083 106.06 452.843 107.98 459.923 107.98C463.763 107.98 467.903 107.2 472.343 105.64C476.903 104.08 480.503 101.98 483.143 99.34L493.223 114.1C484.463 122.14 472.523 126.16 457.403 126.16ZM477.383 72.34C477.023 67.42 475.043 62.98 471.443 59.02C467.963 55.06 462.803 53.08 455.963 53.08C449.483 53.08 444.443 55.06 440.843 59.02C437.243 62.86 435.143 67.3 434.543 72.34H477.383ZM605.29 126.16C583.93 126.16 567.01 119.8 554.53 107.08L568.39 87.64C578.71 98.44 591.43 103.84 606.55 103.84C613.15 103.84 618.25 102.58 621.85 100.06C625.57 97.42 627.43 94.24 627.43 90.52C627.43 87.28 625.69 84.58 622.21 82.42C618.85 80.26 614.59 78.7 609.43 77.74C604.39 76.78 598.87 75.4 592.87 73.6C586.87 71.8 581.29 69.76 576.13 67.48C571.09 65.2 566.83 61.6 563.35 56.68C559.99 51.76 558.31 45.76 558.31 38.68C558.31 28.36 562.45 19.72 570.73 12.76C579.01 5.67999 590.05 2.13999 603.85 2.13999C622.93 2.13999 638.53 7.71999 650.65 18.88L636.43 37.6C626.95 28.84 615.31 24.46 601.51 24.46C596.11 24.46 591.91 25.54 588.91 27.7C585.91 29.86 584.41 32.8 584.41 36.52C584.41 39.4 586.09 41.86 589.45 43.9C592.93 45.82 597.19 47.26 602.23 48.22C607.39 49.18 612.91 50.62 618.79 52.54C624.79 54.34 630.31 56.44 635.35 58.84C640.51 61.12 644.77 64.78 648.13 69.82C651.61 74.74 653.35 80.68 653.35 87.64C653.35 99.16 649.21 108.46 640.93 115.54C632.77 122.62 620.89 126.16 605.29 126.16ZM717.9 124H670.56V3.93999H717.9C736.74 3.93999 752.04 9.45999 763.8 20.5C775.68 31.54 781.62 46.06 781.62 64.06C781.62 82.06 775.74 96.58 763.98 107.62C752.22 118.54 736.86 124 717.9 124ZM717.9 101.5C729.42 101.5 738.54 97.9 745.26 90.7C752.1 83.5 755.52 74.62 755.52 64.06C755.52 53.02 752.22 44.02 745.62 37.06C739.02 29.98 729.78 26.44 717.9 26.44H696.12V101.5H717.9ZM902.539 124H871.039L834.679 75.94L825.319 87.1V124H799.759V3.93999H825.319V57.58L867.799 3.93999H899.299L851.599 60.28L902.539 124Z" fill="#276BFF"/>
</svg>
