<svg width="462" height="119" viewBox="0 0 462 119" fill="none" xmlns="http://www.w3.org/2000/svg">
<path d="M175.291 116.944H130.975C128.109 111.354 130.975 107.695 130.975 107.695L176.447 100.374L187.622 61.4526C190.705 54.1309 195.212 49.8514 207.543 55.0923L209.202 70.7011C205.734 75.9677 197.796 98.2156 192.247 106.539C186.698 114.863 178.245 117.201 175.291 116.944Z" fill="url(#paint0_linear)"/>
<path d="M166.695 65.4969V51.6241L185.192 37.7512C188.661 40.1918 196.907 46.7686 202.148 53.5508C193.516 61.8745 174.916 64.9831 166.695 65.4969Z" fill="#2C2E32"/>
<path d="M332.998 11.219L314.616 26.9574C312.518 28.7534 312.274 31.9098 314.07 34.0074L318.838 39.5764L323.858 35.2779C326.484 33.0296 328.5 30.1461 329.748 26.9225C330.983 23.7365 332.508 19.809 333.529 17.0593C335.258 12.3976 333.499 11.8044 332.998 11.219Z" fill="url(#paint1_linear)"/>
<path d="M255.712 116.922H408.313C408.313 116.922 414.864 110.756 408.313 102.664C389.174 100.095 337.716 89.2536 303.496 84.9376C260.721 79.5426 260.721 84.9376 255.712 84.9376C231.666 84.9376 197.009 41.5207 182.879 23.2805C181.98 25.7211 179.18 34.3017 173.631 49.0994C178.255 51.4115 180.686 73.8334 186.304 82.6254C205.397 112.505 237.847 116.922 255.712 116.922Z" fill="url(#paint2_linear)"/>
<path d="M182.879 24.2634C181.98 26.704 179.18 35.2846 173.631 50.0823C178.255 52.3945 180.686 74.8163 186.304 83.6083L193.63 37.7509C189.386 32.6096 185.718 27.9283 182.879 24.2634Z" fill="url(#paint3_linear)"/>
<path d="M182.88 36.21C182.572 38.368 177.228 46.9999 174.402 50.4682C174.531 50.7251 174.942 51.4701 175.558 52.3949C181.724 48.5414 184.036 39.6782 184.807 36.9807C184.807 35.0539 184.113 38.6762 182.88 36.21Z" fill="#EFC5CC"/>
<path d="M148.971 41.6047C149.742 39.2925 146.273 13.859 149.742 13.0883C177.872 8.0786 198.296 11.9323 180.185 43.9168C167.853 62.4139 156.293 49.3118 152.054 40.4486C151.797 40.7055 150.82 41.2964 148.971 41.6047Z" fill="#FFD1D9"/>
<path d="M441.84 116.922H408.699V104.591H417.47C420.572 104.591 423.635 105.301 426.438 106.629C429.998 108.316 434.783 110.572 437.986 112.141C442.919 114.557 441.84 116.152 441.84 116.922Z" fill="url(#paint4_linear)"/>
<path d="M327.39 31.5854L327.004 32.7415L318.141 38.5219L316.6 36.9804C318.758 34.5142 321.224 31.9708 327.39 31.5854Z" fill="#DCB9BF"/>
<path d="M410.627 104.591H409.085L404.461 116.922H411.397C414.48 111.681 412.682 106.518 410.627 104.591Z" fill="#DCB9BF"/>
<path d="M316.596 41.6048L333.551 90.545L363.609 97.4814L327.386 32.3562C327.386 32.3562 316.596 33.1269 316.596 41.6048Z" fill="url(#paint5_linear)"/>
<path d="M148.199 23.1075V20.7954L176.716 24.649C175.046 25.0343 171.937 25.1114 169.779 25.4197C160.145 26.796 149.355 28.1172 148.199 23.1075Z" fill="#EFC4CC"/>
<path d="M255.713 117.008H408.314C408.314 117.008 414.865 110.842 408.314 102.749C389.175 100.18 337.717 89.339 303.497 85.023C260.723 79.628 260.723 85.023 255.713 85.023V117.008Z" fill="#3729A9"/>
<path d="M156.677 24.649C144.346 24.9573 144.602 14.7582 146.272 9.62011C148.456 5.50964 159.688 -2.4902 176.33 0.756977C192.13 3.83982 208.315 25.2913 214.866 39.2926C212.939 53.5508 191.359 56.6336 191.359 56.6336C190.974 55.8629 190.365 54.7068 189.817 53.5508C187.043 47.6933 182.753 37.7511 180.954 33.5122C182.496 32.8699 185.347 30.5835 184.422 26.5758C183.498 22.5681 179.156 23.6214 177.101 24.649C175.431 24.5206 169.008 24.3407 156.677 24.649Z" fill="#2C2E32"/>
<path d="M137.928 98.02L144.21 105.154C144.713 105.726 145.103 106.388 145.358 107.105L148.038 114.625L148.741 109.645C149.512 104.177 145.705 99.1177 140.236 98.3458L137.928 98.02Z" fill="#FFD1D9"/>
<path d="M87.807 76.5007L118.141 112.125L121.609 115.208L138.179 112.125L144.345 105.189L116.039 73.8632C115.66 73.4436 115.12 73.2041 114.555 73.2041H89.3298C87.6241 73.2041 86.7012 75.2021 87.807 76.5007Z" fill="#2C2E32"/>
<path d="M92.7051 75.9016L124.288 111.354L142.416 105.574L116.05 75.9016H92.7051Z" fill="#4395E1"/>
<path d="M99 79L102.5 83H120.5L116.845 79H99Z" fill="white"/>
<path d="M99 79L102.5 83H110.5L106.845 79H99Z" fill="#392CAC"/>
<path d="M105.199 86L108.699 90H126.699L123.045 86H105.199Z" fill="white"/>
<path d="M105.199 86L108.699 90H116.699L113.045 86H105.199Z" fill="#392CAC"/>
<path d="M111.4 93L114.9 97H132.9L129.246 93H111.4Z" fill="white"/>
<path d="M117.6 100L121.1 104H139.1L135.445 100H117.6Z" fill="white"/>
<path d="M111.4 93L114.9 97H122.9L119.246 93H111.4Z" fill="#392CAC"/>
<path d="M117.6 100L121.1 104H129.1L125.445 100H117.6Z" fill="#392CAC"/>
<path d="M117.627 101.553L126.619 110.198V116.749H116.59C113.828 116.749 111.59 114.511 111.59 111.749V104.418L117.363 111.153C117.99 111.885 119.109 111.928 119.791 111.246C120.387 110.65 120.44 109.7 119.894 109.056C119.34 108.403 118.683 107.658 118.141 107.116C116.381 105.355 116.086 103.36 116.248 101.941C116.327 101.252 117.127 101.072 117.627 101.553Z" fill="#FFD1D9"/>
<path d="M170.666 116.944H126.35C123.484 111.354 126.35 107.696 126.35 107.696L171.822 100.374L182.997 61.4528C186.08 54.1311 192.246 48.8902 204.577 54.131V70.7014C201.109 75.9679 193.171 98.2158 187.622 106.54C182.073 114.863 173.62 117.201 170.666 116.944Z" fill="url(#paint6_linear)"/>
<path d="M281.147 98.7935V100.354C281.147 105.877 276.67 110.354 271.147 110.354H268.045" stroke="#1B0D8A" stroke-width="2"/>
<path d="M261.879 89.5449L261.879 116.52" stroke="#1B0D8A" stroke-width="2"/>
<path d="M160.531 46.6023C161.915 46.9098 164.959 46.4179 166.066 41.9902" stroke="#E1A6B1" stroke-width="1.3" stroke-linecap="round"/>
<path d="M178.256 26.4959C180.536 25.3982 184.509 24.8023 182.164 31.2004L178.256 26.4959Z" fill="url(#paint7_linear)"/>
<rect x="20" y="104" width="55" height="13" rx="2" fill="url(#paint8_linear)"/>
<rect x="26" y="93" width="55" height="11" rx="2" fill="url(#paint9_linear)"/>
<rect x="17" y="84" width="55" height="9" rx="2" fill="url(#paint10_linear)"/>
<rect x="23" y="87" width="16" height="3" rx="1" fill="white"/>
<rect x="76" y="95" width="7" height="3" rx="1" transform="rotate(90 76 95)" fill="white"/>
<rect x="71" y="95" width="7" height="3" rx="1" transform="rotate(90 71 95)" fill="white"/>
<rect x="68" y="106" width="9" height="3" rx="1" transform="rotate(90 68 106)" fill="white"/>
<rect x="30" y="106" width="9" height="3" rx="1" transform="rotate(90 30 106)" fill="white"/>
<rect width="462" height="2" transform="matrix(1 0 0 -1 0 119)" fill="#4537EF"/>
<defs>
<linearGradient id="paint0_linear" x1="197.139" y1="95.1693" x2="181.225" y2="123.577" gradientUnits="userSpaceOnUse">
<stop stop-color="#3730C0"/>
<stop offset="1" stop-color="#5049D2"/>
</linearGradient>
<linearGradient id="paint1_linear" x1="326" y1="35.5" x2="321.941" y2="20.6855" gradientUnits="userSpaceOnUse">
<stop stop-color="#EAC7CD"/>
<stop offset="1" stop-color="#FFD1D9"/>
</linearGradient>
<linearGradient id="paint2_linear" x1="194.44" y1="60.6601" x2="263.804" y2="109.215" gradientUnits="userSpaceOnUse">
<stop stop-color="#463FCC"/>
<stop offset="1" stop-color="#6E68DF"/>
</linearGradient>
<linearGradient id="paint3_linear" x1="183.63" y1="24.2634" x2="183.65" y2="61.643" gradientUnits="userSpaceOnUse">
<stop stop-color="#EAC7CD"/>
<stop offset="1" stop-color="#FFD1D9"/>
</linearGradient>
<linearGradient id="paint4_linear" x1="417.5" y1="117" x2="429.754" y2="104.2" gradientUnits="userSpaceOnUse">
<stop stop-color="#EAC7CD"/>
<stop offset="1" stop-color="#FFD1D9"/>
</linearGradient>
<linearGradient id="paint5_linear" x1="340.102" y1="32.3562" x2="340.102" y2="97.4814" gradientUnits="userSpaceOnUse">
<stop stop-color="#3729A9"/>
<stop offset="1" stop-color="#261994"/>
</linearGradient>
<linearGradient id="paint6_linear" x1="203.481" y1="66.37" x2="201.373" y2="92.5148" gradientUnits="userSpaceOnUse">
<stop stop-color="#4A43CE"/>
<stop offset="1" stop-color="#6E68DF"/>
</linearGradient>
<linearGradient id="paint7_linear" x1="183.141" y1="26.0255" x2="180.321" y2="28.9547" gradientUnits="userSpaceOnUse">
<stop stop-color="#EAB7C1"/>
<stop offset="1" stop-color="#FFD1D9"/>
</linearGradient>
<linearGradient id="paint8_linear" x1="47.5" y1="104" x2="47.5" y2="117" gradientUnits="userSpaceOnUse">
<stop stop-color="#3729A9"/>
<stop offset="1" stop-color="#544DD3"/>
</linearGradient>
<linearGradient id="paint9_linear" x1="53.5" y1="93" x2="53.5" y2="104" gradientUnits="userSpaceOnUse">
<stop stop-color="#24B46F"/>
<stop offset="0.505208" stop-color="#2FC37C"/>
<stop offset="1" stop-color="#24B46F"/>
</linearGradient>
<linearGradient id="paint10_linear" x1="44.5" y1="84" x2="44.5" y2="93" gradientUnits="userSpaceOnUse">
<stop stop-color="#6F68DF"/>
<stop offset="1" stop-color="#4A43CE"/>
</linearGradient>
</defs>
</svg>
