<svg width="85" height="70" viewBox="0 0 85 70" fill="none" xmlns="http://www.w3.org/2000/svg"><path d="M17.145 24.415c.269.9.41 1.832.419 2.771a4.37 4.37 0 0 1-1.633 4.066 5.629 5.629 0 0 1-5.12-.503l.06 3.444-2.507-1.401-.057-3.259a21.703 21.703 0 0 1-7.545-7.87l2.037-2.11a19.112 19.112 0 0 0 5.368 6.167l-.122-6.962c-1.015-.87-1.843-1.597-2.483-2.216a28.73 28.73 0 0 1-2.116-2.37c-.7-.892-1.266-1.88-1.681-2.935a11.112 11.112 0 0 1-.576-3.286 3.704 3.704 0 0 1 1.75-3.735 5.592 5.592 0 0 1 4.898.47l-.06-3.37 2.544 1.4.06 3.407a21.814 21.814 0 0 1 6.416 6.815l-2.078 1.963a17.184 17.184 0 0 0-4.308-4.889l.109 6.221c.79.69 1.467 1.271 1.995 1.818a24.555 24.555 0 0 1 1.886 1.93c.599.68 1.133 1.414 1.594 2.195.46.704.846 1.455 1.15 2.24zm-4.064 2.701a1.926 1.926 0 0 0 .712-1.642 4.037 4.037 0 0 0-.817-2.246 14.815 14.815 0 0 0-2.304-2.515l.11 6.295a2.926 2.926 0 0 0 2.333-.04l-.034.148zM8.069 13.757l-.095-5.443a2.444 2.444 0 0 0-2.152-.222c-.515.231-.765.754-.75 1.569.013.815 1.001 2.242 2.963 4.282m29.298 14.713a21.67 21.67 0 0 1 .565 4.806 16.85 16.85 0 0 1-.407 4.266 8.407 8.407 0 0 1-1.464 3.138 3.701 3.701 0 0 1-2.642 1.416 6.888 6.888 0 0 1-3.722-1.046 14.149 14.149 0 0 1-3.76-3.194 18.038 18.038 0 0 1-2.707-4.398 27.773 27.773 0 0 1-1.565-4.788 24.411 24.411 0 0 1-.566-4.806c-.038-1.435.112-2.87.444-4.267a8.703 8.703 0 0 1 1.427-3.137 3.704 3.704 0 0 1 2.642-1.416 7.112 7.112 0 0 1 3.723 1.046 14.26 14.26 0 0 1 3.76 3.194 17.371 17.371 0 0 1 2.706 4.36 23.56 23.56 0 0 1 1.566 4.826zm-4.263 8.335a11.11 11.11 0 0 0 1.05-5.649 25.108 25.108 0 0 0-.487-4.548 13.11 13.11 0 0 0-1.588-3.972 7.409 7.409 0 0 0-2.752-2.768 2.74 2.74 0 0 0-2.746-.285 3.704 3.704 0 0 0-1.48 2.285 17.516 17.516 0 0 0-.372 4.082 19.705 19.705 0 0 0 1.268 6.904 8.037 8.037 0 0 0 3.56 4.42c1.645.898 2.79.73 3.695-.472m9.972 6.753a4.665 4.665 0 0 1 2.286 3.664 1.518 1.518 0 0 1-.641 1.456 1.592 1.592 0 0 1-1.556.027 4.482 4.482 0 0 1-1.547-1.64 4.149 4.149 0 0 1-.705-2.173 1.333 1.333 0 0 1 2.164-1.26l-.001-.074zm21.56.105c.365 1.576.555 3.188.565 4.806a16.854 16.854 0 0 1-.407 4.267 8.149 8.149 0 0 1-1.464 3.137 3.446 3.446 0 0 1-2.642 1.416 6.26 6.26 0 0 1-3.722-1.046 13.035 13.035 0 0 1-3.76-3.194 17.366 17.366 0 0 1-2.707-4.398 27.785 27.785 0 0 1-1.566-4.788 24.404 24.404 0 0 1-.565-4.806c-.038-1.435.112-2.87.444-4.267a9 9 0 0 1 1.427-3.137 3.705 3.705 0 0 1 2.643-1.38 6.74 6.74 0 0 1 3.722 1.01 13.779 13.779 0 0 1 3.76 3.231 16.739 16.739 0 0 1 2.706 4.36 22.586 22.586 0 0 1 1.566 4.789zm-4.263 8.335a11.11 11.11 0 0 0 1.05-5.612 25.517 25.517 0 0 0-.487-4.585 13.113 13.113 0 0 0-1.588-3.972 7.63 7.63 0 0 0-2.752-2.767 2.63 2.63 0 0 0-2.746-.249 3.37 3.37 0 0 0-1.48 2.248c-.3 1.339-.425 2.71-.373 4.081.004 2.36.433 4.699 1.27 6.905a8.074 8.074 0 0 0 3.559 4.42c1.646.935 2.791.766 3.695-.472m15.422-9.937a16.814 16.814 0 0 1 5.566 4.83 10.148 10.148 0 0 1 2.178 5.925 2.925 2.925 0 0 1-1.32 2.95 3.888 3.888 0 0 1-3.22.056 12.446 12.446 0 0 1 3.397 3.645 9.333 9.333 0 0 1 1.643 5.009c.037 2.11-.682 3.382-2.12 3.74a7.406 7.406 0 0 1-5.763-1.232 19.144 19.144 0 0 1-4.842-3.62 19.373 19.373 0 0 1-3.266-4.61l1.971-1.664a18.185 18.185 0 0 0 2.657 3.658 14.146 14.146 0 0 0 3.305 2.609 4.778 4.778 0 0 0 3.237.832c.773-.272 1.132-.945 1.112-2.093-.04-2.26-1.63-4.269-4.735-5.993-1.458-.79-2.244-1.257-2.468-1.327l-.064-3.703 2.47 1.438c.922.622 2.015.94 3.127.909.815-.014 1.174-.65 1.155-1.724a5.26 5.26 0 0 0-1.203-3.165 10.183 10.183 0 0 0-3.12-2.612 5.259 5.259 0 0 0-5.452-.35l-1.953-3.67c1.858-1.81 4.418-1.559 7.708.162z" fill="#276BFF"/><path d="M51.918 9.55l.027 1.541-2.65-1.48.117 8.42-1.541-.857-.116-8.405-2.65-1.465-.012-1.54 6.825 3.786zM41.38 3.708l.132 8.42 3.852 2.145.026 1.525-5.392-2.988-.143-9.945 1.525.843zm20.029 11.108l-3.277 8.053-1.926-1.065L52.627 9.95l1.74.961 2.76 9.519 2.54-6.575 1.742.961z" fill="#286CFE"/></svg>