<svg width="85" height="69" viewBox="0 0 85 69" fill="none" xmlns="http://www.w3.org/2000/svg"><path d="M16.19 23.291c.28.893.417 1.824.405 2.76a4.342 4.342 0 0 1-1.693 4.01 5.593 5.593 0 0 1-5.078-.588v3.238L7.36 31.276v-3.238A21.857 21.857 0 0 1 0 20.09l2.06-2.06a18.986 18.986 0 0 0 5.225 6.218V17.33L4.82 15.087c-.625-.7-1.325-1.472-2.024-2.392a11.628 11.628 0 0 1-1.619-2.943 11.04 11.04 0 0 1-.515-3.275 3.68 3.68 0 0 1 1.803-3.68 5.556 5.556 0 0 1 4.857.552V0l2.502 1.435V4.82a21.673 21.673 0 0 1 6.255 6.88l-2.097 1.914a17.071 17.071 0 0 0-4.194-4.93v6.328c.772.7 1.435 1.288 1.95 1.84a19.096 19.096 0 0 1 1.803 1.95 12.506 12.506 0 0 1 1.582 2.208c.449.713.807 1.48 1.067 2.281zm-4.048 2.613a1.915 1.915 0 0 0 .736-1.62 4.01 4.01 0 0 0-.772-2.244 13.73 13.73 0 0 0-2.282-2.539v6.256a2.907 2.907 0 0 0 2.318 0v.147zM7.36 12.547V6.954a2.428 2.428 0 0 0-2.134-.257c-.515.22-.773.736-.773 1.545 0 .81.957 2.244 2.87 4.305m28.884 15.307a21.52 21.52 0 0 1 .478 4.784 16.744 16.744 0 0 1-.478 4.231 8.352 8.352 0 0 1-1.509 3.09 3.68 3.68 0 0 1-2.65 1.362 6.77 6.77 0 0 1-3.679-1.104 13.544 13.544 0 0 1-3.68-3.238 17.919 17.919 0 0 1-2.612-4.415 27.592 27.592 0 0 1-1.472-4.784 24.245 24.245 0 0 1-.478-4.783c-.012-1.427.16-2.85.515-4.231a8.646 8.646 0 0 1 1.472-3.091 3.68 3.68 0 0 1 2.65-1.362 7.064 7.064 0 0 1 3.679 1.104 14.165 14.165 0 0 1 3.68 3.238 17.26 17.26 0 0 1 2.612 4.379 23.405 23.405 0 0 1 1.472 4.82zm-4.379 8.206a11.039 11.039 0 0 0 1.14-5.593 24.934 24.934 0 0 0-.404-4.526 13.023 13.023 0 0 0-1.509-3.974 7.358 7.358 0 0 0-2.686-2.796 2.723 2.723 0 0 0-2.723-.332 3.68 3.68 0 0 0-1.508 2.245 15.601 15.601 0 0 0-.442 4.047 20.456 20.456 0 0 0 1.104 6.881 8.205 8.205 0 0 0 3.68 4.452c1.619.92 2.76.773 3.68-.404m9.603 6.88a4.893 4.893 0 0 1 2.207 3.68 1.509 1.509 0 0 1-.662 1.435 1.581 1.581 0 0 1-1.545 0 4.451 4.451 0 0 1-1.509-1.656 3.68 3.68 0 0 1-.662-2.17 1.324 1.324 0 0 1 2.17-1.215v-.074zm20.826-7.396v3.68L52.544 33.41v6.954a4.674 4.674 0 0 1 4.746.663 14.129 14.129 0 0 1 6.66 11.59c0 2.465-.772 3.974-2.207 4.636a6.624 6.624 0 0 1-5.777-1.104 19.905 19.905 0 0 1-7.764-8.205l2.134-1.656a14.718 14.718 0 0 0 5.63 6.072 3.68 3.68 0 0 0 3.09.625 2.282 2.282 0 0 0 1.178-2.355 7.138 7.138 0 0 0-1.104-3.68 8.977 8.977 0 0 0-3.054-2.943 4.673 4.673 0 0 0-4.6-.552L48.865 41.1V27.67l13.725 7.874zm20.936 19.612c.348 1.583.521 3.2.515 4.82a16.37 16.37 0 0 1-.515 4.195 9.312 9.312 0 0 1-1.472 3.09 3.68 3.68 0 0 1-2.649 1.399 6.659 6.659 0 0 1-3.68-1.104 13.022 13.022 0 0 1-3.679-3.238 16.96 16.96 0 0 1-2.65-4.415 28.628 28.628 0 0 1-1.471-4.784 27.41 27.41 0 0 1-.478-4.82 16.39 16.39 0 0 1 .515-4.194 8.096 8.096 0 0 1 1.508-3.091 3.458 3.458 0 0 1 2.613-1.362 6.954 6.954 0 0 1 3.68 1.104 14.716 14.716 0 0 1 3.679 3.238 18.396 18.396 0 0 1 2.612 4.379 27.497 27.497 0 0 1 1.472 4.783zm-4.379 8.242a10.67 10.67 0 0 0 1.141-5.593 19.702 19.702 0 0 0-.405-4.525 12.953 12.953 0 0 0-1.471-3.974 7.36 7.36 0 0 0-2.723-2.797 2.54 2.54 0 0 0-2.723-.33 3.46 3.46 0 0 0-1.509 2.244 15.601 15.601 0 0 0-.441 4.047 20.605 20.605 0 0 0 1.104 6.88 8.243 8.243 0 0 0 3.68 4.453c1.581.92 2.759.773 3.495-.405" fill="#276BFF"/><path d="M50.918 7.873l.027 1.541-2.65-1.48.117 8.42-1.541-.857-.116-8.405-2.65-1.465-.012-1.54 6.825 3.786zM40.38 2.03l.132 8.42 3.852 2.146.026 1.525-5.392-2.988-.143-9.946 1.525.844zm20.029 11.11l-3.277 8.052-1.926-1.065-3.579-11.854 1.74.961 2.76 9.519 2.54-6.575 1.742.961z" fill="#286CFE"/></svg>