<svg width="85" height="69" viewBox="0 0 85 69" fill="none" xmlns="http://www.w3.org/2000/svg"><path d="M50.918 9.55l.027 1.541-2.65-1.48.117 8.421-1.541-.858-.116-8.405-2.65-1.464-.012-1.541 6.825 3.787zM40.38 3.708l.132 8.42 3.852 2.145.026 1.525-5.392-2.988-.143-9.945 1.525.843zm20.029 11.109l-3.277 8.052-1.926-1.065L51.627 9.95l1.74.962 2.76 9.518 2.54-6.575 1.742.962z" fill="#286CFE"/><path d="M16.289 23.29c.249.9.373 1.83.368 2.765a4.348 4.348 0 0 1-1.695 4.017 5.49 5.49 0 0 1-5.085-.59v3.243L7.37 31.288v-3.243A21.891 21.891 0 0 1 0 20.085l2.064-2.064a19.016 19.016 0 0 0 5.233 6.228V17.32c-.995-.885-1.806-1.622-2.432-2.248a28.507 28.507 0 0 1-2.064-2.396A10.504 10.504 0 0 1 1.179 9.73a10.65 10.65 0 0 1-.516-3.243A3.685 3.685 0 0 1 2.47 2.801a5.675 5.675 0 0 1 4.865.553V0L9.84 1.437v3.39a22.663 22.663 0 0 1 6.301 6.892l-2.137 1.916A17.1 17.1 0 0 0 9.84 8.697v6.265l1.953 1.843a24.11 24.11 0 0 1 1.842 1.953 14.345 14.345 0 0 1 1.548 2.211c.45.732.821 1.51 1.106 2.322zm-4.09 2.617a1.843 1.843 0 0 0 .736-1.584 4.054 4.054 0 0 0-.774-2.285 14.736 14.736 0 0 0-2.248-2.506v6.228a2.91 2.91 0 0 0 2.322 0l-.037.147zM7.443 12.53V6.928a2.727 2.727 0 0 0-2.137-.258 1.511 1.511 0 0 0-.774 1.548c0 1.13.958 2.567 2.874 4.312M36.3 27.86a21.78 21.78 0 0 1 .479 4.791 16.55 16.55 0 0 1-.48 4.238 8.108 8.108 0 0 1-1.51 3.096 3.39 3.39 0 0 1-2.654 1.363 6.486 6.486 0 0 1-3.685-1.069A14.262 14.262 0 0 1 24.765 37a17.287 17.287 0 0 1-2.617-4.422 27.648 27.648 0 0 1-1.474-4.79 24.3 24.3 0 0 1-.479-4.791c-.01-1.43.164-2.854.516-4.238a8.954 8.954 0 0 1 1.474-3.096 3.685 3.685 0 0 1 2.654-1.327 7.003 7.003 0 0 1 3.685 1.07 13.709 13.709 0 0 1 3.685 3.28 16.657 16.657 0 0 1 2.617 4.385 22.48 22.48 0 0 1 1.474 4.79zm-4.349 8.218a11.057 11.057 0 0 0 1.143-5.564 25.8 25.8 0 0 0-.406-4.57 13.413 13.413 0 0 0-1.51-3.98 7.593 7.593 0 0 0-2.691-2.8 2.616 2.616 0 0 0-2.727-.296 3.354 3.354 0 0 0-1.511 2.212 17.652 17.652 0 0 0-.442 4.053 19.791 19.791 0 0 0 1.142 6.929 8.144 8.144 0 0 0 3.685 4.459c1.585.92 2.727.773 3.501-.443m9.729 6.892c.65.406 1.194.962 1.585 1.622a4.57 4.57 0 0 1 .627 2.174 1.473 1.473 0 0 1-.664 1.4 1.584 1.584 0 0 1-1.548 0 4.975 4.975 0 0 1-2.174-3.685 1.438 1.438 0 0 1 .663-1.4 1.437 1.437 0 0 1 1.511-.111zm13.71-11.904a16.66 16.66 0 0 1 5.417 5.123 11.977 11.977 0 0 1 2.174 6.707 5.86 5.86 0 0 1-2.285 4.864 22.48 22.48 0 0 1-6.891 3.133l9.25 5.343v3.686L48.093 51.15v-3.317a44.486 44.486 0 0 0 8.955-3.28 4.239 4.239 0 0 0 2.358-3.685 5.602 5.602 0 0 0-1.069-3.39 8.696 8.696 0 0 0-2.69-2.506 4.938 4.938 0 0 0-5.675-.369l-2.1-4.017a4.568 4.568 0 0 1 3.39-.884c1.518.143 2.988.608 4.312 1.363zm27.97 24.065c.33 1.576.503 3.181.516 4.791a18.428 18.428 0 0 1-.516 4.238 8.659 8.659 0 0 1-1.51 3.096 3.427 3.427 0 0 1-2.617 1.363 6.523 6.523 0 0 1-3.685-1.069 13.634 13.634 0 0 1-3.686-3.28 17.73 17.73 0 0 1-2.616-4.385 25.135 25.135 0 0 1-1.474-4.828 23.983 23.983 0 0 1-.48-4.79c-.01-1.43.164-2.854.517-4.238a8.329 8.329 0 0 1 1.474-3.096 3.684 3.684 0 0 1 2.653-1.327 6.928 6.928 0 0 1 3.685 1.07 14.337 14.337 0 0 1 3.685 3.279 17.872 17.872 0 0 1 2.654 4.385 27.524 27.524 0 0 1 1.4 4.791zm-4.385 8.255a11.056 11.056 0 0 0 1.142-5.601 24.983 24.983 0 0 0-.405-4.533 12.714 12.714 0 0 0-1.511-3.98 7.37 7.37 0 0 0-2.69-2.838 2.691 2.691 0 0 0-2.727-.295 3.465 3.465 0 0 0-1.511 2.248 20.342 20.342 0 0 0 .7 11.056 7.886 7.886 0 0 0 3.5 4.46c1.585.92 2.728.773 3.502-.406" fill="#276BFF"/></svg>