<svg width="1440" height="114" viewBox="0 0 1440 114" fill="none" xmlns="http://www.w3.org/2000/svg"><g filter="url(#a)"><mask id="b" maskUnits="userSpaceOnUse" x="0" y="0" width="1440" height="106"><path fill="#C4C4C4" d="M0 0h1440v106H0z"/></mask><g mask="url(#b)" fill-rule="evenodd" clip-rule="evenodd"><path d="M1440-432.091v786.363c-235.56 54.819-449.366 175.75-720 175.75-269.481 0-507.114-118.528-720-175.75v-786.363h1440z" fill="url(#c)"/><path d="M1250.15 503.813c12.27-68.551 147.27-447.775 61.61-566.546-102.45-142.044-435.072-18.52-508.928 0-135.61 34.004-367.528 677.051-224.956 814.591 142.572 137.541 645.314-97.511 672.274-248.045z" fill="url(#d)"/><path d="M1675.35 765.304c77.64-126.836-76.21-688.443-212.97-716.15-136.77-27.708-575.867 463.306-492.886 651.95 82.976 188.644 628.226 191.035 705.856 64.2z" fill="url(#e)"/><path d="M1696.44 540.052c94.49-111.749 21.43-693.244-109.76-744.436-131.18-51.191-633.852 357.281-578.39 558.058 55.46 200.778 593.65 298.128 688.15 186.378z" fill="url(#f)"/><path d="M313.438 177.007c94.494-111.75 21.429-693.244-109.756-744.436C72.497-618.62-430.172-210.149-374.712-9.371c55.46 200.778 593.655 298.127 688.15 186.378z" fill="url(#g)"/></g></g><defs><filter id="a" x="-6" y="-4" width="1452" height="118" filterUnits="userSpaceOnUse" color-interpolation-filters="sRGB"><feFlood flood-opacity="0" result="BackgroundImageFix"/><feColorMatrix in="SourceAlpha" values="0 0 0 0 0 0 0 0 0 0 0 0 0 0 0 0 0 0 127 0"/><feOffset dy="2"/><feGaussianBlur stdDeviation="3"/><feColorMatrix values="0 0 0 0 0.022368 0 0 0 0 0.30131 0 0 0 0 0.21613 0 0 0 0.25 0"/><feBlend in2="BackgroundImageFix" result="effect1_dropShadow"/><feBlend in="SourceGraphic" in2="effect1_dropShadow" result="shape"/></filter><linearGradient id="c" x1="-325" y1="1465.55" x2="1241.8" y2="-398.251" gradientUnits="userSpaceOnUse"><stop stop-color="#7CCC2C"/><stop offset=".335" stop-color="#49D452"/><stop offset=".747" stop-color="#06805A"/><stop offset="1" stop-color="#00766A"/></linearGradient><linearGradient id="d" x1="343" y1="485.546" x2="799.679" y2="-201.454" gradientUnits="userSpaceOnUse"><stop stop-color="#2AB16D"/><stop offset=".67" stop-color="#06805A" stop-opacity=".9"/><stop offset="1" stop-color="#00766A" stop-opacity=".8"/></linearGradient><linearGradient id="e" x1="740.072" y1="728.484" x2="958.577" y2="-83.041" gradientUnits="userSpaceOnUse"><stop stop-color="#3BB12A"/><stop offset=".288" stop-color="#05913F"/><stop offset=".67" stop-color="#06805A"/><stop offset="1" stop-color="#0B7066"/></linearGradient><linearGradient id="f" x1="1282.29" y1="1320.44" x2="269.746" y2="390.041" gradientUnits="userSpaceOnUse"><stop stop-color="#7CCC2C" stop-opacity=".01"/><stop offset=".288" stop-color="#05913F" stop-opacity=".707"/><stop offset=".67" stop-color="#06805A" stop-opacity=".736"/><stop offset="1" stop-color="#00766A"/></linearGradient><linearGradient id="g" x1="293.475" y1="552.804" x2="-318.395" y2="183.019" gradientUnits="userSpaceOnUse"><stop stop-color="#7CCC2C" stop-opacity=".01"/><stop offset=".247" stop-color="#05913F" stop-opacity=".1"/><stop offset=".789" stop-color="#06805A"/><stop offset="1" stop-color="#00766A"/></linearGradient></defs></svg>