<svg width="270" height="359" viewBox="0 0 270 359" fill="none" xmlns="http://www.w3.org/2000/svg"><path fill-rule="evenodd" clip-rule="evenodd" d="M18.132 15.4c-2.666-1.476-5.937.452-5.937 3.5v192.068a4 4 0 0 0 2.063 3.5l237.166 131.247c2.666 1.475 5.937-.453 5.937-3.5V150.146a4 4 0 0 0-2.064-3.5L18.132 15.4z" fill="#DBE0E7" opacity=".6" filter="url(#a)"/><path fill-rule="evenodd" clip-rule="evenodd" d="M13.293 1.69C10.986.411 4.406.824 4.406 3.46l3.75 194.557c0 1.259.684 2.418 1.785 3.028l234.727 133.821c2.307 1.277 8.653-2.369 8.653-5.006v-193.3a3.464 3.464 0 0 0-1.785-3.029L13.293 1.689z" fill="url(#b)"/><path fill-rule="evenodd" clip-rule="evenodd" d="M13.022 5.505c-3.999-2.213-8.905.68-8.905 5.25v187.497a5.999 5.999 0 0 0 3.095 5.249l233.165 129.034c3.999 2.213 8.905-.68 8.905-5.25V139.788a6 6 0 0 0-3.094-5.25L13.022 5.505z" fill="#F3F9FF"/><path d="M23.154 10.383L10.033 3.228c-2.666-1.454-5.916.475-5.916 3.511v193.365a4 4 0 0 0 2.085 3.512l16.952 9.246V10.384z" fill="#276BFF"/><path d="M73.105 68.187L33.613 45.773a1.598 1.598 0 1 0-1.577 2.78l39.491 22.413a1.598 1.598 0 0 0 1.578-2.779zm22.298 1.326L34.218 34.588c-1.333-.76-2.991.202-2.991 1.737v1.377a2 2 0 0 0 1.008 1.737L93.42 74.363c1.334.761 2.992-.202 2.992-1.737V71.25a2 2 0 0 0-1.009-1.737z" fill="#fff"/><path opacity=".1" d="M15.79 23.843l-3.5-1.972c-1.333-.752-2.981.212-2.981 1.742v5.603a2 2 0 0 0 1.018 1.742l3.499 1.973c1.333.751 2.982-.212 2.982-1.743v-5.602a2 2 0 0 0-1.018-1.743z" fill="#fff"/><path d="M234.284 152.219v-1.586a3.75 3.75 0 0 0-1.908-3.267c-2.5-1.409-5.591.397-5.591 3.267v1.586a3.75 3.75 0 0 0 1.909 3.266c2.499 1.409 5.59-.397 5.59-3.266zm-12.113-6.923v-1.586a3.748 3.748 0 0 0-1.908-3.266c-2.5-1.409-5.591.397-5.591 3.266v1.586a3.75 3.75 0 0 0 1.908 3.267c2.5 1.409 5.591-.397 5.591-3.267zm-12.113-6.922v-1.586a3.75 3.75 0 0 0-1.909-3.266c-2.499-1.409-5.59.397-5.59 3.266v1.586c0 1.353.729 2.602 1.908 3.266 2.5 1.409 5.591-.397 5.591-3.266z" fill="#fff"/><path opacity=".1" d="M15.79 48.648l-3.5-1.972c-1.333-.752-2.981.212-2.981 1.742v5.603a2 2 0 0 0 1.018 1.742l3.499 1.973c1.333.751 2.982-.212 2.982-1.743v-5.602a2 2 0 0 0-1.018-1.743zm0 24.805l-3.5-1.972c-1.333-.752-2.981.212-2.981 1.742v5.603a2 2 0 0 0 1.018 1.742l3.499 1.973c1.333.751 2.982-.212 2.982-1.743v-5.603a2 2 0 0 0-1.018-1.742zm0 24.805l-3.5-1.972c-1.333-.752-2.981.212-2.981 1.742v5.603c0 .722.389 1.388 1.018 1.742l3.499 1.973c1.333.751 2.982-.212 2.982-1.743V100a2 2 0 0 0-1.018-1.742zm0 24.805l-3.5-1.972c-1.333-.752-2.981.212-2.981 1.742v5.603c0 .722.389 1.388 1.018 1.742l3.499 1.973c1.333.751 2.982-.212 2.982-1.743v-5.603c0-.721-.39-1.387-1.018-1.742z" fill="#fff"/><defs><filter id="a" x=".195" y="2.894" width="269.165" height="355.327" filterUnits="userSpaceOnUse" color-interpolation-filters="sRGB"><feFlood flood-opacity="0" result="BackgroundImageFix"/><feBlend in="SourceGraphic" in2="BackgroundImageFix" result="shape"/><feGaussianBlur stdDeviation="6" result="effect1_foregroundBlur"/></filter><linearGradient id="b" x1="-2.228" y1="77.299" x2="267.744" y2="200.682" gradientUnits="userSpaceOnUse"><stop stop-color="#E0E2E7"/><stop offset=".826" stop-color="#C9D1E6"/><stop offset=".884" stop-color="#93A0C5"/><stop offset="1" stop-color="#96A1BE"/></linearGradient></defs></svg>