<svg width="131" height="64" viewBox="0 0 131 64" fill="none" xmlns="http://www.w3.org/2000/svg"><path d="M128.529 56H1.329v4a4 4 0 0 0 4 4h119.2a4 4 0 0 0 4-4v-4z" fill="url(#a)"/><path d="M115.386 15.845a3.999 3.999 0 0 0-3.793-2.731h-95.84a4 4 0 0 0-3.86 2.948L1.377 54.644c-.694 2.545 1.222 5.052 3.859 5.052h119.27c2.732 0 4.66-2.678 3.793-5.27l-12.913-38.582z" fill="url(#b)"/><path d="M112.855 15.846a4.001 4.001 0 0 0-3.794-2.732H18.465a4 4 0 0 0-3.86 2.95L4.74 52.317c-.692 2.544 1.223 5.05 3.86 5.05h112.576c2.731 0 4.659-2.677 3.793-5.268l-12.113-36.253z" fill="url(#c)"/><path d="M128.529 43H1.329v8a4 4 0 0 0 4 4h119.2a4 4 0 0 0 4-4v-8z" fill="url(#d)"/><path d="M115.386 3.376a3.999 3.999 0 0 0-3.793-2.73h-95.84a4 4 0 0 0-3.86 2.948L1.377 42.176c-.694 2.544 1.222 5.052 3.859 5.052h119.27c2.732 0 4.66-2.679 3.793-5.27L115.386 3.376z" fill="url(#e)"/><path d="M112.855 3.378a4.001 4.001 0 0 0-3.794-2.732H18.465a4 4 0 0 0-3.86 2.95L4.74 39.847c-.692 2.544 1.223 5.05 3.86 5.05h112.576c2.731 0 4.659-2.676 3.793-5.267L112.855 3.378z" fill="url(#f)"/><path d="M128.529 35H1.329v4a4 4 0 0 0 4 4h119.2a4 4 0 0 0 4-4v-4z" fill="url(#g)"/><path d="M117.353 2.684A4 4 0 0 0 113.575 0H13.742a4 4 0 0 0-3.858 2.942l-8.498 31C.69 36.489 2.604 39 5.244 39h119.127c2.753 0 4.683-2.716 3.778-5.316l-10.796-31z" fill="url(#h)"/><path fill-rule="evenodd" clip-rule="evenodd" d="M104.701 52.56c1.781.19 3.534-.46 3.915-1.454.38-.994-.755-1.953-2.536-2.144-1.781-.19-3.534.46-3.915 1.454-.381.993.754 1.953 2.536 2.144z" fill="#C7FBFC"/><path fill-rule="evenodd" clip-rule="evenodd" d="M104.372 53.416c2.628.281 5.214-.68 5.776-2.145.561-1.466-1.113-2.882-3.741-3.163-2.628-.281-5.214.68-5.776 2.145-.562 1.466 1.113 2.882 3.741 3.163z" fill="#fff" filter="url(#i)"/><defs><filter id="i" x="92.912" y="40.448" width="24.956" height="20.628" filterUnits="userSpaceOnUse" color-interpolation-filters="sRGB"><feFlood flood-opacity="0" result="BackgroundImageFix"/><feBlend in="SourceGraphic" in2="BackgroundImageFix" result="shape"/><feGaussianBlur stdDeviation="3.806" result="effect1_foregroundBlur"/></filter><linearGradient id="a" x1="-1.266" y1="55.219" x2="88.397" y2="-2.959" gradientUnits="userSpaceOnUse"><stop stop-color="#6438B5"/><stop offset=".456" stop-color="#423096"/><stop offset=".536" stop-color="#283593"/><stop offset="1" stop-color="#283593"/></linearGradient><linearGradient id="b" x1="123.729" y1="52" x2="123.729" y2="60" gradientUnits="userSpaceOnUse"><stop stop-color="#174E8F"/><stop offset="1" stop-color="#00B0FC"/></linearGradient><linearGradient id="c" x1="120.642" y1="17.496" x2="120.642" y2="54.213" gradientUnits="userSpaceOnUse"><stop stop-color="#fff"/><stop offset="1" stop-color="#C0FCFD"/></linearGradient><linearGradient id="d" x1="-1.266" y1="45.82" x2="90.715" y2="-11.267" gradientUnits="userSpaceOnUse"><stop stop-color="#6438B5"/><stop offset=".456" stop-color="#423096"/><stop offset=".536" stop-color="#283593"/><stop offset="1" stop-color="#283593"/></linearGradient><linearGradient id="e" x1="123.729" y1="39.532" x2="123.729" y2="47.532" gradientUnits="userSpaceOnUse"><stop stop-color="#174E8F"/><stop offset="1" stop-color="#00B0FC"/></linearGradient><linearGradient id="f" x1="120.642" y1="5.028" x2="120.642" y2="41.745" gradientUnits="userSpaceOnUse"><stop stop-color="#fff"/><stop offset="1" stop-color="#C0FCFD"/></linearGradient><linearGradient id="g" x1="-1.266" y1="34.219" x2="88.397" y2="-23.959" gradientUnits="userSpaceOnUse"><stop stop-color="#6438B5"/><stop offset=".456" stop-color="#423096"/><stop offset=".536" stop-color="#283593"/><stop offset="1" stop-color="#283593"/></linearGradient><linearGradient id="h" x1="12.861" y1=".076" x2="135.949" y2="18.663" gradientUnits="userSpaceOnUse"><stop stop-color="#6F69E0"/><stop offset="1" stop-color="#3540B0"/></linearGradient></defs></svg>