<svg width="124" height="280" viewBox="0 0 124 280" fill="none" xmlns="http://www.w3.org/2000/svg"><path fill-rule="evenodd" clip-rule="evenodd" d="M13.935 12.28C11.269 10.806 8 12.735 8 15.78v196.176a4 4 0 0 0 2.065 3.501l100 55.263c2.666 1.474 5.935-.455 5.935-3.501V71.044a4 4 0 0 0-2.065-3.5l-100-55.264z" fill="#DBE0E7" filter="url(#a)"/><path fill-rule="evenodd" clip-rule="evenodd" d="M9.435 2.28C6.769.806 1 2.954 1 6l2.5 195.956a4 4 0 0 0 2.065 3.501L103.5 262c2.666 1.473 8-1.735 8-4.781V61.044a4 4 0 0 0-2.065-3.5L9.435 2.28z" fill="url(#b)"/><path fill-rule="evenodd" clip-rule="evenodd" d="M5.935 3.28C3.269 1.806 0 3.735 0 6.78v196.176a4 4 0 0 0 2.065 3.501l100 55.263c2.666 1.474 5.935-.455 5.935-3.501V62.044a4 4 0 0 0-2.065-3.5L5.935 3.28z" fill="#fff"/><path fill-rule="evenodd" clip-rule="evenodd" d="M0 199v4.154a4 4 0 0 0 2.065 3.501L102.3 262.048c2.561 1.415 5.701-.437 5.701-3.363L0 199z" fill="#8432EC"/><defs><filter id="a" x="0" y="3.775" width="124" height="275.45" filterUnits="userSpaceOnUse" color-interpolation-filters="sRGB"><feFlood flood-opacity="0" result="BackgroundImageFix"/><feBlend in="SourceGraphic" in2="BackgroundImageFix" result="shape"/><feGaussianBlur stdDeviation="4" result="effect1_foregroundBlur"/></filter><linearGradient id="b" x1="3.062" y1="53.611" x2="137.209" y2="91.876" gradientUnits="userSpaceOnUse"><stop stop-color="#E4E7EF"/><stop offset=".728" stop-color="#E5E9F2"/><stop offset=".787" stop-color="#C3CBE0"/><stop offset="1" stop-color="#ABB4CD"/></linearGradient></defs></svg>