<svg width="125" height="280" viewBox="0 0 125 280" fill="none" xmlns="http://www.w3.org/2000/svg"><path fill-rule="evenodd" clip-rule="evenodd" d="M14.935 12.28C12.269 10.806 9 12.735 9 15.78v196.176a4 4 0 0 0 2.065 3.501l100 55.263c2.666 1.474 5.935-.455 5.935-3.501V71.044a4 4 0 0 0-2.065-3.5l-100-55.264z" fill="#DBE0E7" filter="url(#a)"/><path fill-rule="evenodd" clip-rule="evenodd" d="M9.435 3.28C6.769 1.806 1 3.954 1 7l2.5 195.956a4 4 0 0 0 2.065 3.501L103.5 263c2.666 1.473 8-1.735 8-4.781V62.044a4 4 0 0 0-2.065-3.5L9.435 3.28z" fill="url(#b)"/><path fill-rule="evenodd" clip-rule="evenodd" d="M6.27 4.529C3.596 3.069.338 5.014.353 8.06l1.01 196.172a4.001 4.001 0 0 0 2.082 3.491l100.283 54.748c2.674 1.46 5.933-.485 5.917-3.531l-1.009-196.173a3.998 3.998 0 0 0-2.083-3.49L6.27 4.53z" fill="#fff"/><path fill-rule="evenodd" clip-rule="evenodd" d="M1 200.815v3.155a4 4 0 0 0 2.065 3.501l101.109 55.876c2.168 1.198 4.826-.37 4.826-2.847L1 200.815z" fill="#569FF5"/><defs><filter id="a" x="1" y="3.775" width="124" height="275.45" filterUnits="userSpaceOnUse" color-interpolation-filters="sRGB"><feFlood flood-opacity="0" result="BackgroundImageFix"/><feBlend in="SourceGraphic" in2="BackgroundImageFix" result="shape"/><feGaussianBlur stdDeviation="4" result="effect1_foregroundBlur"/></filter><linearGradient id="b" x1="3.062" y1="54.611" x2="137.209" y2="92.876" gradientUnits="userSpaceOnUse"><stop stop-color="#E4E7EF"/><stop offset=".728" stop-color="#E5E9F2"/><stop offset=".787" stop-color="#C3CBE0"/><stop offset="1" stop-color="#ABB4CD"/></linearGradient></defs></svg>