<svg width="124" height="281" viewBox="0 0 124 281" fill="none" xmlns="http://www.w3.org/2000/svg"><path fill-rule="evenodd" clip-rule="evenodd" d="M13.935 13.28C11.269 11.806 8 13.735 8 16.78v196.176a4 4 0 0 0 2.065 3.501l100 55.263c2.666 1.474 5.935-.455 5.935-3.501V72.044a4 4 0 0 0-2.065-3.5l-100-55.264z" fill="#DBE0E7" filter="url(#a)"/><path fill-rule="evenodd" clip-rule="evenodd" d="M8.935 2.28C6.269.806.5 2.954.5 6L3 201.956a4 4 0 0 0 2.065 3.501L103 262c2.666 1.473 8-1.735 8-4.781V61.044a4 4 0 0 0-2.065-3.5L8.935 2.28z" fill="url(#b)"/><path fill-rule="evenodd" clip-rule="evenodd" d="M5.935 3.28C3.269 1.806 0 3.735 0 6.78v196.176a4 4 0 0 0 2.065 3.501l100 55.263c2.666 1.474 5.935-.455 5.935-3.501V62.044a4 4 0 0 0-2.065-3.5L5.935 3.28z" fill="#fff"/><path fill-rule="evenodd" clip-rule="evenodd" d="M0 199v4.154a4 4 0 0 0 2.065 3.501L102.3 262.048c2.561 1.415 5.701-.437 5.701-3.363L0 199z" fill="#40CD78"/><defs><filter id="a" x="0" y="4.775" width="124" height="275.45" filterUnits="userSpaceOnUse" color-interpolation-filters="sRGB"><feFlood flood-opacity="0" result="BackgroundImageFix"/><feBlend in="SourceGraphic" in2="BackgroundImageFix" result="shape"/><feGaussianBlur stdDeviation="4" result="effect1_foregroundBlur"/></filter><linearGradient id="b" x1="2.562" y1="53.611" x2="136.709" y2="91.876" gradientUnits="userSpaceOnUse"><stop stop-color="#E4E7EF"/><stop offset=".728" stop-color="#E5E9F2"/><stop offset=".787" stop-color="#C3CBE0"/><stop offset="1" stop-color="#ABB4CD"/></linearGradient></defs></svg>