<svg width="30" height="35" viewBox="0 0 30 35" fill="none" xmlns="http://www.w3.org/2000/svg"><g clip-path="url(#a)"><path d="M25.16 6.171l3 1.005a11.181 11.181 0 0 0-5.639-5.433l-3-1.005a11.181 11.181 0 0 1 5.638 5.433z" fill="#2BA96C"/><path d="M19.518.738l3.002 1.005-.605-.218L18.913.52c.206.06.4.146.605.218z" fill="#28734C"/><path d="M7.999 32.987l3 1.004c3.764 1.21 8.241.23 12.101-3.255a21.128 21.128 0 0 0 5.724-9.027l-3-1.004a21.019 21.019 0 0 1-5.725 9.027c-3.848 3.485-8.325 4.513-12.1 3.255z" fill="#2BA96C"/><path d="M25.811 20.753l3.001 1.004a19.361 19.361 0 0 0-.653-14.581L25.158 6.17a19.362 19.362 0 0 1 .653 14.582z" fill="#35B477"/><path d="M25.158 6.171c-3.63-7.175-11.883-8.252-18.345-2.42C.352 9.584-1.91 20.184 1.755 27.36c3.667 7.176 11.883 8.24 18.333 2.42 6.45-5.82 8.737-16.433 5.07-23.609z" fill="#3BDC8E"/><path d="M9.706 27.686l.833.044c.29.015.56-.286.776-.917l-.834-.044c-.227.63-.485.932-.788.916" fill="#7D94BA"/><path d="M10.494 26.77l.833.056.483-1.369-.845-.044-.471 1.357z" fill="#7D94BA"/><path d="M10.707 20.662l.834.043a1.72 1.72 0 0 1-.07-.27l-.835-.044c.018.092.042.182.07.27z" fill="#AFC0DB"/><path d="M10.636 20.391l.834.044a2.41 2.41 0 0 1 .016-.314l-.834-.044a1.523 1.523 0 0 0-.017.326m-.033-.34l.834.043a1.21 1.21 0 0 1 .015-.29l-.834-.043a1.21 1.21 0 0 0-.015.29zm.016-.29l.834.043c0-.117.007-.234.019-.35l-.834-.044a1.63 1.63 0 0 0-.018.338" fill="#95AACB"/><path d="M10.684 19.437l.834.043a1.18 1.18 0 0 1 .008-.157c.215-.63.548-.965.988-1.039l-.834-.043c-.456.065-.79.41-1 1.038l-.008.157" fill="#7D94BA"/><path d="M11.727 18.243l.834.044a3.94 3.94 0 0 1 .716-.023l-.834-.044a2.531 2.531 0 0 0-.716.023z" fill="#8397B8"/><path d="M14.03 14.583l.834.044c-.383-.08-.768-.137-1.14-.193l-.835-.044c.375.02.758.113 1.13.193" fill="#95AACB"/><path d="M14.255 22.508l.834.043a6.419 6.419 0 0 0-1.195-.305 4.695 4.695 0 0 1-1.194-.353l-.846-.044c.4.172.823.288 1.255.344.409.06.81.166 1.195.317" fill="#BBCCE7"/><path d="M11.794 21.846l.846.044a3.048 3.048 0 0 1-.39-.202 1.55 1.55 0 0 1-.3-.258l-.847-.045c.089.1.19.186.302.258l.388.215m-.69-.485l.846.044a1.767 1.767 0 0 1-.293-.427l-.845-.044c.077.155.175.3.292.427z" fill="#BBCCE7"/><path d="M10.81 20.946l.847.044a2.126 2.126 0 0 1-.118-.297l-.834-.044c.028.098.064.193.106.285m4.7-12.647l.895.047-.284-.136-.846-.044.284.136m-.357-.14l.846.044a4.682 4.682 0 0 0-1.251-.393l-.786-.04c.415.063.816.19 1.192.377" fill="#BBCCE7"/><path d="M13.054 26.02l.834.043c.218.023.44.014.655-.026a1.658 1.658 0 0 0 1.365-1.068c.003-.06.007-.133.07-.19l-.845-.044c.003.064 0 .13-.01.193a1.646 1.646 0 0 1-1.365 1.068 2.842 2.842 0 0 1-.656.038" fill="#95AACB"/><path d="M15.098 24.72l.846.045c.018-.128.025-.257.02-.387l-.833-.043c-.016.13-.043.258-.081.383" fill="#AFC0DB"/><path d="M15.177 24.337l.834.044c.017-.096.022-.193.015-.29l-.833-.044-.016.29z" fill="#AFC0DB"/><path d="M15.192 24.047l.833.044a2.55 2.55 0 0 0 .016-.29l-.846-.044c0 .096-.005.193-.015.29" fill="#AFC0DB"/><path d="M15.16 23.755l.847.044-.06-.233a1.492 1.492 0 0 0-.11-.248l-.833-.044c.037.084.069.171.096.26.03.07.051.144.06.22z" fill="#BBCCE7"/><path d="M15.003 23.274l.833.044a1.452 1.452 0 0 0-.28-.415l-.834-.044c.11.126.206.265.28.415z" fill="#BBCCE7"/><path d="M14.721 22.86l.834.043a1.82 1.82 0 0 0-.36-.31l-.833-.043c.13.086.251.185.36.297" fill="#BBCCE7"/><path d="M16.925 6.507l.786.041-.133-.007-.846-.044.141.08" fill="#DAE4F6"/><path d="M16.724 9.163l.834.043.385-1.094-.834-.056-.385 1.107z" fill="#95AACB"/><path d="M17.11 8.056l.847.044.012-.23-.834-.043c-.02.073-.044.144-.072.214" fill="#BBCCE7"/><path d="M17.181 7.841l.834.044c.042-.133.074-.269.094-.407l-.846-.044a3.12 3.12 0 0 1-.021.41" fill="#BBCCE7"/><path d="M17.26 7.482l.846.044.011-.217-.846-.044a.729.729 0 0 1-.012.23m.017-.291l.845.045.01-.182-.834-.043c.003.06 0 .12-.01.18m-.025-.182l.834.043a.58.58 0 0 0-.073-.222l-.834-.043c.034.07.058.145.073.222z" fill="#BBCCE7"/><path d="M17.189 6.8l.833.043a.544.544 0 0 0-.112-.175l-.833-.044c.044.05.082.105.112.164" fill="#BBCCE7"/><path d="M17.076 6.636l.834.044-.151-.129-.834-.044.15.13z" fill="#BBCCE7"/><path d="M14.482 18.472l.846.045a3.982 3.982 0 0 0 1.596-.183 3.63 3.63 0 0 0 1.991-2.38c.055-.14.1-.283.132-.43l-.834-.043-.132.43a3.63 3.63 0 0 1-1.99 2.38 3.885 3.885 0 0 1-1.609.17" fill="#95AACB"/><path d="M18.21 15.493l.835.044c.111-.368.188-.745.228-1.127l-.833-.044a7.59 7.59 0 0 1-.23 1.127z" fill="#AFC0DB"/><path d="M18.438 14.366l.834.044a6.49 6.49 0 0 0 .05-.955l-.834-.044c.007.32-.01.639-.05.955z" fill="#AFC0DB"/><path d="M18.489 13.411l.834.044a6.428 6.428 0 0 0-.115-1.048l-.834-.044c.063.346.101.697.115 1.048z" fill="#BBCCE7"/><path d="M18.372 12.387l.834.044c.009-.064.012-.129.01-.193a5.898 5.898 0 0 0-.495-1.42l-.834-.043c.218.453.384.929.495 1.419l-.01.205m-.529-1.663l.858.045a5.6 5.6 0 0 0-.991-1.446l-.834-.043c.397.432.731.919.99 1.445" fill="#BBCCE7"/><path d="M16.85 9.29l.834.044-.126-.14-.833-.044.126.128" fill="#BBCCE7"/><path d="M16.924 6.507c-.281-.184-.488-.17-.64-.033-.19.217-.328.475-.404.754l-.368 1.023a4.308 4.308 0 0 0-1.874-.547 1.561 1.561 0 0 0-1.634 1.126 1.706 1.706 0 0 0 .575 2.212c.345.195.725.322 1.119.373a2.7 2.7 0 0 1 1.072.347c.319.201.57.493.72.838.158.387.165.82.021 1.213a1.21 1.21 0 0 1-.37.598 1.61 1.61 0 0 1-1.112.16 17.66 17.66 0 0 0-1.201-.196 3.909 3.909 0 0 0-4.68 2.808 7.043 7.043 0 0 0-.213 4.085 5.88 5.88 0 0 0 1.867 3.224l-.512 1.44c-.285.808-.228 1.332.182 1.608.41.276.765-.02 1.05-.83l.482-1.355a4.627 4.627 0 0 0 2.697.565 1.645 1.645 0 0 0 1.365-1.068c.18-.437.206-.923.072-1.377a1.706 1.706 0 0 0-.737-.972 4.38 4.38 0 0 0-1.313-.372 4.319 4.319 0 0 1-1.643-.558 1.718 1.718 0 0 1-.7-.97 2.081 2.081 0 0 1 .072-1.378c.21-.627.543-.973 1-1.038a5.178 5.178 0 0 1 1.679.088 5.372 5.372 0 0 0 2.68-.041 3.63 3.63 0 0 0 1.99-2.38 7.03 7.03 0 0 0 .198-3.77 6.05 6.05 0 0 0-1.612-2.993l.385-1.106c.243-.703.185-1.215-.213-1.478z" fill="#fff"/></g><defs><clipPath id="a"><path fill="#fff" transform="matrix(-1 0 0 1 29.914 0)" d="M0 0h29.913v34.56H0z"/></clipPath></defs></svg>