<svg width="28" height="32" viewBox="0 0 28 32" fill="none" xmlns="http://www.w3.org/2000/svg"><g clip-path="url(#a)"><path d="M4.342 5.636l-2.74.917a10.21 10.21 0 0 1 5.15-4.962l2.74-.917a10.21 10.21 0 0 0-5.15 4.962z" fill="#3EAD7E"/><path d="M9.49.674l-2.74.917.553-.199 2.74-.917c-.188.055-.365.133-.552.2z" fill="#28734C"/><path d="M20.012 30.123l-2.74.918c-3.437 1.105-7.526.21-11.051-2.973a19.294 19.294 0 0 1-5.227-8.244l2.74-.917a19.195 19.195 0 0 0 5.227 8.244c3.514 3.182 7.603 4.122 11.05 2.973z" fill="#3EAD7E"/><path d="M3.745 18.951l-2.74.918A17.68 17.68 0 0 1 1.6 6.553l2.74-.917a17.68 17.68 0 0 0-.596 13.316z" fill="#35B477"/><path d="M4.342 5.636c3.315-6.553 10.852-7.537 16.753-2.21 5.9 5.326 7.967 15.006 4.619 21.559-3.349 6.553-10.852 7.525-16.742 2.21C3.082 21.88.994 12.19 4.342 5.635z" fill="#2CD282"/><path d="M18.454 25.282l-.762.04c-.265.014-.511-.26-.708-.837l.762-.04c.207.576.443.851.719.837" fill="#7D94BA"/><path d="M17.734 24.446l-.761.051-.442-1.25.773-.04.43 1.24z" fill="#7D94BA"/><path d="M17.54 18.868l-.762.04c.029-.08.05-.163.065-.247l.761-.04a2.063 2.063 0 0 1-.064.247z" fill="#AFC0DB"/><path d="M17.605 18.621l-.762.04a2.2 2.2 0 0 0-.015-.287l.762-.04c.015.099.02.199.015.298m.028-.312l-.762.04a1.104 1.104 0 0 0-.014-.264l.762-.04c.015.087.02.176.014.265z" fill="#95AACB"/><path d="M17.62 18.056l-.761.04c0-.107-.006-.214-.017-.32l.761-.04c.016.102.022.206.016.31" fill="#95AACB"/><path d="M17.56 17.75l-.762.04c0-.049-.002-.097-.008-.144-.196-.576-.5-.881-.901-.949l.761-.04c.416.06.72.376.913.948l.007.144" fill="#7D94BA"/><path d="M16.607 16.66l-.761.04a3.6 3.6 0 0 0-.654-.022l.761-.04c.218-.024.438-.016.654.022z" fill="#8397B8"/><path d="M14.504 13.317l-.761.04c.35-.073.701-.125 1.042-.176l.761-.04c-.342.018-.692.103-1.03.176" fill="#95AACB"/><path d="M14.3 20.554l-.76.04a5.842 5.842 0 0 1 1.091-.279 4.292 4.292 0 0 0 1.09-.322l.772-.04c-.365.157-.75.262-1.145.314a4.94 4.94 0 0 0-1.092.29" fill="#BBCCE7"/><path d="M16.549 19.95l-.773.04c.123-.053.242-.115.356-.185.101-.066.194-.145.275-.236l.772-.04c-.08.09-.173.17-.275.236l-.355.195m.63-.442l-.773.04a1.61 1.61 0 0 0 .268-.39l.772-.04c-.07.142-.16.273-.267.39zm.266-.39l-.773.04c.043-.087.079-.178.108-.271l.761-.04a1.77 1.77 0 0 1-.097.26M13.152 7.568l-.816.043.259-.125.772-.04-.259.124m.325-.128l-.773.04a4.279 4.279 0 0 1 1.143-.358l.717-.037a3.724 3.724 0 0 0-1.088.344" fill="#BBCCE7"/><path d="M15.395 23.76l-.761.04a2.07 2.07 0 0 1-.599-.023 1.514 1.514 0 0 1-1.246-.975c-.003-.055-.006-.122-.064-.174l.772-.04a.835.835 0 0 0 .01.176 1.503 1.503 0 0 0 1.245.975 2.6 2.6 0 0 0 .6.035" fill="#95AACB"/><path d="M13.529 22.575l-.772.04a2.074 2.074 0 0 1-.019-.353l.761-.04c.014.12.039.236.074.35" fill="#AFC0DB"/><path d="M13.457 22.225l-.761.04a1.103 1.103 0 0 1-.014-.265l.761-.04.014.265zm-.014-.265l-.761.04a2.233 2.233 0 0 1-.014-.265l.773-.04c-.001.088.003.176.013.264" fill="#AFC0DB"/><path d="M13.473 21.693l-.773.04.056-.213a1.33 1.33 0 0 1 .098-.226l.762-.04a2.082 2.082 0 0 0-.087.237.703.703 0 0 0-.056.202z" fill="#BBCCE7"/><path d="M13.616 21.254l-.761.04c.063-.14.15-.269.257-.38l.761-.039a1.76 1.76 0 0 0-.257.379z" fill="#BBCCE7"/><path d="M13.873 20.875l-.761.04c.096-.108.206-.203.328-.283l.761-.04a2 2 0 0 0-.329.272" fill="#BBCCE7"/><path d="M11.862 5.942l-.717.038.12-.006.773-.04-.129.072" fill="#DAE4F6"/><path d="M12.043 8.367l-.762.04-.35-1 .76-.05.352 1.01z" fill="#95AACB"/><path d="M11.692 7.357l-.773.04-.01-.21.76-.04c.019.067.04.132.066.196" fill="#BBCCE7"/><path d="M11.627 7.16l-.762.04a2.44 2.44 0 0 1-.086-.371l.773-.04a2.8 2.8 0 0 0 .02.375" fill="#BBCCE7"/><path d="M11.554 6.833l-.772.04-.01-.199.772-.04a.665.665 0 0 0 .01.21m-.014-.265l-.772.04-.008-.165.761-.04a.83.83 0 0 0 .009.165m.023-.167l-.761.04a.53.53 0 0 1 .066-.203l.762-.04a.827.827 0 0 0-.067.203z" fill="#BBCCE7"/><path d="M11.621 6.21l-.761.04a.496.496 0 0 1 .102-.16l.761-.04a.708.708 0 0 0-.103.148" fill="#BBCCE7"/><path d="M11.722 6.06l-.761.04.137-.118.762-.04-.138.118z" fill="#BBCCE7"/><path d="M14.095 16.869l-.773.04a3.636 3.636 0 0 1-1.458-.167 3.314 3.314 0 0 1-1.818-2.173 2.626 2.626 0 0 1-.12-.392l.761-.04.12.392a3.314 3.314 0 0 0 1.818 2.173c.474.155.974.208 1.47.156" fill="#95AACB"/><path d="M10.689 14.148l-.761.04a5.614 5.614 0 0 1-.21-1.03l.762-.04c.044.349.114.693.209 1.03z" fill="#AFC0DB"/><path d="M10.48 13.119l-.762.04a5.757 5.757 0 0 1-.045-.872l.761-.04c-.007.291.009.583.046.872z" fill="#AFC0DB"/><path d="M10.434 12.247l-.761.04c.008-.321.043-.642.105-.957l.761-.04a6.807 6.807 0 0 0-.105.957z" fill="#BBCCE7"/><path d="M10.54 11.312l-.761.04a1.04 1.04 0 0 1-.01-.177c.095-.45.247-.885.453-1.296l.761-.04c-.199.414-.35.849-.452 1.296l.01.188m.483-1.519l-.784.041c.23-.485.536-.93.905-1.32l.761-.04c-.362.395-.667.84-.904 1.32" fill="#BBCCE7"/><path d="M11.93 8.484l-.761.04.114-.128.762-.04-.116.117" fill="#BBCCE7"/><path d="M11.862 5.942c.257-.168.446-.156.585-.03.173.198.3.434.368.689l.337.934a3.934 3.934 0 0 1 1.71-.5 1.426 1.426 0 0 1 1.493 1.029 1.559 1.559 0 0 1-.525 2.02 2.808 2.808 0 0 1-1.022.34 2.463 2.463 0 0 0-.98.317c-.29.184-.519.45-.656.765a1.54 1.54 0 0 0-.02 1.108c.057.211.174.402.339.546.31.17.67.22 1.014.146.35-.073.713-.126 1.098-.179a3.57 3.57 0 0 1 4.272 2.565 6.43 6.43 0 0 1 .196 3.73 5.371 5.371 0 0 1-1.705 2.944l.468 1.314c.26.74.207 1.218-.167 1.47s-.698-.02-.958-.758l-.441-1.238a4.221 4.221 0 0 1-2.463.516 1.503 1.503 0 0 1-1.246-.975 1.89 1.89 0 0 1-.066-1.258c.107-.368.347-.684.673-.887a4.01 4.01 0 0 1 1.2-.34 3.943 3.943 0 0 0 1.5-.51c.312-.209.539-.523.64-.885a1.9 1.9 0 0 0-.067-1.258c-.192-.573-.496-.89-.913-.948a4.731 4.731 0 0 0-1.534.08 4.907 4.907 0 0 1-2.447-.038 3.315 3.315 0 0 1-1.818-2.173 6.42 6.42 0 0 1-.18-3.443 5.525 5.525 0 0 1 1.472-2.733l-.352-1.01c-.222-.642-.168-1.11.195-1.35z" fill="#fff"/></g><defs><clipPath id="a"><path fill="#fff" d="M0 0h27.317v31.56H0z"/></clipPath></defs></svg>