<svg width="52" height="50" viewBox="0 0 52 50" fill="none" xmlns="http://www.w3.org/2000/svg"><g clip-path="url(#a)"><path d="M8.814 28.635l-.65 3.564a12.799 12.799 0 0 1-2.335-8.654l.65-3.564a12.8 12.8 0 0 0 2.335 8.654zM6.479 19.98l-.65 3.564.116-.727.65-3.563c-.054.24-.076.48-.116.726zm38.697 6.25l-.65 3.564c-.864 4.441-4.318 8.39-9.944 10.337a24.185 24.185 0 0 1-12.212.757l.65-3.564a24.06 24.06 0 0 0 12.212-.756c5.619-1.935 9.121-5.857 9.944-10.338z" fill="#2BA96C"/><path d="M23.074 37.339l-.65 3.563a22.163 22.163 0 0 1-14.26-8.704l.649-3.564a22.162 22.162 0 0 0 14.261 8.705z" fill="#35B477"/><path d="M8.814 28.634c-5.192-7.601-1.717-16.471 7.7-19.731 9.415-3.26 21.294.322 26.466 7.96 5.172 7.637 1.704 16.465-7.693 19.72-9.397 3.254-21.302-.31-26.473-7.949z" fill="#2CD282"/><path d="M38.918 25.017l-.417.86c-.145.3-.595.404-1.347.271l.417-.86c.757.12 1.202.028 1.353-.284" fill="#7D94BA"/><path d="M37.564 25.3l-.404.867-1.638-.27.422-.873 1.62.276z" fill="#7D94BA"/><path d="M31.323 22.142l-.416.86a1.97 1.97 0 0 0-.232-.22l.416-.86c.082.069.16.142.232.22z" fill="#AFC0DB"/><path d="M31.09 21.922l-.416.86a2.773 2.773 0 0 0-.324-.157l.416-.86c.118.042.23.096.337.163m-.323-.221l-.416.86a1.39 1.39 0 0 0-.3-.144l.417-.86c.105.035.206.084.3.144zm-.3-.144l-.417.86a4.01 4.01 0 0 0-.362-.175l.417-.86c.122.044.239.1.349.169" fill="#95AACB"/><path d="M30.107 21.443l-.417.86a1.28 1.28 0 0 0-.162-.078c-.751-.133-1.27.016-1.587.417l.417-.86c.317-.422.848-.565 1.593-.43l.162.079" fill="#7D94BA"/><path d="M28.333 21.832l-.416.86c-.16.222-.3.458-.419.705l.417-.86c.105-.254.246-.491.418-.705z" fill="#8397B8"/><path d="M23.392 22.12l-.417.86c.13-.43.287-.846.436-1.251l.417-.86c-.187.386-.306.821-.43 1.238" fill="#95AACB"/><path d="M31.215 26.72l-.416.86c.073-.466.192-.924.354-1.368.163-.448.265-.916.304-1.391l.423-.873a5.373 5.373 0 0 1-.347 1.448 6.19 6.19 0 0 0-.342 1.373" fill="#BBCCE7"/><path d="M31.91 23.886l-.423.873c.016-.167.02-.335.012-.503a1.775 1.775 0 0 0-.092-.444l.422-.873c.051.143.082.293.093.445v.508m-.105-.959l-.422.872a2.023 2.023 0 0 0-.267-.529l.422-.872c.113.163.203.34.267.529zm-.267-.53l-.423.873c-.07-.1-.148-.194-.232-.282l.416-.86c.082.081.158.17.226.263M16.26 20.13l-.446.922.02-.36.423-.872-.02.36" fill="#BBCCE7"/><path d="M16.294 19.745l-.422.873c.03-.503.13-.998.297-1.473l.392-.81c-.165.45-.259.924-.28 1.404" fill="#BBCCE7"/><path d="M35.4 27.453l-.417.86a2.594 2.594 0 0 1-.389.643 1.898 1.898 0 0 1-1.823.78c-.063-.03-.138-.067-.23-.035l.423-.873a.99.99 0 0 0 .199.097 1.884 1.884 0 0 0 1.824-.78c.157-.195.292-.409.4-.636" fill="#95AACB"/><path d="M32.97 28.785l-.422.873a2.591 2.591 0 0 1-.4-.193l.417-.86c.139.056.282.1.43.13m-.455-.081l-.416.86a1.385 1.385 0 0 1-.3-.145l.417-.86.3.145z" fill="#AFC0DB"/><path d="M32.241 28.509l-.416.86a2.787 2.787 0 0 1-.3-.145l.423-.873c.097.054.197.103.3.145" fill="#AFC0DB"/><path d="M31.965 28.315l-.422.872-.2-.19a1.715 1.715 0 0 1-.19-.245l.417-.86c.064.084.133.164.207.24.053.07.117.131.188.183z" fill="#BBCCE7"/><path d="M31.57 27.892l-.416.86a1.664 1.664 0 0 1-.26-.51l.416-.86a2.2 2.2 0 0 0 .26.51zm-.26-.511l-.417.86a2.078 2.078 0 0 1-.112-.531l.416-.86c.014.178.048.354.1.525" fill="#BBCCE7"/><path d="M13.695 20.564l-.392.81.066-.136.423-.873.002.186" fill="#DAE4F6"/><path d="M16.47 21.83l-.417.86-1.31-.218.404-.866 1.322.224z" fill="#95AACB"/><path d="M15.146 21.605l-.423.873-.237-.115.417-.86c.084.02.169.036.254.046" fill="#BBCCE7"/><path d="M14.892 21.557l-.416.86a3.064 3.064 0 0 1-.46-.13l.422-.872c.137.077.278.146.424.205" fill="#BBCCE7"/><path d="M14.487 21.438l-.423.873-.224-.109.422-.872a.85.85 0 0 0 .237.114m-.298-.144l-.422.873-.187-.091.416-.86c.06.036.122.066.187.09" fill="#BBCCE7"/><path d="M14.026 21.186l-.417.86a.664.664 0 0 1-.182-.195l.417-.86c.052.072.113.138.182.195zm-.183-.196l-.416.86a.626.626 0 0 1-.115-.209l.417-.86c.025.072.059.14.102.203" fill="#BBCCE7"/><path d="M13.74 20.787l-.416.86-.046-.222.416-.86.046.222z" fill="#BBCCE7"/><path d="M27.042 24.718l-.422.873a4.558 4.558 0 0 1-1.065 1.5 4.155 4.155 0 0 1-3.485.683 3.283 3.283 0 0 1-.504-.105l.417-.86.503.105a4.156 4.156 0 0 0 3.485-.683 4.445 4.445 0 0 0 1.059-1.519" fill="#95AACB"/><path d="M21.997 26.813l-.416.86a7.038 7.038 0 0 1-1.257-.393l.417-.86c.408.162.828.294 1.256.393z" fill="#AFC0DB"/><path d="M20.74 26.42l-.416.86a7.226 7.226 0 0 1-.985-.477l.417-.86c.315.184.645.343.985.477z" fill="#AFC0DB"/><path d="M19.756 25.943l-.416.86a7.356 7.356 0 0 1-.988-.693l.416-.86c.313.254.643.485.988.693z" fill="#BBCCE7"/><path d="M18.792 25.261l-.417.86a1.31 1.31 0 0 1-.199-.096 6.745 6.745 0 0 1-1.15-1.28l.416-.86c.335.468.72.897 1.15 1.28l.213.102m-1.376-1.449l-.429.886a6.413 6.413 0 0 1-.902-1.792l.416-.86c.214.637.518 1.24.903 1.791m-.891-1.818l-.416.86-.071-.203.416-.86.059.197" fill="#BBCCE7"/><path d="M13.696 20.563c-.03-.384.098-.583.32-.66.322-.071.657-.067.979.012l1.229.194c-.007-.754.16-1.5.486-2.18a1.787 1.787 0 0 1 2.031-1.017 1.953 1.953 0 0 1 1.9 1.797 3.52 3.52 0 0 1-.243 1.328c-.17.4-.253.833-.244 1.267.026.43.18.843.443 1.184.301.372.73.619 1.204.691.267.066.547.052.805-.041.373-.238.647-.603.774-1.026.13-.43.292-.859.466-1.313a4.474 4.474 0 0 1 5.4-3.142 8.062 8.062 0 0 1 4.213 2.04 6.731 6.731 0 0 1 2.203 3.652l1.726.281c.968.161 1.462.508 1.513 1.07.05.564-.443.756-1.411.595l-1.627-.264a5.291 5.291 0 0 1-.922 3.016 1.884 1.884 0 0 1-1.823.78 2.368 2.368 0 0 1-1.422-.689 1.953 1.953 0 0 1-.567-1.275 5.014 5.014 0 0 1 .352-1.522 4.947 4.947 0 0 0 .347-1.956 1.968 1.968 0 0 0-.586-1.238 2.382 2.382 0 0 0-1.421-.688c-.746-.135-1.277.009-1.593.43a5.927 5.927 0 0 0-.84 1.733 6.15 6.15 0 0 1-1.52 2.664 4.156 4.156 0 0 1-3.485.683 8.048 8.048 0 0 1-3.89-1.883 6.926 6.926 0 0 1-2.111-3.269l-1.323-.224c-.838-.145-1.32-.485-1.363-1.03z" fill="#fff"/></g><defs><clipPath id="a"><path fill="#fff" transform="rotate(-61.168 25.377 14.998)" d="M0 0h34.241v39.56H0z"/></clipPath></defs></svg>