<svg width="622" height="617" viewBox="0 0 622 617" fill="none" xmlns="http://www.w3.org/2000/svg"><path opacity=".45" fill-rule="evenodd" clip-rule="evenodd" d="M309.5 0C-10 0 67 108 67 108L1.373 495.531A43.352 43.352 0 0 0 0 506.316C0 569.276 139.239 617 311 617s311-47.724 311-110.684c0-3.615-.459-7.191-1.357-10.721L556 108S629 0 309.5 0z" fill="url(#a)" fill-opacity=".3"/><path opacity=".5" d="M561 173c-18.5 31.5-114.004 56-246 56-131.996 0-238-23.5-250-56" stroke="url(#b)" stroke-width="4"/><path d="M585 140c-20.29 34.598-125.037 67-269.806 67C170.424 207 54.161 175.697 41 140" stroke="url(#c)" stroke-width="4"/><path d="M65 104c18.5-31.5 114.004-66 246-66 131.996 0 238 33.5 250 66" stroke="url(#d)" stroke-width="4"/><defs><linearGradient id="a" x1="66.995" y1="245.583" x2="556.017" y2="244.835" gradientUnits="userSpaceOnUse"><stop stop-color="#87BEF2"/><stop offset=".49" stop-color="#BFC4ED"/><stop offset=".522" stop-color="#9EA4D1"/><stop offset="1" stop-color="#702FEC"/></linearGradient><linearGradient id="b" x1="76" y1="138.166" x2="554.021" y2="134.655" gradientUnits="userSpaceOnUse"><stop stop-color="#fff" stop-opacity="0"/><stop offset=".26" stop-color="#fff"/><stop offset="1" stop-color="#fff" stop-opacity="0"/></linearGradient><linearGradient id="c" x1="53.065" y1="101.739" x2="577.346" y2="97.894" gradientUnits="userSpaceOnUse"><stop stop-color="#fff" stop-opacity="0"/><stop offset=".26" stop-color="#fff"/><stop offset="1" stop-color="#fff" stop-opacity="0"/></linearGradient><linearGradient id="d" x1="550" y1="138.834" x2="71.979" y2="142.345" gradientUnits="userSpaceOnUse"><stop stop-color="#fff" stop-opacity="0"/><stop offset=".26" stop-color="#fff"/><stop offset="1" stop-color="#fff" stop-opacity="0"/></linearGradient></defs></svg>