<svg width="134" height="266" viewBox="0 0 134 266" fill="none" xmlns="http://www.w3.org/2000/svg"><ellipse cx="66" cy="227" rx="65" ry="39" fill="url(#a)"/><ellipse cx="65" cy="217" rx="65" ry="39" fill="#fff"/><path fill-rule="evenodd" clip-rule="evenodd" d="M80.257 10.623s1.487 4.061 1.635 7.742c.148 3.68 1.545 16.197 1.345 17.792-.2 1.595-1.039 2.772-4.952 2.835-3.912.062-4.934.08-4.934.08s-.546 1.137-.916 2.354c-.371 1.218-.553 4.406-.553 4.406s-6.044.416-9.09-.921c-3.046-1.337-3.69-4.284-3.69-4.284s1.02-3.456 1.05-5.091c.03-1.636-3.626-4.618-5.26-10.63-1.635-6.014.34-10.971 2.407-13.33 2.068-2.36 6.922-6.685 13.493-6.931 6.572-.247 9.465 5.978 9.465 5.978z" fill="#FFD1D9"/><mask id="b" maskUnits="userSpaceOnUse" x="53" y="4" width="31" height="43"><path fill-rule="evenodd" clip-rule="evenodd" d="M80.257 10.623s1.487 4.061 1.635 7.742c.148 3.68 1.545 16.197 1.345 17.792-.2 1.595-1.039 2.772-4.952 2.835-3.912.062-4.934.08-4.934.08s-.546 1.137-.916 2.354c-.371 1.218-.553 4.406-.553 4.406s-6.044.416-9.09-.921c-3.046-1.337-3.69-4.284-3.69-4.284s1.02-3.456 1.05-5.091c.03-1.636-3.626-4.618-5.26-10.63-1.635-6.014.34-10.971 2.407-13.33 2.068-2.36 6.922-6.685 13.493-6.931 6.572-.247 9.465 5.978 9.465 5.978z" fill="#fff"/></mask><g mask="url(#b)" fill-rule="evenodd" clip-rule="evenodd"><path d="M72.545 25.673c-.472-.641-.85-1.224-2.663-1.234-1.814-.011-2.659 2.989-1.137 4.994 1.522 2.005 3.122 2.807 3.8 2.666.678-.141 1.18-1.165 1.06-1.996-.12-.832-.588-3.789-1.06-4.43z" fill="#E5B6BE"/><path d="M73.937 27.055l1.486-.441s1.18 4.902 2.411 5.905c1.231 1.004 3.43-.376 3.763-1.784.334-1.408 1.503-3.39 1.503-3.39s2.439-1.041 2.604.96c.165 2 1.442 7.46.632 9.874-.81 2.415-.287 2.895-5.52 3.538-5.233.642-6.368-.992-7.397-2.612s-1.303-3.847-1.153-4.651c.149-.804 1.716-1.98 1.927-3.582.21-1.604-.256-3.817-.256-3.817z" fill="#2C2E32"/></g><path fill-rule="evenodd" clip-rule="evenodd" d="M59.93 35.406c.838.524 1.857.477 2.896.25 1.04-.226 3.983-2.097 4.725-4.246.742-2.148 1.97-7.142 3.165-7.224 1.196-.081 2.466.45 3.132 2.576.666 2.126 1.644-.03 1.644-.03s-.025-3.456.255-4.687c.28-1.231 2.85-4.338 2.41-5.157-.437-.818-1.798-2.117-1.85-2.535-.05-.419 3.6-2.986 4.243-4.589.643-1.602.787-3.488-1.064-5.796-1.85-2.307-9.228-5.123-17.233.579-8.004 5.702-7.091 10.42-7.091 10.42s-1.895 1.463-2.041 3.608c-.147 2.144-.148 5.31 1.87 9.509 2.017 4.198 4.1 6.798 4.939 7.322z" fill="#2C2E32"/><path fill-rule="evenodd" clip-rule="evenodd" d="M72.68 24.885c-.418-.642-.752-1.225-2.349-1.24-1.596-.015-2.334 2.983-.99 4.991 1.346 2.009 2.863 2.977 3.46 2.837.596-.14 1.173-.79 1.065-1.621-.107-.833-.77-4.324-1.187-4.967z" fill="#FFD7DE"/><path fill-rule="evenodd" clip-rule="evenodd" d="M56.236 201.505s-1.035-.146-1.26-2.057c-.227-1.911-7.074-.246-7.074-.246l-.304 6.017s2.834 1.851 5.161.368c2.328-1.482 3.477-4.082 3.477-4.082zm21.239 16.256l-.918-7.65-7.058.458-.909 6.93s2.292 1.533 4.47 1.586c2.177.053 4.415-1.324 4.415-1.324z" fill="#FFD1D9"/><path fill-rule="evenodd" clip-rule="evenodd" d="M72.983 214.774c2.902-.053 4.217-1.405 4.415-2.825.198-1.421 5.182-39.675 5.203-42.686.02-3.011 1.223-55.842 1.223-55.842s-26.488-14.577-31.385-12.183c-4.897 2.393-4.01 5.366-4.01 5.366s1.856 49.748 1.907 51.962c.052 2.215-3.133 39.099-2.973 41.034.16 1.936 1.573 2.654 3.625 2.739 2.052.085 3.617-.718 4.09-1.933.473-1.216 8.268-39.538 8.42-41.088.154-1.551 1.973-28.4 1.973-28.4s4.393 36.106 4.493 38.169c.1 2.063-1.49 41.189-1.322 42.486.168 1.296 1.439 3.255 4.341 3.201z" fill="#3729AA"/><path fill-rule="evenodd" clip-rule="evenodd" d="M68.012 217.974s-.214 2.896-.527 4.511c-.313 1.615-.247 5.194-.247 5.194s1.853 1.418 6.176 1.466c4.324.047 5.32-.882 9.766-.18 4.445.701 11.326-.796 11.044-4.056-.212-2.452-4.986-3.913-8.524-4.585-3.538-.672-4.139-.729-5.329-1.642-1.19-.913-2.413-2.452-2.413-2.452s-1.318 3.372-4.437 3.581c-3.118.21-5.509-1.837-5.509-1.837z" fill="#00FAFF"/><path fill-rule="evenodd" clip-rule="evenodd" d="M67.985 216.403s-.214 2.896-.527 4.511c-.313 1.615-.247 5.194-.247 5.194s1.853 1.419 6.176 1.466c4.323.047 5.32-.881 9.765-.18 4.446.701 11.327-.796 11.045-4.056-.212-2.451-4.986-3.912-8.524-4.584-3.538-.673-4.139-.729-5.329-1.642-1.19-.914-2.413-2.452-2.413-2.452s-1.319 3.371-4.437 3.581c-3.119.209-5.51-1.838-5.51-1.838z" fill="url(#c)"/><path fill-rule="evenodd" clip-rule="evenodd" d="M47.307 205.327s-.396 3.002-.52 4.887c-.124 1.884.07 3.836.07 3.836s.327 2.268 3.639 2.207c3.31-.061 5.713-3.032 7.273-4.73 1.56-1.697 4.13-2.497 5.786-4.292 1.657-1.794 1.727-3.434 1.727-3.434s-.063-1.661-.209-1.844c-.894-1.126-2.365-.278-4.015.074-2.879.613-5.332.363-5.332.363s.013 2.695-3.387 3.608c-3.4.913-5.032-.675-5.032-.675z" fill="#00FAFF"/><path fill-rule="evenodd" clip-rule="evenodd" d="M47.279 203.756s-.396 3.002-.52 4.887c-.125 1.885.07 3.836.07 3.836s.327 2.268 3.638 2.207c3.312-.06 5.397-2.847 6.956-4.545 1.56-1.697 4.31-2.438 5.966-4.233 1.657-1.795 1.683-3.919 1.683-3.919s-1.164-2.142-4.042-1.529c-2.88.613-5.333.363-5.333.363s.014 2.695-3.386 3.608c-3.4.913-5.032-.675-5.032-.675z" fill="url(#d)"/><path fill-rule="evenodd" clip-rule="evenodd" d="M47.33 40.987S35.114 67.272 35.217 72.861c.102 5.59 9.503 26.894 13.231 28.722 3.728 1.828 2.042-5.742 1.275-6.934-.768-1.192-5.751-18.145-5.787-20.053-.035-1.907 6.288-15.237 6.288-15.237l-2.892-18.372z" fill="url(#e)"/><path fill-rule="evenodd" clip-rule="evenodd" d="M74.531 50.571s2.097 1.875 3.915 2.582c1.819.707 5.067 3.887 5.461 5.541.395 1.655-1.2 15.043-1.148 23.68.052 8.635 1.723 32.434 1.723 32.434s-2.594 7.791-13.871 9.053c-11.278 1.263-21.014-4.346-22.383-6.873-1.369-2.527-3.085-41.745-3.211-48.585-.126-6.84-1.056-14.474-.368-19.965.341-2.724 1.469-5.943 3.003-8.224 1.557-2.315 4.456-2.71 6.453-1.589 3.963 2.224 3.672 2.026 3.672 2.026s-.27 4.044 5.363 5.8c5.632 1.757 11.391 4.12 11.391 4.12z" fill="url(#f)"/><path fill-rule="evenodd" clip-rule="evenodd" d="M59.079 40.17s-1.133.176-1.544.814c-.412.638-.967 2.112-1.018 3.336-.052 1.224 2.519 5.306 8.344 5.962 5.826.655 9.78.44 9.78.44s-.021-2.673-.558-3.673c-.538-1-1.53-1.827-3.739-1.786-2.208.04-4.146.396-7.22-1.065-3.073-1.46-4.045-4.027-4.045-4.027z" fill="#514AD3"/><path fill-rule="evenodd" clip-rule="evenodd" d="M117.658 42.08c.581-1.13.909-1.919.986-2.368.114-.674-.542-3.178-2.22-4.31-1.677-1.133-.231-3.38 1.426-2.563 1.104.545 1.904 1.368 2.4 2.47a51.399 51.399 0 0 0 1.362-3.627c.521-1.592 1.29-4.83 4.961-2.984 3.671 1.846 3.949 5.615 1.759 9.78-1.461 2.777-2.868 5.109-4.222 6.997l-6.452-3.394z" fill="#FFD1D9"/><path fill-rule="evenodd" clip-rule="evenodd" d="M78.3 68.368s2.521.972 9.432 2.1c6.912 1.128 17.612 2.833 20.431 2.12 2.82-.715 16.182-25.114 16.56-26.806.378-1.693-6.275-6.507-7.75-4.356-1.475 2.15-11.039 17.491-12.234 18.063-1.196.572-21.028-4.677-24.193-5.127-3.166-.45-4.866 2.56-5.34 5.671-.475 3.11 3.095 8.335 3.095 8.335z" fill="url(#g)"/><path fill-rule="evenodd" clip-rule="evenodd" d="M72.103 25.34s-1.063-.603-1.594-.386c-.53.217-.938 1.331-.64 2.2.298.87 1.553 2.666 2.45 2.772.256.03.591-.223.608-.725.043-1.26-.824-3.862-.824-3.862z" fill="url(#h)"/><defs><linearGradient id="a" x1="-5" y1="240" x2="95.362" y2="301.385" gradientUnits="userSpaceOnUse"><stop stop-color="#D8E0F5"/><stop offset=".334" stop-color="#F9F9FA"/><stop offset=".557" stop-color="#D5DCEF"/><stop offset=".784" stop-color="#93A0C5"/><stop offset="1" stop-color="#96A1BE"/></linearGradient><linearGradient id="c" x1="94.186" y1="227.406" x2="94.028" y2="218.776" gradientUnits="userSpaceOnUse"><stop stop-color="#5049D2"/><stop offset="1" stop-color="#6E68DF"/></linearGradient><linearGradient id="d" x1="65.239" y1="214.414" x2="65.066" y2="205.056" gradientUnits="userSpaceOnUse"><stop stop-color="#5049D2"/><stop offset="1" stop-color="#6E68DF"/></linearGradient><linearGradient id="e" x1="53.269" y1="101.796" x2="52.187" y2="43.017" gradientUnits="userSpaceOnUse"><stop stop-color="#5049D2"/><stop offset="1" stop-color="#6E68DF"/></linearGradient><linearGradient id="f" x1="85.021" y1="123.723" x2="83.969" y2="66.627" gradientUnits="userSpaceOnUse"><stop stop-color="#5049D2"/><stop offset="1" stop-color="#6E68DF"/></linearGradient><linearGradient id="g" x1="129.545" y1="35.943" x2="89.713" y2="65.277" gradientUnits="userSpaceOnUse"><stop stop-color="#5049D2"/><stop offset="1" stop-color="#6E68DF"/></linearGradient><linearGradient id="h" x1="72.499" y1="24.939" x2="69.878" y2="25.04" gradientUnits="userSpaceOnUse"><stop stop-color="#FFD7DE"/><stop offset="1" stop-color="#EFC1C9"/></linearGradient></defs></svg>