<svg width="545" height="133" viewBox="0 0 545 133" fill="none" xmlns="http://www.w3.org/2000/svg"><path d="M7 101h530.6v18c0 7.732-6.268 14-14 14H21c-7.732 0-14-6.268-14-14v-18z" fill="url(#a)"/><path d="M48.218 7.633A13 13 0 0 1 60.058 0h428.537a13 13 0 0 1 12.029 8.071l36.057 88c3.505 8.554-2.785 17.929-12.029 17.929H20.166c-9.449 0-15.741-9.761-11.84-18.367l39.892-88z" fill="url(#b)"/><path d="M71.5 0h393.216l33.197 112.354a9.992 9.992 0 0 1 .396 3.36l-.91 17.286H26.018l-.883-16.768a9.997 9.997 0 0 1 .726-4.301L71.5 0z" fill="url(#c)"/><g opacity=".6" clip-path="url(#d)"><path d="M153.91 74.42l-.835 2.74-32.872.987 5.591 3.368-3.515 1.746-8.464-5.212.735-2.412 39.36-1.218zm3.427-11.192l-.834 2.762-32.872.987 5.583 3.333-3.515 1.739-8.457-5.212.735-2.406 39.36-1.203zm6.036-19.712l-.836 2.74-32.871.987 5.59 3.333-3.515 1.739-8.464-5.212.735-2.405 39.361-1.182zm4.594-12.703a7.78 7.78 0 0 1-2.98 3.9 19.025 19.025 0 0 1-5.619 2.786 46.995 46.995 0 0 1-6.938 1.622c-2.45.393-4.925.626-7.407.697a49.947 49.947 0 0 1-7.104-.26 29.982 29.982 0 0 1-6.019-1.234 8.233 8.233 0 0 1-3.972-2.498 3.92 3.92 0 0 1-.812-1.819 3.861 3.861 0 0 1 .192-1.974 7.825 7.825 0 0 1 2.973-3.886 19.094 19.094 0 0 1 5.589-2.799 46.35 46.35 0 0 1 6.909-1.621 58.442 58.442 0 0 1 7.406-.697 51.14 51.14 0 0 1 7.112.26c2.056.208 4.083.62 6.048 1.233a8.08 8.08 0 0 1 3.995 2.518c.419.53.696 1.15.806 1.809a3.904 3.904 0 0 1-.179 1.962zm-7.829 3.509c1.903-.927 3.058-2.058 3.459-3.378.4-1.32-.072-2.395-1.433-3.224a13.146 13.146 0 0 0-5.319-1.644 51.234 51.234 0 0 0-7.523-.262 58.54 58.54 0 0 0-7.824.723 22.92 22.92 0 0 0-6.391 1.988c-1.888.934-3.028 2.057-3.436 3.377-.408 1.32.072 2.395 1.411 3.232a12.983 12.983 0 0 0 5.281 1.638c2.497.277 5.012.367 7.524.269a57.258 57.258 0 0 0 7.823-.73 23.39 23.39 0 0 0 6.428-1.99z" fill="#CABCE9"/><ellipse rx="2.7" ry=".873" transform="rotate(-.537 6125.832 -14091.36) skewX(-.075)" fill="#C9BFEA"/><ellipse rx="2.7" ry=".873" transform="rotate(-.537 6105.082 -15716.443) skewX(-.075)" fill="#C9BFEA"/></g><path d="M38.266 61l3.817-9m3.817-9l.955-2.25" stroke="#56329F" stroke-width="4" stroke-linecap="round"/><path d="M490.12 60.925l-6.436-19c-1.318-3.89 1.576-7.925 5.683-7.925h7.959a6.001 6.001 0 0 1 5.626 3.913l7.048 19c1.454 3.92-1.445 8.087-5.625 8.087h-8.572a6 6 0 0 1-5.683-4.075z" fill="#56329F"/><path d="M25.5 115h472" stroke="url(#e)" stroke-width="6" filter="url(#f)"/><path d="M100 0H89.5L52 93h18.5L100 0z" fill="url(#g)"/><path d="M115.5 0h-5L77 93h11.5l27-93z" fill="url(#h)"/><defs><filter id="f" x="21.5" y="108" width="480" height="14" filterUnits="userSpaceOnUse" color-interpolation-filters="sRGB"><feFlood flood-opacity="0" result="BackgroundImageFix"/><feBlend in="SourceGraphic" in2="BackgroundImageFix" result="shape"/><feGaussianBlur stdDeviation="2" result="effect1_foregroundBlur"/></filter><linearGradient id="a" x1="548.426" y1="104.461" x2="234.599" y2="-156.894" gradientUnits="userSpaceOnUse"><stop offset=".052" stop-color="#293694"/><stop offset=".375" stop-color="#293694"/><stop offset=".682" stop-color="#5535A8"/><stop offset="1" stop-color="#6338B4"/></linearGradient><linearGradient id="b" x1="490.207" y1=".223" x2="34.286" y2="114.998" gradientUnits="userSpaceOnUse"><stop stop-color="#6741B6"/><stop offset="1" stop-color="#6F69E0"/></linearGradient><linearGradient id="c" x1="38.619" y1="-192.64" x2="486.057" y2="-192.64" gradientUnits="userSpaceOnUse"><stop stop-color="#C0E8FF"/><stop offset=".302" stop-color="#F4F9FF"/><stop offset="1" stop-color="#BAD2FF"/></linearGradient><linearGradient id="e" x1="26" y1="116.002" x2="498" y2="115.001" gradientUnits="userSpaceOnUse"><stop stop-color="#fff" stop-opacity=".15"/><stop offset=".265" stop-color="#fff" stop-opacity=".8"/><stop offset="1" stop-color="#fff" stop-opacity=".15"/></linearGradient><linearGradient id="g" x1="115.5" y1="-1.5" x2="114.5" y2="78.5" gradientUnits="userSpaceOnUse"><stop stop-color="#fff" stop-opacity=".07"/><stop offset=".219" stop-color="#fff" stop-opacity=".198"/><stop offset="1" stop-color="#fff" stop-opacity="0"/></linearGradient><linearGradient id="h" x1="136.5" y1="-1.5" x2="135.5" y2="78.5" gradientUnits="userSpaceOnUse"><stop stop-color="#fff" stop-opacity=".07"/><stop offset=".219" stop-color="#fff" stop-opacity=".198"/><stop offset="1" stop-color="#fff" stop-opacity="0"/></linearGradient><clipPath id="d"><path fill="#fff" transform="rotate(-1.72 860.247 -3725.032)" d="M0 0h55.811v59.352H0z"/></clipPath></defs></svg>