<svg width="1340" height="398" viewBox="0 0 1340 398" fill="none" xmlns="http://www.w3.org/2000/svg"><rect width="1340" height="398" rx="10" fill="url(#a)"/><g clip-path="url(#b)"><path d="M935.779 256.411l-1.073 2.102a8.364 8.364 0 0 1 .153-5.859l1.073-2.102a8.364 8.364 0 0 0-.153 5.859z" fill="#2BA96C"/><path d="M935.932 250.552l-1.073 2.102.208-.432 1.073-2.102c-.078.139-.137.285-.208.432z" fill="#28734C"/><path d="M959.015 261.925l-1.072 2.103c-1.372 2.609-4.274 4.41-8.164 4.542-2.71.049-5.394-.6-7.794-1.884l1.072-2.102a15.834 15.834 0 0 0 7.795 1.884c3.883-.125 6.811-1.901 8.163-4.543z" fill="#2BA96C"/><path d="M943.09 264.603l-1.073 2.103a14.697 14.697 0 0 1-7.311-8.193l1.072-2.102a14.697 14.697 0 0 0 7.312 8.192z" fill="#35B477"/><path d="M935.779 256.411c-1.833-5.753 2.002-10.626 8.512-10.847 6.51-.221 13.286 4.311 15.1 10.082 1.814 5.772-2.008 10.62-8.505 10.841-6.498.221-13.292-4.304-15.107-10.076z" fill="#50DD99"/><path d="M955.32 259.958l-.422.458c-.147.159-.449.138-.894-.089l.422-.458c.451.221.747.249.9.083" fill="#7D94BA"/><path d="M954.418 259.875l-.415.464-.976-.485.428-.465.963.486z" fill="#7D94BA"/><path d="M951.097 256.697l-.421.457a1.314 1.314 0 0 0-.104-.182l.422-.458c.038.059.072.12.103.183z" fill="#AFC0DB"/><path d="M950.993 256.514l-.421.458a1.896 1.896 0 0 0-.174-.161l.422-.457c.066.049.126.104.18.166m-.163-.2l-.421.458a.863.863 0 0 0-.16-.148l.421-.458a.863.863 0 0 1 .16.148zm-.16-.149l-.421.458a2.741 2.741 0 0 0-.194-.179l.422-.458c.068.051.131.109.187.173" fill="#95AACB"/><path d="M950.465 256.024l-.422.458a.825.825 0 0 0-.087-.08c-.445-.228-.798-.234-1.071-.045l.422-.458c.277-.202.636-.189 1.077.038l.087.081" fill="#7D94BA"/><path d="M949.282 255.925l-.421.458a2.922 2.922 0 0 0-.394.36l.422-.457c.113-.138.246-.26.393-.361z" fill="#8397B8"/><path d="M946.131 255.152l-.421.458c.162-.243.338-.474.507-.698l.422-.457c-.19.205-.345.454-.501.691" fill="#95AACB"/><path d="M950.173 259.537l-.421.458c.133-.277.293-.54.477-.786a3.49 3.49 0 0 0 .452-.812l.427-.464a3.479 3.479 0 0 1-.488.838 3.988 3.988 0 0 0-.471.793" fill="#BBCCE7"/><path d="M951.137 257.9l-.427.464c.041-.101.075-.205.101-.311a1.13 1.13 0 0 0 .026-.296l.428-.464c.004.099-.004.199-.026.296l-.095.317m.114-.62l-.428.465a1.306 1.306 0 0 0-.068-.382l.428-.465c.04.124.063.253.068.382zm-.069-.382l-.428.465a1.584 1.584 0 0 0-.092-.221l.421-.458c.036.067.067.136.092.208m-9.148-4.366l-.452.491.08-.221.428-.464-.08.22" fill="#BBCCE7"/><path d="M942.127 252.298l-.428.464c.113-.308.268-.599.462-.863l.397-.431c-.187.25-.335.528-.438.823" fill="#BBCCE7"/><path d="M952.66 260.802l-.422.458a1.643 1.643 0 0 1-.363.328 1.232 1.232 0 0 1-1.287.136c-.033-.031-.073-.068-.137-.065l.428-.465c.032.037.068.07.107.099.206.099.436.139.664.115.227-.024.442-.111.622-.252.136-.092.26-.2.37-.321" fill="#95AACB"/><path d="M950.887 261.167l-.427.464a1.66 1.66 0 0 1-.214-.197l.422-.458c.076.062.158.117.244.164" fill="#AFC0DB"/><path d="M950.644 261.002l-.421.458a.898.898 0 0 1-.16-.148l.421-.458.16.148zm-.162-.148l-.421.458a1.603 1.603 0 0 1-.16-.148l.427-.464c.051.052.104.102.16.148" fill="#AFC0DB"/><path d="M950.348 260.679l-.428.465-.09-.157a1.091 1.091 0 0 1-.072-.19l.421-.458c.025.065.053.128.085.189a.62.62 0 0 0 .084.151z" fill="#BBCCE7"/><path d="M950.179 260.339l-.422.458a1.09 1.09 0 0 1-.067-.37l.421-.457c.007.125.029.249.068.369zm-.068-.369l-.422.457a1.311 1.311 0 0 1 .03-.353l.421-.458a1.625 1.625 0 0 0-.036.348" fill="#BBCCE7"/><path d="M940.346 252.309l-.397.431.067-.073.428-.464-.033.117" fill="#DAE4F6"/><path d="M941.847 253.635l-.422.458-.78-.39.415-.464.787.396z" fill="#95AACB"/><path d="M941.06 253.239l-.428.465-.126-.117.421-.458c.049.029.099.055.151.078" fill="#BBCCE7"/><path d="M940.909 253.161l-.421.458a1.974 1.974 0 0 1-.263-.171l.427-.464c.071.075.147.145.227.21" fill="#BBCCE7"/><path d="M940.678 253.008l-.427.465-.12-.111.427-.465a.57.57 0 0 0 .127.118m-.161-.149l-.428.465-.1-.093.422-.457c.03.034.063.065.099.092" fill="#BBCCE7"/><path d="M940.436 252.762l-.422.457a.435.435 0 0 1-.077-.157l.422-.458a.7.7 0 0 0 .077.158zm-.078-.158l-.421.457a.418.418 0 0 1-.032-.152l.421-.458c.002.05.011.099.026.147" fill="#BBCCE7"/><path d="M940.332 252.457l-.422.458.013-.148.422-.457-.013.147z" fill="#BBCCE7"/><path d="M947.932 257.479l-.428.465a2.935 2.935 0 0 1-.947.733 2.699 2.699 0 0 1-2.309-.244 2.116 2.116 0 0 1-.295-.162l.422-.458.295.162a2.702 2.702 0 0 0 2.309.244c.365-.179.687-.433.946-.746" fill="#95AACB"/><path d="M944.379 257.816l-.422.458a4.611 4.611 0 0 1-.713-.488l.422-.458c.225.181.463.344.713.488zm-.714-.488l-.421.458a4.69 4.69 0 0 1-.528-.488l.422-.458c.163.176.34.339.527.488z" fill="#AFC0DB"/><path d="M943.136 256.84l-.421.458a4.834 4.834 0 0 1-.489-.624l.422-.458c.148.219.311.428.488.624z" fill="#BBCCE7"/><path d="M942.662 256.229l-.422.458a.837.837 0 0 1-.107-.099 4.444 4.444 0 0 1-.48-1.023l.421-.458c.122.358.283.701.481 1.023l.113.105m-.592-1.171l-.434.471a4.23 4.23 0 0 1-.229-1.294l.421-.458c.015.439.092.875.23 1.294m-.218-1.308l-.421.458-.006-.141.421-.458v.135" fill="#BBCCE7"/><path d="M940.349 252.31c.054-.246.171-.346.324-.352.216.018.425.085.612.196l.733.359c.137-.473.381-.908.713-1.27.176-.205.418-.341.685-.386a1.17 1.17 0 0 1 .778.141 1.29 1.29 0 0 1 .854 1.49 2.275 2.275 0 0 1-.401.785 2.007 2.007 0 0 0-.39.746c-.064.274-.045.561.056.826.119.29.342.527.625.664a.907.907 0 0 0 .512.129c.278-.077.518-.252.677-.492.162-.244.344-.481.538-.732a2.892 2.892 0 0 1 1.79-1.273 2.93 2.93 0 0 1 2.18.348 5.34 5.34 0 0 1 2.259 2.089c.518.806.763 1.757.696 2.709l1.029.509c.577.287.821.599.747.961-.073.363-.418.388-.995.1l-.97-.479a3.418 3.418 0 0 1-1.142 1.71 1.22 1.22 0 0 1-1.288.136 1.573 1.573 0 0 1-.762-.705 1.288 1.288 0 0 1-.117-.907c.121-.32.292-.618.506-.884.271-.342.469-.735.583-1.157a1.295 1.295 0 0 0-.135-.888 1.576 1.576 0 0 0-.762-.704c-.441-.228-.801-.241-1.078-.038-.332.258-.619.57-.85.922a3.979 3.979 0 0 1-1.452 1.374 2.705 2.705 0 0 1-1.181.137 2.735 2.735 0 0 1-1.13-.382 5.328 5.328 0 0 1-2.085-1.928 4.564 4.564 0 0 1-.71-2.452l-.787-.395c-.498-.252-.736-.558-.662-.907z" fill="#fff"/></g><g clip-path="url(#c)"><path d="M1240.59 324.812l-2.27.644a8.39 8.39 0 0 1 4.4-3.875l2.27-.645a8.387 8.387 0 0 0-4.4 3.876z" fill="#2BA96C"/><path d="M1244.99 320.936l-2.27.645.46-.142 2.27-.644c-.16.038-.31.094-.46.141z" fill="#28734C"/><path d="M1252.36 345.591l-2.27.645c-2.84.771-6.14-.13-8.88-2.891a15.882 15.882 0 0 1-3.92-6.993l2.27-.644a15.77 15.77 0 0 0 3.92 6.993c2.73 2.76 6.03 3.697 8.88 2.89z" fill="#2BA96C"/><path d="M1239.56 335.744l-2.27.645a14.722 14.722 0 0 1 1.03-10.933l2.27-.644a14.72 14.72 0 0 0-1.03 10.932z" fill="#35B477"/><path d="M1240.59 324.812c2.97-5.259 9.15-5.765 13.74-1.145 4.59 4.62 5.88 12.668 2.89 17.926-3 5.257-9.15 5.755-13.73 1.145-4.59-4.611-5.89-12.669-2.9-17.926z" fill="#50DD99"/><path d="M1251.29 341.544l-.62.003c-.22.001-.41-.235-.55-.716l.63-.003c.14.482.32.717.55.716" fill="#7D94BA"/><path d="M1250.74 340.828l-.62.011-.31-1.045.63-.002.3 1.036z" fill="#7D94BA"/><path d="M1250.81 336.23l-.62.003.06-.2.62-.003-.06.2z" fill="#AFC0DB"/><path d="M1250.87 336.03l-.62.002v-.236l.62-.003c.01.082.01.164 0 .246m.04-.255l-.62.002v-.218l.62-.002c.01.072.01.145 0 .218zm0-.219l-.63.003c.01-.088.01-.176 0-.263l.63-.003v.254" fill="#95AACB"/><path d="M1250.87 335.31l-.62.002v-.118c-.14-.481-.37-.744-.7-.815l.62-.003c.34.066.58.337.71.816v.118" fill="#7D94BA"/><path d="M1250.14 334.375l-.63.003a2.803 2.803 0 0 0-.53-.043l.62-.003c.18-.011.36.004.54.043z" fill="#8397B8"/><path d="M1248.56 331.541l-.62.002c.29-.046.57-.074.85-.102l.63-.003c-.28.001-.57.057-.85.103" fill="#95AACB"/><path d="M1248.1 337.487l-.62.003c.29-.091.59-.153.9-.185.31-.034.61-.108.9-.222l.63-.002c-.31.114-.62.186-.95.212-.3.03-.61.095-.9.194" fill="#BBCCE7"/><path d="M1249.95 337.08l-.63.003c.11-.039.2-.085.3-.138.09-.05.16-.112.23-.182l.64-.003c-.07.071-.15.133-.24.183l-.3.146m.54-.339l-.64.003c.1-.091.18-.195.24-.31l.63-.002c-.06.113-.14.218-.23.309zm.23-.31l-.63.003c.04-.07.07-.143.1-.219l.62-.002c-.03.072-.06.142-.09.209m-3.03-9.676l-.67.003.22-.091.63-.003-.22.092" fill="#BBCCE7"/><path d="M1247.92 326.664l-.63.002c.31-.127.62-.211.95-.248l.59-.003c-.31.033-.62.114-.91.24" fill="#BBCCE7"/><path d="M1248.86 340.169l-.62.003a1.7 1.7 0 0 1-.49-.044 1.29 1.29 0 0 1-.61-.286c-.17-.15-.3-.345-.36-.564 0-.045 0-.1-.05-.145l.63-.003v.146c.07.219.2.415.37.565.17.15.38.249.61.285.16.036.32.054.48.052" fill="#95AACB"/><path d="M1247.39 339.119l-.63.003a1.415 1.415 0 0 1 0-.291l.62-.002c0 .098.02.195.04.29m-.08-.291l-.62.003a.796.796 0 0 1 0-.218l.62-.003v.218z" fill="#AFC0DB"/><path d="M1247.34 338.61l-.62.002a.796.796 0 0 1 0-.218l.63-.002v.218" fill="#AFC0DB"/><path d="M1247.38 338.391l-.63.003.05-.173c.02-.063.06-.124.09-.182l.62-.003c-.03.062-.05.126-.08.191a.89.89 0 0 0-.05.164z" fill="#BBCCE7"/><path d="M1247.51 338.036l-.62.002c.06-.112.13-.214.22-.3l.63-.003c-.09.09-.17.191-.23.301zm.23-.302l-.63.003c.09-.085.18-.159.28-.219l.63-.003c-.11.06-.2.13-.28.21" fill="#BBCCE7"/><path d="M1246.71 325.367l-.59.002h.1l.63-.003-.11.055" fill="#DAE4F6"/><path d="M1246.75 327.369l-.62.002-.24-.836.62-.011.24.845z" fill="#95AACB"/><path d="M1246.51 326.523l-.63.003v-.173l.62-.002c.01.055.03.109.04.163" fill="#BBCCE7"/><path d="M1246.46 326.359l-.62.003a3.207 3.207 0 0 1-.05-.309l.63-.003c-.01.103-.01.206 0 .309" fill="#BBCCE7"/><path d="M1246.42 326.086l-.63.003v-.163l.63-.003a.497.497 0 0 0 0 .172m0-.218l-.63.003v-.136l.62-.003a.312.312 0 0 0 0 .136m.02-.137l-.62.003a.476.476 0 0 1 .06-.164l.63-.002a.91.91 0 0 0-.07.163z" fill="#BBCCE7"/><path d="M1246.5 325.576l-.62.003a.352.352 0 0 1 .09-.127l.62-.003a.357.357 0 0 0-.09.118" fill="#BBCCE7"/><path d="M1246.59 325.458l-.62.002.11-.091.62-.002-.11.091z" fill="#BBCCE7"/><path d="M1248.08 334.444l-.63.003c-.41.017-.81-.05-1.18-.195a2.66 2.66 0 0 1-.91-.771 2.721 2.721 0 0 1-.49-1.087 3.467 3.467 0 0 1-.08-.327l.62-.002.09.327c.08.394.24.765.48 1.086.25.322.55.585.91.771.38.146.78.209 1.19.186" fill="#95AACB"/><path d="M1245.41 332.071l-.62.002c-.07-.28-.11-.566-.13-.854l.63-.003c.02.288.06.574.12.855zm-.12-.856l-.62.003a5.735 5.735 0 0 1-.01-.718l.63-.003c-.02.239-.02.479 0 .718z" fill="#AFC0DB"/><path d="M1245.28 330.496l-.62.003c.02-.264.06-.526.13-.783l.62-.002c-.06.257-.1.519-.13.782z" fill="#BBCCE7"/><path d="M1245.41 329.731l-.62.003a.359.359 0 0 1 0-.146c.09-.366.23-.718.42-1.048l.62-.002c-.18.332-.32.684-.42 1.048v.154m.45-1.23l-.64.002c.21-.389.48-.743.8-1.049l.62-.002a4.6 4.6 0 0 0-.79 1.049" fill="#BBCCE7"/><path d="M1246.66 327.46l-.62.003.09-.1.63-.003-.1.091" fill="#BBCCE7"/><path d="M1246.71 325.37c.21-.128.37-.111.48-.002.13.17.22.369.27.581l.23.782c.44-.222.93-.339 1.42-.342.27-.011.53.074.75.239.21.166.36.401.43.666.13.288.15.616.05.919-.09.302-.29.56-.57.721-.26.135-.55.216-.84.24-.29.016-.56.091-.82.222a1.39 1.39 0 0 0-.56.603c-.13.285-.16.61-.06.91a.84.84 0 0 0 .25.463c.25.152.54.209.82.161.29-.047.59-.075.9-.104.75-.14 1.52.02 2.15.446a2.877 2.877 0 0 1 1.23 1.834c.31 1.002.31 2.072.01 3.076a4.465 4.465 0 0 1-1.51 2.354l.33 1.1c.18.618.12 1.01-.2 1.202-.32.193-.57-.043-.75-.661l-.31-1.036c-.63.314-1.34.428-2.03.326a1.238 1.238 0 0 1-.61-.285c-.17-.151-.3-.347-.37-.566a1.674 1.674 0 0 1 0-1.038c.11-.299.31-.549.59-.703.31-.129.65-.207.99-.231.43-.034.86-.157 1.24-.36.27-.16.47-.409.56-.703.12-.337.12-.702 0-1.038-.13-.479-.37-.751-.71-.816a3.801 3.801 0 0 0-1.25.005c-.67.128-1.35.084-1.99-.129-.36-.186-.67-.45-.91-.772a2.726 2.726 0 0 1-.49-1.088 5.264 5.264 0 0 1 0-2.839c.22-.841.67-1.601 1.31-2.19l-.25-.845c-.15-.536-.09-.919.22-1.102z" fill="#fff"/></g><g clip-path="url(#d)"><path d="M285.621 58.358l-1.662 1.409a7.726 7.726 0 0 1 2.216-4.937l1.661-1.409a7.724 7.724 0 0 0-2.215 4.937z" fill="#2BA96C"/><path d="M287.836 53.421l-1.662 1.409.331-.294 1.662-1.409c-.116.092-.218.195-.331.294z" fill="#28734C"/><path d="M303.451 71.323l-1.662 1.409c-2.096 1.734-5.21 2.236-8.569.964a14.693 14.693 0 0 1-5.969-4.378l1.662-1.409a14.611 14.611 0 0 0 5.969 4.378c3.351 1.275 6.477.805 8.569-.964z" fill="#2BA96C"/><path d="M288.933 67.937l-1.662 1.409a13.566 13.566 0 0 1-3.312-9.58l1.661-1.408a13.567 13.567 0 0 0 3.313 9.58z" fill="#35B477"/><path d="M285.621 58.358c.485-5.553 5.486-8.339 11.109-6.21 5.623 2.128 9.782 8.398 9.274 13.96-.509 5.562-5.489 8.33-11.102 6.207-5.613-2.124-9.79-8.396-9.281-13.957z" fill="#50DD99"/><path d="M301.002 68.332l-.522.24c-.182.084-.432-.042-.73-.394l.522-.24c.306.349.548.478.737.39" fill="#7D94BA"/><path d="M300.263 67.94l-.518.248-.659-.76.53-.243.647.756z" fill="#7D94BA"/><path d="M298.563 64.052l-.522.24a1.129 1.129 0 0 0-.023-.193l.522-.24c.011.064.019.128.023.193z" fill="#AFC0DB"/><path d="M298.54 63.859l-.522.24a1.787 1.787 0 0 0-.09-.198l.522-.24c.038.065.07.134.094.206m-.067-.229l-.522.24a.874.874 0 0 0-.084-.183l.522-.24a.874.874 0 0 1 .084.183zm-.085-.183l-.521.24a2.535 2.535 0 0 0-.101-.221l.521-.24c.04.067.073.139.098.213" fill="#95AACB"/><path d="M298.265 63.254l-.522.24a.87.87 0 0 0-.045-.1c-.299-.352-.597-.483-.897-.419l.522-.24c.308-.073.61.066.904.416l.046.1" fill="#7D94BA"/><path d="M297.293 62.749l-.522.24a2.704 2.704 0 0 0-.463.166l.522-.24a1.74 1.74 0 0 1 .463-.166z" fill="#8397B8"/><path d="M294.884 60.97l-.522.239c.225-.15.457-.283.681-.414l.522-.24c-.235.108-.456.265-.673.41" fill="#95AACB"/><path d="M296.767 66.143l-.522.24a4.36 4.36 0 0 1 .686-.5 3.23 3.23 0 0 0 .673-.53l.53-.244a3.217 3.217 0 0 1-.714.54 3.705 3.705 0 0 0-.684.507" fill="#BBCCE7"/><path d="M298.171 65.091l-.53.244c.072-.072.138-.148.198-.23.052-.074.095-.156.127-.242l.529-.243a1.01 1.01 0 0 1-.127.242l-.194.237m.318-.488l-.53.244a1.2 1.2 0 0 0 .078-.35l.53-.243c-.01.12-.036.237-.078.35zm.076-.349l-.529.243a1.485 1.485 0 0 0-.001-.221l.522-.24c.007.07.009.14.005.21m-6.238-6.974l-.56.257.147-.16.529-.243-.146.16" fill="#BBCCE7"/><path d="M292.489 57.113l-.53.243c.206-.222.441-.414.7-.57l.492-.226a2.8 2.8 0 0 0-.666.545" fill="#BBCCE7"/><path d="M298.434 68.104l-.522.24c-.134.07-.277.121-.426.15a1.132 1.132 0 0 1-1.144-.342c-.018-.038-.039-.084-.094-.104l.53-.244a.609.609 0 0 0 .055.122 1.126 1.126 0 0 0 1.145.342c.148-.03.292-.078.429-.142" fill="#95AACB"/><path d="M296.795 67.785l-.53.243a1.56 1.56 0 0 1-.111-.244l.522-.24c.042.08.092.156.149.227" fill="#AFC0DB"/><path d="M296.646 67.558l-.522.24a.822.822 0 0 1-.083-.183l.522-.24.083.183zm-.085-.184l-.522.24a1.733 1.733 0 0 1-.083-.183l.529-.243c.025.062.052.123.084.183" fill="#AFC0DB"/><path d="M296.507 67.177l-.529.243-.021-.166a.978.978 0 0 1 .006-.187l.522-.24a1.53 1.53 0 0 0 .005.192.562.562 0 0 0 .017.158zm-.023-.35l-.521.24a1.01 1.01 0 0 1 .074-.339l.522-.24a1.31 1.31 0 0 0-.075.339zm.074-.339l-.521.24c.037-.103.088-.2.151-.29l.521-.24a1.508 1.508 0 0 0-.154.283" fill="#BBCCE7"/><path d="M290.968 56.49l-.491.225.083-.038.529-.243-.07.087" fill="#DAE4F6"/><path d="M291.776 58.152l-.522.24-.526-.609.519-.247.529.616z" fill="#95AACB"/><path d="M291.246 57.535l-.529.244a17.623 17.623 0 0 1-.067-.145l.522-.24c.031.042.065.082.101.12" fill="#BBCCE7"/><path d="M291.145 57.415l-.522.24a1.802 1.802 0 0 1-.164-.239l.529-.243c.034.089.074.175.119.259" fill="#BBCCE7"/><path d="M291.002 57.203l-.529.243-.063-.137.53-.243a.5.5 0 0 0 .066.145m-.085-.184l-.529.244-.052-.115.522-.24c.013.04.031.078.052.115m-.031-.125l-.522.24a.4.4 0 0 1-.009-.161l.522-.24a.624.624 0 0 0 .009.161zm-.01-.162l-.522.24a.38.38 0 0 1 .027-.141l.522-.24a.512.512 0 0 0-.03.134" fill="#BBCCE7"/><path d="M290.904 56.61l-.522.24.064-.121.522-.24-.064.121z" fill="#BBCCE7"/><path d="M295.591 63.592l-.53.243a2.716 2.716 0 0 1-1.068.288 2.51 2.51 0 0 1-1.879-1.03 1.966 1.966 0 0 1-.194-.242l.522-.24.194.243a2.51 2.51 0 0 0 1.879 1.03 2.65 2.65 0 0 0 1.072-.3" fill="#95AACB"/><path d="M292.446 62.615l-.522.24a4.32 4.32 0 0 1-.434-.669l.522-.24c.128.234.273.457.434.67zm-.436-.67l-.522.24a4.32 4.32 0 0 1-.275-.603l.522-.24c.076.208.168.41.275.603z" fill="#AFC0DB"/><path d="M291.734 61.342l-.522.24a4.426 4.426 0 0 1-.194-.705l.522-.24c.048.239.113.475.194.705z" fill="#BBCCE7"/><path d="M291.546 60.651l-.522.24a.788.788 0 0 1-.056-.121 4.133 4.133 0 0 1-.045-1.042l.522-.24a4.72 4.72 0 0 0 .045 1.041l.06.13m-.087-1.208l-.537.247a3.91 3.91 0 0 1 .265-1.184l.522-.24a4.29 4.29 0 0 0-.265 1.184m.28-1.191l-.522.24.045-.122.522-.24-.048.114" fill="#BBCCE7"/><path d="M290.971 56.49c.133-.19.269-.233.402-.184.177.093.331.224.45.385l.497.567a2.95 2.95 0 0 1 1.06-.829c.222-.111.477-.141.721-.084.243.057.459.197.612.396a1.192 1.192 0 0 1 .197 1.574 2.104 2.104 0 0 1-.621.525c-.232.121-.435.29-.597.497-.153.21-.239.462-.247.723-.002.29.104.571.297.788a.836.836 0 0 0 .39.293c.264.033.531-.03.751-.18.225-.149.464-.286.719-.43a2.67 2.67 0 0 1 1.978-.448 2.708 2.708 0 0 1 1.733 1.072 4.922 4.922 0 0 1 1.18 2.583 4.093 4.093 0 0 1-.371 2.555l.696.8c.388.45.486.802.294 1.084-.192.283-.494.181-.883-.269l-.656-.752a3.16 3.16 0 0 1-1.581 1.05 1.125 1.125 0 0 1-1.145-.343 1.452 1.452 0 0 1-.399-.871c-.027-.29.052-.58.224-.815.217-.23.468-.423.745-.573a2.96 2.96 0 0 0 .908-.778c.161-.235.232-.52.201-.804a1.458 1.458 0 0 0-.398-.871c-.295-.352-.597-.49-.905-.417-.375.103-.73.266-1.052.484a3.666 3.666 0 0 1-1.725.654 2.493 2.493 0 0 1-1.055-.304 2.527 2.527 0 0 1-.827-.727 4.92 4.92 0 0 1-1.09-2.384 4.223 4.223 0 0 1 .267-2.342l-.529-.616c-.334-.392-.428-.737-.241-1.008z" fill="#fff"/></g><g clip-path="url(#e)"><path d="M141.888 190.978l1.419 2.512a10.23 10.23 0 0 1-5.872-4.109l-1.42-2.512a10.234 10.234 0 0 0 5.873 4.109z" fill="#2BA96C"/><path d="M136.015 186.868l1.419 2.513-.3-.504-1.42-2.513c.09.174.2.333.301.504z" fill="#28734C"/><path d="M163.188 171.001l1.42 2.512c1.736 3.159 1.614 7.335-.876 11.39a19.464 19.464 0 0 1-7.18 6.678l-1.42-2.513a19.353 19.353 0 0 0 7.18-6.678c2.493-4.044 2.658-8.228.876-11.389z" fill="#2BA96C"/><path d="M155.176 189.049l1.42 2.512a17.972 17.972 0 0 1-13.288 1.929l-1.42-2.512a17.976 17.976 0 0 0 13.288-1.929z" fill="#35B477"/><path d="M141.888 190.977c-7.104-2.011-9.486-9.211-5.319-15.999 4.167-6.788 13.36-10.64 20.47-8.596 7.11 2.044 9.475 9.213 5.317 15.988-4.159 6.775-13.358 10.651-20.468 8.607z" fill="#50DD99"/><path d="M158.69 173.442l.182.739c.064.257-.162.551-.694.852l-.182-.739c.53-.312.757-.595.691-.863" fill="#7D94BA"/><path d="M157.997 174.305l.193.736-1.153.668-.185-.75 1.145-.654z" fill="#7D94BA"/><path d="M152.514 175.549l.182.738a1.677 1.677 0 0 0-.256-.017l-.182-.738c.085 0 .171.006.256.017z" fill="#AFC0DB"/><path d="M152.258 175.532l.183.738c-.095.017-.189.04-.281.069l-.182-.739a1.39 1.39 0 0 1 .291-.071m-.314.03l.183.738a1.091 1.091 0 0 0-.259.064l-.183-.739c.084-.031.171-.053.259-.063zm-.26.063l.182.739c-.105.02-.21.046-.313.076l-.182-.739c.098-.034.199-.059.302-.073" fill="#95AACB"/><path d="M151.403 175.739l.182.739c-.048.008-.095.02-.141.034-.532.301-.777.656-.768 1.063l-.182-.739c-.02-.419.236-.777.765-1.074l.141-.034" fill="#7D94BA"/><path d="M150.503 176.879l.182.739c.014.217.048.433.102.645l-.182-.739a2.275 2.275 0 0 1-.102-.645z" fill="#8397B8"/><path d="M147.588 179.57l.183.739c-.139-.329-.255-.664-.369-.988l-.182-.739c.081.332.23.659.366.978" fill="#95AACB"/><path d="M154.789 178.406l.183.739a5.804 5.804 0 0 1-.48-1.018 4.229 4.229 0 0 0-.523-1.007l-.185-.749c.224.328.401.686.526 1.063.123.356.288.697.49 1.015" fill="#BBCCE7"/><path d="M153.77 176.318l.186.749a3.01 3.01 0 0 0-.249-.314 1.442 1.442 0 0 0-.285-.225l-.185-.75c.105.062.2.138.284.226l.26.311m-.556-.534l.185.75a1.61 1.61 0 0 0-.436-.189l-.185-.749c.153.042.3.106.436.188zm-.436-.187l.185.749a2.031 2.031 0 0 0-.288-.055l-.183-.738c.093.008.185.024.275.046m-10.626 6.385l.196.792-.171-.231-.185-.749.171.231" fill="#BBCCE7"/><path d="M141.977 181.729l.185.749a4.22 4.22 0 0 1-.568-1.053l-.172-.695c.128.359.312.697.544 1.002" fill="#BBCCE7"/><path d="M157.754 176.726l.182.738c.059.192.089.391.089.592.021.278-.036.556-.165.804a1.528 1.528 0 0 1-.564.6c-.054.013-.119.029-.159.096l-.185-.75a.864.864 0 0 0 .172-.042 1.491 1.491 0 0 0 .729-1.404 2.58 2.58 0 0 0-.078-.594" fill="#95AACB"/><path d="M156.932 178.778l.185.749a2.066 2.066 0 0 1-.345.084l-.183-.738a1.97 1.97 0 0 0 .332-.138m-.323.181l.182.739c-.083.031-.17.052-.258.063l-.183-.739.259-.063zm-.259.064l.183.739a2.326 2.326 0 0 1-.259.063l-.185-.75c.087-.015.174-.037.258-.063" fill="#AFC0DB"/><path d="M156.068 179l.185.75-.221-.015a1.343 1.343 0 0 1-.242-.054l-.183-.739c.083.019.166.033.251.041a.703.703 0 0 0 .21.017zm-.461-.057l.183.739a1.357 1.357 0 0 1-.423-.181l-.182-.739c.132.079.274.139.422.181z" fill="#BBCCE7"/><path d="M155.186 178.763l.182.739a1.67 1.67 0 0 1-.341-.269l-.182-.738c.1.102.21.193.33.271" fill="#BBCCE7"/><path d="M140.785 183.553l.172.695-.029-.117-.185-.75.096.113" fill="#DAE4F6"/><path d="M143.15 182.916l.182.739-.923.532-.193-.736.934-.535z" fill="#95AACB"/><path d="M142.215 183.452l.185.749-.205.05-.182-.738c.062-.03.122-.064.181-.101" fill="#BBCCE7"/><path d="M142.034 183.552l.182.739a2.49 2.49 0 0 1-.351.154l-.185-.749a2.89 2.89 0 0 0 .367-.09" fill="#BBCCE7"/><path d="M141.724 183.685l.185.749-.194.048-.185-.75a.642.642 0 0 0 .205-.05m-.26.064l.185.75-.162.039-.182-.738a.807.807 0 0 0 .161-.04m-.171.009l.183.739a.551.551 0 0 1-.213-.027l-.182-.739a.844.844 0 0 0 .212.027z" fill="#BBCCE7"/><path d="M141.095 183.739l.183.738a.47.47 0 0 1-.177-.07l-.183-.738a.708.708 0 0 0 .167.072" fill="#BBCCE7"/><path d="M140.927 183.666l.182.739-.141-.113-.183-.739.142.113z" fill="#BBCCE7"/><path d="M151.176 179.304l.185.749c.136.475.173.972.109 1.461a3.301 3.301 0 0 1-.655 1.296 3.342 3.342 0 0 1-1.151.894 2.822 2.822 0 0 1-.365.192l-.183-.739.365-.192a3.323 3.323 0 0 0 1.807-2.19 3.527 3.527 0 0 0-.123-1.469" fill="#95AACB"/><path d="M149.122 183.153l.183.74a5.822 5.822 0 0 1-.979.398l-.182-.74c.335-.108.662-.241.978-.398zm-.979.399l.183.739a5.832 5.832 0 0 1-.853.209l-.183-.739c.289-.048.575-.118.853-.209z" fill="#AFC0DB"/><path d="M147.289 183.762l.183.739a5.89 5.89 0 0 1-.966.077l-.183-.739c.324-.003.647-.029.966-.077z" fill="#BBCCE7"/><path d="M146.345 183.835l.183.739a1.039 1.039 0 0 1-.173.042 5.442 5.442 0 0 1-1.367-.2l-.183-.739a6.25 6.25 0 0 0 1.367.2l.184-.045m-1.595-.187l.188.761a5.188 5.188 0 0 1-1.475-.639l-.182-.739a5.73 5.73 0 0 0 1.474.639m-1.48-.661l.182.739-.147-.089-.183-.739.137.092" fill="#BBCCE7"/><path d="M140.788 183.549c-.214-.22-.238-.407-.14-.568.164-.207.374-.375.613-.49l.861-.506a3.904 3.904 0 0 1-.815-1.584 1.418 1.418 0 0 1 .737-1.658 1.574 1.574 0 0 1 2.097.135c.236.276.416.594.529.938.1.332.27.639.498.901.235.251.542.425.88.501a1.56 1.56 0 0 0 1.099-.19c.199-.095.365-.246.477-.435a1.452 1.452 0 0 0-.046-1.022c-.138-.33-.258-.676-.383-1.043a3.535 3.535 0 0 1-.09-2.684 3.592 3.592 0 0 1 1.826-1.989 6.542 6.542 0 0 1 3.654-.894 5.432 5.432 0 0 1 3.233 1.118l1.212-.706c.683-.394 1.166-.433 1.485-.113.32.319.113.688-.569 1.082l-1.143.666c.555.656.894 1.465.973 2.318a1.504 1.504 0 0 1-.731 1.406 1.92 1.92 0 0 1-1.232.301 1.568 1.568 0 0 1-1.004-.493 3.944 3.944 0 0 1-.561-1.112 3.906 3.906 0 0 0-.786-1.375 1.583 1.583 0 0 0-.996-.461 1.936 1.936 0 0 0-1.233.301c-.53.297-.786.655-.766 1.074a4.65 4.65 0 0 0 .367 1.489c.343.754.489 1.582.422 2.408-.12.474-.344.917-.657 1.296a3.354 3.354 0 0 1-1.152.896 6.526 6.526 0 0 1-3.373.825 5.59 5.59 0 0 1-2.98-.93l-.934.535c-.593.339-1.065.375-1.372.063z" fill="#fff"/></g><mask id="g" maskUnits="userSpaceOnUse" x="0" y="0" width="1340" height="398"><rect width="1340" height="398" rx="10" fill="url(#f)"/></mask><g mask="url(#g)"><path d="M171.59 388.812l-2.27.644a8.368 8.368 0 0 1 4.397-3.875l2.271-.645a8.372 8.372 0 0 0-4.398 3.876z" fill="#2BA96C"/><path d="M175.989 384.936l-2.271.645.459-.142 2.27-.644c-.155.038-.303.094-.458.141z" fill="#28734C"/><path d="M170.564 399.745l-2.27.644a14.694 14.694 0 0 1 1.027-10.932l2.27-.645a14.702 14.702 0 0 0-1.027 10.933z" fill="#35B477"/><path d="M171.591 388.812c2.967-5.259 9.148-5.765 13.74-1.145 4.592 4.62 5.882 12.668 2.888 17.926-2.994 5.257-9.148 5.755-13.731 1.145-4.584-4.611-5.892-12.669-2.897-17.926z" fill="#50DD99"/><path d="M179.56 395.541l-.622.002c.288-.046.577-.074.856-.102l.622-.003c-.279.001-.568.057-.847.103" fill="#95AACB"/><path d="M178.691 390.755l-.667.003.216-.091.631-.003-.216.092m.27-.093l-.632.003c.303-.127.621-.211.947-.249l.586-.002a3.056 3.056 0 0 0-.901.239" fill="#BBCCE7"/><path d="M177.705 389.367l-.586.002h.099l.631-.003-.108.055" fill="#DAE4F6"/><path d="M177.754 391.369l-.622.002-.245-.836.622-.011.245.845z" fill="#95AACB"/><path d="M177.509 390.523l-.632.002v-.172l.622-.003c.012.056.027.11.046.163" fill="#BBCCE7"/><path d="M177.464 390.359l-.622.003a2.042 2.042 0 0 1-.055-.309l.631-.003a2.45 2.45 0 0 0 .001.309" fill="#BBCCE7"/><path d="M177.419 390.086l-.632.003v-.163l.631-.003a.523.523 0 0 0 .001.172m-.002-.218l-.632.002v-.136l.622-.002a.687.687 0 0 0 .001.136" fill="#BBCCE7"/><path d="M177.433 389.74l-.622.003a.444.444 0 0 1 .063-.164l.622-.002a.672.672 0 0 0-.063.163z" fill="#BBCCE7"/><path d="M177.497 389.576l-.622.003a.408.408 0 0 1 .09-.127l.622-.003a.576.576 0 0 0-.09.118" fill="#BBCCE7"/><path d="M177.587 389.458l-.622.002.117-.091.622-.002-.117.091z" fill="#BBCCE7"/><path d="M179.079 398.444l-.632.003a2.946 2.946 0 0 1-1.182-.195 2.72 2.72 0 0 1-1.392-1.858 2.143 2.143 0 0 1-.082-.327l.623-.002.081.327a2.722 2.722 0 0 0 1.393 1.857c.379.146.785.209 1.191.186" fill="#95AACB"/><path d="M176.415 396.071l-.623.003a4.645 4.645 0 0 1-.128-.855l.623-.003c.021.288.064.574.128.855z" fill="#AFC0DB"/><path d="M176.288 395.216l-.623.002a4.78 4.78 0 0 1-.001-.718l.623-.003c-.018.239-.018.48.001.719z" fill="#AFC0DB"/><path d="M176.284 394.496l-.623.003c.021-.264.063-.525.125-.783l.623-.002c-.06.257-.102.519-.125.782z" fill="#BBCCE7"/><path d="M176.409 393.731l-.623.003a.89.89 0 0 1 0-.146c.096-.365.238-.718.423-1.047l.622-.003a5.062 5.062 0 0 0-.422 1.048v.154m.456-1.23l-.641.003c.208-.39.476-.744.793-1.049l.622-.003c-.312.31-.579.663-.792 1.049m.811-1.05l-.623.003.099-.1.623-.003-.1.091" fill="#BBCCE7"/><path d="M177.708 389.37c.216-.128.37-.111.478-.002.133.17.226.369.272.581l.236.782c.44-.222.925-.339 1.416-.342.27-.011.535.074.749.239.215.166.365.401.426.666a1.29 1.29 0 0 1-.511 1.64 2.263 2.263 0 0 1-.847.24c-.283.016-.56.091-.812.222a1.405 1.405 0 0 0-.567.603c-.132.285-.154.61-.062.91a.914.914 0 0 0 .254.463c.246.152.537.209.822.161.288-.047.586-.075.902-.104.748-.14 1.519.02 2.151.446a2.937 2.937 0 0 1 1.229 1.834 5.343 5.343 0 0 1 .006 3.076 4.437 4.437 0 0 1-1.511 2.354l.327 1.1c.182.618.12 1.01-.196 1.202-.315.193-.568-.043-.75-.661l-.309-1.036a3.427 3.427 0 0 1-2.03.326 1.226 1.226 0 0 1-.976-.851 1.566 1.566 0 0 1-.003-1.038c.103-.299.311-.549.586-.703.316-.129.651-.207.992-.231a3.215 3.215 0 0 0 1.244-.36 1.29 1.29 0 0 0 .558-.703 1.572 1.572 0 0 0-.002-1.038c-.133-.479-.368-.751-.705-.816a3.83 3.83 0 0 0-1.255.005 3.959 3.959 0 0 1-1.994-.129 2.691 2.691 0 0 1-.905-.772 2.738 2.738 0 0 1-.489-1.088 5.323 5.323 0 0 1-.006-2.839 4.567 4.567 0 0 1 1.313-2.19l-.245-.845c-.155-.536-.093-.919.214-1.102z" fill="#fff"/><path d="M1231.87 11.407l1.42 2.512a10.241 10.241 0 0 1-5.87-4.11L1226 7.297a10.241 10.241 0 0 0 5.87 4.11z" fill="#2BA96C"/><path d="M1226 7.297l1.42 2.512-.3-.504-1.42-2.512c.09.174.2.332.3.504z" fill="#28734C"/><path d="M1253.17-8.57l1.42 2.512c1.74 3.159 1.62 7.334-.87 11.39a19.467 19.467 0 0 1-7.18 6.677l-1.42-2.512a19.413 19.413 0 0 0 7.18-6.678c2.49-4.044 2.65-8.228.87-11.39z" fill="#2BA96C"/><path d="M1245.16 9.477l1.42 2.512a17.974 17.974 0 0 1-13.29 1.93l-1.42-2.513c4.51 1.099 9.28.406 13.29-1.929z" fill="#35B477"/><path d="M1231.87 11.406c-7.1-2.012-9.48-9.211-5.32-15.999 4.17-6.788 13.36-10.64 20.47-8.596 7.11 2.044 9.48 9.213 5.32 15.988s-13.36 10.65-20.47 8.607z" fill="#50DD99"/><path d="M1237.57 0l.18.738c-.13-.33-.25-.664-.36-.988l-.19-.739c.09.332.23.659.37.977" fill="#95AACB"/><path d="M1232.14 2.41l.19.791-.17-.23-.18-.75.17.231" fill="#BBCCE7"/><path d="M1231.96 2.158l.19.749a4.243 4.243 0 0 1-.57-1.053l-.17-.696c.12.36.31.698.54 1.002" fill="#BBCCE7"/><path d="M1246.92-.794l.18.75a2.11 2.11 0 0 1-.34.084l-.19-.739c.12-.036.23-.082.34-.138m-.33.181l.18.74c-.08.03-.17.052-.25.062l-.19-.738.26-.064z" fill="#AFC0DB"/><path d="M1246.32-.591l.19.738a2.86 2.86 0 0 1-.26.063l-.19-.749c.09-.016.18-.037.26-.063" fill="#AFC0DB"/><path d="M1246.05-.571l.19.75-.22-.015c-.09-.01-.17-.029-.25-.054l-.18-.74c.08.02.17.033.25.042a.72.72 0 0 0 .21.017z" fill="#BBCCE7"/><path d="M1245.59-.628l.18.738a1.337 1.337 0 0 1-.42-.18l-.18-.74c.13.08.27.14.42.182z" fill="#BBCCE7"/><path d="M1230.77 3.981l.17.696-.03-.118-.18-.749.09.113" fill="#DAE4F6"/><path d="M1233.13 3.345l.19.739-.93.532-.19-.736.93-.535z" fill="#95AACB"/><path d="M1232.2 3.88l.18.75-.2.05-.18-.739c.06-.03.12-.064.18-.1" fill="#BBCCE7"/><path d="M1232.02 3.981l.18.739c-.11.06-.23.112-.35.154l-.19-.75c.13-.022.25-.051.37-.09" fill="#BBCCE7"/><path d="M1231.71 4.114l.18.749-.19.047-.19-.749a.743.743 0 0 0 .21-.05m-.26.064l.18.75-.16.039-.18-.739a.723.723 0 0 0 .16-.04m-.17.01l.18.739a.532.532 0 0 1-.21-.028l-.18-.739c.07.019.14.028.21.028z" fill="#BBCCE7"/><path d="M1231.08 4.167l.18.739a.593.593 0 0 1-.18-.07l-.18-.739c.05.031.11.056.17.073" fill="#BBCCE7"/><path d="M1230.91 4.095l.18.738-.14-.113-.18-.738.14.113z" fill="#BBCCE7"/><path d="M1241.16-.268l.19.75c.13.474.17.971.1 1.46a3.2 3.2 0 0 1-.65 1.297 3.37 3.37 0 0 1-1.15.894c-.12.073-.24.137-.37.191l-.18-.739.37-.191c.44-.21.83-.516 1.15-.894.31-.379.53-.822.65-1.296.07-.493.02-.994-.12-1.47" fill="#95AACB"/><path d="M1239.11 3.582l.18.74a5.54 5.54 0 0 1-.98.397l-.18-.74c.33-.107.66-.24.98-.397zm-.98.398l.18.74c-.28.09-.56.16-.85.208l-.19-.739c.29-.048.58-.117.86-.208z" fill="#AFC0DB"/><path d="M1237.27 4.19l.19.74a6.04 6.04 0 0 1-.97.077l-.18-.74c.32-.003.64-.028.96-.077z" fill="#BBCCE7"/><path d="M1236.33 4.263l.18.74a.863.863 0 0 1-.17.042 5.53 5.53 0 0 1-1.37-.2l-.18-.74c.45.118.9.185 1.37.2.06-.015.12-.028.18-.044m-1.59-.187l.18.76a5.108 5.108 0 0 1-1.47-.639l-.18-.739c.45.282.95.497 1.47.64m-1.48-.661l.18.738-.15-.088-.18-.739.14.091" fill="#BBCCE7"/><path d="M1230.77 3.978c-.21-.22-.24-.408-.14-.568.17-.207.38-.375.62-.49l.86-.507a3.976 3.976 0 0 1-.82-1.584 1.44 1.44 0 0 1 .07-.959c.14-.302.37-.549.67-.698a1.586 1.586 0 0 1 2.1.135c.23.275.41.594.52.938.1.332.27.639.5.9.24.251.54.426.88.501.38.075.77.007 1.1-.19.2-.094.37-.246.48-.434.11-.336.09-.699-.05-1.023-.14-.33-.26-.675-.38-1.042a3.565 3.565 0 0 1-.09-2.685c.32-.873.98-1.586 1.83-1.988a6.51 6.51 0 0 1 3.65-.894c1.17.015 2.31.407 3.23 1.118l1.21-.706c.69-.394 1.17-.433 1.49-.114.32.32.11.689-.57 1.083l-1.14.665c.55.657.89 1.465.97 2.318.02.279-.03.558-.16.806s-.33.456-.57.6c-.36.237-.8.344-1.23.302a1.591 1.591 0 0 1-1.01-.493c-.24-.34-.43-.715-.56-1.113a3.872 3.872 0 0 0-.78-1.375c-.27-.267-.62-.43-1-.46a1.92 1.92 0 0 0-1.23.301c-.53.296-.79.654-.77 1.074.04.513.16 1.016.37 1.489.34.754.49 1.582.42 2.407-.12.475-.34.918-.66 1.297-.31.379-.7.685-1.15.895a6.51 6.51 0 0 1-3.37.825 5.587 5.587 0 0 1-2.98-.93l-.94.536c-.59.338-1.06.374-1.37.063z" fill="#fff"/></g><g clip-path="url(#h)"><path d="M357.443 256.064l-3.435 1.15a12.793 12.793 0 0 1 6.455-6.219l3.435-1.15a12.8 12.8 0 0 0-6.455 6.219z" fill="#2BA96C"/><path d="M363.898 249.845l-3.435 1.15.692-.25 3.436-1.149c-.236.069-.457.166-.693.249zm13.187 36.914l-3.436 1.15c-4.307 1.385-9.432.263-13.851-3.726a24.18 24.18 0 0 1-6.552-10.333l3.435-1.15a24.06 24.06 0 0 0 6.552 10.333c4.405 3.989 9.53 5.167 13.852 3.726z" fill="#2BA96C"/><path d="M356.695 272.755l-3.435 1.15a22.162 22.162 0 0 1 .748-16.691l3.435-1.15a22.162 22.162 0 0 0-.748 16.691z" fill="#35B477"/><path d="M357.442 256.064c4.156-8.214 13.603-9.446 20.999-2.77 7.397 6.676 9.987 18.81 5.79 27.024-4.197 8.214-13.602 9.433-20.985 2.771-7.383-6.663-10.001-18.811-5.804-27.025z" fill="#2CD282"/><path d="M375.131 280.691l-.955.05c-.332.018-.641-.327-.887-1.049l.955-.05c.259.722.555 1.067.901 1.049" fill="#7D94BA"/><path d="M374.228 279.643l-.954.064-.553-1.566.968-.051.539 1.553z" fill="#7D94BA"/><path d="M373.984 272.651l-.954.05c.035-.101.062-.204.081-.309l.954-.05a2.752 2.752 0 0 1-.081.309z" fill="#AFC0DB"/><path d="M374.065 272.341l-.954.051a2.875 2.875 0 0 0-.019-.36l.954-.05c.02.123.027.249.02.373m.037-.39l-.955.05a1.369 1.369 0 0 0-.017-.332l.954-.05c.019.11.025.221.018.332zm-.018-.332l-.955.05c0-.134-.007-.268-.021-.401l.955-.05c.02.128.027.258.02.387" fill="#95AACB"/><path d="M374.01 271.249l-.954.05a1.2 1.2 0 0 0-.01-.18c-.246-.722-.626-1.105-1.13-1.189l.954-.05c.522.074.904.47 1.145 1.188l.009.18" fill="#7D94BA"/><path d="M372.815 269.883l-.954.05a4.493 4.493 0 0 0-.82-.027l.955-.05c.273-.03.549-.021.819.027z" fill="#8397B8"/><path d="M370.181 265.693l-.954.05c.439-.092.879-.157 1.306-.221l.954-.05c-.429.023-.867.129-1.292.22" fill="#95AACB"/><path d="M369.924 274.764l-.955.05c.444-.16.903-.277 1.369-.349.471-.074.931-.21 1.366-.405l.968-.05c-.458.197-.941.33-1.435.394a6.15 6.15 0 0 0-1.368.363" fill="#BBCCE7"/><path d="M372.742 274.006l-.969.051c.154-.067.303-.144.446-.232.127-.083.243-.182.345-.295l.968-.051a1.683 1.683 0 0 1-.345.296l-.445.245m.79-.555l-.968.051c.135-.146.248-.31.335-.489l.968-.051a2.1 2.1 0 0 1-.335.489z" fill="#BBCCE7"/><path d="M373.867 272.976l-.969.051c.054-.11.099-.224.135-.34l.954-.05c-.032.111-.072.22-.121.325m-5.38-14.476l-1.024.054.325-.156.968-.051-.324.156" fill="#BBCCE7"/><path d="M368.839 258.329l-.968.051a5.345 5.345 0 0 1 1.433-.45l.899-.047a4.677 4.677 0 0 0-1.364.432" fill="#BBCCE7"/><path d="M371.299 278.784l-.954.05a2.625 2.625 0 0 1-.751-.03 1.892 1.892 0 0 1-1.562-1.222c-.004-.069-.008-.152-.081-.218l.968-.051c-.004.074 0 .148.012.222a1.888 1.888 0 0 0 1.562 1.222c.248.043.5.058.751.043" fill="#95AACB"/><path d="M368.96 277.297l-.968.051a2.615 2.615 0 0 1-.024-.442l.955-.051c.017.149.048.296.092.44" fill="#AFC0DB"/><path d="M368.869 276.858l-.955.05a1.366 1.366 0 0 1-.017-.332l.954-.05.018.332z" fill="#AFC0DB"/><path d="M368.85 276.526l-.955.05a2.829 2.829 0 0 1-.017-.332l.968-.05c-.001.111.005.221.018.332" fill="#AFC0DB"/><path d="M368.887 276.191l-.968.051.069-.267c.033-.098.074-.193.124-.284l.954-.05a2.853 2.853 0 0 0-.109.297.899.899 0 0 0-.07.253z" fill="#BBCCE7"/><path d="M369.066 275.641l-.954.05c.079-.176.188-.336.322-.475l.954-.05a2.245 2.245 0 0 0-.322.475z" fill="#BBCCE7"/><path d="M369.39 275.166l-.955.05c.121-.135.26-.254.412-.354l.954-.05a2.49 2.49 0 0 0-.412.341" fill="#BBCCE7"/><path d="M366.866 256.449l-.899.047.152-.008.968-.051-.161.092" fill="#DAE4F6"/><path d="M367.095 259.488l-.955.05-.44-1.253.954-.064.441 1.267z" fill="#95AACB"/><path d="M366.654 258.221l-.968.051-.014-.263.954-.05c.023.084.051.165.083.246" fill="#BBCCE7"/><path d="M366.574 257.976l-.955.05a2.969 2.969 0 0 1-.107-.466l.968-.051c-.002.157.006.314.025.47" fill="#BBCCE7"/><path d="M366.483 257.564l-.968.051-.013-.249.968-.051a.83.83 0 0 0 .014.263m-.019-.332l-.968.051-.011-.207.955-.05c-.003.069 0 .138.011.207m.029-.21l-.954.05a.679.679 0 0 1 .083-.254l.955-.05a1.052 1.052 0 0 0-.084.254z" fill="#BBCCE7"/><path d="M366.564 256.783l-.954.05a.621.621 0 0 1 .128-.2l.954-.051a.936.936 0 0 0-.129.188" fill="#BBCCE7"/><path d="M366.694 256.596l-.954.05.172-.147.955-.05-.173.147z" fill="#BBCCE7"/><path d="M369.665 270.145l-.968.051a4.551 4.551 0 0 1-1.828-.21 4.144 4.144 0 0 1-2.279-2.724 3.356 3.356 0 0 1-.151-.491l.955-.05.15.491a4.16 4.16 0 0 0 2.279 2.724c.594.194 1.221.26 1.841.195" fill="#95AACB"/><path d="M365.398 266.734l-.955.051a7.003 7.003 0 0 1-.261-1.291l.954-.05a8.7 8.7 0 0 0 .262 1.29z" fill="#AFC0DB"/><path d="M365.136 265.444l-.954.05a7.247 7.247 0 0 1-.058-1.092l.955-.05c-.009.365.01.73.057 1.092z" fill="#AFC0DB"/><path d="M365.077 264.352l-.954.05c.011-.403.055-.804.131-1.2l.955-.05a8.62 8.62 0 0 0-.132 1.2z" fill="#BBCCE7"/><path d="M365.21 263.18l-.954.05a1.377 1.377 0 0 1-.012-.222 6.8 6.8 0 0 1 .567-1.625l.955-.05a7.621 7.621 0 0 0-.567 1.625l.012.235m.606-1.904l-.982.052a6.429 6.429 0 0 1 1.134-1.655l.955-.05a7.046 7.046 0 0 0-1.134 1.655m1.163-1.657l-.955.05.144-.16.955-.05-.145.147" fill="#BBCCE7"/><path d="M366.868 256.448c.322-.211.559-.195.733-.038.218.249.375.544.462.864l.422 1.17a4.915 4.915 0 0 1 2.145-.625 1.786 1.786 0 0 1 1.87 1.289 1.949 1.949 0 0 1-.658 2.531c-.395.224-.83.369-1.281.428-.433.044-.851.18-1.228.397a2.15 2.15 0 0 0-.823.959 1.926 1.926 0 0 0-.025 1.388c.071.265.218.504.425.685.388.212.839.277 1.271.183.44-.092.894-.158 1.376-.225a4.48 4.48 0 0 1 3.332.518 4.479 4.479 0 0 1 2.024 2.697c.542 1.5.627 3.127.245 4.675a6.736 6.736 0 0 1-2.137 3.691l.586 1.648c.326.926.26 1.526-.209 1.842-.469.315-.875-.024-1.201-.95l-.553-1.552a5.295 5.295 0 0 1-3.087.647 1.882 1.882 0 0 1-1.562-1.222 2.373 2.373 0 0 1-.083-1.577c.135-.462.435-.858.844-1.112a5.02 5.02 0 0 1 1.503-.426 4.95 4.95 0 0 0 1.881-.639c.391-.262.676-.656.802-1.11a2.386 2.386 0 0 0-.083-1.577c-.241-.718-.622-1.114-1.144-1.189a5.945 5.945 0 0 0-1.923.101 6.143 6.143 0 0 1-3.068-.047 4.166 4.166 0 0 1-2.279-2.724 8.058 8.058 0 0 1-.226-4.316 6.924 6.924 0 0 1 1.846-3.426l-.441-1.266c-.278-.804-.212-1.39.244-1.692z" fill="#fff"/></g><g clip-path="url(#i)"><path d="M1047.81 120.635l-.65 3.564a12.83 12.83 0 0 1-2.33-8.654l.65-3.564c-.29 3.072.54 6.145 2.33 8.654zm-2.33-8.654l-.65 3.563.11-.727.65-3.563c-.05.239-.07.48-.11.727zm38.7 6.249l-.65 3.564c-.87 4.441-4.32 8.39-9.95 10.337a24.182 24.182 0 0 1-12.21.757l.65-3.564c4.07.804 8.27.544 12.21-.757 5.62-1.935 9.12-5.857 9.95-10.337z" fill="#2BA96C"/><path d="M1062.07 129.339l-.65 3.563a22.182 22.182 0 0 1-14.26-8.704l.65-3.564a22.188 22.188 0 0 0 14.26 8.705z" fill="#35B477"/><path d="M1047.81 120.634c-5.19-7.601-1.71-16.471 7.7-19.731 9.42-3.26 21.3.322 26.47 7.96 5.17 7.637 1.7 16.465-7.69 19.719-9.4 3.255-21.3-.31-26.48-7.948z" fill="#2CD282"/><path d="M1077.92 117.017l-.42.86c-.14.299-.59.404-1.35.271l.42-.86c.76.12 1.2.028 1.35-.284" fill="#7D94BA"/><path d="M1076.56 117.3l-.4.867-1.64-.271.42-.872 1.62.276z" fill="#7D94BA"/><path d="M1070.32 114.142l-.41.86a2.17 2.17 0 0 0-.23-.22l.41-.86c.08.068.16.142.23.22z" fill="#AFC0DB"/><path d="M1070.09 113.922l-.42.86c-.1-.059-.21-.112-.32-.157l.42-.86c.11.042.23.096.33.163m-.32-.221l-.42.86c-.09-.06-.19-.108-.3-.144l.42-.861c.11.036.21.085.3.145z" fill="#95AACB"/><path d="M1069.48 113.563l-.42.86a3.525 3.525 0 0 0-.36-.175l.42-.86c.12.044.24.101.35.169" fill="#95AACB"/><path d="M1069.11 113.443l-.42.861a1.48 1.48 0 0 0-.16-.079c-.75-.133-1.27.016-1.59.417l.42-.86c.31-.421.85-.565 1.59-.43l.16.079" fill="#7D94BA"/><path d="M1067.33 113.832l-.41.86c-.16.222-.3.458-.42.705l.41-.86c.11-.254.25-.491.42-.705z" fill="#8397B8"/><path d="M1062.39 114.119l-.41.861c.13-.429.28-.846.43-1.251l.42-.86c-.19.386-.31.821-.43 1.238" fill="#95AACB"/><path d="M1070.22 118.72l-.42.86c.07-.466.19-.924.35-1.368.17-.448.27-.916.31-1.391l.42-.873a5.55 5.55 0 0 1-.35 1.448c-.16.443-.28.904-.34 1.373" fill="#BBCCE7"/><path d="M1070.91 115.886l-.42.872c.01-.166.02-.334.01-.501a1.684 1.684 0 0 0-.09-.445l.42-.873c.05.143.08.293.09.445v.508m-.1-.959l-.43.873a2.072 2.072 0 0 0-.26-.53l.42-.873c.11.164.2.342.27.53zm-.27-.53l-.42.873a1.99 1.99 0 0 0-.24-.282l.42-.86c.08.081.16.17.23.263m-15.28-2.268l-.45.923.02-.36.43-.872-.02.359" fill="#BBCCE7"/><path d="M1055.29 111.745l-.42.873c.03-.503.13-.998.3-1.472l.39-.811c-.16.451-.26.924-.28 1.404" fill="#BBCCE7"/><path d="M1074.4 119.453l-.42.86c-.09.232-.23.449-.39.643-.2.286-.48.51-.8.647a1.88 1.88 0 0 1-1.02.132c-.06-.03-.14-.066-.23-.034l.42-.873c.07.04.13.072.2.097a1.892 1.892 0 0 0 1.83-.779c.15-.196.29-.41.4-.637" fill="#95AACB"/><path d="M1071.97 120.785l-.42.873a2.726 2.726 0 0 1-.4-.193l.42-.86c.13.056.28.1.42.13m-.45-.081l-.42.86c-.1-.036-.2-.084-.3-.145l.42-.86.3.145z" fill="#AFC0DB"/><path d="M1071.24 120.509l-.42.86c-.1-.042-.2-.091-.29-.145l.42-.873c.09.054.19.103.3.145" fill="#AFC0DB"/><path d="M1070.97 120.315l-.43.872-.2-.189a2.115 2.115 0 0 1-.19-.246l.42-.86c.06.084.13.164.21.239.05.07.11.132.19.184z" fill="#BBCCE7"/><path d="M1070.57 119.892l-.42.861c-.11-.154-.2-.327-.26-.511l.42-.861c.06.181.15.353.26.511zm-.26-.511l-.42.86c-.06-.171-.1-.35-.11-.531l.42-.86c.01.178.04.354.1.525" fill="#BBCCE7"/><path d="M1052.7 112.565l-.4.81.07-.137.42-.873v.186" fill="#DAE4F6"/><path d="M1055.47 113.83l-.42.861-1.31-.219.41-.866 1.32.224z" fill="#95AACB"/><path d="M1054.15 113.605l-.43.873c-.08-.042-.16-.079-.23-.115l.41-.86c.09.02.17.036.26.046" fill="#BBCCE7"/><path d="M1053.89 113.557l-.41.861a2.958 2.958 0 0 1-.46-.131l.42-.872c.13.077.28.146.42.205" fill="#BBCCE7"/><path d="M1053.49 113.438l-.43.873-.22-.109.42-.872c.07.05.15.089.24.114m-.3-.144l-.42.873-.19-.091.42-.86c.06.036.12.066.19.09" fill="#BBCCE7"/><path d="M1053.03 113.186l-.42.86a.612.612 0 0 1-.18-.196l.41-.86c.06.073.12.139.19.196zm-.19-.196l-.41.86a.77.77 0 0 1-.12-.209l.42-.86c.02.072.06.14.1.203" fill="#BBCCE7"/><path d="M1052.74 112.787l-.42.86-.04-.222.41-.86.05.222z" fill="#BBCCE7"/><path d="M1066.04 116.718l-.42.873a4.483 4.483 0 0 1-1.07 1.5 4.124 4.124 0 0 1-3.48.683 3.169 3.169 0 0 1-.5-.105l.41-.86.51.105c.59.15 1.21.167 1.82.049.6-.118 1.17-.368 1.66-.732.46-.427.82-.944 1.06-1.519" fill="#95AACB"/><path d="M1061 118.813l-.42.86a7.236 7.236 0 0 1-1.26-.393l.42-.86c.41.162.83.294 1.26.393z" fill="#AFC0DB"/><path d="M1059.74 118.42l-.42.86a6.828 6.828 0 0 1-.98-.477l.42-.86c.31.184.64.343.98.477z" fill="#AFC0DB"/><path d="M1058.76 117.943l-.42.86a7.172 7.172 0 0 1-.99-.693l.42-.86c.31.254.64.485.99.693z" fill="#BBCCE7"/><path d="M1057.79 117.261l-.41.861a1.157 1.157 0 0 1-.2-.097 6.406 6.406 0 0 1-1.15-1.28l.41-.86c.34.468.72.897 1.15 1.28.08.036.14.066.21.102m-1.37-1.449l-.43.886a6.35 6.35 0 0 1-.9-1.792l.41-.86c.22.637.52 1.24.91 1.791" fill="#BBCCE7"/><path d="M1055.53 114.025l-.42.861-.07-.204.42-.86.05.197" fill="#BBCCE7"/><path d="M1052.7 112.563c-.03-.384.09-.584.32-.661.32-.07.65-.066.97.013l1.23.194c0-.754.16-1.5.49-2.18.17-.379.46-.688.83-.873.37-.186.8-.237 1.2-.144.48.011.95.201 1.3.533.35.332.56.782.6 1.264.01.454-.08.905-.24 1.328-.17.401-.25.833-.25 1.267.03.43.18.843.45 1.184.3.372.73.619 1.2.691.27.066.55.052.81-.041.37-.238.64-.602.77-1.026.13-.429.29-.859.47-1.313a4.46 4.46 0 0 1 2.06-2.67 4.477 4.477 0 0 1 3.34-.472 8.06 8.06 0 0 1 4.21 2.04 6.736 6.736 0 0 1 2.2 3.651l1.73.282c.97.161 1.46.508 1.51 1.071.05.563-.44.755-1.41.594l-1.63-.264a5.237 5.237 0 0 1-.92 3.016 1.878 1.878 0 0 1-1.82.78 2.359 2.359 0 0 1-1.42-.688 1.93 1.93 0 0 1-.57-1.276c.04-.522.15-1.036.35-1.522.25-.622.37-1.287.35-1.956a1.958 1.958 0 0 0-.59-1.238 2.376 2.376 0 0 0-1.42-.688c-.74-.135-1.28.008-1.59.43a5.896 5.896 0 0 0-.84 1.733 6.148 6.148 0 0 1-1.52 2.664 4.16 4.16 0 0 1-3.49.683 8.057 8.057 0 0 1-3.89-1.883c-1-.865-1.73-2-2.11-3.269l-1.32-.224c-.84-.145-1.32-.485-1.36-1.03z" fill="#fff"/></g><defs><linearGradient id="a" x1="-382" y1="-216" x2="-213.832" y2="687.283" gradientUnits="userSpaceOnUse"><stop offset=".119" stop-color="#5AA9DC"/><stop offset=".472" stop-color="#4887E6"/><stop offset="1" stop-color="#2952EE"/></linearGradient><linearGradient id="f" x1="-382" y1="-216" x2="-213.832" y2="687.283" gradientUnits="userSpaceOnUse"><stop offset=".119" stop-color="#5AA9DC"/><stop offset=".472" stop-color="#4887E6"/><stop offset="1" stop-color="#2952EE"/></linearGradient><clipPath id="b"><path fill="#fff" transform="rotate(-44.289 778.984 -1014.82)" d="M0 0h22.286v26H0z"/></clipPath><clipPath id="c"><path fill="#fff" transform="rotate(2.826 -5868.51 25242.564)" d="M0 0h22.286v26H0z"/></clipPath><clipPath id="d"><path fill="#fff" transform="rotate(-21.617 286.06 -708.155)" d="M0 0h20.571v24H0z"/></clipPath><clipPath id="e"><path fill="#fff" transform="rotate(-100.801 149.756 41.43)" d="M0 0h27.251v31.793H0z"/></clipPath><clipPath id="h"><path fill="#fff" transform="translate(352 249)" d="M0 0h34.241v39.56H0z"/></clipPath><clipPath id="i"><path fill="#fff" transform="rotate(-61.168 622.708 -817.983)" d="M0 0h34.241v39.56H0z"/></clipPath></defs></svg>