<svg width="94" height="209" viewBox="0 0 94 209" fill="none" xmlns="http://www.w3.org/2000/svg"><path d="M9 164.705V50m13.5 122.432V57.727m14 122.432V65.455m14 122.431V73.182m14 122.432V80.909M78.5 204V89.295" opacity=".35" stroke="#EBF2F7" stroke-linecap="round"/><path opacity=".1" d="M17 140.308c-8.5 0-4.5 11.192-16 11.192v8.603a4 4 0 0 0 2.113 3.527l78 41.721c2.665 1.426 5.887-.505 5.887-3.527V103c-12.5 0-13 18.239-19 18.239s-5.99-7.047-18-7.047-13.5 31.919-20.5 31.919-6.5-5.803-12.5-5.803z" fill="#99C5F9"/><path d="M4 153.5c11.5 0 7.5-11.192 16-11.192 6 0 5.5 5.803 12.5 5.803s8.49-31.919 20.5-31.919 12 7.047 18 7.047S77.5 105 90 105" stroke="#D2DAE4" stroke-width="2" stroke-linecap="round" opacity=".8" filter="url(#a)"/><path d="M1 151.5c11.5 0 7.5-11.192 16-11.192 6 0 5.5 5.803 12.5 5.803s8.49-31.919 20.5-31.919 12 7.047 18 7.047S74.5 103 87 103" stroke="#569FF5" stroke-width="2" stroke-linecap="round"/><path d="M65.987 34.055l-57-32.36C7.654.94 6 1.903 6 3.436v3.771a2 2 0 0 0 1.013 1.74l57 32.358c1.333.757 2.987-.206 2.987-1.74v-3.77a2 2 0 0 0-1.013-1.74zM6 19.433v1.772a2 2 0 0 0 1.014 1.74l33 18.709c1.333.755 2.986-.208 2.986-1.74V38.14a2 2 0 0 0-1.014-1.74l-33-18.708C7.653 16.937 6 17.9 6 19.433z" fill="#F3F7FA"/><path opacity=".6" d="M11.072 70.132c.314.168.558.442.689.773.097.309.14.632.126.956v1.11a11.83 11.83 0 0 1 2.263 1.882 4.033 4.033 0 0 1 1.32 2.642c0 1.082-.505 1.335-1.489.773a9.479 9.479 0 0 1-1.32-1.054 8.523 8.523 0 0 0-1.293-1.04 1.756 1.756 0 0 0-1.11-.295c-.338 0-.506.337-.506.815-.01.286.048.57.168.83a5.621 5.621 0 0 0 1.138 1.404l1.335 1.25c2.67 2.586 4 5.05 3.99 7.392a3.26 3.26 0 0 1-1.278 3.02 3.428 3.428 0 0 1-3.274-.098v1.56c0 .871-.267 1.152-.815.83a1.897 1.897 0 0 1-.815-1.771v-1.476a13.898 13.898 0 0 1-3.12-2.81A4.215 4.215 0 0 1 6 84.507c0-.548.155-.872.464-.998a1.405 1.405 0 0 1 1.194.253c.55.393 1.066.83 1.546 1.307.6.596 1.27 1.12 1.995 1.56a1.307 1.307 0 0 0 1.138.196c.323-.126.492-.436.492-.941a2.965 2.965 0 0 0-.66-1.855 19.778 19.778 0 0 0-1.855-1.925A19.56 19.56 0 0 1 7.419 78.9a7.18 7.18 0 0 1-1.222-3.92 3.05 3.05 0 0 1 1.166-2.81 3.204 3.204 0 0 1 2.894-.085v-1.194c0-.843.282-1.068.816-.759z" fill="#569FF5"/><defs><filter id="a" x="0" y="101" width="94" height="56.5" filterUnits="userSpaceOnUse" color-interpolation-filters="sRGB"><feFlood flood-opacity="0" result="BackgroundImageFix"/><feBlend in="SourceGraphic" in2="BackgroundImageFix" result="shape"/><feGaussianBlur stdDeviation="1.5" result="effect1_foregroundBlur"/></filter></defs></svg>