<svg width="257" height="135" viewBox="0 0 257 135" fill="none" xmlns="http://www.w3.org/2000/svg"><path d="M216.168 115.808c-42.738 28.101-64.357 3.365-82.577 3.948-11.802-1.963-47.697 16.713-72.114 15.151-24.417-1.562-45.226-26.55-23.083-64.663C60.536 32.13 99.497.242 185.568 0c87.775-.246 73.337 87.706 30.6 115.807z" fill="url(#a)"/><rect x="13.146" y="92.872" width="33.803" height=".939" rx=".469" fill="#2FC37C"/><rect y="92.872" width="5.634" height=".939" rx=".469" fill="#2FC37C"/><rect x="32.857" y="72.212" width="33.803" height=".939" rx=".469" fill="#2FC37C"/><path fill-rule="evenodd" clip-rule="evenodd" d="M193.731 17.314a2.114 2.114 0 1 0 0-4.228 2.114 2.114 0 0 0 0 4.228zm0 1a3.114 3.114 0 1 0 0-6.228 3.114 3.114 0 0 0 0 6.228z" fill="#2FC37C" filter="url(#b)"/><g filter="url(#c)" fill-rule="evenodd" clip-rule="evenodd" fill="#2FC37C"><path d="M203.436 28.793a.5.5 0 0 1 .5-.5h6.228a.5.5 0 0 1 0 1h-6.228a.5.5 0 0 1-.5-.5z"/><path d="M207.053 25.179a.5.5 0 0 1 .5.5v6.228a.5.5 0 0 1-1 0V25.68a.5.5 0 0 1 .5-.5z"/></g><rect x="52.578" y="82.51" width="3.756" height=".939" rx=".469" fill="#2FC37C"/><rect x="25.35" y="72.214" width="3.756" height=".939" rx=".469" fill="#2FC37C"/><rect x="30.043" y="82.51" width="18.78" height=".939" rx=".469" fill="#2FC37C"/><path fill-rule="evenodd" clip-rule="evenodd" d="M181.696 105.924a3.226 3.226 0 1 0 0-6.452 3.226 3.226 0 0 0 0 6.452zm0 1a4.226 4.226 0 1 0 0-8.452 4.226 4.226 0 0 0 0 8.452z" fill="#2FC37C" filter="url(#d)"/><path fill-rule="evenodd" clip-rule="evenodd" d="M56.64 121.542a2.114 2.114 0 1 0 0-4.227 2.114 2.114 0 0 0 0 4.227zm0 1a3.114 3.114 0 1 0 0-6.228 3.114 3.114 0 0 0 0 6.228z" fill="#2FC37C" filter="url(#e)"/><g filter="url(#f)" fill-rule="evenodd" clip-rule="evenodd" fill="#2FC37C"><path d="M69.93 110.038a.5.5 0 0 1 .5-.5h6.228a.5.5 0 0 1 0 1H70.43a.5.5 0 0 1-.5-.5z"/><path d="M73.547 106.424a.5.5 0 0 1 .5.5v6.228a.5.5 0 0 1-1 0v-6.228a.5.5 0 0 1 .5-.5z"/></g><rect x="89.838" y="37.464" width="3.756" height=".939" rx=".469" fill="#2FC37C"/><rect x="74.805" y="37.465" width="9.39" height=".939" rx=".469" fill="#2FC37C"/><path d="M95.308 89.578l.002 14.445a2 2 0 0 0 2.406 1.958l158.627-32.854-161.035 16.45zm.002-2.817l-.003-34.273 160.099 20.64L95.311 86.76z" fill="#CBD2E7"/><path d="M256.041 73.315L117.054 32.7a4 4 0 0 0-4.015 1.078l-18.037 18.9 161.039 20.638z" fill="#F1F3F9"/><rect x="113.621" y="24.293" width="83.57" height="52.583" rx="4" fill="#1C9F70"/><path d="M117.618 76.733h75.57a4 4 0 0 0 4-4v-1.487l-39.647-25.085a4 4 0 0 0-4.277 0l-39.646 25.085v1.487a4 4 0 0 0 4 4z" fill="#0A9362"/><path d="M193.189 24.433h-75.57a4 4 0 0 0-4 4v1.488l39.646 25.085a4 4 0 0 0 4.278 0l39.646-25.085v-1.488a4 4 0 0 0-4-4z" fill="#2FC37C" filter="url(#g)"/><path d="M87.803 59.02l-29.961 30.8c-1.303 1.34-.222 3.575 1.637 3.385l196.405-20.12-168.08-14.066z" fill="#fff"/><defs><filter id="b" x="188.617" y="10.086" width="10.228" height="10.228" filterUnits="userSpaceOnUse" color-interpolation-filters="sRGB"><feFlood flood-opacity="0" result="BackgroundImageFix"/><feColorMatrix in="SourceAlpha" values="0 0 0 0 0 0 0 0 0 0 0 0 0 0 0 0 0 0 127 0"/><feOffset/><feGaussianBlur stdDeviation="1"/><feColorMatrix values="0 0 0 0 0.0322917 0 0 0 0 0.258333 0 0 0 0 0.122708 0 0 0 0.25 0"/><feBlend in2="BackgroundImageFix" result="effect1_dropShadow"/><feBlend in="SourceGraphic" in2="effect1_dropShadow" result="shape"/></filter><filter id="c" x="201.436" y="23.179" width="11.228" height="11.228" filterUnits="userSpaceOnUse" color-interpolation-filters="sRGB"><feFlood flood-opacity="0" result="BackgroundImageFix"/><feColorMatrix in="SourceAlpha" values="0 0 0 0 0 0 0 0 0 0 0 0 0 0 0 0 0 0 127 0"/><feOffset/><feGaussianBlur stdDeviation="1"/><feColorMatrix values="0 0 0 0 0.0322917 0 0 0 0 0.258333 0 0 0 0 0.122708 0 0 0 0.25 0"/><feBlend in2="BackgroundImageFix" result="effect1_dropShadow"/><feBlend in="SourceGraphic" in2="effect1_dropShadow" result="shape"/></filter><filter id="d" x="175.471" y="96.473" width="12.451" height="12.451" filterUnits="userSpaceOnUse" color-interpolation-filters="sRGB"><feFlood flood-opacity="0" result="BackgroundImageFix"/><feColorMatrix in="SourceAlpha" values="0 0 0 0 0 0 0 0 0 0 0 0 0 0 0 0 0 0 127 0"/><feOffset/><feGaussianBlur stdDeviation="1"/><feColorMatrix values="0 0 0 0 0.0322917 0 0 0 0 0.258333 0 0 0 0 0.122708 0 0 0 0.25 0"/><feBlend in2="BackgroundImageFix" result="effect1_dropShadow"/><feBlend in="SourceGraphic" in2="effect1_dropShadow" result="shape"/></filter><filter id="e" x="51.525" y="114.314" width="10.228" height="10.228" filterUnits="userSpaceOnUse" color-interpolation-filters="sRGB"><feFlood flood-opacity="0" result="BackgroundImageFix"/><feColorMatrix in="SourceAlpha" values="0 0 0 0 0 0 0 0 0 0 0 0 0 0 0 0 0 0 127 0"/><feOffset/><feGaussianBlur stdDeviation="1"/><feColorMatrix values="0 0 0 0 0.0322917 0 0 0 0 0.258333 0 0 0 0 0.122708 0 0 0 0.25 0"/><feBlend in2="BackgroundImageFix" result="effect1_dropShadow"/><feBlend in="SourceGraphic" in2="effect1_dropShadow" result="shape"/></filter><filter id="f" x="67.93" y="104.424" width="11.228" height="11.228" filterUnits="userSpaceOnUse" color-interpolation-filters="sRGB"><feFlood flood-opacity="0" result="BackgroundImageFix"/><feColorMatrix in="SourceAlpha" values="0 0 0 0 0 0 0 0 0 0 0 0 0 0 0 0 0 0 127 0"/><feOffset/><feGaussianBlur stdDeviation="1"/><feColorMatrix values="0 0 0 0 0.0322917 0 0 0 0 0.258333 0 0 0 0 0.122708 0 0 0 0.25 0"/><feBlend in2="BackgroundImageFix" result="effect1_dropShadow"/><feBlend in="SourceGraphic" in2="effect1_dropShadow" result="shape"/></filter><filter id="g" x="109.619" y="22.433" width="91.57" height="39.192" filterUnits="userSpaceOnUse" color-interpolation-filters="sRGB"><feFlood flood-opacity="0" result="BackgroundImageFix"/><feColorMatrix in="SourceAlpha" values="0 0 0 0 0 0 0 0 0 0 0 0 0 0 0 0 0 0 127 0"/><feOffset dy="2"/><feGaussianBlur stdDeviation="2"/><feColorMatrix values="0 0 0 0 0.0322917 0 0 0 0 0.258333 0 0 0 0 0.122708 0 0 0 0.15 0"/><feBlend in2="BackgroundImageFix" result="effect1_dropShadow"/><feBlend in="SourceGraphic" in2="effect1_dropShadow" result="shape"/></filter><linearGradient id="a" x1="-18.648" y1="87.128" x2="138.789" y2="218.115" gradientUnits="userSpaceOnUse"><stop stop-color="#5AA9DC"/><stop offset=".535" stop-color="#7148E6"/><stop offset="1" stop-color="#2952EE"/></linearGradient></defs></svg>