<svg width="776" height="138" viewBox="0 0 776 138" fill="none" xmlns="http://www.w3.org/2000/svg"><path d="M44.374 108.643c-18.353 0-32.891-5.465-43.614-16.394l11.909-16.703c8.867 9.28 19.796 13.92 32.787 13.92 5.671 0 10.053-1.083 13.146-3.249 3.197-2.268 4.795-5 4.795-8.197 0-2.783-1.495-5.103-4.485-6.96-2.887-1.855-6.547-3.195-10.981-4.02-4.33-.825-9.073-2.01-14.229-3.558-5.155-1.546-9.95-3.299-14.383-5.258-4.33-1.959-7.99-5.052-10.98-9.28-2.888-4.227-4.331-9.382-4.331-15.466 0-8.867 3.557-16.29 10.671-22.27 7.115-6.084 16.6-9.125 28.457-9.125 16.394 0 29.798 4.794 40.212 14.383L71.13 32.551c-8.145-7.527-18.147-11.29-30.004-11.29-4.64 0-8.249.927-10.826 2.783-2.578 1.856-3.867 4.382-3.867 7.579 0 2.474 1.444 4.588 4.33 6.34 2.99 1.65 6.651 2.888 10.982 3.712 4.433.825 9.176 2.063 14.228 3.712 5.156 1.547 9.898 3.351 14.229 5.413 4.433 1.96 8.094 5.104 10.98 9.435 2.99 4.227 4.486 9.33 4.486 15.31 0 9.9-3.557 17.89-10.672 23.973-7.01 6.083-17.218 9.125-30.622 9.125zm65.36-84.599c-3.196 0-5.98-1.134-8.351-3.402-2.269-2.372-3.403-5.156-3.403-8.352 0-3.196 1.134-5.928 3.403-8.197 2.371-2.268 5.155-3.402 8.351-3.402 3.3 0 6.084 1.134 8.352 3.402 2.268 2.269 3.403 5 3.403 8.197 0 3.196-1.135 5.98-3.403 8.352-2.268 2.268-5.052 3.402-8.352 3.402zm9.899 82.743H99.991v-74.7h19.642v74.7zm89.537 0h-19.642v-45.16c0-9.28-4.588-13.92-13.765-13.92-7.114 0-12.785 2.939-17.012 8.816v50.264h-19.642v-74.7h19.642v9.743c6.495-7.733 15.208-11.6 26.137-11.6 8.042 0 14.074 2.114 18.095 6.342 4.125 4.227 6.187 10.053 6.187 17.476v52.739zm50.125 30.313c-12.888 0-23.611-3.711-32.169-11.135l8.815-14.229c5.568 6.187 13.353 9.28 23.354 9.28 5.568 0 10.362-1.495 14.383-4.485 4.125-2.887 6.187-7.682 6.187-14.384v-7.578c-6.187 7.836-13.868 11.754-23.044 11.754-9.692 0-17.632-3.299-23.818-9.898-6.083-6.702-9.125-16.085-9.125-28.148 0-11.96 3.042-21.291 9.125-27.994 6.186-6.701 14.126-10.052 23.818-10.052 9.279 0 16.961 3.815 23.044 11.444v-9.588h19.796v69.596c0 6.805-1.237 12.631-3.712 17.477-2.371 4.846-5.619 8.506-9.743 10.981-4.124 2.474-8.403 4.227-12.837 5.258-4.33 1.134-9.022 1.701-14.074 1.701zm3.712-48.253c3.196 0 6.392-.825 9.589-2.475 3.196-1.65 5.619-3.66 7.269-6.032V56.213c-1.65-2.474-4.073-4.485-7.269-6.031-3.093-1.65-6.29-2.475-9.589-2.475-5.671 0-10.259 1.856-13.765 5.568-3.402 3.712-5.104 8.712-5.104 15.002 0 6.29 1.702 11.29 5.104 15.002 3.506 3.712 8.094 5.568 13.765 5.568zm75.777 17.94h-19.642V3.629h19.642v103.158zm54.584 1.856c-11.548 0-21.085-3.609-28.612-10.826-7.527-7.217-11.29-16.703-11.29-28.457 0-11.033 3.609-20.312 10.826-27.84 7.321-7.526 16.6-11.29 27.839-11.29 11.135 0 20.157 3.816 27.065 11.445 6.908 7.527 10.362 17.425 10.362 29.695v4.33h-55.522c.618 4.95 2.835 9.074 6.65 12.373 3.815 3.3 8.764 4.95 14.847 4.95 3.3 0 6.857-.67 10.672-2.011 3.918-1.34 7.011-3.145 9.279-5.413l8.661 12.682c-7.526 6.908-17.786 10.362-30.777 10.362zM410.535 62.4c-.309-4.227-2.01-8.042-5.104-11.445-2.99-3.402-7.423-5.104-13.3-5.104-5.568 0-9.898 1.702-12.992 5.104-3.093 3.3-4.897 7.114-5.413 11.445h36.809zm109.9 46.243c-18.353 0-32.891-5.465-43.614-16.394l11.909-16.703c8.867 9.28 19.797 13.92 32.788 13.92 5.671 0 10.053-1.083 13.146-3.249 3.196-2.268 4.795-5 4.795-8.197 0-2.783-1.495-5.103-4.486-6.96-2.887-1.855-6.547-3.195-10.98-4.02-4.331-.825-9.074-2.01-14.229-3.558-5.155-1.546-9.95-3.299-14.383-5.258-4.331-1.959-7.991-5.052-10.981-9.28-2.887-4.227-4.331-9.382-4.331-15.466 0-8.867 3.557-16.29 10.672-22.27 7.114-6.084 16.6-9.125 28.457-9.125 16.394 0 29.798 4.794 40.212 14.383l-12.218 16.085c-8.146-7.527-18.147-11.29-30.004-11.29-4.64 0-8.249.927-10.827 2.783-2.577 1.856-3.866 4.382-3.866 7.579 0 2.474 1.443 4.588 4.33 6.34 2.99 1.65 6.651 2.888 10.981 3.712 4.434.825 9.177 2.063 14.229 3.712 5.155 1.547 9.898 3.351 14.228 5.413 4.434 1.96 8.094 5.104 10.981 9.435 2.99 4.227 4.486 9.33 4.486 15.31 0 9.9-3.558 17.89-10.672 23.973-7.011 6.083-17.219 9.125-30.623 9.125zm96.757-1.856h-40.676V3.629h40.676c16.188 0 29.334 4.743 39.438 14.229 10.208 9.486 15.311 21.962 15.311 37.427 0 15.466-5.052 27.942-15.156 37.428-10.105 9.383-23.302 14.074-39.593 14.074zm0-19.332c9.898 0 17.734-3.093 23.508-9.28 5.877-6.186 8.816-13.816 8.816-22.89 0-9.485-2.836-17.218-8.506-23.198-5.671-6.084-13.611-9.125-23.818-9.125h-18.714v64.493h18.714zm158.646 19.332h-27.066l-31.241-41.294-8.042 9.589v31.705h-21.962V3.629h21.962v46.089l36.499-46.089h27.066l-40.985 48.409 43.769 54.749z" opacity=".2" fill="#B6A0E6"/></svg>