<svg width="903" height="160" viewBox="0 0 903 160" fill="none" xmlns="http://www.w3.org/2000/svg"><path opacity=".1" d="M51.227 126.16c-21.36 0-38.28-6.36-50.76-19.08l13.86-19.44c10.32 10.8 23.04 16.2 38.16 16.2 6.6 0 11.7-1.26 15.3-3.78 3.72-2.64 5.58-5.82 5.58-9.54 0-3.24-1.74-5.94-5.22-8.1-3.36-2.16-7.62-3.72-12.78-4.68-5.04-.96-10.56-2.34-16.56-4.14-6-1.8-11.58-3.84-16.74-6.12-5.04-2.28-9.3-5.88-12.78-10.8-3.36-4.92-5.04-10.92-5.04-18 0-10.32 4.14-18.96 12.42-25.92 8.28-7.08 19.32-10.62 33.12-10.62 19.08 0 34.68 5.58 46.8 16.74L82.368 37.6c-9.48-8.76-21.12-13.14-34.92-13.14-5.4 0-9.6 1.08-12.6 3.24s-4.5 5.1-4.5 8.82c0 2.88 1.68 5.34 5.04 7.38 3.48 1.92 7.74 3.36 12.78 4.32 5.16.96 10.68 2.4 16.56 4.32 6 1.8 11.52 3.9 16.56 6.3 5.16 2.28 9.42 5.94 12.78 10.98 3.48 4.92 5.22 10.86 5.22 17.82 0 11.52-4.14 20.82-12.42 27.9-8.16 7.08-20.04 10.62-35.64 10.62zm76.07-98.46c-3.72 0-6.96-1.32-9.72-3.96-2.64-2.76-3.96-6-3.96-9.72 0-3.72 1.32-6.9 3.96-9.54 2.76-2.64 6-3.96 9.72-3.96 3.84 0 7.08 1.32 9.72 3.96 2.64 2.64 3.96 5.82 3.96 9.54 0 3.72-1.32 6.96-3.96 9.72-2.64 2.64-5.88 3.96-9.72 3.96zm11.52 96.3h-22.86V37.06h22.86V124zm104.208 0h-22.86V71.44c0-10.8-5.34-16.2-16.02-16.2-8.28 0-14.88 3.42-19.8 10.26V124h-22.86V37.06h22.86V48.4c7.56-9 17.7-13.5 30.42-13.5 9.36 0 16.38 2.46 21.06 7.38 4.8 4.92 7.2 11.7 7.2 20.34V124zm58.338 35.28c-15 0-27.48-4.32-37.44-12.96l10.26-16.56c6.48 7.2 15.54 10.8 27.18 10.8 6.48 0 12.06-1.74 16.74-5.22 4.8-3.36 7.2-8.94 7.2-16.74v-8.82c-7.2 9.12-16.14 13.68-26.82 13.68-11.28 0-20.52-3.84-27.72-11.52-7.08-7.8-10.62-18.72-10.62-32.76 0-13.92 3.54-24.78 10.62-32.58 7.2-7.8 16.44-11.7 27.72-11.7 10.8 0 19.74 4.44 26.82 13.32V37.06h23.04v81c0 7.92-1.44 14.7-4.32 20.34-2.76 5.64-6.54 9.9-11.34 12.78-4.8 2.88-9.78 4.92-14.94 6.12-5.04 1.32-10.5 1.98-16.38 1.98zm4.32-56.16c3.72 0 7.44-.96 11.16-2.88 3.72-1.92 6.54-4.26 8.46-7.02V65.14c-1.92-2.88-4.74-5.22-8.46-7.02-3.6-1.92-7.32-2.88-11.16-2.88-6.6 0-11.94 2.16-16.02 6.48-3.96 4.32-5.94 10.14-5.94 17.46s1.98 13.14 5.94 17.46c4.08 4.32 9.42 6.48 16.02 6.48zM393.876 124h-22.86V3.94h22.86V124zm63.527 2.16c-13.44 0-24.54-4.2-33.3-12.6-8.76-8.4-13.14-19.44-13.14-33.12 0-12.84 4.2-23.64 12.6-32.4 8.52-8.76 19.32-13.14 32.4-13.14 12.96 0 23.46 4.44 31.5 13.32 8.04 8.76 12.06 20.28 12.06 34.56v5.04h-64.62c.72 5.76 3.3 10.56 7.74 14.4s10.2 5.76 17.28 5.76c3.84 0 7.98-.78 12.42-2.34 4.56-1.56 8.16-3.66 10.8-6.3l10.08 14.76c-8.76 8.04-20.7 12.06-35.82 12.06zm19.98-53.82c-.36-4.92-2.34-9.36-5.94-13.32-3.48-3.96-8.64-5.94-15.48-5.94-6.48 0-11.52 1.98-15.12 5.94-3.6 3.84-5.7 8.28-6.3 13.32h42.84zm127.907 53.82c-21.36 0-38.28-6.36-50.76-19.08l13.86-19.44c10.32 10.8 23.04 16.2 38.16 16.2 6.6 0 11.7-1.26 15.3-3.78 3.72-2.64 5.58-5.82 5.58-9.54 0-3.24-1.74-5.94-5.22-8.1-3.36-2.16-7.62-3.72-12.78-4.68-5.04-.96-10.56-2.34-16.56-4.14-6-1.8-11.58-3.84-16.74-6.12-5.04-2.28-9.3-5.88-12.78-10.8-3.36-4.92-5.04-10.92-5.04-18 0-10.32 4.14-18.96 12.42-25.92 8.28-7.08 19.32-10.62 33.12-10.62 19.08 0 34.68 5.58 46.8 16.74L636.43 37.6c-9.48-8.76-21.12-13.14-34.92-13.14-5.4 0-9.6 1.08-12.6 3.24s-4.5 5.1-4.5 8.82c0 2.88 1.68 5.34 5.04 7.38 3.48 1.92 7.74 3.36 12.78 4.32 5.16.96 10.68 2.4 16.56 4.32 6 1.8 11.52 3.9 16.56 6.3 5.16 2.28 9.42 5.94 12.78 10.98 3.48 4.92 5.22 10.86 5.22 17.82 0 11.52-4.14 20.82-12.42 27.9-8.16 7.08-20.04 10.62-35.64 10.62zM717.9 124h-47.34V3.94h47.34c18.84 0 34.14 5.52 45.9 16.56 11.88 11.04 17.82 25.56 17.82 43.56 0 18-5.88 32.52-17.64 43.56C752.22 118.54 736.86 124 717.9 124zm0-22.5c11.52 0 20.64-3.6 27.36-10.8 6.84-7.2 10.26-16.08 10.26-26.64 0-11.04-3.3-20.04-9.9-27-6.6-7.08-15.84-10.62-27.72-10.62h-21.78v75.06h21.78zM902.539 124h-31.5l-36.36-48.06-9.36 11.16V124h-25.56V3.94h25.56v53.64l42.48-53.64h31.5l-47.7 56.34 50.94 63.72z" fill="#276BFF"/></svg>