<svg width="462" height="119" viewBox="0 0 462 119" fill="none" xmlns="http://www.w3.org/2000/svg"><path d="M175.291 116.944h-44.316c-2.866-5.59 0-9.249 0-9.249l45.472-7.321 11.175-38.921c3.083-7.322 7.59-11.602 19.921-6.36l1.659 15.608c-3.468 5.267-11.406 27.515-16.955 35.838-5.549 8.324-14.002 10.662-16.956 10.405z" fill="url(#a)"/><path d="M166.695 65.497V51.624l18.497-13.873c3.469 2.44 11.715 9.018 16.956 15.8-8.632 8.323-27.232 11.432-35.453 11.946z" fill="#2C2E32"/><path d="M332.998 11.219l-18.382 15.738a5 5 0 0 0-.546 7.05l4.768 5.57 5.02-4.3a20.95 20.95 0 0 0 5.89-8.355c1.235-3.186 2.76-7.113 3.781-9.863 1.729-4.661-.03-5.255-.531-5.84z" fill="url(#b)"/><path d="M255.712 116.922h152.601s6.551-6.166 0-14.258c-19.139-2.569-70.597-13.41-104.817-17.726-42.775-5.395-42.775 0-47.784 0-24.046 0-58.703-43.417-72.833-61.657-.899 2.44-3.699 11.02-9.248 25.818 4.624 2.313 7.055 24.734 12.673 33.526 19.093 29.88 51.543 34.297 69.408 34.297z" fill="url(#c)"/><path d="M182.879 24.263c-.899 2.441-3.699 11.022-9.248 25.82 4.624 2.312 7.055 24.733 12.673 33.525l7.326-45.857c-4.244-5.141-7.912-9.823-10.751-13.488z" fill="url(#d)"/><path d="M182.88 36.21c-.308 2.158-5.652 10.79-8.478 14.258.129.257.54 1.002 1.156 1.927 6.166-3.854 8.478-12.717 9.249-15.414 0-1.927-.694 1.695-1.927-.771z" fill="#EFC5CC"/><path d="M148.971 41.605c.771-2.313-2.698-27.746.771-28.517 28.13-5.01 48.554-1.156 30.443 30.829-12.332 18.497-23.892 5.395-28.131-3.468-.257.257-1.234.847-3.083 1.156z" fill="#FFD1D9"/><path d="M441.84 116.922h-33.141v-12.331h8.771c3.102 0 6.165.71 8.968 2.038 3.56 1.687 8.345 3.943 11.548 5.512 4.933 2.416 3.854 4.011 3.854 4.781z" fill="url(#e)"/><path d="M327.39 31.585l-.386 1.157-8.863 5.78-1.541-1.542c2.158-2.466 4.624-5.01 10.79-5.395zm83.237 73.006h-1.542l-4.624 12.331h6.936c3.083-5.241 1.285-10.404-.77-12.331z" fill="#DCB9BF"/><path d="M316.596 41.605l16.955 48.94 30.058 6.936-36.223-65.125s-10.79.77-10.79 9.249z" fill="url(#f)"/><path d="M148.199 23.108v-2.313l28.517 3.854c-1.67.385-4.779.462-6.937.77-9.634 1.377-20.424 2.698-21.58-2.311z" fill="#EFC4CC"/><path d="M255.713 117.008h152.601s6.551-6.166 0-14.259c-19.139-2.569-70.597-13.41-104.817-17.726-42.774-5.395-42.774 0-47.784 0v31.985z" fill="#3729A9"/><path d="M156.677 24.649c-12.331.308-12.075-9.89-10.405-15.029 2.184-4.11 13.416-12.11 30.058-8.863 15.8 3.083 31.985 24.534 38.536 38.536-1.927 14.258-23.507 17.34-23.507 17.34-.385-.77-.994-1.926-1.542-3.082-2.774-5.858-7.064-15.8-8.863-20.039 1.542-.642 4.393-2.928 3.468-6.936-.924-4.008-5.266-2.955-7.321-1.927-1.67-.128-8.093-.308-20.424 0z" fill="#2C2E32"/><path d="M137.928 98.02l6.282 7.134a6 6 0 0 1 1.148 1.951l2.68 7.52.703-4.98c.771-5.468-3.036-10.527-8.505-11.3l-2.308-.325z" fill="#FFD1D9"/><path d="M87.807 76.5l30.334 35.625 3.468 3.083 16.57-3.083 6.166-6.936-28.306-31.326a2 2 0 0 0-1.484-.659H89.33c-1.706 0-2.629 1.998-1.523 3.297z" fill="#2C2E32"/><path d="M92.705 75.902l31.583 35.452 18.128-5.78-26.366-29.672H92.705z" fill="#4395E1"/><path d="M99 79l3.5 4h18l-3.655-4H99z" fill="#fff"/><path d="M99 79l3.5 4h8l-3.655-4H99z" fill="#392CAC"/><path d="M105.199 86l3.5 4h18l-3.654-4h-17.846z" fill="#fff"/><path d="M105.199 86l3.5 4h8l-3.654-4h-7.846z" fill="#392CAC"/><path d="M111.4 93l3.5 4h18l-3.654-4H111.4zm6.2 7l3.5 4h18l-3.655-4H117.6z" fill="#fff"/><path d="M111.4 93l3.5 4h8l-3.654-4H111.4zm6.2 7l3.5 4h8l-3.655-4H117.6z" fill="#392CAC"/><path d="M117.627 101.553l8.992 8.645v6.551H116.59a5 5 0 0 1-5-5v-7.331l5.773 6.735a1.656 1.656 0 0 0 2.428.093 1.616 1.616 0 0 0 .103-2.19c-.554-.653-1.211-1.398-1.753-1.94-1.76-1.761-2.055-3.756-1.893-5.175.079-.689.879-.869 1.379-.388z" fill="#FFD1D9"/><path d="M170.666 116.944H126.35c-2.866-5.59 0-9.248 0-9.248l45.472-7.322 11.175-38.921c3.083-7.322 9.249-12.563 21.58-7.322v16.57c-3.468 5.267-11.406 27.515-16.955 35.839-5.549 8.323-14.002 10.661-16.956 10.404z" fill="url(#g)"/><path d="M281.147 98.793v1.561c0 5.523-4.477 10-10 10h-3.102m-6.166-20.809v26.975" stroke="#1B0D8A" stroke-width="2"/><path d="M160.531 46.602c1.384.308 4.428-.184 5.535-4.612" stroke="#E1A6B1" stroke-width="1.3" stroke-linecap="round"/><path d="M178.256 26.496c2.28-1.098 6.253-1.694 3.908 4.704l-3.908-4.704z" fill="url(#h)"/><rect x="20" y="104" width="55" height="13" rx="2" fill="url(#i)"/><rect x="26" y="93" width="55" height="11" rx="2" fill="url(#j)"/><rect x="17" y="84" width="55" height="9" rx="2" fill="url(#k)"/><rect x="23" y="87" width="16" height="3" rx="1" fill="#fff"/><rect x="76" y="95" width="7" height="3" rx="1" transform="rotate(90 76 95)" fill="#fff"/><rect x="71" y="95" width="7" height="3" rx="1" transform="rotate(90 71 95)" fill="#fff"/><rect x="68" y="106" width="9" height="3" rx="1" transform="rotate(90 68 106)" fill="#fff"/><rect x="30" y="106" width="9" height="3" rx="1" transform="rotate(90 30 106)" fill="#fff"/><path fill="#4537EF" d="M0 119h462v-2H0z"/><defs><linearGradient id="a" x1="197.139" y1="95.169" x2="181.225" y2="123.577" gradientUnits="userSpaceOnUse"><stop stop-color="#3730C0"/><stop offset="1" stop-color="#5049D2"/></linearGradient><linearGradient id="b" x1="326" y1="35.5" x2="321.941" y2="20.686" gradientUnits="userSpaceOnUse"><stop stop-color="#EAC7CD"/><stop offset="1" stop-color="#FFD1D9"/></linearGradient><linearGradient id="c" x1="194.44" y1="60.66" x2="263.804" y2="109.215" gradientUnits="userSpaceOnUse"><stop stop-color="#463FCC"/><stop offset="1" stop-color="#6E68DF"/></linearGradient><linearGradient id="d" x1="183.63" y1="24.263" x2="183.65" y2="61.643" gradientUnits="userSpaceOnUse"><stop stop-color="#EAC7CD"/><stop offset="1" stop-color="#FFD1D9"/></linearGradient><linearGradient id="e" x1="417.5" y1="117" x2="429.754" y2="104.2" gradientUnits="userSpaceOnUse"><stop stop-color="#EAC7CD"/><stop offset="1" stop-color="#FFD1D9"/></linearGradient><linearGradient id="f" x1="340.102" y1="32.356" x2="340.102" y2="97.481" gradientUnits="userSpaceOnUse"><stop stop-color="#3729A9"/><stop offset="1" stop-color="#261994"/></linearGradient><linearGradient id="g" x1="203.481" y1="66.37" x2="201.373" y2="92.515" gradientUnits="userSpaceOnUse"><stop stop-color="#4A43CE"/><stop offset="1" stop-color="#6E68DF"/></linearGradient><linearGradient id="h" x1="183.141" y1="26.026" x2="180.321" y2="28.955" gradientUnits="userSpaceOnUse"><stop stop-color="#EAB7C1"/><stop offset="1" stop-color="#FFD1D9"/></linearGradient><linearGradient id="i" x1="47.5" y1="104" x2="47.5" y2="117" gradientUnits="userSpaceOnUse"><stop stop-color="#3729A9"/><stop offset="1" stop-color="#544DD3"/></linearGradient><linearGradient id="j" x1="53.5" y1="93" x2="53.5" y2="104" gradientUnits="userSpaceOnUse"><stop stop-color="#24B46F"/><stop offset=".505" stop-color="#2FC37C"/><stop offset="1" stop-color="#24B46F"/></linearGradient><linearGradient id="k" x1="44.5" y1="84" x2="44.5" y2="93" gradientUnits="userSpaceOnUse"><stop stop-color="#6F68DF"/><stop offset="1" stop-color="#4A43CE"/></linearGradient></defs></svg>